<?xml version="1.0" standalone="no"?>
<!DOCTYPE svg PUBLIC "-//W3C//DTD SVG 20010904//EN"
 "http://www.w3.org/TR/2001/REC-SVG-20010904/DTD/svg10.dtd">
<svg version="1.0" xmlns="http://www.w3.org/2000/svg"
 width="402.000000pt" height="323.000000pt" viewBox="0 0 402.000000 323.000000"
 preserveAspectRatio="xMidYMid meet">

<g transform="translate(0.000000,323.000000) scale(0.100000,-0.100000)"
fill="#000000" stroke="none">
<path d="M995 2437 c-27 -17 -51 -39 -53 -47 -1 -8 48 -103 110 -210 128 -221
129 -222 211 -170 33 21 47 37 47 53 0 23 -203 386 -224 399 -20 14 -41 8 -91
-25z"/>
<path d="M2300 2159 l0 -110 48 7 c26 3 50 8 55 11 10 6 9 147 -3 177 -8 23
-15 26 -55 26 l-45 0 0 -111z"/>
<path d="M2513 2152 c-7 -4 -15 -26 -19 -48 l-6 -40 56 -16 56 -15 0 57 c0 51
-2 58 -22 64 -31 8 -51 7 -65 -2z"/>
<path d="M2048 2124 c-44 -23 -45 -54 -5 -116 18 -29 55 -76 80 -104 45 -50
57 -74 38 -74 -5 0 -32 25 -60 56 l-50 57 -53 -17 c-94 -31 -174 -93 -244
-192 l-21 -29 -46 32 c-48 35 -188 105 -195 99 -2 -2 76 -142 173 -310 103
-178 175 -313 171 -321 -10 -26 -40 -17 -114 34 l-72 50 0 -28 c0 -57 31 -203
60 -282 72 -199 184 -311 278 -278 42 14 56 58 47 144 -4 36 -11 67 -15 70 -4
2 -20 -9 -35 -25 -37 -39 -64 -38 -103 3 -40 41 -40 67 -1 112 l32 36 -32 32
c-17 18 -31 42 -31 53 0 27 60 84 89 84 19 0 22 4 18 23 -16 62 -28 221 -23
285 11 120 72 280 97 255 6 -6 1 -25 -15 -54 -43 -74 -60 -175 -52 -308 6
-122 27 -236 44 -253 8 -8 22 -2 47 21 47 41 75 40 114 -4 40 -46 39 -63 -4
-105 l-35 -34 35 -36 c19 -20 35 -44 35 -54 0 -23 -63 -86 -86 -86 -9 0 -26 7
-36 17 -17 15 -18 13 -18 -66 0 -78 -2 -84 -29 -112 -16 -16 -39 -29 -50 -29
-26 0 -26 0 5 -66 74 -157 250 -264 432 -264 l74 0 -32 36 c-37 43 -56 81 -46
92 5 4 16 -4 25 -18 79 -121 228 -194 396 -195 140 0 179 33 237 201 116 336
-3 734 -258 860 -41 21 -74 41 -74 46 0 30 121 -26 191 -90 l52 -47 -5 60
c-22 228 -212 401 -420 382 -43 -4 -58 -2 -58 8 0 15 87 28 134 20 25 -5 41
-1 71 19 21 14 46 26 57 26 17 0 17 2 4 23 -22 35 -28 76 -16 113 7 19 18 34
27 34 11 0 13 -5 7 -17 -15 -33 -10 -100 10 -122 43 -48 76 -16 76 74 0 105
-25 125 -155 125 -92 0 -161 -16 -242 -55 -85 -42 -139 -99 -185 -194 -39 -80
-36 -77 -48 -65 -13 13 45 132 89 185 47 57 133 110 216 134 l77 22 -59 19
c-80 26 -200 24 -272 -4 -64 -25 -64 -26 -132 69 -46 63 -63 70 -111 43z m936
-1186 c25 -61 28 -78 14 -78 -11 0 -48 80 -48 104 0 19 23 1 34 -26z m43 -265
c-5 -100 -26 -174 -68 -242 -13 -22 -24 -30 -30 -24 -7 7 -3 22 11 44 36 59
60 155 60 240 0 67 3 79 16 79 15 0 16 -11 11 -97z"/>
<path d="M1262 1979 l-32 -21 21 -37 c34 -55 35 -56 74 -35 19 10 35 20 35 22
0 9 -53 92 -58 92 -4 0 -22 -10 -40 -21z"/>
<path d="M1335 1859 c-38 -22 -71 -41 -72 -43 -1 -1 22 -40 52 -88 118 -192
269 -360 410 -458 42 -28 78 -50 80 -49 4 5 -383 673 -393 677 -4 1 -39 -16
-77 -39z"/>
<path d="M1898 1153 l-27 -27 40 -43 40 -44 -41 -45 -42 -46 28 -29 c15 -16
33 -29 39 -29 6 0 26 16 45 35 19 19 38 35 42 35 4 0 25 -16 47 -35 45 -41 51
-42 79 -12 29 31 28 37 -13 77 -19 19 -35 39 -35 45 0 6 16 26 35 45 41 40 43
49 12 78 -32 30 -45 28 -89 -15 l-38 -37 -38 37 c-21 20 -42 37 -48 37 -5 0
-22 -12 -36 -27z"/>
</g>
</svg>
