<?xml version="1.0" standalone="no"?>
<!DOCTYPE svg PUBLIC "-//W3C//DTD SVG 20010904//EN"
 "http://www.w3.org/TR/2001/REC-SVG-20010904/DTD/svg10.dtd">
<svg version="1.0" xmlns="http://www.w3.org/2000/svg"
 width="285.000000pt" height="233.000000pt" viewBox="0 0 285.000000 233.000000"
 preserveAspectRatio="xMidYMid meet">

<g transform="translate(0.000000,233.000000) scale(0.100000,-0.100000)"
fill="#ffffff" stroke="none">
<path d="M1410 1926 c0 -10 -9 -14 -27 -13 -22 2 -29 -3 -31 -22 -5 -30 13
-50 30 -33 18 18 26 15 30 -10 3 -21 9 -23 58 -23 49 0 55 2 58 23 4 24 12 28
29 11 17 -17 33 -1 33 32 0 29 -2 30 -30 24 -23 -5 -30 -3 -30 9 0 13 -12 16
-60 16 -46 0 -60 -3 -60 -14z"/>
<path d="M832 1853 c-31 -44 -88 -189 -108 -278 -27 -116 -26 -313 3 -421 29
-107 73 -201 138 -299 54 -81 160 -205 175 -205 15 0 100 136 121 195 16 43
22 83 22 140 0 71 -6 97 -51 223 -28 78 -56 169 -63 202 -6 33 -16 60 -22 60
-5 0 -25 -16 -43 -35 -49 -52 -56 -150 -19 -260 11 -34 -42 34 -75 97 -68 126
-89 326 -54 508 17 93 9 119 -24 73z"/>
<path d="M2076 1872 c-4 -6 0 -48 9 -93 34 -181 12 -381 -55 -507 -33 -63 -86
-131 -75 -97 37 110 30 208 -19 260 -18 19 -38 35 -43 35 -6 0 -16 -27 -22
-60 -7 -33 -35 -124 -63 -202 -45 -126 -51 -152 -51 -223 0 -57 6 -97 22 -140
21 -59 106 -195 121 -195 15 0 121 124 175 205 65 98 109 192 138 299 29 108
30 305 3 421 -34 146 -120 329 -140 297z"/>
<path d="M1400 1778 c0 -20 -25 -24 -35 -8 -11 18 -35 -10 -35 -41 0 -32 16
-47 33 -30 19 19 37 12 37 -13 0 -28 16 -36 70 -36 54 0 70 8 70 36 0 25 18
32 37 13 17 -17 33 -2 33 30 0 31 -24 59 -35 41 -10 -16 -35 -12 -35 8 0 15
-10 17 -70 17 -60 0 -70 -2 -70 -17z"/>
<path d="M1390 1610 c0 -22 -20 -26 -37 -9 -20 20 -43 2 -43 -34 0 -36 23 -67
35 -47 13 22 44 11 47 -17 3 -23 9 -29 41 -34 20 -3 54 -3 75 0 31 5 37 11 40
34 3 28 34 39 47 17 12 -20 35 11 35 47 0 36 -23 54 -43 34 -17 -17 -37 -13
-37 9 0 18 -7 20 -80 20 -73 0 -80 -2 -80 -20z"/>
<path d="M1380 1423 c0 -16 -6 -23 -19 -23 -11 0 -23 5 -26 10 -20 32 -55 -18
-47 -68 4 -27 28 -40 45 -23 6 6 19 11 29 11 13 0 18 -8 18 -30 0 -25 5 -30
38 -39 20 -6 44 -11 52 -11 8 0 32 5 53 11 32 9 37 14 37 39 0 22 5 30 18 30
10 0 23 -5 29 -11 17 -17 41 -4 45 23 8 50 -27 100 -47 68 -3 -5 -15 -10 -26
-10 -13 0 -19 7 -19 23 0 21 -3 22 -90 22 -87 0 -90 -1 -90 -22z"/>
<path d="M1370 1213 c0 -16 -6 -23 -19 -23 -11 0 -23 5 -26 10 -3 6 -15 10
-26 10 -38 0 -48 -82 -13 -111 11 -9 18 -8 32 5 32 28 52 21 52 -19 0 -42 23
-55 100 -55 77 0 100 13 100 55 0 40 20 47 52 19 14 -13 21 -14 32 -5 35 29
25 111 -13 111 -11 0 -23 -4 -26 -10 -3 -5 -15 -10 -26 -10 -13 0 -19 7 -19
23 0 22 -3 22 -100 22 -97 0 -100 0 -100 -22z"/>
<path d="M1360 978 c0 -23 -4 -28 -24 -28 -13 0 -26 7 -30 15 -8 23 -34 18
-52 -10 -32 -48 11 -142 46 -100 7 8 23 15 36 15 21 0 24 -5 24 -35 0 -43 23
-55 110 -55 87 0 110 12 110 55 0 30 3 35 24 35 13 0 29 -7 36 -15 35 -42 78
52 46 100 -18 28 -44 33 -52 10 -4 -8 -17 -15 -30 -15 -20 0 -24 5 -24 28 l0
27 -110 0 -110 0 0 -27z"/>
<path d="M1350 725 c0 -30 -3 -35 -24 -35 -13 0 -29 7 -36 15 -18 21 -36 19
-54 -7 -29 -42 -10 -128 28 -128 8 0 19 7 26 15 7 8 23 15 36 15 21 0 24 -5
24 -40 0 -50 20 -60 120 -60 100 0 120 10 120 60 0 35 3 40 24 40 13 0 29 -7
36 -15 18 -21 36 -19 54 7 29 42 10 128 -28 128 -8 0 -19 -7 -26 -15 -7 -8
-23 -15 -36 -15 -18 0 -23 6 -26 33 -3 28 -6 31 -28 27 -38 -8 -152 -6 -182 3
-27 7 -28 6 -28 -28z"/>
</g>
</svg>
