<?xml version="1.0" standalone="no"?>
<!DOCTYPE svg PUBLIC "-//W3C//DTD SVG 20010904//EN"
 "http://www.w3.org/TR/2001/REC-SVG-20010904/DTD/svg10.dtd">
<svg version="1.0" xmlns="http://www.w3.org/2000/svg"
 width="45" height="80" viewBox="0 0 512.000000 512.000000"
 preserveAspectRatio="xMidYMid meet">

<g transform="translate(0.000000,512.000000) scale(0.100000,-0.100000)"
fill="#ffffff" stroke="none">
<path d="M3507 5105 c-217 -41 -404 -161 -524 -337 -39 -57 -50 -67 -67 -61
-41 14 -649 5 -750 -12 -412 -66 -787 -333 -996 -710 -114 -207 -168 -407
-177 -661 l-6 -161 -53 -12 c-176 -40 -328 -192 -364 -366 -7 -35 -10 -131 -8
-258 3 -176 6 -209 25 -259 25 -67 71 -136 123 -185 l38 -36 -30 -48 c-79
-129 -123 -326 -115 -514 7 -147 32 -249 92 -370 l44 -90 -334 -330 c-235
-231 -340 -341 -350 -367 -36 -91 -5 -189 79 -245 42 -29 57 -33 110 -33 38 1
73 7 93 18 18 9 179 160 358 335 179 175 329 317 333 315 4 -2 54 -27 112 -56
130 -65 233 -92 375 -99 263 -13 522 84 716 265 102 96 162 176 216 288 72
151 86 222 86 414 0 191 -15 266 -83 409 -54 113 -111 191 -206 281 -93 89
-165 138 -279 191 -144 68 -216 82 -405 83 -186 1 -261 -14 -394 -79 -38 -19
-71 -35 -73 -35 -2 0 -3 72 -3 160 l0 160 50 0 c64 0 109 19 143 59 37 44 47
89 47 209 l0 102 314 0 c346 0 422 8 578 60 331 111 589 360 718 692 29 75 30
75 50 13 20 -63 88 -194 141 -271 58 -84 211 -235 294 -291 91 -61 199 -113
310 -148 l100 -32 0 -429 c0 -316 -4 -449 -14 -504 -33 -184 -129 -408 -233
-543 -72 -93 -79 -107 -67 -129 19 -36 39 -32 91 18 134 131 232 329 290 586
19 85 22 132 25 539 l4 447 62 -5 c34 -2 68 -7 76 -9 19 -6 9 -821 -13 -939
-88 -491 -397 -902 -836 -1109 -203 -96 -369 -135 -610 -143 -91 -3 -171 -10
-177 -15 -18 -14 -16 -53 2 -68 22 -18 356 -7 455 15 110 24 297 88 381 130
386 195 676 522 811 918 l33 97 41 0 c129 0 295 97 373 218 61 95 73 149 78
343 6 210 -5 292 -53 389 -61 122 -196 225 -329 252 l-55 11 0 106 c0 99 -11
227 -25 304 -6 31 -3 36 51 78 162 125 281 357 300 589 8 92 -11 237 -33 263
-40 44 -88 -1 -73 -68 5 -22 10 -85 10 -141 0 -195 -67 -366 -198 -505 -41
-43 -77 -79 -81 -79 -4 0 -22 39 -41 88 -76 201 -170 345 -329 502 -127 127
-219 194 -359 265 -93 46 -286 115 -323 115 -29 0 -23 20 26 82 217 277 667
345 976 147 81 -52 140 -108 190 -181 48 -70 68 -83 97 -62 31 22 27 47 -17
113 -95 139 -258 254 -436 306 -114 33 -282 42 -398 20z m-477 -509 c173 -40
317 -101 458 -196 289 -194 498 -511 567 -861 21 -105 32 -363 17 -373 -6 -4
-40 -4 -75 0 l-64 6 -6 157 c-6 169 -27 282 -73 398 -33 85 -53 108 -87 99
-39 -9 -40 -36 -6 -122 17 -43 40 -119 50 -169 18 -86 38 -345 27 -345 -24 0
-178 60 -247 95 -302 157 -509 444 -566 787 -7 44 -28 68 -59 68 -35 0 -50
-27 -70 -125 -80 -409 -399 -731 -825 -831 -93 -23 -729 -33 -742 -13 -21 33
-3 263 32 396 25 101 72 213 127 307 65 110 203 253 317 327 49 32 96 63 103
69 20 17 14 48 -13 66 -24 16 -27 15 -95 -25 -358 -213 -570 -598 -570 -1038
l0 -113 -69 0 -70 0 -7 46 c-9 59 3 224 22 329 101 530 516 957 1029 1059 125
24 122 24 480 21 278 -2 354 -5 415 -19z m-2137 -2372 l-98 -96 -41 45 c-51
56 -83 122 -95 196 -12 75 -11 315 1 382 27 145 141 268 278 303 l47 12 3
-373 2 -374 -97 -95z m337 732 c0 -138 -8 -153 -87 -163 l-53 -6 0 142 0 141
70 0 70 0 0 -114z m3067 73 c70 -34 139 -103 175 -177 l33 -67 0 -230 0 -230
-29 -60 c-55 -111 -161 -192 -282 -214 -27 -5 -51 -8 -53 -6 -2 2 2 32 9 67 9
43 15 202 17 509 l5 447 41 -10 c23 -5 61 -18 84 -29z m-2514 -648 c257 -66
477 -252 589 -498 116 -256 89 -593 -67 -828 -213 -320 -588 -465 -960 -370
-305 78 -518 284 -612 592 -24 80 -27 103 -27 253 0 152 2 172 27 254 93 300
301 507 591 586 159 44 315 47 459 11z m-1147 -1903 c-171 -169 -325 -314
-342 -324 -81 -45 -190 49 -155 134 7 16 156 169 332 341 l320 313 78 -79 78
-78 -311 -307z"/>
<path d="M3466 4194 c-31 -31 -18 -57 74 -148 84 -85 91 -89 115 -78 19 9 25
19 25 42 0 24 -16 46 -84 115 -46 47 -91 85 -99 85 -9 0 -23 -7 -31 -16z"/>
<path d="M1441 2210 c-218 -46 -392 -173 -478 -350 -23 -47 -50 -114 -59 -150
-24 -89 -24 -272 0 -359 83 -303 317 -489 636 -508 397 -22 735 313 718 713
-2 57 -9 98 -17 108 -16 19 -55 21 -69 4 -5 -7 -9 -65 -10 -128 0 -89 -4 -130
-21 -180 -62 -194 -220 -348 -416 -406 -81 -24 -229 -24 -310 0 -319 95 -505
409 -425 720 52 204 202 358 420 432 76 26 241 25 329 -1 l64 -18 18 22 c48
59 -41 101 -226 107 -60 1 -130 -1 -154 -6z"/>
<path d="M1710 1875 l-216 -215 -39 41 c-68 71 -113 99 -158 99 -38 0 -47 -6
-124 -83 -79 -79 -83 -86 -83 -127 0 -43 2 -46 177 -222 186 -187 212 -204
264 -178 13 7 165 152 337 323 324 324 336 338 317 398 -9 28 -87 113 -139
151 -27 20 -51 28 -79 28 -39 0 -47 -7 -257 -215z m327 63 c29 -29 53 -57 53
-63 0 -13 -582 -595 -595 -595 -6 0 -80 70 -165 155 l-155 155 63 62 62 63 57
-56 c75 -73 101 -89 139 -89 44 0 84 33 289 239 99 100 184 181 190 181 5 0
33 -23 62 -52z"/>
<path d="M940 5000 c-16 -16 -20 -33 -20 -81 0 -76 12 -99 51 -99 36 0 49 27
49 106 0 41 -5 59 -20 74 -11 11 -24 20 -30 20 -5 0 -19 -9 -30 -20z"/>
<path d="M748 4809 c-25 -14 -24 -65 1 -79 11 -5 45 -10 76 -10 72 0 95 12 95
50 0 19 -7 33 -19 40 -25 13 -131 13 -153 -1z"/>
<path d="M1038 4809 c-25 -14 -24 -65 1 -79 11 -5 47 -10 81 -10 77 0 100 12
100 50 0 19 -7 33 -19 40 -25 13 -141 13 -163 -1z"/>
<path d="M930 4701 c-5 -11 -10 -49 -10 -85 0 -58 3 -67 24 -81 47 -31 76 6
76 96 0 66 -13 89 -50 89 -19 0 -33 -7 -40 -19z"/>
<path d="M408 4383 c-9 -10 -21 -35 -27 -55 -16 -50 -85 -143 -147 -197 -49
-43 -131 -91 -157 -91 -25 0 -49 -36 -45 -71 3 -30 8 -35 56 -54 117 -45 238
-164 288 -282 20 -47 33 -65 51 -69 43 -11 66 10 96 85 47 116 155 219 280
266 90 34 86 98 -10 133 -110 40 -249 182 -283 289 -20 61 -69 83 -102 46z
m71 -191 c35 -55 140 -159 189 -187 17 -11 32 -22 32 -25 0 -3 -19 -17 -43
-32 -57 -36 -156 -137 -187 -192 l-26 -44 -23 41 c-35 60 -117 144 -184 188
l-57 37 42 25 c68 40 134 103 180 173 23 35 43 64 44 64 1 0 16 -22 33 -48z"/>
<path d="M4814 3826 c-15 -11 -19 -27 -20 -78 -2 -86 8 -108 45 -108 40 0 51
23 51 104 0 56 -3 67 -22 80 -27 19 -29 20 -54 2z"/>
<path d="M4616 3624 c-9 -8 -16 -24 -16 -34 0 -36 28 -50 96 -50 51 0 68 4 84
20 11 11 20 25 20 30 0 6 -9 19 -20 30 -26 26 -140 29 -164 4z"/>
<path d="M4906 3624 c-9 -8 -16 -24 -16 -34 0 -36 27 -50 96 -50 81 0 104 11
104 50 0 39 -23 50 -104 50 -45 0 -69 -5 -80 -16z"/>
<path d="M4800 3514 c-6 -14 -10 -45 -10 -69 0 -67 14 -95 48 -95 43 0 52 17
52 95 0 78 -9 95 -52 95 -21 0 -31 -6 -38 -26z"/>
<path d="M4205 1355 c-24 -23 -25 -28 -25 -175 l0 -150 -154 0 c-149 0 -156
-1 -183 -24 l-28 -24 -3 -152 c-6 -265 -11 -260 208 -260 l160 0 0 -160 c0
-215 -17 -200 229 -200 l190 0 20 26 c19 24 21 40 21 180 l0 154 159 0 160 0
20 26 c19 25 21 40 21 204 0 239 13 224 -199 228 l-161 3 0 140 c0 145 -10
189 -45 203 -9 3 -95 6 -191 6 -172 0 -175 0 -199 -25z m335 -209 c0 -155 9
-190 52 -205 17 -6 96 -11 175 -11 l144 0 -3 -132 -3 -133 -162 -5 c-138 -4
-165 -8 -180 -23 -15 -15 -18 -40 -21 -177 l-4 -160 -134 0 -134 0 0 160 c0
212 12 200 -200 200 l-160 0 0 134 0 135 161 3 c209 4 199 -6 199 199 l0 149
135 0 135 0 0 -134z"/>
<path d="M3396 544 c-12 -12 -16 -38 -16 -115 l0 -99 -99 0 c-105 0 -131 -10
-131 -50 0 -40 26 -50 131 -50 l99 0 0 -99 c0 -104 10 -131 49 -131 34 0 41
21 41 127 l0 103 103 0 c112 0 127 6 127 52 0 39 -25 48 -134 48 l-96 0 0 103
c0 106 -7 127 -41 127 -10 0 -25 -7 -33 -16z"/>
</g>
</svg>
