<?xml version="1.0" standalone="no"?>
<!DOCTYPE svg PUBLIC "-//W3C//DTD SVG 20010904//EN"
 "http://www.w3.org/TR/2001/REC-SVG-20010904/DTD/svg10.dtd">
<svg version="1.0" xmlns="http://www.w3.org/2000/svg"
 width="512.000000pt" height="512.000000pt" viewBox="0 0 512.000000 512.000000"
 preserveAspectRatio="xMidYMid meet">

<g transform="translate(0.000000,512.000000) scale(0.100000,-0.100000)"
fill="#000000" stroke="none">
<path d="M1809 4829 c-19 -19 -20 -28 -14 -92 16 -175 57 -307 166 -538 81
-172 99 -239 99 -372 0 -54 5 -107 10 -118 10 -18 25 -19 348 -19 194 0 343 4
352 10 12 7 16 40 21 147 7 156 11 169 122 409 90 194 123 309 142 491 5 54 3
65 -15 83 -18 18 -32 20 -163 20 -106 0 -148 -4 -162 -14 -17 -12 -20 -33 -26
-152 -9 -177 -28 -233 -108 -315 -107 -109 -219 -106 -323 10 -66 73 -88 138
-100 301 -8 93 -16 140 -26 153 -13 15 -34 17 -159 17 -132 0 -145 -2 -164
-21z"/>
<path d="M2080 3550 c-19 -19 -20 -33 -20 -198 0 -161 2 -181 18 -195 17 -15
56 -17 350 -17 331 0 331 0 346 22 13 18 16 55 16 195 0 160 -2 175 -20 193
-19 19 -33 20 -345 20 -312 0 -326 -1 -345 -20z"/>
<path d="M1209 3400 c-131 -22 -276 -145 -329 -279 -64 -165 -43 -363 84 -761
31 -96 86 -291 122 -433 83 -329 92 -355 154 -410 65 -58 137 -81 255 -82 112
0 160 20 246 102 87 83 190 257 204 344 8 53 44 101 95 127 42 21 56 22 274
22 l229 0 51 39 c139 106 283 161 446 169 268 12 508 -99 665 -310 l42 -57 38
147 c21 81 61 221 90 312 100 314 125 429 125 584 0 160 -40 266 -134 359
-145 142 -337 172 -522 82 -107 -52 -172 -126 -219 -252 -126 -329 -177 -426
-268 -510 -105 -95 -250 -144 -432 -144 -201 0 -336 50 -450 165 -85 86 -129
167 -215 395 -34 91 -75 184 -91 207 -64 94 -179 164 -300 184 -71 11 -94 11
-160 0z m69 -516 c12 -8 22 -24 22 -34 0 -57 51 -96 100 -78 29 11 37 21 50
70 18 62 72 74 106 23 32 -48 -16 -154 -86 -194 -51 -28 -130 -32 -176 -8 -60
31 -114 114 -114 175 0 17 45 62 62 62 8 0 24 -7 36 -16z m2110 0 c12 -8 22
-26 22 -39 0 -27 37 -73 60 -76 51 -5 74 13 90 72 15 54 49 71 88 42 37 -27
39 -64 7 -129 -34 -70 -92 -107 -169 -107 -61 0 -102 19 -144 67 -28 32 -52
89 -52 124 0 17 45 62 62 62 8 0 24 -7 36 -16z m-1682 -379 c12 -8 24 -29 28
-46 9 -45 33 -69 71 -69 38 0 62 23 76 74 13 45 47 65 84 48 74 -34 9 -199
-92 -233 -117 -38 -232 32 -257 157 -5 22 -1 37 14 57 24 30 46 34 76 12z
m1252 -1 c12 -8 22 -26 22 -38 0 -39 37 -76 75 -76 38 0 75 37 75 76 0 30 41
58 74 50 58 -14 54 -113 -7 -183 -39 -44 -82 -63 -142 -63 -25 0 -60 6 -78 14
-68 28 -127 129 -111 191 11 43 53 57 92 29z m-1534 -426 c9 -12 16 -32 16
-44 0 -25 43 -64 70 -64 27 0 70 39 70 64 0 38 28 66 65 66 91 0 63 -159 -38
-220 -66 -41 -157 -34 -217 17 -61 51 -90 151 -54 187 23 24 70 20 88 -6z"/>
<path d="M2095 3008 c-11 -6 -23 -16 -27 -22 -4 -6 -8 -75 -8 -153 l0 -141 33
-28 c151 -127 513 -127 665 0 l32 28 0 139 c0 135 -1 141 -25 164 l-24 25
-313 0 c-214 -1 -319 -4 -333 -12z"/>
<path d="M2925 2101 c-226 -56 -400 -217 -472 -435 -23 -70 -27 -97 -27 -206
0 -109 4 -135 27 -207 65 -196 231 -362 427 -424 93 -30 246 -36 344 -14 189
42 362 176 444 345 55 112 72 184 72 300 0 116 -17 188 -72 300 -81 167 -260
307 -443 345 -92 19 -213 18 -300 -4z"/>
<path d="M2080 1890 c-19 -19 -20 -33 -20 -198 0 -221 -6 -212 136 -212 l100
0 12 84 c15 102 40 177 92 273 l39 73 -169 0 c-157 0 -172 -2 -190 -20z"/>
<path d="M2080 1340 c-19 -19 -20 -33 -20 -197 0 -98 4 -183 8 -189 19 -29 56
-34 246 -34 l196 0 -49 68 c-70 95 -109 179 -134 282 l-22 90 -102 0 c-90 0
-106 -3 -123 -20z"/>
<path d="M3630 905 l-34 -35 27 -27 27 -28 37 37 37 37 -24 26 c-13 14 -26 25
-30 25 -3 0 -21 -16 -40 -35z"/>
<path d="M3772 767 l-72 -73 213 -212 c211 -210 214 -212 256 -212 79 0 126
81 90 153 -11 22 -399 417 -409 417 -3 0 -38 -33 -78 -73z"/>
<path d="M2077 782 c-15 -16 -17 -45 -17 -195 0 -164 2 -179 20 -197 19 -19
33 -20 345 -20 312 0 326 1 345 20 18 18 20 33 20 179 l0 159 -65 36 -66 36
-283 0 c-261 0 -284 -1 -299 -18z"/>
</g>
</svg>
