<?xml version="1.0" standalone="no"?>
<!DOCTYPE svg PUBLIC "-//W3C//DTD SVG 20010904//EN"
 "http://www.w3.org/TR/2001/REC-SVG-20010904/DTD/svg10.dtd">
<svg version="1.0" xmlns="http://www.w3.org/2000/svg"
 width="45" height="75" viewBox="0 0 512.000000 512.000000"
 preserveAspectRatio="xMidYMid meet">

<g transform="translate(0.000000,512.000000) scale(0.100000,-0.100000)"
fill="#fff" stroke="none">
<path d="M2745 5086 c-44 -47 -101 -167 -126 -266 -31 -122 -24 -256 20 -362
17 -43 44 -111 60 -150 51 -128 66 -222 65 -423 0 -146 -5 -199 -22 -281 -61
-282 -184 -522 -374 -729 -199 -215 -456 -364 -753 -436 -103 -24 -150 -24
-185 1 -49 35 -113 60 -155 60 -52 0 -117 -31 -158 -74 -50 -53 -65 -53 -140
-2 -117 80 -154 91 -244 75 -115 -22 -213 -96 -262 -199 l-26 -55 -3 -1102 -2
-1102 22 -20 c40 -38 97 -22 118 33 7 18 10 378 10 1088 0 1172 -5 1091 65
1158 36 34 122 64 153 53 9 -4 51 -30 92 -58 122 -83 205 -82 305 6 31 27 63
49 71 49 8 0 45 -18 81 -40 59 -35 74 -40 127 -40 34 0 100 9 149 20 644 142
1145 665 1262 1317 23 126 30 320 16 446 -15 132 -40 232 -87 345 -19 48 -43
105 -52 127 -12 29 -16 70 -16 150 0 124 14 172 84 288 46 77 49 99 15 132
-34 35 -71 32 -110 -9z"/>
<path d="M3204 5101 c-17 -10 -45 -37 -64 -60 -105 -133 -108 -329 -7 -469 73
-102 183 -155 347 -167 330 -25 652 -218 840 -503 114 -171 165 -324 194 -574
18 -153 21 -415 5 -538 -28 -228 -100 -473 -200 -678 -58 -118 -185 -320 -246
-391 l-30 -35 -54 36 c-30 19 -69 43 -86 52 l-33 16 47 58 c177 217 316 516
378 812 50 240 43 627 -15 856 -49 189 -177 382 -332 499 -43 33 -69 45 -94
45 -63 0 -97 -72 -55 -116 10 -10 42 -37 71 -59 109 -84 213 -240 258 -385 34
-112 54 -313 50 -506 -1 -95 -7 -176 -11 -180 -4 -5 -85 -8 -180 -7 -233 0
-281 12 -477 112 -158 80 -277 125 -369 137 l-50 6 15 37 c99 227 150 455 163
728 8 174 17 197 89 222 34 13 54 13 135 2 106 -15 131 -9 148 36 13 35 -4 77
-37 92 -40 18 -164 34 -225 28 -111 -10 -214 -90 -244 -191 -8 -27 -15 -89
-15 -138 0 -266 -61 -526 -181 -778 -127 -264 -260 -423 -472 -564 -119 -79
-137 -97 -137 -136 0 -28 43 -70 73 -70 14 0 79 36 148 82 164 108 289 233
394 391 42 64 81 117 85 117 4 0 46 -7 94 -15 110 -19 197 -52 316 -120 174
-100 300 -130 543 -130 l158 0 -7 -30 c-3 -16 -23 -83 -45 -149 -66 -199 -168
-385 -308 -559 l-63 -78 -47 8 c-67 11 -217 7 -286 -7 -87 -18 -204 -65 -276
-111 -114 -74 -230 -199 -281 -303 -18 -37 -27 -46 -47 -46 -45 0 -154 27
-220 54 -89 36 -475 264 -518 305 -52 51 -78 113 -77 191 1 108 54 190 158
242 82 41 106 85 71 135 -25 36 -60 37 -131 4 -218 -102 -311 -358 -208 -570
45 -90 102 -138 318 -266 289 -171 363 -203 555 -241 18 -4 22 -9 17 -27 -3
-12 -9 -56 -12 -99 l-7 -76 -36 5 c-89 14 -227 55 -303 91 -46 21 -307 170
-581 331 -274 161 -519 302 -545 314 -71 32 -179 30 -254 -5 -76 -35 -141
-103 -169 -176 -21 -56 -22 -72 -31 -796 -8 -660 -7 -741 7 -762 17 -27 53
-39 85 -29 50 16 49 0 58 780 10 807 6 761 76 822 39 35 98 49 148 35 18 -5
265 -145 548 -312 283 -167 547 -318 585 -336 97 -44 219 -81 333 -100 l98
-16 17 -62 c78 -265 295 -480 562 -557 186 -53 434 -27 597 64 60 33 71 109
19 136 -31 17 -54 13 -123 -19 -443 -207 -963 147 -935 635 11 174 73 314 196
435 185 184 447 243 688 156 190 -70 342 -226 407 -420 61 -182 31 -405 -79
-570 -45 -68 -50 -110 -16 -138 62 -50 114 -10 190 147 66 133 85 220 84 365
-1 178 -54 339 -153 471 -22 29 -40 57 -40 62 0 5 18 30 39 56 181 215 365
604 431 909 55 251 66 550 30 824 -26 203 -58 318 -129 463 -126 258 -320 456
-570 584 -162 82 -278 113 -558 147 -64 8 -132 58 -165 123 -48 92 -33 208 36
271 45 42 60 77 45 111 -21 51 -63 62 -115 30z"/>
<path d="M3356 1529 c-41 -32 -56 -77 -56 -169 l0 -80 -94 0 c-87 0 -97 -2
-125 -26 -41 -34 -51 -77 -50 -219 0 -199 22 -228 174 -233 l93 -4 4 -93 c5
-158 37 -178 263 -173 197 4 215 19 215 178 l0 90 86 0 c98 0 141 15 167 59
14 24 17 56 17 190 l0 161 -29 32 c-29 32 -31 33 -133 38 l-103 5 -5 102 c-5
96 -7 105 -33 130 l-27 28 -168 3 c-161 3 -169 2 -196 -19z m276 -223 c6 -145
39 -176 188 -176 l80 0 0 -90 0 -90 -94 0 c-87 0 -97 -2 -125 -26 -37 -31 -51
-77 -51 -172 l0 -73 -87 3 -88 3 -5 102 c-5 96 -7 105 -33 130 -26 26 -35 28
-130 33 l-102 5 -3 86 -3 87 98 4 c149 6 173 31 173 177 l0 91 89 0 89 0 4
-94z"/>
</g>
</svg>
