<?xml version="1.0" standalone="no"?>
<!DOCTYPE svg PUBLIC "-//W3C//DTD SVG 20010904//EN"
 "http://www.w3.org/TR/2001/REC-SVG-20010904/DTD/svg10.dtd">
<svg version="1.0" xmlns="http://www.w3.org/2000/svg"
 width="45" height="80" viewBox="0 0 512.000000 512.000000"
 preserveAspectRatio="xMidYMid meet">

<g transform="translate(0.000000,512.000000) scale(0.100000,-0.100000)"
fill="#fff" stroke="none">
<path d="M1467 5010 c-161 -41 -276 -75 -288 -85 -24 -22 -25 -69 -3 -214 100
-686 559 -1197 1161 -1294 l71 -11 16 -66 c28 -114 89 -223 177 -315 l78 -81
-8 -52 c-4 -29 -10 -54 -12 -56 -2 -3 -78 38 -169 91 -164 95 -458 265 -1456
841 -286 165 -540 306 -563 312 -83 22 -173 -10 -235 -82 -40 -47 -56 -91 -56
-159 0 -57 40 -141 84 -173 17 -14 328 -196 691 -405 l660 -381 8 -71 c10 -87
37 -148 86 -191 20 -19 178 -116 351 -216 173 -100 321 -186 329 -191 13 -8
12 -18 -3 -68 l-18 -59 -133 4 c-203 6 -348 -26 -533 -119 l-96 -48 -54 35
c-85 57 -233 123 -339 151 -85 23 -117 27 -248 27 -177 0 -257 -18 -400 -89
-356 -176 -564 -578 -489 -942 52 -252 186 -420 497 -626 195 -130 283 -213
311 -293 9 -26 16 -59 16 -74 0 -15 10 -36 23 -48 23 -21 30 -22 289 -22 322
0 314 -3 312 109 -4 202 -94 400 -253 560 -88 87 -148 133 -348 265 -119 77
-170 117 -190 147 -46 70 -30 125 44 150 60 20 114 6 223 -56 138 -79 206
-105 308 -117 67 -8 105 -7 167 3 l80 14 90 -58 c244 -158 549 -273 860 -323
152 -25 476 -25 633 -1 649 102 1184 455 1557 1027 174 267 288 555 342 865
26 152 24 500 -5 655 -58 316 -180 602 -359 845 -83 113 -264 292 -370 368
-237 169 -498 258 -758 259 -340 1 -636 -128 -916 -399 -131 -128 -126 -126
-253 -93 -114 29 -190 73 -276 160 -119 120 -197 281 -250 515 -25 109 -47
146 -89 144 -14 0 -147 -31 -294 -69z m263 -176 c91 -347 267 -581 509 -679
75 -31 196 -55 272 -55 l62 0 106 108 c158 160 298 258 466 327 144 59 202 69
385 70 233 0 223 4 295 -113 33 -53 68 -105 78 -114 23 -24 66 -23 94 4 28 26
29 53 3 96 -11 18 -20 35 -20 37 0 10 120 -56 211 -116 135 -90 313 -271 412
-419 387 -583 421 -1290 95 -1934 -191 -374 -493 -706 -828 -908 -457 -276
-1018 -358 -1541 -227 -141 35 -156 42 -115 49 16 3 38 17 49 32 17 23 18 31
8 56 -18 42 -44 50 -156 45 -120 -5 -139 -8 -159 -29 -15 -14 -23 -12 -94 27
-42 23 -121 71 -175 106 -81 55 -102 64 -130 60 -17 -2 -67 -10 -109 -17 -131
-21 -233 6 -391 104 -139 86 -250 98 -366 39 -102 -52 -147 -151 -117 -257 26
-89 98 -157 321 -304 274 -181 387 -300 451 -476 13 -36 26 -87 30 -115 l7
-51 -177 0 c-134 0 -176 3 -176 13 0 6 -14 41 -30 76 -45 94 -143 187 -340
318 -183 122 -249 178 -315 264 -167 216 -189 490 -59 739 96 183 280 330 484
386 100 28 310 26 414 -4 106 -31 211 -80 313 -148 47 -31 95 -57 108 -57 13
0 59 21 102 45 100 58 209 101 303 123 98 22 262 22 358 0 67 -15 75 -16 97
-1 14 9 25 17 25 19 12 75 31 162 37 168 4 4 50 -16 102 -46 159 -90 275 -117
452 -103 117 9 165 23 186 55 15 23 16 35 5 120 -29 228 -145 398 -368 538
-116 73 -116 74 -88 224 l18 95 -49 40 c-150 124 -211 225 -234 386 -5 40 -16
80 -24 88 -9 8 -57 21 -109 28 -279 41 -509 156 -703 349 -149 149 -261 332
-331 542 -36 105 -69 259 -76 342 l-3 45 185 47 c102 26 192 48 201 48 12 1
22 -21 39 -85z m-1277 -897 c46 -20 1131 -647 1138 -659 6 -10 20 -221 14
-226 -1 -2 -121 65 -266 149 -145 84 -331 191 -414 239 -82 47 -246 141 -363
209 -116 67 -219 132 -227 144 -32 45 -12 116 39 141 38 19 39 19 79 3z m1871
-1076 c297 -171 564 -330 595 -354 65 -50 129 -129 166 -204 33 -69 57 -175
41 -185 -6 -4 -56 -8 -112 -8 -108 0 -173 14 -259 57 -106 53 -921 528 -947
551 -37 34 -45 66 -52 212 -4 69 -9 158 -13 199 l-6 73 24 -15 c13 -8 267
-155 563 -326z"/>
<path d="M4067 4122 c-24 -26 -21 -53 16 -171 25 -80 39 -109 60 -124 33 -26
74 -15 96 24 14 25 12 35 -22 142 -21 64 -44 123 -53 132 -21 21 -77 19 -97
-3z"/>
<path d="M4205 3548 l-28 -22 7 -125 c4 -68 12 -133 17 -143 20 -37 99 -35
119 3 8 13 9 60 4 141 -6 109 -10 124 -30 145 -29 29 -54 29 -89 1z"/>
<path d="M4186 2958 c-19 -18 -30 -45 -45 -120 -27 -128 -27 -163 1 -182 29
-21 61 -20 87 2 15 12 27 48 46 134 28 130 24 161 -20 178 -36 14 -41 13 -69
-12z"/>
<path d="M4015 2396 c-11 -8 -45 -64 -75 -125 -52 -107 -54 -113 -40 -139 22
-38 61 -50 94 -28 30 19 126 203 126 241 0 52 -62 82 -105 51z"/>
<path d="M3698 1891 c-13 -11 -55 -54 -93 -96 -77 -86 -87 -123 -46 -157 42
-33 69 -24 134 45 77 82 117 136 117 159 0 25 -44 68 -68 68 -11 0 -30 -9 -44
-19z"/>
<path d="M3204 1454 c-49 -31 -99 -66 -111 -77 -28 -25 -31 -77 -5 -100 34
-31 72 -21 175 48 104 70 125 97 106 139 -10 21 -46 46 -68 46 -4 0 -47 -25
-97 -56z"/>
<path d="M2660 1194 c-109 -35 -140 -57 -140 -100 0 -32 34 -64 68 -64 42 0
235 67 250 87 30 41 -4 114 -52 112 -12 -1 -68 -16 -126 -35z"/>
</g>
</svg>
