<?xml version="1.0" encoding="UTF-8"?>
<svg version="1.1" xmlns="http://www.w3.org/2000/svg" width="500" height="600">
<path d="M0 0 C4.38976857 4.53046628 7.14336826 9.63543647 10.0625 15.1875 C15.57918632 25.44072566 21.6742054 35.23143438 28 45 C28.82219398 46.28087827 29.6438356 47.56211132 30.46484375 48.84375 C36.73742289 58.60958458 43.12878193 68.29840397 49.5 78 C64.56036775 100.93275828 64.56036775 100.93275828 71 111 C71.46631836 111.72832031 71.93263672 112.45664063 72.41308594 113.20703125 C83.01810917 129.80134768 93.37737093 146.5749345 102.82861328 163.85839844 C103.65073457 165.36145136 104.47765568 166.86188413 105.30810547 168.36035156 C112.73632034 181.81393774 118.94327317 195.48052154 124 210 C124.25426758 210.71961914 124.50853516 211.43923828 124.77050781 212.18066406 C130.67722985 229.54181088 129.32017803 249.39752687 125 267 C124.83902832 267.68046387 124.67805664 268.36092773 124.51220703 269.06201172 C116.4890133 302.0565289 94.79223901 331.96047792 66 350 C45.58664757 362.18222825 23.87481558 369.89962442 0 371 C-1.60101563 371.07927734 -1.60101563 371.07927734 -3.234375 371.16015625 C-41.58946387 372.12322071 -76.48516739 357.40523875 -104.14575195 331.24291992 C-122.97196083 312.92975666 -135.31786377 289.58258594 -141 264 C-141.23074219 263.05898438 -141.46148437 262.11796875 -141.69921875 261.1484375 C-152.45878335 211.85284365 -121.06895241 165.59363356 -95.85546875 125.92138672 C-94.06303473 123.09924652 -92.28035125 120.27118011 -90.5 117.44140625 C-84.05759987 107.22675108 -77.45899167 97.12790948 -70.74121094 87.0925293 C-46.15868649 51.10252268 -46.15868649 51.10252268 -23.6640625 13.8125 C-23.3038501 13.1628125 -22.9436377 12.513125 -22.57250977 11.84375 C-21.6585688 10.17537142 -20.76736222 8.49458833 -19.87890625 6.8125 C-17.27607066 2.91636357 -14.3210208 -0.07585043 -9.87109375 -1.84765625 C-6.38849326 -2.13120827 -3.08866889 -1.55871372 0 0 Z M-8 37 C-8.79253748 38.12344175 -9.5355585 39.28181637 -10.2590332 40.45092773 C-10.72907272 41.20455093 -11.19911224 41.95817413 -11.68339539 42.7346344 C-12.45306389 43.97780678 -12.45306389 43.97780678 -13.23828125 45.24609375 C-19.17917816 54.74771641 -25.29250748 64.12467028 -31.47384644 73.47113037 C-33.83583539 77.04290624 -36.193218 80.61771433 -38.55091858 84.19232178 C-39.72775604 85.97650804 -40.90478586 87.76056743 -42.08201599 89.54449463 C-64.14674823 122.89057178 -64.14674823 122.89057178 -85 157 C-85.44811035 157.76473633 -85.8962207 158.52947266 -86.35791016 159.31738281 C-115.28373662 207.44488121 -115.28373662 207.44488121 -115.78588867 261.80908203 C-111.25406866 278.68308893 -103.4095684 293.75840741 -92 307 C-91.44828125 307.68449219 -90.8965625 308.36898438 -90.328125 309.07421875 C-72.97523589 330.10426769 -45.43275319 342.52744527 -18.75 345.75 C-17.16823868 345.85917881 -15.58444194 345.94141131 -14 346 C-13.03320312 346.03996094 -12.06640625 346.07992188 -11.0703125 346.12109375 C17.79601712 346.72100525 45.64877895 336.86652516 66.86328125 317.05078125 C67.56839844 316.37402344 68.27351562 315.69726562 69 315 C69.845625 314.195625 70.69125 313.39125 71.5625 312.5625 C72.366875 311.716875 73.17125 310.87125 74 310 C74.65355469 309.34128906 75.30710937 308.68257813 75.98046875 308.00390625 C94.09123923 289.02032755 104.49168905 261.21317256 104 235 C102.41487667 209.73709693 86.3243912 185.22835666 74 164 C73.12237971 162.47657179 72.24477432 160.95313499 71.3671875 159.4296875 C65.73181655 149.70147005 59.78236046 140.18246619 53.73046875 130.70898438 C51.82748019 127.72992666 49.92945269 124.74773422 48.03125 121.765625 C41.98038274 112.27262624 35.91986586 102.790995 29.64257812 93.44580078 C20.33281157 79.57764521 11.36430515 65.48132434 2.38037109 51.40087891 C0.59092032 48.59798949 -1.20264036 45.7978229 -3 43 C-3.43425293 42.32163086 -3.86850586 41.64326172 -4.31591797 40.94433594 C-5.182816 39.61106625 -6.08561173 38.30115885 -7 37 C-7.33 37 -7.66 37 -8 37 Z " fill="#fff" transform="translate(249,92)"/>
<path d="M0 0 C5.42588538 3.54746153 10.36189744 7.4879077 15.20703125 11.80078125 C15.97402344 12.45949219 16.74101562 13.11820313 17.53125 13.796875 C42.42102023 35.55999641 69.26986269 65.58620314 74.20703125 99.80078125 C75.13656526 114.37110439 75.03390645 127.11189717 65.2578125 138.79296875 C56.58749922 147.28161832 46.21195929 149.27027991 34.54858398 149.23022461 C12.3224243 148.66020845 -8.21589325 137.64028562 -25.79296875 124.80078125 C-26.35757813 124.39698242 -26.9221875 123.99318359 -27.50390625 123.57714844 C-49.29417237 107.87460067 -66.83270653 87.22389207 -79.79296875 63.80078125 C-80.35628906 62.78628906 -80.91960937 61.77179688 -81.5 60.7265625 C-90.1915195 44.24568122 -96.29408485 24.46365802 -91.16796875 5.98828125 C-88.16066343 -2.79008533 -82.97310947 -10.00668532 -74.5546875 -14.35546875 C-49.48262964 -25.84511883 -21.51398519 -13.66991129 0 0 Z M-65.23046875 9.73828125 C-68.66488343 14.27170863 -68.20883899 19.37178434 -67.79296875 24.80078125 C-63.88300194 45.92075943 -51.25857302 65.17141536 -36.80078125 80.63671875 C-35.0794256 82.49203203 -33.49639784 84.38798999 -31.91796875 86.36328125 C-27.81260079 91.17724697 -22.75040804 94.91109812 -17.79296875 98.80078125 C-16.25382812 100.04601562 -16.25382812 100.04601562 -14.68359375 101.31640625 C0.65038972 113.60385613 18.92272608 124.25065453 39.05859375 124.16015625 C43.64990112 123.63608643 45.24301051 122.25880545 48.20703125 118.80078125 C51.5797771 112.05528956 49.3992766 102.32395875 47.26953125 95.48828125 C40.92490117 77.71729217 30.3794626 61.48731533 16.80102539 48.39697266 C15.1796445 46.77335674 13.7217857 45.07604929 12.26953125 43.30078125 C-2.90965946 25.37979955 -28.37625168 8.75128896 -51.91015625 5.91796875 C-57.14419469 5.70520296 -61.02093514 6.39224171 -65.23046875 9.73828125 Z " fill="#fff" transform="translate(437.79296875,129.19921875)"/>
<path d="M0 0 C14.6785089 -0.50164295 29.91847003 2.80075555 40.94140625 12.97265625 C48.32460736 20.96984498 49.78157584 29.92518144 49.640625 40.453125 C48.73629875 57.28068594 39.40964039 71.89900649 28.44140625 84.16015625 C27.58282613 85.23999512 26.72784421 86.32272067 25.87890625 87.41015625 C22.67388323 91.02607965 19.13096705 94.05055986 15.44140625 97.16015625 C14.58804688 97.91296875 13.7346875 98.66578125 12.85546875 99.44140625 C-17.10507681 125.37985118 -59.18363812 145.81313075 -99.55859375 143.16015625 C-112.21083614 141.55032819 -123.95177729 138.05431705 -132.55859375 128.16015625 C-139.81184772 118.58214139 -140.00324047 107.66294889 -138.55859375 96.16015625 C-134.54808399 74.88679818 -115.93123205 54.36760964 -99.55859375 41.16015625 C-98.64980469 40.41378906 -97.74101563 39.66742188 -96.8046875 38.8984375 C-68.89508693 16.6476045 -35.75260345 2.23794922 0 0 Z M-98.38671875 75.23828125 C-105.97493927 83.95248681 -115.30866151 95.17609087 -114.55859375 107.47265625 C-113.84177536 111.17032064 -113.84177536 111.17032064 -111.55859375 113.47265625 C-97.90846253 121.15085506 -82.70846577 118.69578963 -68.16650391 114.90087891 C-55.01071527 111.16425068 -42.24296637 106.31074887 -30.55859375 99.16015625 C-30.00300781 98.8240332 -29.44742188 98.48791016 -28.875 98.14160156 C-8.39591135 85.67854817 16.88218367 68.35726047 24.03125 44.1640625 C24.79365686 40.4391604 25.15294146 36.91921018 24.44140625 33.16015625 C18.80233603 26.99652136 12.58446307 25.56478874 4.484375 25.03125 C-33.82793359 23.96504475 -73.39618371 47.49843487 -98.38671875 75.23828125 Z " fill="#fff" transform="translate(138.55859375,48.83984375)"/>
<path d="M0 0 C1.49956993 -0.00574036 1.49956993 -0.00574036 3.0294342 -0.01159668 C5.13999439 -0.01431405 7.25058836 -0.00696519 9.36108398 0.00976562 C12.58328789 0.03115462 15.80325641 0.00996898 19.02539062 -0.015625 C21.07943199 -0.01298125 23.13347196 -0.00785531 25.1875 0 C26.14704086 -0.00809692 27.10658173 -0.01619385 28.09519958 -0.02453613 C33.92508096 0.05674417 37.18604959 0.71183586 41.66015625 4.53125 C44.48050935 8.10906936 43.88503223 12.43280349 43.78515625 16.78125 C43.77613281 17.52632813 43.76710938 18.27140625 43.7578125 19.0390625 C43.73433983 20.86993059 43.6984715 22.70063238 43.66015625 24.53125 C45.28824219 24.46164062 45.28824219 24.46164062 46.94921875 24.390625 C48.39450356 24.35308513 49.83981836 24.31668736 51.28515625 24.28125 C51.99800781 24.24773437 52.71085937 24.21421875 53.4453125 24.1796875 C58.6428047 24.08432067 61.58234442 25.02898518 65.66015625 28.53125 C67.45470318 31.44225198 67.91463337 33.64024586 67.93481445 37.03686523 C67.94434647 37.92135849 67.95387848 38.80585175 67.96369934 39.71714783 C67.96278793 40.66513748 67.96187653 41.61312714 67.9609375 42.58984375 C67.96522263 43.57114761 67.96950775 44.55245148 67.97392273 45.56349182 C67.97966111 47.63712798 67.98016992 49.71078427 67.97583008 51.78442383 C67.97267131 54.9536378 67.99613159 58.12191711 68.02148438 61.29101562 C68.02375756 63.30729049 68.02446078 65.32356786 68.0234375 67.33984375 C68.03264725 68.28580917 68.04185699 69.2317746 68.05134583 70.20640564 C68.01674265 75.13759648 67.88917165 78.5368823 64.66015625 82.53125 C60.1626754 86.72889879 55.26804266 86.65880919 49.34765625 86.59375 C48.27902344 86.58472656 47.21039063 86.57570313 46.109375 86.56640625 C44.89701172 86.54900391 44.89701172 86.54900391 43.66015625 86.53125 C43.71236328 88.06845703 43.71236328 88.06845703 43.765625 89.63671875 C43.7937766 90.99737936 43.82107529 92.3580578 43.84765625 93.71875 C43.87279297 94.39228516 43.89792969 95.06582031 43.92382812 95.75976562 C43.98958557 100.25319081 43.45637732 102.99355907 40.66015625 106.53125 C37.73044166 109.12977518 35.89021715 109.91049777 31.98681641 109.95117188 C30.6048558 109.97503967 30.6048558 109.97503967 29.19497681 109.99938965 C28.20637665 109.99959106 27.21777649 109.99979248 26.19921875 110 C25.17589447 110.00761353 24.15257019 110.01522705 23.09823608 110.02307129 C20.93465615 110.03387074 18.77102408 110.03672603 16.60742188 110.03222656 C13.30379815 110.03125548 10.00250642 110.07285468 6.69921875 110.1171875 C4.59505692 110.12239557 2.49088703 110.12508268 0.38671875 110.125 C-0.59783295 110.14139526 -1.58238464 110.15779053 -2.59677124 110.17468262 C-7.10751257 110.1294327 -10.32768257 110.04441796 -13.92480469 107.14331055 C-18.21662306 102.50136102 -18.59039852 98.93371122 -18.46484375 92.71875 C-18.44679687 91.55730469 -18.42875 90.39585937 -18.41015625 89.19921875 C-18.38695312 88.31878906 -18.36375 87.43835938 -18.33984375 86.53125 C-19.51740234 86.58345703 -19.51740234 86.58345703 -20.71875 86.63671875 C-27.07472669 86.80049238 -31.8363791 86.85625989 -37.33984375 83.53125 C-40.933483 79.74847185 -42.45058321 76.71507353 -42.50097656 71.5222168 C-42.51058411 70.72095871 -42.52019165 69.91970062 -42.53009033 69.09416199 C-42.53434021 68.23164322 -42.53859009 67.36912445 -42.54296875 66.48046875 C-42.54866882 65.58890579 -42.5543689 64.69734283 -42.5602417 63.77876282 C-42.56968724 61.89166448 -42.57622391 60.00454968 -42.58007812 58.11743164 C-42.58977182 55.24010179 -42.6207943 52.36348999 -42.65234375 49.48632812 C-42.65887532 47.6510459 -42.66412519 45.81575857 -42.66796875 43.98046875 C-42.68031555 43.12402267 -42.69266235 42.2675766 -42.7053833 41.38517761 C-42.68221924 35.12765499 -41.52508397 30.90942134 -37.171875 26.171875 C-33.33829115 23.95104022 -30.365883 24.07963781 -26.02734375 24.28125 C-24.91649414 24.30832031 -24.91649414 24.30832031 -23.78320312 24.3359375 C-21.96818665 24.38277663 -20.15384209 24.45451211 -18.33984375 24.53125 C-18.39205078 23.11972656 -18.39205078 23.11972656 -18.4453125 21.6796875 C-18.47238281 20.43445313 -18.49945313 19.18921875 -18.52734375 17.90625 C-18.57955078 16.06160156 -18.57955078 16.06160156 -18.6328125 14.1796875 C-18.22854304 9.14518515 -16.77652761 6.09565495 -13.37353516 2.39013672 C-8.9623023 -0.31283503 -5.0805271 -0.04278092 0 0 Z M6.66015625 25.53125 C6.634375 26.62824219 6.60859375 27.72523438 6.58203125 28.85546875 C6.52572935 30.30993448 6.46838248 31.76436003 6.41015625 33.21875 C6.38888672 34.3005957 6.38888672 34.3005957 6.3671875 35.40429688 C6.20013398 39.06276886 5.85277739 41.1977634 3.98828125 44.42578125 C-0.47954512 48.4663155 -5.38179593 48.79912462 -11.21484375 49.15625 C-12.36726563 49.23101562 -13.5196875 49.30578125 -14.70703125 49.3828125 C-15.57585937 49.43179688 -16.4446875 49.48078125 -17.33984375 49.53125 C-17.33984375 53.49125 -17.33984375 57.45125 -17.33984375 61.53125 C-15.58607422 61.56992187 -15.58607422 61.56992187 -13.796875 61.609375 C-12.24866149 61.66567367 -10.70048585 61.72302062 -9.15234375 61.78125 C-8.38341797 61.79542969 -7.61449219 61.80960937 -6.82226562 61.82421875 C-1.77996525 62.04062649 0.99916915 62.74941478 4.66015625 66.53125 C6.30995695 69.83085141 6.04273986 73.52252884 6.22265625 77.15625 C6.26583984 77.95804688 6.30902344 78.75984375 6.35351562 79.5859375 C6.45967082 81.5675011 6.5604248 83.54935271 6.66015625 85.53125 C10.62015625 85.53125 14.58015625 85.53125 18.66015625 85.53125 C18.70914063 84.51804687 18.758125 83.50484375 18.80859375 82.4609375 C18.88368189 81.10935089 18.95922706 79.75778962 19.03515625 78.40625 C19.0815625 77.40851563 19.0815625 77.40851563 19.12890625 76.390625 C19.37888012 72.14106918 19.79712334 68.38304196 21.66015625 64.53125 C25.66931731 61.98740383 30.34582915 62.1047198 34.97265625 61.90625 C35.71322266 61.86757813 36.45378906 61.82890625 37.21679688 61.7890625 C39.03086934 61.69543295 40.84547741 61.61228149 42.66015625 61.53125 C42.66015625 57.57125 42.66015625 53.61125 42.66015625 49.53125 C41.80292969 49.49386719 40.94570313 49.45648438 40.0625 49.41796875 C27.6975862 48.70702106 27.6975862 48.70702106 22.66015625 45.53125 C19.89681564 41.0531873 19.21870923 37.37257307 18.97265625 32.15625 C18.87404297 30.28839844 18.87404297 30.28839844 18.7734375 28.3828125 C18.71736328 26.97128906 18.71736328 26.97128906 18.66015625 25.53125 C14.70015625 25.53125 10.74015625 25.53125 6.66015625 25.53125 Z " fill="#fff" transform="translate(228.33984375,240.46875)"/>
<path d="M0 0 C4.69387746 3.86554614 5.52829518 6.6977083 6.125 12.75 C5.7796166 36.12094347 -2.98801692 58.62882154 -18.875 75.75 C-19.70644531 76.67296875 -20.53789062 77.5959375 -21.39453125 78.546875 C-39.19069323 97.41132782 -64.22524741 107.06858099 -89.9375 108.0625 C-94.84137034 107.67330394 -98.13405294 106.64088508 -101.5078125 102.9765625 C-104.02013815 98.88506073 -103.61031172 94.37577917 -102.875 89.75 C-101.21480142 86.57717605 -99.12319734 84.37409867 -95.875 82.75 C-93.95511029 82.55675071 -92.03462657 82.36792449 -90.11181641 82.20629883 C-70.29866762 80.47566923 -54.17242879 73.99752502 -39.875 59.75 C-39.24980469 59.14800781 -38.62460937 58.54601562 -37.98046875 57.92578125 C-25.55466279 44.99508927 -21.10578544 27.86888073 -20.13671875 10.46875 C-19.68420945 5.76805634 -18.25331375 2.96615919 -14.75 -0.125 C-9.73811883 -2.08617089 -4.94948094 -2.15194823 0 0 Z " fill="#fff" transform="translate(332.875,316.25)"/>
<path d="M0 0 C3.57048207 3.65351654 4.43994748 5.94640305 5.125 10.9375 C3.91736255 21.46119775 -2.9111229 28.55119374 -10.83300781 34.98486328 C-26.34127003 47.19139675 -49.91501553 61.01294281 -70.3125 58.75 C-74.15769779 57.50063439 -77.20932473 55.71083007 -80.25 53.0625 C-82.2119755 48.79231803 -83.18015412 44.20912666 -81.58203125 39.6796875 C-79.85931175 36.52466865 -78.31518848 34.75179232 -75.3125 32.75 C-73.39209958 32.89432457 -71.47552047 33.09086958 -69.5625 33.3125 C-58.07073895 33.5277463 -48.14215942 27.12078608 -38.3125 21.75 C-37.64895508 21.3885791 -36.98541016 21.0271582 -36.30175781 20.65478516 C-28.98399385 16.57558359 -22.85950179 11.94669922 -19.6875 4 C-17.99829162 0.00732564 -16.42467997 -1.3759945 -12.5 -3 C-7.71893414 -3.54640753 -3.81696184 -2.96771116 0 0 Z " fill="#fff" transform="translate(132.3125,93.25)"/>
<path d="M0 0 C4.27633286 3.82140384 5.0150792 6.1146121 5.38671875 11.66796875 C6.8487862 17.22755009 11.39894737 21.66262989 15 26 C15.62132812 26.78632813 16.24265625 27.57265625 16.8828125 28.3828125 C22.69003814 35.39673438 30.78842957 42.89421479 39 47 C40.41545142 47.1019125 41.83249071 47.18249956 43.25 47.25 C48.35537973 47.7761583 50.51381053 49.2587235 54 53 C56.51638311 57.15750253 56.08028379 60.34646981 55 65 C53.11322288 69.15090967 51.1883579 71.17897483 47 73 C38.57526684 75.36096353 31.8187029 72.55483512 24.34765625 68.59375 C5.69151909 57.41650483 -12.40311464 39.71027823 -20 19 C-20.3984375 15.8671875 -20.3984375 15.8671875 -20.375 12.875 C-20.38273437 11.88242188 -20.39046875 10.88984375 -20.3984375 9.8671875 C-19.93894446 6.56063952 -18.95188887 4.68677269 -17 2 C-11.33360792 -2.06817893 -6.52572227 -2.80968598 0 0 Z " fill="#fff" transform="translate(411,159)"/>
</svg>
