<?xml version="1.0" encoding="UTF-8"?>
<svg version="1.1" xmlns="http://www.w3.org/2000/svg" width="500" height="750">
<path d="M0 0 C6.57238276 3.74962863 10.28526945 8.56389138 12.5625 15.875 C13.46410873 24.12533745 12.3124325 30.70268862 7.75 37.625 C5.22630811 40.22079737 2.70006633 42.07256828 -0.4375 43.875 C-1.4275 43.875 -2.4175 43.875 -3.4375 43.875 C-3.4375 49.815 -3.4375 55.755 -3.4375 61.875 C0.8525 62.205 5.1425 62.535 9.5625 62.875 C10.18125 60.4928125 10.18125 60.4928125 10.8125 58.0625 C11.62043463 54.95195168 12.11843887 53.28843622 14.48828125 51.08203125 C17.43852018 49.36522554 19.20348269 49.32658901 22.5625 49.875 C25.4375 51.9375 25.4375 51.9375 27.5625 54.875 C27.95522938 60.06916282 27.13111852 64.54667803 25.8125 69.5625 C25.65523437 70.21283203 25.49796875 70.86316406 25.3359375 71.53320312 C24.24046976 75.66648717 23.0239598 78.30454559 19.5625 80.875 C14.89346372 81.98577879 9.88009259 80.77875216 5.25 79.875 C-19.2580006 75.52983153 -44.62809339 81.38484088 -65.4375 94.875 C-87.36674905 110.58945775 -101.36618855 133.72280888 -106.0234375 160.20703125 C-108.96666613 186.27959432 -102.9166485 210.68759408 -87.4375 231.875 C-84.61179212 235.40465616 -81.63378787 238.67871213 -78.4375 241.875 C-77.66792969 242.64457031 -76.89835937 243.41414062 -76.10546875 244.20703125 C-56.09469727 263.1833202 -31.61846891 269.47616626 -4.82421875 269.1484375 C18.25731203 268.46085909 39.10299161 257.61887759 55.5625 241.875 C56.25085938 241.26140625 56.93921875 240.6478125 57.6484375 240.015625 C73.78833955 225.08781045 82.82389833 201.62810434 83.94140625 179.99609375 C84.30449545 167.80307435 83.39157456 156.4766558 79.5625 144.875 C79.35351074 144.23272461 79.14452148 143.59044922 78.92919922 142.92871094 C71.55639175 121.02567391 55.78699289 101.50965193 35.2421875 90.65234375 C33.11382112 88.40023514 32.47781932 86.34389995 32.22949219 83.27172852 C33.09675338 77.02986406 37.8394073 71.50539564 41.24414062 66.36328125 C44.69458793 61.30720786 44.69458793 61.30720786 45.10009766 55.515625 C44.08002734 53.40382985 44.08002734 53.40382985 42.75708008 51.61132812 C39.99015152 47.58958361 40.00399825 42.59393509 40.5625 37.875 C42.43470553 30.25500425 45.9230976 25.09794145 52.5625 20.875 C59.41663326 17.57747884 65.78491195 16.91806693 73.125 19.0625 C80.5085492 21.79529071 84.38632563 25.92746982 87.64453125 32.9921875 C89.73082928 39.5440511 89.81797025 46.87411369 87.0625 53.25 C83.57153444 59.11382827 78.09710697 63.85826805 71.5625 65.875 C69.7703567 65.86971344 67.97799809 65.82695551 66.1875 65.75 C62.18064717 66.01603765 60.97042316 66.41660499 58.2578125 69.46484375 C54.75380718 74.90039573 54.75380718 74.90039573 53.63671875 81.08984375 C54.87839647 83.4841337 56.29816214 84.29537837 58.625 85.625 C59.35847656 86.05296875 60.09195313 86.4809375 60.84765625 86.921875 C61.41355469 87.23640625 61.97945312 87.5509375 62.5625 87.875 C63.3875 86.905625 64.2125 85.93625 65.0625 84.9375 C67.46570847 82.55133556 69.27928906 81.32235976 72.625 80.6875 C76.5625 80.875 76.5625 80.875 79.5625 82.9375 C81.5625 85.875 81.5625 85.875 82.3125 88.6875 C81.17377408 93.52708517 78.0060074 96.41392368 74.5625 99.875 C75.51512034 101.35785242 76.47478405 102.83618201 77.4375 104.3125 C77.97117187 105.13621094 78.50484375 105.95992188 79.0546875 106.80859375 C80.40084306 108.98538871 80.40084306 108.98538871 82.5625 109.875 C84.60642283 108.80948909 86.60049771 107.6472442 88.5625 106.4375 C94.36289139 102.875 94.36289139 102.875 96.5625 102.875 C96.52769531 102.2459375 96.49289062 101.616875 96.45703125 100.96875 C96.21214152 93.22556989 97.39293924 88.00880998 101.8125 81.625 C107.14290577 76.29459423 112.77990443 73.76893495 120.3125 73.625 C128.26018514 73.73018995 133.89671247 76.20921247 139.5625 81.875 C144.29574697 88.60437668 145.22991686 94.81745833 144.5625 102.875 C143.17355596 109.08697021 140.12462223 114.36950729 134.82421875 118.09765625 C128.50524604 121.87280268 122.80502854 122.51660538 115.5625 121.875 C112.15185039 120.92630395 108.98511046 119.51548263 105.7578125 118.0625 C102.27105789 117.76469889 99.72826128 119.61110523 96.8125 121.3125 C95.90951172 121.82006836 95.90951172 121.82006836 94.98828125 122.33789062 C93.50681935 123.17268265 92.03379392 124.02241494 90.5625 124.875 C92.5425 130.32 92.5425 130.32 94.5625 135.875 C95.44292969 135.75640625 96.32335937 135.6378125 97.23046875 135.515625 C98.97263672 135.32226562 98.97263672 135.32226562 100.75 135.125 C102.47283203 134.91617188 102.47283203 134.91617188 104.23046875 134.703125 C108.34276789 134.91524829 109.78086044 135.89283559 112.5625 138.875 C113.48177428 141.64363783 113.270969 144.05854538 112.5625 146.875 C109.08510344 150.89573978 104.47626463 152.20931708 99.5625 153.875 C99.8925 157.835 100.2225 161.795 100.5625 165.875 C106.5025 165.875 112.4425 165.875 118.5625 165.875 C119.2225 164.225 119.8825 162.575 120.5625 160.875 C124.4266251 154.59579671 129.50188999 151.6695272 136.5625 149.875 C143.53142783 148.86133777 149.60152743 150.28015878 155.4765625 154.12890625 C159.92570173 157.60302135 163.08962131 161.36695663 164.5625 166.875 C165.35157593 173.83839167 165.70110092 180.96161551 161.9609375 187.12890625 C157.87732632 192.22771686 153.14650161 196.71311736 146.5625 197.875 C138.78672692 198.52198266 131.89901947 198.26879784 125.5859375 193.328125 C121.45337142 189.48466848 120.47179808 187.60289423 118.5625 181.875 C112.6225 181.875 106.6825 181.875 100.5625 181.875 C100.2325 186.165 99.9025 190.455 99.5625 194.875 C101.150625 195.2875 102.73875 195.7 104.375 196.125 C107.46117505 196.92660391 109.14741277 197.43825604 111.359375 199.765625 C113.17305465 202.94545296 113.01072751 205.28917995 112.5625 208.875 C111.0625 211.3125 111.0625 211.3125 108.5625 212.875 C103.30100886 213.38417656 99.51645131 212.85658052 94.5625 210.875 C94.35753906 211.48988281 94.15257812 212.10476563 93.94140625 212.73828125 C92.81510417 216.1171875 91.68880208 219.49609375 90.5625 222.875 C98.1642491 228.63090685 98.1642491 228.63090685 106.88671875 230.55078125 C108.7781239 229.4560964 108.7781239 229.4560964 110.578125 228.125 C115.06223806 225.30036185 120.87945245 225.46388787 125.984375 226.24609375 C132.7443601 228.12257237 138.0492742 232.12286007 141.94921875 237.9453125 C144.9035317 243.72954627 145.58928875 249.4800876 144.5625 255.875 C142.3411991 262.69616293 138.68070653 268.03815862 132.5625 271.875 C126.09200845 275.07166533 117.99721301 275.0412946 111.08203125 273.22265625 C104.78574738 270.38506604 100.37370896 265.33222066 97.75 259 C96.93779041 256.71345343 96.55377937 255.08211499 96.65625 252.6484375 C96.76927983 249.90746417 96.72969016 248.387943 95.5625 245.875 C91.15774675 242.61483165 86.50516031 240.21558882 81.5625 237.875 C78.0975 242.33 78.0975 242.33 74.5625 246.875 C76.0165625 248.545625 76.0165625 248.545625 77.5 250.25 C80.24188814 253.40025445 81.47910209 254.97430259 81.875 259.25 C81.5625 262.875 81.5625 262.875 80 265.3125 C76.46800465 267.57659958 74.70108566 267.6337407 70.5625 266.875 C67.62297266 264.80034235 65.0804657 262.43874689 62.5625 259.875 C61.054487 260.79955559 59.55625083 261.7400747 58.0625 262.6875 C57.2271875 263.20957031 56.391875 263.73164063 55.53125 264.26953125 C54.8815625 264.79933594 54.231875 265.32914062 53.5625 265.875 C53.5625 269.58372861 54.72394517 271.24130862 56.5625 274.4375 C59.5625 279.66666667 59.5625 279.66666667 59.5625 281.875 C60.1915625 281.84019531 60.820625 281.80539062 61.46875 281.76953125 C70.1176764 281.49599593 76.58433357 283.08560205 83.01953125 289.09375 C88.05006507 294.90115107 89.2908982 301.32752798 89.01171875 308.875 C88.0817151 315.08580699 85.37528805 320.57836886 80.6875 324.8125 C73.63778167 329.4653141 67.89339321 330.75004346 59.5625 329.875 C53.86885583 328.63222488 50.3909318 326.34150376 46.5625 321.875 C45.840625 321.09125 45.11875 320.3075 44.375 319.5 C40.77298804 314.28329303 39.61474652 308.13017298 40.5625 301.875 C41.90917945 297.72527734 43.61263495 293.77473009 45.5625 289.875 C44.31967988 287.42461707 43.03367661 285.101675 41.625 282.75 C41.23892578 282.09128906 40.85285156 281.43257813 40.45507812 280.75390625 C39.49803422 279.123387 38.53117185 277.49863816 37.5625 275.875 C36.51449219 276.308125 36.51449219 276.308125 35.4453125 276.75 C34.53523437 277.12125 33.62515625 277.4925 32.6875 277.875 C31.78257812 278.24625 30.87765625 278.6175 29.9453125 279 C27.5625 279.875 27.5625 279.875 25.5625 279.875 C25.8925 280.7 26.2225 281.525 26.5625 282.375 C27.7763645 286.62352574 27.98918799 289.46589075 27.5625 293.875 C26.0625 296.375 26.0625 296.375 23.5625 297.875 C20.75232411 298.4796485 18.36734757 298.52581679 15.5625 297.875 C12.22464907 295.13625052 11.36443544 292.70569535 10.8125 288.5625 C10.73 287.345625 10.6475 286.12875 10.5625 284.875 C5.9425 285.205 1.3225 285.535 -3.4375 285.875 C-3.4375 291.815 -3.4375 297.755 -3.4375 303.875 C-1.4575 304.535 0.5225 305.195 2.5625 305.875 C8.22631682 310.7576007 12.07496308 315.85022434 12.8046875 323.37109375 C13.1158467 329.9694991 12.3047914 335.33974448 8.5625 340.875 C3.87605483 345.99193283 -0.65800501 349.48666479 -7.70703125 350.2109375 C-15.99316509 350.30229509 -21.88099212 349.99358264 -28.14453125 344.33203125 C-32.98106164 339.1895403 -35.48993774 333.55533422 -35.875 326.5 C-35.6033981 320.19883595 -33.74449376 314.47982288 -29.53125 309.72265625 C-26.10298819 306.59500695 -24.02404593 305.02163648 -19.4375 303.875 C-19.4375 297.935 -19.4375 291.995 -19.4375 285.875 C-23.3975 285.545 -27.3575 285.215 -31.4375 284.875 C-32.035625 286.463125 -32.63375 288.05125 -33.25 289.6875 C-34.51684224 293.05118458 -35.51310555 295.68170416 -38.4375 297.875 C-45.25445221 298.74064472 -45.25445221 298.74064472 -49 296 C-51.44588209 290.68286503 -50.24608833 285.300765 -48.4375 279.875 C-49.05238281 279.67003906 -49.66726563 279.46507812 -50.30078125 279.25390625 C-53.6796875 278.12760417 -57.05859375 277.00130208 -60.4375 275.875 C-66.2355363 283.57412417 -66.2355363 283.57412417 -68.11328125 292.4453125 C-67.03800116 294.42986453 -65.80067728 296.08291024 -64.4375 297.875 C-62.33514291 304.22029596 -62.8608519 310.93521397 -65.46484375 317.02734375 C-68.5876671 322.95945398 -72.60078984 326.00970592 -78.4375 328.875 C-85.08703964 330.91997044 -92.26350509 330.62800481 -98.62890625 327.8359375 C-105.4691749 324.2015831 -109.03608321 319.1911808 -111.4375 311.875 C-112.62720507 304.59285367 -111.70440974 298.49438486 -108.05859375 292.0703125 C-104.19469338 286.83775344 -98.84000136 283.15550027 -92.4375 281.875 C-89.09625713 281.73410422 -85.77899391 281.75613263 -82.4375 281.875 C-82.16164063 281.15957031 -81.88578125 280.44414062 -81.6015625 279.70703125 C-79.79151622 275.30339517 -77.5889799 271.12134191 -75.4375 266.875 C-79.8925 263.41 -79.8925 263.41 -84.4375 259.875 C-86.1390625 261.3290625 -86.1390625 261.3290625 -87.875 262.8125 C-88.83212891 263.63041016 -88.83212891 263.63041016 -89.80859375 264.46484375 C-90.70741149 265.24295695 -91.59686528 266.03436528 -92.4375 266.875 C-96.7919581 267.37743747 -98.77163529 267.35668936 -102.375 264.75 C-104.4375 261.875 -104.4375 261.875 -105.1875 259.0625 C-104.01919517 254.09720448 -100.95341813 251.51648664 -97.4375 247.875 C-99.4175 244.905 -101.3975 241.935 -103.4375 238.875 C-109.37860611 240.06322122 -114.05730615 241.55794408 -118.4375 245.875 C-119.47664625 249.20625486 -119.80953375 252.27769599 -120.10546875 255.75 C-120.81658962 262.44290227 -124.57130975 266.38971127 -129.55859375 270.61328125 C-135.71871394 274.74991081 -142.26087573 274.66776663 -149.4375 273.875 C-156.89756937 271.68385941 -161.63172601 267.58167863 -165.4375 260.875 C-168.53525028 254.25707894 -168.2791457 247.56771181 -165.9375 240.75 C-162.93307461 233.97159466 -157.98344113 229.61591823 -151.125 226.875 C-145.3530984 225.27003254 -138.79992189 225.19378905 -133.359375 227.9140625 C-132.76640625 228.29304687 -132.1734375 228.67203125 -131.5625 229.0625 C-130.53125 229.660625 -129.5 230.25875 -128.4375 230.875 C-124.66406391 229.77103605 -121.46185078 227.79660181 -118.125 225.75 C-116.578125 224.80125 -115.03125 223.8525 -113.4375 222.875 C-114.7575 219.245 -116.0775 215.615 -117.4375 211.875 C-118.2625 212.04 -119.0875 212.205 -119.9375 212.375 C-124.01996977 212.95820997 -127.31390473 213.27405761 -131.4375 212.875 C-134.47477005 210.29332046 -135.31249856 208.75001007 -135.875 204.8125 C-135.3778386 201.47441632 -134.71670099 200.31770889 -132.4375 197.875 C-129.16888649 196.49549068 -125.88618918 195.77076342 -122.4375 194.875 C-122.7675 190.585 -123.0975 186.295 -123.4375 181.875 C-129.3775 181.875 -135.3175 181.875 -141.4375 181.875 C-141.7675 183.195 -142.0975 184.515 -142.4375 185.875 C-145.53105325 191.69088012 -150.07773122 195.47775159 -156.36328125 197.4921875 C-164.23644826 198.94523904 -171.70428115 198.41453361 -178.4375 193.875 C-183.83477586 189.02467561 -186.95470092 184.48841347 -187.71875 177.1875 C-188.10082405 169.69884857 -186.93616504 163.96716808 -182.4375 157.875 C-177.19707902 152.68838211 -171.57807934 149.91418308 -164.1875 149.5 C-157.81702814 149.6930446 -152.09592558 151.52053233 -147.28515625 155.78125 C-144.15750695 159.20951181 -142.58413648 161.28845407 -141.4375 165.875 C-135.4975 165.875 -129.5575 165.875 -123.4375 165.875 C-123.293125 164.10125 -123.14875 162.3275 -123 160.5 C-122.5625 155.125 -122.5625 155.125 -121.4375 152.875 C-122.32501953 152.74544922 -122.32501953 152.74544922 -123.23046875 152.61328125 C-128.68218858 151.64388898 -132.09599702 150.61777843 -135.4375 145.875 C-136.25377653 141.95687267 -135.73974479 140.40112983 -133.75 136.9375 C-128.51218969 133.67622188 -123.35653586 134.99971066 -117.4375 135.875 C-116.1175 132.245 -114.7975 128.615 -113.4375 124.875 C-115.32207538 123.66971335 -117.22067585 122.48633551 -119.125 121.3125 C-120.70861328 120.32056641 -120.70861328 120.32056641 -122.32421875 119.30859375 C-125.77804792 117.71818559 -126.91948615 117.65134301 -130.4375 118.875 C-131.67715612 119.37034913 -132.90717686 119.89066835 -134.125 120.4375 C-140.6205065 122.90383893 -146.81788112 122.81590738 -153.25 120.1875 C-157.01162861 118.31000283 -159.69600214 116.1002916 -162.4375 112.875 C-162.994375 112.25625 -163.55125 111.6375 -164.125 111 C-167.32687849 105.81600625 -168.18235562 99.86822293 -167.4375 93.875 C-165.36145318 85.82842439 -161.57015973 80.16014034 -154.4375 75.85546875 C-148.26775936 72.8308498 -140.62898609 72.86991724 -134.1875 75.0625 C-127.20166969 78.12670726 -123.5527 82.27797827 -120.33984375 89.09375 C-118.85105478 93.68257142 -119.03006535 98.11254159 -119.4375 102.875 C-118.73238281 103.14054687 -118.02726562 103.40609375 -117.30078125 103.6796875 C-114.28182214 104.93998967 -111.48564924 106.41457994 -108.625 108 C-107.64917969 108.53882813 -106.67335938 109.07765625 -105.66796875 109.6328125 C-104.93191406 110.04273438 -104.19585937 110.45265625 -103.4375 110.875 C-103.15132813 110.10800781 -102.86515625 109.34101563 -102.5703125 108.55078125 C-101.28700088 105.51951071 -99.57070186 103.3637355 -97.4375 100.875 C-97.85902344 100.39289063 -98.28054687 99.91078125 -98.71484375 99.4140625 C-99.53662109 98.46660156 -99.53662109 98.46660156 -100.375 97.5 C-100.92027344 96.87351562 -101.46554688 96.24703125 -102.02734375 95.6015625 C-103.90469745 93.30297431 -104.41525641 92.04182693 -104.8125 89.0625 C-104.4375 85.875 -104.4375 85.875 -102.3125 83 C-99.4375 80.875 -99.4375 80.875 -96.625 80.125 C-91.78541483 81.26372592 -88.89857632 84.4314926 -85.4375 87.875 C-82.89642488 86.6747475 -81.02630497 85.54212783 -78.8125 83.75 C-76.4375 81.875 -76.4375 81.875 -74.4375 81.875 C-75.015 80.88757813 -75.5925 79.90015625 -76.1875 78.8828125 C-76.937726 77.58867265 -77.68771368 76.29439463 -78.4375 75 C-78.8190625 74.34902344 -79.200625 73.69804687 -79.59375 73.02734375 C-82.4375 68.1015625 -82.4375 68.1015625 -82.4375 65.875 C-83.12714844 65.92140625 -83.81679687 65.9678125 -84.52734375 66.015625 C-92.16900107 66.30913173 -98.33406377 65.50254538 -104.22265625 60.296875 C-109.88945389 54.11491394 -111.9856589 47.92588432 -111.72265625 39.58984375 C-111.00196227 32.72844211 -108.71856929 28.40163082 -103.4375 23.875 C-102.65375 23.153125 -101.87 22.43125 -101.0625 21.6875 C-95.80438552 18.05689714 -89.73104975 17.00184085 -83.4375 17.875 C-75.22633395 19.82629783 -70.24505294 24.03625594 -65.4375 30.875 C-62.64844649 36.33689646 -62.39592234 43.22312709 -64.078125 49.12109375 C-64.58031896 50.42335162 -65.11186745 51.7150164 -65.68359375 52.98828125 C-66.64857116 55.40322471 -67.25329419 57.25774252 -67.4375 59.875 C-66.04398832 63.07565099 -66.04398832 63.07565099 -64 66.1875 C-63.34128906 67.25613281 -62.68257813 68.32476562 -62.00390625 69.42578125 C-61.48699219 70.23402344 -60.97007812 71.04226562 -60.4375 71.875 C-56.8075 70.555 -53.1775 69.235 -49.4375 67.875 C-49.56769531 66.99457031 -49.69789063 66.11414063 -49.83203125 65.20703125 C-50.95947492 55.71332335 -50.95947492 55.71332335 -48.375 51.5625 C-44.91137017 49.57275521 -43.35562733 49.05872347 -39.4375 49.875 C-35.51361621 52.63955449 -34.15279036 55.13072318 -33.125 59.6875 C-32.898125 61.069375 -32.67125 62.45125 -32.4375 63.875 C-26.0025 62.885 -26.0025 62.885 -19.4375 61.875 C-19.4375 55.935 -19.4375 49.995 -19.4375 43.875 C-20.7575 43.545 -22.0775 43.215 -23.4375 42.875 C-29.54630015 38.8660999 -33.59188738 33.97886744 -35.4375 26.875 C-36.53377 18.76008186 -34.76669588 12.47466636 -30.375 5.6875 C-22.40747657 -2.96769658 -10.51555687 -4.81246882 0 0 Z M-18.4375 17.875 C-19.60198881 20.77851124 -19.60198881 20.77851124 -19.4375 23.875 C-17.49423841 27.37287086 -16.2734715 28.61375891 -12.4375 29.8125 C-9.30591304 29.8777414 -7.95943396 29.6763814 -5.4375 27.875 C-3.09200326 24.35675489 -2.85758597 23.01724306 -3.4375 18.875 C-5.92352449 15.51155511 -7.35175523 14.07442251 -11.5 13.3125 C-15.15005579 14.01144685 -16.29314611 14.85702045 -18.4375 17.875 Z M-92.125 35.4375 C-94.67821817 37.78011298 -94.67821817 37.78011298 -95.5625 41.3125 C-95.75791984 44.98661091 -95.75791984 44.98661091 -93.375 47.8125 C-90.60514391 50.04647653 -90.60514391 50.04647653 -87.4375 50.5 C-83.32460733 49.64314736 -81.84063068 48.29764067 -79.4375 44.875 C-79.1065684 41.27469811 -79.1065684 41.27469811 -80.4375 37.875 C-82.62248756 35.34308501 -82.62248756 35.34308501 -85.4375 33.875 C-89.3792798 33.5399197 -89.3792798 33.5399197 -92.125 35.4375 Z M59.75 35.4375 C57.10181088 38.3883393 56.5625 39.92539058 56.5625 43.875 C58.29594875 47.60343964 58.29594875 47.60343964 61.5625 49.875 C65.61513598 50.41535146 67.09980231 50.21699395 70.4375 47.75 C72.76332135 45.04371333 72.76332135 45.04371333 73.125 41.8125 C72.42605315 38.16244421 71.58047955 37.01935389 68.5625 34.875 C64.7458941 33.57572991 63.30461119 33.46271601 59.75 35.4375 Z M-150.4375 93.875 C-151.68427006 96.77206707 -151.68427006 96.77206707 -151.4375 99.875 C-149.42613937 103.64630118 -148.07390532 104.66672189 -144 106 C-140.32588909 106.19541984 -140.32588909 106.19541984 -137.5 103.8125 C-135.26602347 101.04264391 -135.26602347 101.04264391 -134.8125 97.875 C-135.65496209 93.83118195 -137.17149981 92.34264459 -140.4375 89.875 C-144.96599739 88.85608809 -147.34563196 90.61136151 -150.4375 93.875 Z M115.3125 91.4375 C112.99149708 94.6703255 112.5625 96.90987243 112.5625 100.875 C114.67337031 104.21721133 116.26064177 104.78875479 120.0625 105.875 C123.54898859 106.19560963 123.54898859 106.19560963 125.9375 104.3125 C127.89337661 101.37868509 128.41598972 99.39124682 128.5625 95.875 C127.74664179 93.20491857 127.04355888 92.20676475 124.75 90.625 C120.95944662 89.3253817 118.6793078 89.09943903 115.3125 91.4375 Z M-170.4375 168.875 C-171.88180855 171.76361709 -171.81438506 173.67147701 -171.4375 176.875 C-168.95147551 180.23844489 -167.52324477 181.67557749 -163.375 182.4375 C-159.72494421 181.73855315 -158.58185389 180.89297955 -156.4375 177.875 C-155.27301119 174.97148876 -155.27301119 174.97148876 -155.4375 171.875 C-157.35796646 168.41816038 -158.61972684 167.15339086 -162.375 165.875 C-166.00991294 165.875 -167.58614833 166.67538586 -170.4375 168.875 Z M135.6875 167.5 C133.3172062 170.1491519 132.5625 171.33191847 132.5625 174.875 C133.94807787 177.71213564 135.33251704 179.64501704 137.5625 181.875 C141.26616574 182.3688221 143.13495064 182.10736378 146.4375 180.3125 C148.8735008 177.96437394 148.8735008 177.96437394 149.0625 174.375 C148.45518223 169.97892416 148.45518223 169.97892416 145.5625 166.875 C141.41651322 165.64655947 139.49613827 165.34729141 135.6875 167.5 Z M-149.4375 244.875 C-151.7348659 247.68234473 -151.7348659 247.68234473 -151.3125 250.8125 C-150.29778648 254.36399733 -149.45395212 255.75533094 -146.4375 257.875 C-143.48058291 258.62515195 -143.48058291 258.62515195 -140.4375 257.875 C-137.12080721 255.42353142 -135.67669372 253.91875441 -134.75 249.875 C-135.76284808 245.45529931 -137.69516579 244.36988947 -141.4375 241.875 C-145.07077194 241.875 -146.48485927 242.83086411 -149.4375 244.875 Z M115.75 243.375 C112.88938663 246.64427242 112.4105815 248.54532286 112.5625 252.875 C114.96563068 256.29764067 116.44960733 257.64314736 120.5625 258.5 C124.67539267 257.64314736 126.15936932 256.29764067 128.5625 252.875 C128.5625 249.32904442 128.28338444 247.01323859 126.375 244 C122.5396599 241.61944408 119.75152981 241.24085077 115.75 243.375 Z M-93.4375 299.875 C-95.78299674 303.39324511 -96.01741403 304.73275694 -95.4375 308.875 C-92.95147551 312.23844489 -91.52324477 313.67557749 -87.375 314.4375 C-83.72494421 313.73855315 -82.58185389 312.89297955 -80.4375 309.875 C-79.27301119 306.97148876 -79.27301119 306.97148876 -79.4375 303.875 C-81.38076159 300.37712914 -82.6015285 299.13624109 -86.4375 297.9375 C-89.56908696 297.8722586 -90.91556604 298.0736186 -93.4375 299.875 Z M59.75 299.4375 C57.0936421 302.39744166 56.48145268 303.90368124 56.5625 307.875 C58.57386063 311.64630118 59.92609468 312.66672189 64 314 C67.67411091 314.19541984 67.67411091 314.19541984 70.5 311.8125 C72.75263965 309.03864884 72.75263965 309.03864884 73.125 305.8125 C72.42605315 302.16244421 71.58047955 301.01935389 68.5625 298.875 C64.7458941 297.57572991 63.30461119 297.46271601 59.75 299.4375 Z M-16.4375 319.875 C-18.44715774 321.47116005 -18.44715774 321.47116005 -19.4375 323.875 C-19.37230059 327.59136626 -19.23640124 329.92246391 -16.8125 332.8125 C-13.42581357 334.32759656 -11.10332737 334.39868962 -7.4375 333.875 C-4.75911427 331.94373898 -4.75911427 331.94373898 -3.4375 328.875 C-3.4987569 325.32209956 -3.69142301 322.94082427 -5.75 320 C-9.70707663 317.36194891 -12.27137821 317.63170365 -16.4375 319.875 Z " fill="#fff" transform="translate(311.4375,162.125)"/>
<path d="M0 0 C0.99 -0.03287109 0.99 -0.03287109 2 -0.06640625 C5.14847138 0.92364041 6.20478525 2.85906349 8 5.5625 C8.45410156 8.60864258 8.45410156 8.60864258 8.390625 11.95703125 C8.37773438 13.15908203 8.36484375 14.36113281 8.3515625 15.59960938 C8.31804687 16.84548828 8.28453125 18.09136719 8.25 19.375 C8.23195313 20.64021484 8.21390625 21.90542969 8.1953125 23.20898438 C8.14823916 26.32759335 8.08249094 29.44465973 8 32.5625 C8.76183594 32.68367188 9.52367188 32.80484375 10.30859375 32.9296875 C16.59527564 33.94999792 22.79770268 35.11529729 29 36.5625 C29.33733154 35.94205811 29.67466309 35.32161621 30.0222168 34.68237305 C31.56415426 31.86414928 33.12552347 29.05716298 34.6875 26.25 C35.21794922 25.27353516 35.74839844 24.29707031 36.29492188 23.29101562 C36.82021484 22.35322266 37.34550781 21.41542969 37.88671875 20.44921875 C38.36326904 19.58514404 38.83981934 18.72106934 39.33081055 17.83081055 C41.28154098 15.17990569 43.04380074 13.97686227 46 12.5625 C49.91032112 12.5625 51.48097805 13.11001932 54.4375 15.6875 C56.08755162 18.72359499 56.20764465 20.14977788 55.63452148 23.49804688 C54.03566891 28.70000816 50.59111627 33.24688567 47.68554688 37.79882812 C47.18732422 38.61158203 46.68910156 39.42433594 46.17578125 40.26171875 C45.71083252 40.99221436 45.24588379 41.72270996 44.7668457 42.4753418 C43.74453751 44.57336591 43.74453751 44.57336591 44.76489258 46.73583984 C46.11519777 48.73287156 47.48473164 50.01007232 49.375 51.5 C52.34128306 53.9337145 54.71620088 56.4565332 57 59.5625 C62.98036413 59.00810727 67.60613816 55.27280002 72.49804688 52.06835938 C77.63142491 48.87783832 80.94699006 47.88194537 87 48.5625 C89.5 50.125 89.5 50.125 91 52.5625 C91.5625 56 91.5625 56 91 59.5625 C86.95378231 64.52980789 81.72151733 67.28403879 76.1875 70.375 C75.30384766 70.87708984 74.42019531 71.37917969 73.50976562 71.89648438 C71.34383552 73.12579606 69.17398315 74.34750517 67 75.5625 C67.28875 76.57570313 67.5775 77.58890625 67.875 78.6328125 C68.25040295 79.98426313 68.62538041 81.33583201 69 82.6875 C69.19078125 83.35265625 69.3815625 84.0178125 69.578125 84.703125 C70.69911078 88.78671605 71.08355382 92.34825413 71 96.5625 C71.85754883 96.53631592 72.71509766 96.51013184 73.59863281 96.4831543 C76.78916189 96.39779403 79.97910807 96.33518487 83.17041016 96.2878418 C84.54983702 96.2627407 85.92913142 96.22865127 87.30810547 96.18530273 C89.29335872 96.12447125 91.27959359 96.09892063 93.265625 96.07421875 C95.05661621 96.03494263 95.05661621 96.03494263 96.88378906 95.99487305 C100 96.5625 100 96.5625 102.42480469 98.86645508 C104 101.5625 104 101.5625 103.9375 105.1875 C103.04211343 108.41089166 102.64893115 109.65526958 100 111.5625 C97.23382437 112.94558781 94.98982 112.67460196 91.8984375 112.66015625 C90.68671875 112.65693359 89.475 112.65371094 88.2265625 112.65039062 C86.95554688 112.64201172 85.68453125 112.63363281 84.375 112.625 C83.09625 112.62048828 81.8175 112.61597656 80.5 112.61132812 C77.33328708 112.59951203 74.16666644 112.58303815 71 112.5625 C70.95174072 113.21331543 70.90348145 113.86413086 70.85375977 114.53466797 C70.42695459 119.55530567 69.81363833 123.96689389 67.9375 128.6875 C67.57527344 129.61820313 67.21304688 130.54890625 66.83984375 131.5078125 C66.56269531 132.18585938 66.28554687 132.86390625 66 133.5625 C66.64710938 133.79195312 67.29421875 134.02140625 67.9609375 134.2578125 C72.04079213 136.00931822 75.7969947 138.19687574 79.625 140.4375 C80.388125 140.87191406 81.15125 141.30632812 81.9375 141.75390625 C89.04034998 145.90346597 89.04034998 145.90346597 91 149.5625 C91.4112874 152.85279921 91.32431433 154.8566394 89.9375 157.875 C87.77479174 159.75864913 86.01634756 160.59568709 83.140625 160.85546875 C78.27319795 160.18930629 74.13026642 157.0605116 70 154.5625 C67.98545133 153.42628434 65.96480702 152.3007918 63.9375 151.1875 C63.03902344 150.68476563 62.14054688 150.18203125 61.21484375 149.6640625 C59.1138184 148.41406079 59.1138184 148.41406079 57 148.5625 C55.39940707 150.18342592 55.39940707 150.18342592 53.75 152.25 C50.74045531 155.80214603 47.66475465 158.70220369 44 161.5625 C45.64086867 167.38175556 48.53811935 171.9048202 51.81054688 176.90820312 C54.45051179 181.11227165 55.77709121 184.47894111 56 189.5625 C54.65437601 192.51005732 53.91445456 194.10527272 51 195.5625 C47.54510508 195.94637721 45.62468372 195.94533747 42.62890625 194.109375 C39.08303388 190.67414649 37.04942735 186.83380095 34.75 182.5 C34.30398437 181.68466797 33.85796875 180.86933594 33.3984375 180.02929688 C31.69437115 176.8871018 30.13276043 173.9607813 29 170.5625 C28.32195312 170.83964844 27.64390625 171.11679688 26.9453125 171.40234375 C26.01460937 171.76457031 25.08390625 172.12679687 24.125 172.5 C22.76761719 173.03947266 22.76761719 173.03947266 21.3828125 173.58984375 C16.95546792 174.86283313 12.58147014 175.22277474 8 175.5625 C8.01047363 176.35946289 8.02094727 177.15642578 8.03173828 177.97753906 C8.07331772 181.58916062 8.09933261 185.20073179 8.125 188.8125 C8.14175781 190.06675781 8.15851563 191.32101563 8.17578125 192.61328125 C8.18222656 193.81855469 8.18867187 195.02382812 8.1953125 196.265625 C8.20578613 197.37583008 8.21625977 198.48603516 8.22705078 199.62988281 C8.00235775 202.53204699 7.56724197 204.14198962 6 206.5625 C3.30412197 208.65929403 1.907056 208.55760821 -1.5625 208.375 C-6.08080042 207.30703808 -6.08080042 207.30703808 -8 204.5625 C-8.34057617 201.55981445 -8.34057617 201.55981445 -8.29296875 197.92578125 C-8.28330078 196.62705078 -8.27363281 195.32832031 -8.26367188 193.99023438 C-8.23860585 192.61848361 -8.21321101 191.24673882 -8.1875 189.875 C-8.1724502 188.49155076 -8.1587623 187.10808599 -8.14648438 185.72460938 C-8.11107223 182.33684793 -8.06168054 178.94986861 -8 175.5625 C-8.59425781 175.52511719 -9.18851562 175.48773438 -9.80078125 175.44921875 C-16.47134587 174.9201382 -22.60272899 173.49627584 -29 171.5625 C-29.56714722 172.54645752 -29.56714722 172.54645752 -30.14575195 173.55029297 C-31.86094399 176.51684157 -33.58656835 179.47718791 -35.3125 182.4375 C-35.90740234 183.47003906 -36.50230469 184.50257813 -37.11523438 185.56640625 C-37.69208984 186.55253906 -38.26894531 187.53867188 -38.86328125 188.5546875 C-39.39219971 189.46589355 -39.92111816 190.37709961 -40.46606445 191.31591797 C-42 193.5625 -42 193.5625 -45 195.5625 C-48.68722891 196.0434429 -50.56074794 195.79167499 -53.875 194.0625 C-56.23721962 191.28341809 -56.62675371 189.69089276 -56.52587891 186.08154297 C-55.32166449 180.31316585 -51.77142272 175.35902656 -48.75 170.375 C-48.05969061 169.20205767 -47.37087543 168.0282346 -46.68359375 166.85351562 C-38.55811595 153.13486912 -38.55811595 153.13486912 -33.9375 151.4375 C-29.16245126 151.58908885 -26.25717457 153.13277305 -22.0234375 155.21484375 C-7.7707376 161.56779138 6.57408235 160.47785836 21 155.5625 C35.40486124 149.6236537 45.24841653 138.67174086 51.3125 124.5 C56.48502724 110.42539798 56.0991779 96.6153804 51 82.5625 C43.86663792 67.50130186 32.73856593 57.22574967 17 51.5625 C1.13181582 46.87792172 -14.76373372 48.914661 -29.25 56.75 C-42.01069589 64.68550522 -50.32389965 76.39716842 -54.33984375 90.87890625 C-56.74219447 104.28373894 -55.66029226 117.46869369 -49.39453125 129.6953125 C-47.63065665 133.3218782 -47.42011838 135.57581386 -48 139.5625 C-52.56598639 144.80641929 -58.13158536 147.87593707 -64.10107422 151.29345703 C-65.87154094 152.31051292 -67.62909874 153.3476566 -69.38671875 154.38671875 C-70.51464844 155.03769531 -71.64257812 155.68867188 -72.8046875 156.359375 C-73.82546387 156.95073242 -74.84624023 157.54208984 -75.89794922 158.15136719 C-79.35255042 159.72287631 -82.21828585 160.33031408 -86 160.5625 C-89.50949663 158.65516488 -90.71110949 157.41111588 -92 153.625 C-92 149.89886361 -91.16211424 148.56022243 -89 145.5625 C-86.73168945 143.89331055 -86.73168945 143.89331055 -84.11328125 142.44921875 C-82.7065918 141.6612793 -82.7065918 141.6612793 -81.27148438 140.85742188 C-80.29501953 140.32697266 -79.31855469 139.79652344 -78.3125 139.25 C-77.32443359 138.70021484 -76.33636719 138.15042969 -75.31835938 137.58398438 C-72.88492071 136.23207401 -70.4456346 134.89218083 -68 133.5625 C-68.28875 132.325 -68.5775 131.0875 -68.875 129.8125 C-70.15024931 124.10120489 -71.08105689 118.34011039 -72 112.5625 C-72.76143311 112.57821045 -73.52286621 112.5939209 -74.30737305 112.61010742 C-77.7673394 112.67258453 -81.2271869 112.71153172 -84.6875 112.75 C-85.88568359 112.77513672 -87.08386719 112.80027344 -88.31835938 112.82617188 C-89.47529297 112.83583984 -90.63222656 112.84550781 -91.82421875 112.85546875 C-92.88729248 112.8711792 -93.95036621 112.88688965 -95.0456543 112.90307617 C-98.70809996 112.48087043 -101.37557231 111.18692769 -104 108.5625 C-104.59253899 101.33352428 -104.59253899 101.33352428 -102.38061523 98.45532227 C-99.24988888 95.9660882 -97.4492369 96.0997866 -93.484375 96.171875 C-92.23398438 96.18476562 -90.98359375 96.19765625 -89.6953125 96.2109375 C-88.39335938 96.24445313 -87.09140625 96.27796875 -85.75 96.3125 C-84.43257812 96.33054687 -83.11515625 96.34859375 -81.7578125 96.3671875 C-78.50447692 96.41433729 -75.25260375 96.48013956 -72 96.5625 C-71.95174072 95.99474854 -71.90348145 95.42699707 -71.85375977 94.84204102 C-71.37222681 89.83483023 -70.50544071 85.30497959 -68.9375 80.5 C-68.57527344 79.37464844 -68.21304688 78.24929687 -67.83984375 77.08984375 C-67.56269531 76.25582031 -67.28554687 75.42179687 -67 74.5625 C-67.64710937 74.33175781 -68.29421875 74.10101563 -68.9609375 73.86328125 C-73.03201116 72.120778 -76.79681173 69.96786675 -80.625 67.75 C-81.388125 67.32396484 -82.15125 66.89792969 -82.9375 66.45898438 C-87.09695806 64.04722843 -90.1077736 62.19387672 -92 57.5625 C-91.8757742 54.45685505 -91.46849826 52.38926164 -89.9375 49.6875 C-86.75717932 47.84086218 -83.53229135 48.03376566 -80 48.5625 C-76.72071737 49.87336869 -73.76715443 51.61212157 -70.75 53.4375 C-69.18248054 54.35188635 -67.61477856 55.26595992 -66.046875 56.1796875 C-65.02352051 56.79239502 -65.02352051 56.79239502 -63.97949219 57.41748047 C-62.02139464 58.55012446 -60.03315902 59.57205948 -58 60.5625 C-57.57589844 60.05460937 -57.15179688 59.54671875 -56.71484375 59.0234375 C-52.77219118 54.39623646 -48.70899866 50.40658054 -44 46.5625 C-44.36351562 45.89605469 -44.72703125 45.22960938 -45.1015625 44.54296875 C-46.16063167 42.60134193 -47.21497859 40.6571349 -48.265625 38.7109375 C-49.38682441 36.67560704 -50.54120475 34.65805422 -51.734375 32.6640625 C-55.05887544 27.01241174 -57.06025086 23.15961646 -56 16.5625 C-54.40970955 13.82366645 -53.16534703 13.61282301 -50.125 12.6875 C-46.25688812 12.53277552 -45.08739257 13.27170185 -42 15.5625 C-39.90234375 18.453125 -39.90234375 18.453125 -37.9375 21.8125 C-37.59460938 22.39298096 -37.25171875 22.97346191 -36.8984375 23.5715332 C-35.92233932 25.22936916 -34.96075286 26.89572417 -34 28.5625 C-33.53722656 29.33464844 -33.07445313 30.10679688 -32.59765625 30.90234375 C-30 35.27491103 -30 35.27491103 -30 37.5625 C-29.16597656 37.28535156 -28.33195312 37.00820313 -27.47265625 36.72265625 C-25.78462891 36.17931641 -25.78462891 36.17931641 -24.0625 35.625 C-22.96035156 35.26535156 -21.85820313 34.90570313 -20.72265625 34.53515625 C-16.48441076 33.42778676 -12.35469872 32.93265248 -8 32.5625 C-8.0314209 31.32161621 -8.0314209 31.32161621 -8.06347656 30.05566406 C-8.14661619 26.3080663 -8.19865531 22.56066251 -8.25 18.8125 C-8.28351563 17.51054687 -8.31703125 16.20859375 -8.3515625 14.8671875 C-8.37089844 12.99160156 -8.37089844 12.99160156 -8.390625 11.078125 C-8.4220459 9.34997559 -8.4220459 9.34997559 -8.45410156 7.58691406 C-7.72785845 2.74997878 -4.95664312 -0.00968094 0 0 Z " fill="#fff" transform="translate(116,-0.5625)"/>
<path d="M0 0 C3.28243901 0.66379564 4.2338651 1.62879674 6.10546875 4.42578125 C6.59372409 7.85572755 6.48129663 11.22035397 6.35546875 14.67578125 C6.33742188 15.61164062 6.319375 16.5475 6.30078125 17.51171875 C6.25372548 19.8174514 6.18800588 22.1210907 6.10546875 24.42578125 C6.88277344 24.55597656 7.66007812 24.68617187 8.4609375 24.8203125 C11.85071292 25.59640584 13.06350353 26.62753261 15.10546875 29.42578125 C15.72125674 33.04353567 15.41607196 34.83745206 13.703125 38.08203125 C9.78501507 41.61716803 6.14241068 41.03893796 1.04296875 40.98828125 C-11.50499002 41.24248743 -20.59884568 43.54767531 -29.89453125 52.42578125 C-37.34157394 60.42137842 -41.33571749 70.84669827 -41.171875 81.76953125 C-39.91885935 93.77024456 -34.50386187 104.18201985 -25.2421875 111.85546875 C-16.17308312 117.92165837 -5.87390313 120.64051803 4.90234375 119 C15.43475201 116.77618841 25.11637084 111.62005389 31.10546875 102.42578125 C37.26379183 91.58579022 39.31554905 80.22645974 36.234375 67.95703125 C33.88017768 61.96733576 30.64464262 57.31978196 26.56640625 52.38671875 C24.57194269 49.70965803 23.95392465 47.75975155 24.10546875 44.42578125 C27.063462 38.80702583 31.39425288 34.61867576 35.79296875 30.11328125 C36.57091797 29.27732422 37.34886719 28.44136719 38.15039062 27.58007812 C44.70169569 20.88670973 44.70169569 20.88670973 49.53125 20.78515625 C53.10546875 21.42578125 53.10546875 21.42578125 55.60546875 22.98828125 C57.78618538 26.53194577 57.85878598 28.31677819 57.10546875 32.42578125 C54.67118215 36.00241464 51.67552785 38.98877801 48.4921875 41.90234375 C46.94438517 43.28061752 46.94438517 43.28061752 45.10546875 45.42578125 C45.4864567 48.99462753 47.34953907 51.87882969 49.04296875 54.98828125 C52.00108995 60.75555352 53.2909312 66.04416816 54.10546875 72.42578125 C54.98283691 72.39436035 54.98283691 72.39436035 55.87792969 72.36230469 C58.5369334 72.2789801 61.1956623 72.22707228 63.85546875 72.17578125 C64.77585937 72.14226562 65.69625 72.10875 66.64453125 72.07421875 C73.43792616 71.97576375 73.43792616 71.97576375 76.71875 74.1875 C79.01257827 77.88993267 78.58417837 80.11739466 78.10546875 84.42578125 C76.29383608 87.10009614 75.22785798 87.38498484 72.10546875 88.42578125 C70.69721982 88.50600124 69.28549644 88.53344102 67.875 88.5234375 C67.07255859 88.52021484 66.27011719 88.51699219 65.44335938 88.51367188 C64.60998047 88.50529297 63.77660156 88.49691406 62.91796875 88.48828125 C62.07298828 88.48376953 61.22800781 88.47925781 60.35742188 88.47460938 C58.2734072 88.46283528 56.18942898 88.44490015 54.10546875 88.42578125 C53.95851563 89.1528125 53.8115625 89.87984375 53.66015625 90.62890625 C52.07849797 97.71909854 49.74775464 103.53566307 46.1171875 109.83203125 C44.85734605 112.3075222 44.85734605 112.3075222 45.65234375 114.48046875 C47.46742208 116.91033167 49.47979663 118.950417 51.66796875 121.05078125 C57.01472789 126.20077965 57.01472789 126.20077965 57.35546875 130.80078125 C57.10546875 134.42578125 57.10546875 134.42578125 55.98046875 136.80078125 C53.35612277 139.07521443 51.55699313 139.35675076 48.10546875 139.42578125 C43.94761075 137.36403348 41.01321517 134.54440091 37.79296875 131.23828125 C36.90996094 130.33722656 36.02695312 129.43617188 35.1171875 128.5078125 C34.45332031 127.82074219 33.78945313 127.13367188 33.10546875 126.42578125 C29.57963879 127.80047307 26.15496471 129.31656252 22.73046875 130.92578125 C17.113141 133.48873429 12.36009324 135.42578125 6.10546875 135.42578125 C6.13165283 136.04098633 6.15783691 136.65619141 6.18481445 137.29003906 C6.28892796 140.08502533 6.35383624 142.87960383 6.41796875 145.67578125 C6.45986328 146.64386719 6.50175781 147.61195313 6.54492188 148.609375 C6.66841342 155.77188463 6.66841342 155.77188463 3.80859375 159.09375 C0.06642906 160.93779358 -1.93953613 160.64823429 -5.89453125 159.42578125 C-8.3525753 157.24279364 -9.73302807 155.54260628 -10.21118164 152.23608398 C-10.28809863 149.68360753 -10.24347492 147.1648863 -10.14453125 144.61328125 C-10.12648438 143.72962891 -10.1084375 142.84597656 -10.08984375 141.93554688 C-10.04291638 139.76515582 -9.97117856 137.59532606 -9.89453125 135.42578125 C-11.10882813 135.29816406 -12.323125 135.17054688 -13.57421875 135.0390625 C-21.16877159 134.08430916 -27.77053537 130.93819927 -33.89453125 126.42578125 C-38.80560041 128.40605107 -41.75838395 132.38362659 -45.26171875 136.2109375 C-48.26867333 138.74052689 -50.00455813 139.27124807 -53.89453125 139.42578125 C-57.42359192 137.82166277 -58.72226033 136.68418763 -60.89453125 133.42578125 C-60.89981797 128.97965096 -60.16128828 126.32545643 -57.171875 123.1171875 C-56.0736284 122.05839887 -54.9598248 121.01554006 -53.83203125 119.98828125 C-53.26419922 119.44751953 -52.69636719 118.90675781 -52.11132812 118.34960938 C-50.71903287 117.02751388 -49.30854285 115.72462449 -47.89453125 114.42578125 C-49.20681961 111.01140134 -50.69754837 107.78953516 -52.39453125 104.55078125 C-55.13524364 99.11786465 -56.89453125 94.5993113 -56.89453125 88.42578125 C-58.75658203 88.47798828 -58.75658203 88.47798828 -60.65625 88.53125 C-62.29816351 88.55939709 -63.94009171 88.58669626 -65.58203125 88.61328125 C-66.39865234 88.63841797 -67.21527344 88.66355469 -68.05664062 88.68945312 C-72.83710655 88.74751546 -76.04085507 88.5868273 -79.89453125 85.42578125 C-81.89453125 82.42578125 -81.89453125 82.42578125 -81.70703125 78.92578125 C-80.67640377 74.48615518 -80.67640377 74.48615518 -77.89453125 72.42578125 C-75.6262207 72.08520508 -75.6262207 72.08520508 -73.0078125 72.1328125 C-71.60112305 72.14731445 -71.60112305 72.14731445 -70.16601562 72.16210938 C-69.18955078 72.18724609 -68.21308594 72.21238281 -67.20703125 72.23828125 C-66.21896484 72.25181641 -65.23089844 72.26535156 -64.21289062 72.27929688 C-61.77288894 72.31465922 -59.33398406 72.36401092 -56.89453125 72.42578125 C-56.77851563 71.23339844 -56.6625 70.04101562 -56.54296875 68.8125 C-56.06334543 64.99150085 -55.06542189 61.78446069 -53.51953125 58.23828125 C-53.09929687 57.25472656 -52.6790625 56.27117188 -52.24609375 55.2578125 C-50.89453125 52.42578125 -50.89453125 52.42578125 -49.10546875 49.8125 C-47.63157393 47.55141848 -47.63157393 47.55141848 -48.390625 45.41796875 C-51.06365973 41.8770656 -54.4168374 39.04524851 -57.6796875 36.05859375 C-60.21024582 33.05048739 -60.75072727 31.31914078 -60.89453125 27.42578125 C-59.75673253 25.09846569 -58.72612411 23.25737411 -56.89453125 21.42578125 C-52.80381015 20.85164495 -50.2847 20.52191695 -46.76171875 22.8125 C-44.71234832 24.60862123 -42.79060392 26.4690666 -40.89453125 28.42578125 C-40.36214844 28.9465625 -39.82976562 29.46734375 -39.28125 30.00390625 C-38.13522668 31.12733193 -37.01172163 32.27367867 -35.89453125 33.42578125 C-32.41194151 32.07526171 -29.06738018 30.55383805 -25.70703125 28.92578125 C-20.52082952 26.53702801 -15.52906589 25.24468325 -9.89453125 24.42578125 C-9.92933594 23.18441406 -9.96414063 21.94304688 -10 20.6640625 C-10.02814709 19.02214899 -10.05544626 17.38022079 -10.08203125 15.73828125 C-10.10716797 14.92166016 -10.13230469 14.10503906 -10.15820312 13.26367188 C-10.21666476 8.45033082 -9.98123584 5.36774403 -6.89453125 1.42578125 C-5.04421135 -0.42453865 -2.46981043 0.13437993 0 0 Z " fill="#fff" transform="translate(421.89453125,-0.42578125)"/>
<path d="M0 0 C5.52942962 4.66929612 9.55724068 9.99341385 10.203125 17.296875 C10.35162496 25.06837312 9.06921659 31.69917692 3.625 37.61328125 C-2.51167078 42.85010367 -9.02973576 44.86776355 -17.0390625 44.4765625 C-23.91332545 43.37015079 -29.15940357 40.5249414 -33.5 35.0625 C-37.75885539 28.60203293 -38.76763436 22.64091432 -38 15 C-36.45065431 8.49727173 -33.47991966 3.8868954 -28.125 -0.1875 C-18.76353833 -5.61714777 -9.26231946 -5.64192872 0 0 Z M-20 14 C-22.04246256 16.96157072 -22.60571329 19.45225073 -22 23 C-19.53235541 26.26600019 -18.04381805 27.78253791 -14 28.625 C-9.88710733 27.76814736 -8.40313068 26.42264067 -6 23 C-6 19.45404442 -6.27911556 17.13823859 -8.1875 14.125 C-12.1396318 11.67195267 -16.20010644 11.15007983 -20 14 Z " fill="#fff" transform="translate(274,276)"/>
<path d="M0 0 C5.44501026 5.11040069 8.03958466 11.62187482 8.3125 19 C7.91686397 26.91272052 5.69922778 32.4524431 -0.125 37.875 C-6.14496748 42.6380512 -11.57016004 43.46843335 -19.1484375 43.30859375 C-26.10230037 42.47658245 -31.40437946 39.46876401 -35.75 34 C-39.77181613 27.91047049 -41.1566336 22.16732177 -40.25 14.9375 C-38.39559085 7.26165451 -34.84151963 2.26769538 -28.25 -2.0625 C-18.69712534 -7.24623043 -8.91934091 -5.66035096 0 0 Z M-21.0625 12.5 C-23.71068912 15.4508393 -24.25 16.98789058 -24.25 20.9375 C-22.51655125 24.66593964 -22.51655125 24.66593964 -19.25 26.9375 C-15.19736402 27.47785146 -13.71269769 27.27949395 -10.375 24.8125 C-8.04917865 22.10621333 -8.04917865 22.10621333 -7.6875 18.875 C-8.38644685 15.22494421 -9.23202045 14.08185389 -12.25 11.9375 C-16.0666059 10.63822991 -17.50788881 10.52521601 -21.0625 12.5 Z " fill="#fff" transform="translate(356.25,357.0625)"/>
<path d="M0 0 C4.92277773 3.757183 8.03492398 8.87182208 9.23828125 14.93359375 C10.14619712 23.05295563 8.8898281 29.16436899 4.23828125 35.93359375 C0.04909041 40.73274919 -5.27124047 43.48432427 -11.5234375 44.2890625 C-18.95463133 44.6411165 -24.72396172 43.39207982 -30.76171875 38.93359375 C-36.15772451 33.48161283 -38.7589852 27.78200225 -39.13671875 20.12109375 C-38.91119469 12.20401215 -36.17083305 6.91502879 -30.44921875 1.49609375 C-21.4421541 -5.90677148 -9.85944872 -5.96813637 0 0 Z M-19.57421875 13.49609375 C-22.22240787 16.44693305 -22.76171875 17.98398433 -22.76171875 21.93359375 C-21.02827 25.66203339 -21.02827 25.66203339 -17.76171875 27.93359375 C-13.70908277 28.47394521 -12.22441644 28.2755877 -8.88671875 25.80859375 C-6.5608974 23.10230708 -6.5608974 23.10230708 -6.19921875 19.87109375 C-6.8981656 16.22103796 -7.7437392 15.07794764 -10.76171875 12.93359375 C-14.57832465 11.63432366 -16.01960756 11.52130976 -19.57421875 13.49609375 Z " fill="#000000" transform="translate(314.76171875,316.06640625)"/>
<path d="M0 0 C5.78443244 3.74286805 8.8498861 8.44944112 11 15 C12.36116901 23.33167163 10.82825531 30.08797134 6 37 C1.9251166 41.6570096 -3.44040737 44.6110026 -9.609375 45.28515625 C-17.01402268 45.52038677 -22.57190951 44.25942328 -28.75 40.1875 C-34.44418576 34.65148607 -36.68973035 28.90939756 -37.3125 21.0625 C-37.05523166 13.64459607 -34.04270417 8.12357173 -29.01171875 2.765625 C-20.69679091 -4.53213691 -9.62221972 -5.11245368 0 0 Z M-17.875 14.5625 C-20.42781397 17.49072779 -20.91957234 19.13947245 -21 23 C-19.87981101 26.36056696 -19.05465901 26.96356066 -16 29 C-13.0850745 29.5838196 -13.0850745 29.5838196 -10 29 C-6.63003665 26.50915752 -5.18189573 25.11411135 -4.5 20.9375 C-5.06667329 17.60829443 -5.44921042 16.22165544 -8 14 C-12.11294095 12.78135083 -14.06522714 12.49197127 -17.875 14.5625 Z " fill="#000000" transform="translate(353,275)"/>
<path d="M0 0 C2.375 1.0625 2.375 1.0625 4 3 C4.99130001 6.22172505 5.6790397 8.6297949 4.125 11.765625 C3.37520823 12.92155398 2.6239057 14.07650442 1.87109375 15.23046875 C0.34579833 18.32893883 1.06235048 20.81199165 2 24 C5.48868651 26.32579101 6.89718519 26.41865457 11 26 C11.61875 25.505 12.2375 25.01 12.875 24.5 C15.67716075 22.52200418 17.72279435 22.50531169 21.09375 22.65625 C23 23 23 23 25.5 24.5625 C27.59311615 27.96381375 27.55147685 30.07072743 27 34 C24.61626446 38.45654906 21.18475316 40.43716376 16.62109375 42.265625 C9.65649459 44.2169583 3.14010332 43.89952295 -3.4375 40.875 C-9.5858585 37.35742951 -13.24797368 32.97055354 -15.4921875 26.19921875 C-17.29291595 18.40067939 -16.11033407 11.82369185 -12 5 C-8.37481594 0.19908057 -5.99143666 -0.8714817 0 0 Z " fill="#000000" transform="translate(252,357)"/>
<path d="M0 0 C0.7115625 -0.02384766 1.423125 -0.04769531 2.15625 -0.07226562 C5.96667114 -0.06160213 7.67054935 0.25874753 10.50390625 2.87109375 C12.54359209 6.54039804 12.10693828 8.57752218 11 12.5625 C9.42114034 14.62188216 8.30857577 15.40821211 6 16.5625 C4.06640414 16.71101844 2.12657903 16.78380833 0.1875 16.8125 C-0.85019531 16.83828125 -1.88789063 16.8640625 -2.95703125 16.890625 C-6.39860214 16.51951851 -8.23540073 15.60741005 -11 13.5625 C-12.54586876 10.47076248 -12.29359521 7.96820448 -12 4.5625 C-8.82201017 -0.02066786 -5.20105316 -0.08008868 0 0 Z " fill="#000000" transform="translate(144,95.4375)"/>
<path d="M0 0 C1.96453125 0.00193359 1.96453125 0.00193359 3.96875 0.00390625 C7.57480958 0.44668569 9.03214332 0.83052395 11.5 3.4375 C12.5 6.8125 12.5 6.8125 12.5 10.4375 C10.73358828 13.23939446 9.46950178 14.95274911 6.5 16.4375 C4.56640414 16.58601844 2.62657903 16.65880833 0.6875 16.6875 C-0.35019531 16.71328125 -1.38789062 16.7390625 -2.45703125 16.765625 C-6.17458551 16.36475907 -8.83739993 15.10010007 -11.5 12.4375 C-12.08647561 5.2824976 -12.08647561 5.2824976 -9.94921875 2.203125 C-6.55537807 -0.24347147 -4.14580639 -0.06120777 0 0 Z " fill="#000000" transform="translate(87.5,95.5625)"/>
<path d="M0 0 C3.1850357 1.76015131 3.83296972 2.49890916 5 6 C5.11953769 7.97654185 5.17526196 9.95738456 5.1875 11.9375 C5.20167969 12.97777344 5.21585938 14.01804688 5.23046875 15.08984375 C5.00151123 17.98091757 4.55213479 19.58310441 3 22 C0.32366974 24.0815902 -1.11753668 23.99587591 -4.5625 23.875 C-8 23 -8 23 -9.6875 21.4140625 C-11.52111918 18.04151293 -11.43374103 15.31911608 -11.4375 11.5 C-11.45683594 10.1903125 -11.47617188 8.880625 -11.49609375 7.53125 C-11 4 -11 4 -9.19140625 1.55859375 C-6.01161846 -0.70296655 -3.80818218 -0.47602277 0 0 Z " fill="#000000" transform="translate(119,120)"/>
<path d="M0 0 C2.67431489 1.81163267 2.95920359 2.87761077 4 6 C4.46895516 11.39682818 4.87078961 16.29191269 2.375 21.1875 C-0.56874835 23.43404479 -2.29569406 24 -6 24 C-10.56521739 21.86956522 -10.56521739 21.86956522 -12 19 C-12.17682621 16.52443304 -12.27730822 14.10250105 -12.3125 11.625 C-12.34150391 10.95210937 -12.37050781 10.27921875 -12.40039062 9.5859375 C-12.44368618 6.20222305 -12.23386124 4.32440486 -10.234375 1.55078125 C-6.58338406 -0.98321071 -4.37554997 -0.48617222 0 0 Z " fill="#000000" transform="translate(120,64)"/>
<path d="M0 0 C2.81972931 2.36493426 2.97850831 3.8280665 3.4375 7.5 C3 11 3 11 1.4375 13.4375 C-1.98314143 15.63021887 -4.00951279 15.63007693 -8 15 C-11 13 -11 13 -13 10 C-13.37468449 7.08200259 -13.06531397 4.74022427 -12 2 C-8.21756349 -1.67118838 -4.91043443 -1.36400956 0 0 Z " fill="#000000" transform="translate(377,329)"/>
<path d="M0 0 C4.0743356 0.84881992 5.54405875 2.30225596 8 5.625 C8.625 8.625 8.625 8.625 8 11.625 C5.54405875 14.94774404 4.0743356 16.40118008 0 17.25 C-4.0743356 16.40118008 -5.54405875 14.94774404 -8 11.625 C-8.625 8.625 -8.625 8.625 -8 5.625 C-5.54405875 2.30225596 -4.0743356 0.84881992 0 0 Z " fill="#000000" transform="translate(228,327.375)"/>
<path d="M0 0 C4.0743356 0.84881992 5.54405875 2.30225596 8 5.625 C8.625 8.625 8.625 8.625 8 11.625 C5.54405875 14.94774404 4.0743356 16.40118008 0 17.25 C-4.0743356 16.40118008 -5.54405875 14.94774404 -8 11.625 C-8.625 8.625 -8.625 8.625 -8 5.625 C-5.54405875 2.30225596 -4.0743356 0.84881992 0 0 Z " fill="#000000" transform="translate(300,255.375)"/>
<path d="M0 0 C2.81972931 2.36493426 2.97850831 3.8280665 3.4375 7.5 C3 11 3 11 1.5 13.4375 C-1.53037069 15.33148168 -3.55830934 15.64334247 -7.08984375 15.4453125 C-9 15 -9 15 -11.5625 12.9375 C-13.43625505 9.10852228 -13.12962701 7.06665724 -12 3 C-8.52941144 -1.52685464 -5.36496865 -1.22358934 0 0 Z " fill="#000000" transform="translate(305,401)"/>
<path d="M0 0 C3.0182722 0.05418801 4.04925828 0.22609892 6.6875 1.875 C8.75601618 5.2363388 8.67255011 7.43209911 8.1875 11.3125 C7.125 13.6875 7.125 13.6875 5.1875 15.3125 C1.8125 16.3125 1.8125 16.3125 -1.8125 16.3125 C-5.32199663 14.40516488 -6.52360949 13.16111588 -7.8125 9.375 C-7.8125 3.65923988 -5.54085072 0.45416809 0 0 Z " fill="#000000" transform="translate(419.8125,87.6875)"/>
<path d="M0 0 C2.5 1.5625 2.5 1.5625 4 4 C4.45746657 7.65973254 4.46134558 10.02604821 2.875 13.375 C0.25065402 15.64943318 -1.54847562 15.93096951 -5 16 C-8.52906067 14.39588152 -9.82772908 13.25840638 -12 10 C-11.82135713 6.66533315 -11.55604977 4.0139731 -9.9375 1.0625 C-6.73507415 -0.69366901 -3.50309274 -0.62026592 0 0 Z " fill="#000000" transform="translate(408,64)"/>
<path d="M0 0 C2.5 1.5625 2.5 1.5625 4 4 C4.45746657 7.65973254 4.46134558 10.02604821 2.875 13.375 C0.25065402 15.64943318 -1.54847562 15.93096951 -5 16 C-8.52906067 14.39588152 -9.82772908 13.25840638 -12 10 C-11.82135713 6.66533315 -11.55604977 4.0139731 -9.9375 1.0625 C-6.73507415 -0.69366901 -3.50309274 -0.62026592 0 0 Z " fill="#000000" transform="translate(440,64)"/>
</svg>
