<?xml version="1.0" encoding="UTF-8"?>
<svg version="1.1" xmlns="http://www.w3.org/2000/svg" width="500" height="680">
<path d="M0 0 C4.15300018 1.92268527 5.65048757 3.37087762 7.875 7.375 C8.95962006 10.86988686 9.09161024 13.38648495 9 17 C10.16431549 16.99111755 11.32863098 16.98223511 12.52822876 16.9730835 C23.50454928 16.89197211 34.48080893 16.8320222 45.45736122 16.79275131 C51.10044477 16.77188294 56.74328624 16.74357852 62.38623047 16.69824219 C67.83272046 16.65475839 73.2789777 16.63085725 78.7256279 16.62049103 C80.80285684 16.61310427 82.88007314 16.59867963 84.95720291 16.57707977 C87.86839506 16.54801251 90.77862733 16.54404544 93.68994141 16.54589844 C94.54733917 16.53151733 95.40473694 16.51713623 96.28811646 16.50231934 C101.64006678 16.53914283 104.80641258 17.34992545 109 21 C109.93490319 23.80470957 110.12759695 25.50042145 110.13422108 28.40007591 C110.13867892 29.30516502 110.14313676 30.21025412 110.14772969 31.14277017 C110.14754533 32.13837666 110.14736097 33.13398314 110.14717102 34.15975952 C110.15084771 35.21643503 110.1545244 36.27311054 110.1583125 37.36180651 C110.16936922 40.92008289 110.17319652 44.47833009 110.17700195 48.03662109 C110.18326497 50.58064365 110.18991163 53.12466529 110.19691467 55.66868591 C110.21615414 63.31453734 110.22674351 70.96038364 110.23564246 78.60625309 C110.24002539 82.20586257 110.2453921 85.80547057 110.25063133 89.40507889 C110.26764129 101.36856722 110.28213667 113.33205464 110.28938007 125.29555321 C110.29128999 128.39983496 110.29321032 131.50411671 110.29516602 134.60839844 C110.29564976 135.37995961 110.2961335 136.15152078 110.2966319 136.94646259 C110.30493681 149.45243521 110.3302825 161.95831232 110.36274669 174.46424322 C110.39579634 187.30017513 110.41382684 200.13605845 110.41702431 212.97203314 C110.41919111 220.18051619 110.42796469 227.38885986 110.45348549 234.59730148 C110.47742729 241.37540563 110.48103143 248.1532152 110.47072411 254.93136787 C110.47022674 257.42229229 110.47660582 259.91322875 110.49028015 262.40411568 C110.50787532 265.79847313 110.50095336 269.19191641 110.48774719 272.58627319 C110.49871644 273.57741824 110.50968568 274.56856328 110.52098733 275.58974302 C110.48055919 279.87856513 110.40705729 282.32750507 108.14895916 286.05808449 C103.24871199 290.48621238 96.18347791 291.96246118 90 294 C88.42412109 294.527146 88.42412109 294.527146 86.81640625 295.06494141 C64.16074725 302.58361144 41.77084102 307.80269537 18 310 C18 316.6 18 323.2 18 330 C19.876875 329.896875 21.75375 329.79375 23.6875 329.6875 C29.55274385 329.66675032 29.55274385 329.66675032 33.1875 332.375 C36.05548574 336.52863451 36.51074484 338.89255162 36 344 C34.22719439 346.97672584 32.14391985 349.42804007 29 351 C27.3325394 351.08426094 25.66174813 351.10725143 23.9921875 351.09765625 C23.00605469 351.09443359 22.01992188 351.09121094 21.00390625 351.08789062 C19.97136719 351.07951172 18.93882812 351.07113281 17.875 351.0625 C16.31458984 351.05573242 16.31458984 351.05573242 14.72265625 351.04882812 C12.14841313 351.03701967 9.57419947 351.01908385 7 351 C7 355.29 7 359.58 7 364 C9.8153125 363.9071875 9.8153125 363.9071875 12.6875 363.8125 C17.44147263 363.65577563 20.14597518 364.13205 24 367 C25.4688902 369.9377804 25.1598468 372.56885612 25.19287109 375.84887695 C25.20104858 376.55314819 25.20922607 377.25741943 25.21765137 377.98303223 C25.24250187 380.31810657 25.25902054 382.65312013 25.2734375 384.98828125 C25.27876118 385.7855834 25.28408485 386.58288555 25.28956985 387.40434837 C25.3163002 391.62461765 25.33567526 395.84485737 25.35009766 400.06518555 C25.36674385 404.42344223 25.41152079 408.78094245 25.4624691 413.13891315 C25.49613216 416.49068567 25.50767397 419.84227843 25.51332474 423.19420433 C25.5200401 424.80058764 25.53526978 426.40695901 25.55921555 428.01317787 C25.59085212 430.26372454 25.59090752 432.51222863 25.58349609 434.76293945 C25.59562637 436.68249199 25.59562637 436.68249199 25.60800171 438.64082336 C24.83480453 442.91269607 23.40949837 444.38807639 20 447 C17.96362305 447.56762695 17.96362305 447.56762695 16.01171875 447.48828125 C15.30595703 447.47216797 14.60019531 447.45605469 13.87304688 447.43945312 C13.15181641 447.39755859 12.43058594 447.35566406 11.6875 447.3125 C10.94693359 447.28994141 10.20636719 447.26738281 9.44335938 447.24414062 C7.62802643 447.1855815 5.81374319 447.09590886 4 447 C4.00888245 447.69046921 4.01776489 448.38093842 4.0269165 449.09233093 C4.11540816 456.27851077 4.17574231 463.46453582 4.21972656 470.65112305 C4.23758325 473.33327823 4.26541436 476.0150546 4.30175781 478.69702148 C4.35027542 482.55203066 4.37296994 486.40645998 4.390625 490.26171875 C4.42159271 492.06040657 4.42159271 492.06040657 4.45318604 493.89543152 C4.45542994 502.21962255 4.45542994 502.21962255 2.10058594 506.25463867 C-0.15187573 508.12619242 -1.1037125 508.68156812 -4 508.625 C-4.66 508.63789063 -5.32 508.65078125 -6 508.6640625 C-9.37219262 507.54438917 -10.19617015 506.09085549 -12 503 C-12.56725312 498.75342238 -12.46426894 494.53915627 -12.390625 490.26171875 C-12.38496521 489.02581497 -12.37930542 487.78991119 -12.37347412 486.51655579 C-12.35490285 483.24308402 -12.31901355 479.97040921 -12.2746582 476.69720459 C-12.23361703 473.35224752 -12.21578588 470.00725563 -12.1953125 466.66210938 C-12.15123432 460.10776231 -12.08431234 453.55394631 -12 447 C-13.18078125 447.04640625 -14.3615625 447.0928125 -15.578125 447.140625 C-17.13539134 447.17814949 -18.69268508 447.21454893 -20.25 447.25 C-21.41595703 447.30027344 -21.41595703 447.30027344 -22.60546875 447.3515625 C-23.35957031 447.36445313 -24.11367187 447.37734375 -24.890625 447.390625 C-25.58188477 447.41157227 -26.27314453 447.43251953 -26.98535156 447.45410156 C-30.05381995 446.76246909 -31.154233 445.52049668 -33 443 C-33.50793457 439.73657227 -33.50793457 439.73657227 -33.51757812 435.81640625 C-33.5245874 435.10048309 -33.53159668 434.38455994 -33.53881836 433.64694214 C-33.55639548 431.28506457 -33.54477775 428.92438933 -33.53125 426.5625 C-33.53394502 424.91869884 -33.53782753 423.27489923 -33.54284668 421.63110352 C-33.5487413 418.18783372 -33.54018028 414.74497929 -33.52148438 411.30175781 C-33.49869442 406.88966307 -33.51181775 402.47854158 -33.53577423 398.06648254 C-33.55023343 394.67265499 -33.54562576 391.27905791 -33.53526306 387.88522339 C-33.53259609 386.25853358 -33.53586453 384.63182279 -33.54518127 383.00515747 C-33.55534942 380.73073972 -33.53984477 378.45789446 -33.51757812 376.18359375 C-33.51439575 374.88993896 -33.51121338 373.59628418 -33.50793457 372.26342773 C-33 369 -33 369 -31.18347168 366.57543945 C-26.65883745 363.31078191 -20.29557896 364.80386745 -15 365 C-15 360.38 -15 355.76 -15 351 C-16.60230469 351.04640625 -18.20460938 351.0928125 -19.85546875 351.140625 C-21.96612718 351.17814782 -24.07680578 351.21454743 -26.1875 351.25 C-27.24259766 351.28351563 -28.29769531 351.31703125 -29.38476562 351.3515625 C-37.17804707 351.44990044 -37.17804707 351.44990044 -41.17578125 349.26171875 C-44.0581427 345.68808432 -44.2733282 342.49383711 -44 338 C-42.76086194 334.83331385 -41.46841389 333.41163645 -38.9375 331.1875 C-36 330 -36 330 -26 330 C-26 323.4 -26 316.8 -26 310 C-28.64 310 -31.28 310 -34 310 C-56.02404252 307.8189365 -77.31080448 301.40909347 -98.1875 294.375 C-98.89720947 294.13925262 -99.60691895 293.90350525 -100.33813477 293.66061401 C-102.36948198 292.98211171 -104.39428029 292.28690833 -106.41796875 291.5859375 C-107.59125732 291.1842334 -108.7645459 290.7825293 -109.97338867 290.36865234 C-113.7480628 288.66172138 -116.13876811 286.72246378 -118 283 C-118.09544497 281.57684799 -118.12915799 280.14931908 -118.13142776 278.72297192 C-118.13526891 277.81987386 -118.13911005 276.9167758 -118.1430676 275.98631114 C-118.14220112 274.98779181 -118.14133463 273.98927248 -118.14044189 272.960495 C-118.14341302 271.90467391 -118.14638414 270.84885283 -118.1494453 269.76103717 C-118.15816289 266.19965166 -118.15964312 262.63829965 -118.16113281 259.0769043 C-118.16575881 256.53302945 -118.17078317 253.98915531 -118.17617798 251.44528198 C-118.18932476 244.51759942 -118.19578775 237.58992794 -118.20018864 230.66223502 C-118.20294935 226.33808821 -118.20718639 222.01394365 -118.21169281 217.68979836 C-118.2238871 205.72205972 -118.23418596 193.75432289 -118.2375679 181.78657818 C-118.23778747 181.02029492 -118.23800703 180.25401165 -118.23823325 179.46450769 C-118.23845153 178.69636966 -118.23866981 177.92823162 -118.2388947 177.13681668 C-118.23933817 175.58022479 -118.23978473 174.0236329 -118.24023438 172.46704102 C-118.2404558 171.69491434 -118.24067723 170.92278767 -118.24090537 170.12726323 C-118.24485376 157.61477934 -118.26230827 145.10235368 -118.2855939 132.58989229 C-118.30929734 119.74947159 -118.3217693 106.90908013 -118.32293582 94.06863719 C-118.32385317 86.85681382 -118.32962053 79.64506629 -118.34775543 72.43326378 C-118.36474958 65.65110263 -118.36641659 58.86911017 -118.35761642 52.08692551 C-118.3568433 49.59439395 -118.36122473 47.10185479 -118.37107468 44.60934258 C-118.38371214 41.21287323 -118.37796179 37.81692108 -118.36749268 34.42045593 C-118.37554908 33.42862877 -118.38360548 32.43680161 -118.39190602 31.41491908 C-118.32962124 22.80522546 -118.32962124 22.80522546 -115 19 C-112.30361158 17.19365455 -110.20026362 16.7508101 -106.98834229 16.75949097 C-106.2003273 16.75674164 -105.41231232 16.75399231 -104.60041809 16.75115967 C-103.74518051 16.75835022 -102.88994293 16.76554077 -102.00878906 16.77294922 C-101.10112289 16.77265717 -100.19345673 16.77236511 -99.25828552 16.77206421 C-96.26063449 16.77345662 -93.26323257 16.78901375 -90.265625 16.8046875 C-88.18626033 16.80841794 -86.10689391 16.81126477 -84.02752686 16.81326294 C-78.55632672 16.82089692 -73.08523287 16.84054346 -67.61407471 16.8626709 C-62.03049151 16.88313435 -56.44689114 16.89226573 -50.86328125 16.90234375 C-39.90880748 16.92378951 -28.95441258 16.95792269 -18 17 C-17.94884033 16.31292969 -17.89768066 15.62585937 -17.8449707 14.91796875 C-17.76851318 14.01691406 -17.69205566 13.11585937 -17.61328125 12.1875 C-17.54149658 11.29417969 -17.46971191 10.40085937 -17.39575195 9.48046875 C-16.84816932 6.04836541 -15.54024637 4.32251096 -13 2 C-8.72942375 -0.52474319 -4.85133786 -0.66537446 0 0 Z M-98 38 C-98 49.22 -98 60.44 -98 72 C-35.96 72 26.08 72 90 72 C90 60.78 90 49.56 90 38 C63.27 38 36.54 38 9 38 C8.67 41.96 8.34 45.92 8 50 C6.72603572 53.6307982 5.72933995 55.35646475 2.875 57.875 C-2.17017826 59.84920019 -6.94614263 59.87398186 -11.9375 57.75 C-14 56 -14 56 -16 52 C-16.33 47.38 -16.66 42.76 -17 38 C-43.73 38 -70.46 38 -98 38 Z M-98 87 C-98 148.05 -98 209.1 -98 272 C-72.24858491 280.78332968 -72.24858491 280.78332968 -46 287 C-45.15679199 287.16081055 -44.31358398 287.32162109 -43.44482422 287.48730469 C2.60417263 295.96150824 46.18227505 286.60590832 90 272 C90 210.95 90 149.9 90 87 C27.96 87 -34.08 87 -98 87 Z M-17 380 C-17 390.56 -17 401.12 -17 412 C-8.42 412 0.16 412 9 412 C9 401.44 9 390.88 9 380 C0.42 380 -8.16 380 -17 380 Z " fill="#fff" transform="translate(260,3)"/>
<path d="M0 0 C1.30651016 -0.00525696 2.61302032 -0.01051392 3.9591217 -0.01593018 C7.52733094 -0.0295551 11.09527866 -0.02432528 14.6634922 -0.01479292 C18.40648706 -0.00717118 22.14946027 -0.01424889 25.89245605 -0.01895142 C32.17687987 -0.02440167 38.46119775 -0.01723658 44.74560547 -0.00292969 C52.00010211 0.01339548 59.25434576 0.00810645 66.50883627 -0.0084089 C72.74939682 -0.02204464 78.98988142 -0.02393326 85.23045206 -0.0160929 C88.95241852 -0.01142782 92.67426625 -0.01075928 96.39622498 -0.02070236 C100.54685325 -0.03101709 104.69704878 -0.01670065 108.84765625 0 C110.68693443 -0.00910904 110.68693443 -0.00910904 112.56336975 -0.0184021 C120.21598352 0.03861401 125.66964197 0.15745044 131.32897949 5.77600098 C133.72746609 11.20834823 133.48064241 16.30683135 133.44140625 22.18310547 C133.44841553 23.47156876 133.4554248 24.76003204 133.46264648 26.08753967 C133.48083324 29.61035626 133.47383196 33.13270264 133.46113014 36.65552711 C133.45097816 40.34828552 133.46040191 44.04100461 133.4666748 47.73376465 C133.47394485 53.93423667 133.46438053 60.1345179 133.4453125 66.33496094 C133.42354481 73.49579964 133.43059665 80.65618274 133.45261812 87.8170104 C133.47079059 93.97347704 133.47332148 100.1298068 133.46286345 106.2862916 C133.45663859 109.95964936 133.45576487 113.63279321 133.4690094 117.30613708 C133.48274712 121.4021182 133.4636883 125.49731824 133.44140625 129.59326172 C133.44950317 130.80591202 133.4576001 132.01856232 133.46594238 133.26795959 C133.40213538 139.59621897 133.24486031 143.6083891 128.92382812 148.38818359 C126.15749319 150.90710859 123.58866022 152.0148989 120.02148438 153.07177734 C119.05855469 153.35778809 118.095625 153.64379883 117.10351562 153.93847656 C115.56050781 154.37764404 115.56050781 154.37764404 113.98632812 154.82568359 C112.92542969 155.13135254 111.86453125 155.43702148 110.77148438 155.75195312 C70.17628994 167.15122871 22.57651393 168.28154956 -16.64257812 150.79833984 C-20.46739583 148.58203296 -22.66991958 146.60694048 -24.07617188 142.38818359 C-24.14673886 139.64736201 -24.16953342 136.93971382 -24.13867188 134.20068359 C-24.11804688 131.62255859 -24.09742188 129.04443359 -24.07617188 126.38818359 C-9.22617188 125.89318359 -9.22617188 125.89318359 5.92382812 125.38818359 C5.92382812 122.41818359 5.92382812 119.44818359 5.92382812 116.38818359 C-8.92617187 115.89318359 -8.92617187 115.89318359 -24.07617188 115.38818359 C-24.07617188 109.11818359 -24.07617188 102.84818359 -24.07617188 96.38818359 C-21.07910156 96.31470703 -21.07910156 96.31470703 -18.02148438 96.23974609 C-16.0886843 96.18412595 -14.1558855 96.12843813 -12.22314453 96.07080078 C-10.21730216 96.01364323 -8.2111827 95.96649763 -6.20507812 95.91943359 C-4.94824219 95.88076172 -3.69140625 95.84208984 -2.39648438 95.80224609 C-1.23391113 95.7708252 -0.07133789 95.7394043 1.12646484 95.70703125 C4.06039294 95.6666049 4.06039294 95.6666049 5.92382812 93.38818359 C5.92382812 91.07818359 5.92382812 88.76818359 5.92382812 86.38818359 C-8.92617187 85.89318359 -8.92617187 85.89318359 -24.07617188 85.38818359 C-24.07617188 79.11818359 -24.07617188 72.84818359 -24.07617188 66.38818359 C-21.07910156 66.31470703 -21.07910156 66.31470703 -18.02148438 66.23974609 C-16.0886843 66.18412595 -14.1558855 66.12843813 -12.22314453 66.07080078 C-10.21730216 66.01364323 -8.2111827 65.96649763 -6.20507812 65.91943359 C-4.94824219 65.88076172 -3.69140625 65.84208984 -2.39648438 65.80224609 C-1.23391113 65.7708252 -0.07133789 65.7394043 1.12646484 65.70703125 C4.06039294 65.6666049 4.06039294 65.6666049 5.92382812 63.38818359 C5.92382812 61.07818359 5.92382812 58.76818359 5.92382812 56.38818359 C-8.92617187 55.89318359 -8.92617187 55.89318359 -24.07617188 55.38818359 C-24.07617188 49.11818359 -24.07617188 42.84818359 -24.07617188 36.38818359 C-21.07910156 36.31470703 -21.07910156 36.31470703 -18.02148438 36.23974609 C-16.0886843 36.18412595 -14.1558855 36.12843813 -12.22314453 36.07080078 C-10.21730216 36.01364323 -8.2111827 35.96649763 -6.20507812 35.91943359 C-4.31982422 35.86142578 -4.31982422 35.86142578 -2.39648438 35.80224609 C-1.23391113 35.7708252 -0.07133789 35.7394043 1.12646484 35.70703125 C4.06039294 35.6666049 4.06039294 35.6666049 5.92382812 33.38818359 C5.92382812 31.07818359 5.92382812 28.76818359 5.92382812 26.38818359 C-8.92617187 25.89318359 -8.92617187 25.89318359 -24.07617188 25.38818359 C-24.19992188 21.61380859 -24.19992188 21.61380859 -24.32617188 17.76318359 C-24.36258789 16.98249512 -24.39900391 16.20180664 -24.43652344 15.39746094 C-24.51679083 10.29789218 -23.62617453 7.29318652 -20.07617188 3.38818359 C-13.6121798 -0.35742098 -7.32696498 -0.03628685 0 0 Z M103.92382812 60.38818359 C102.33055345 63.57473295 102.53181836 66.91989384 102.92382812 70.38818359 C104.08015558 72.75111361 105.07366567 74.53802114 106.92382812 76.38818359 C111.85554697 76.90499698 111.85554697 76.90499698 116.11914062 74.74365234 C118.97217437 71.01988752 118.53197989 67.72512824 118.37695312 63.18505859 C118.12413734 60.17963053 118.12413734 60.17963053 115.73632812 57.63818359 C110.26618876 55.20701054 107.74871754 55.74367501 103.92382812 60.38818359 Z M106.18554688 90.04443359 C102.11333933 94.46932756 103.58797191 101.31288475 103.73632812 106.88818359 C103.76276037 122.81259192 103.76276037 122.81259192 97.79882812 129.38818359 C96.40277344 130.74943359 96.40277344 130.74943359 94.97851562 132.13818359 C94.30046875 132.88068359 93.62242187 133.62318359 92.92382812 134.38818359 C92.97888225 136.66204135 92.97888225 136.66204135 93.92382812 138.38818359 C100.4091848 140.1255452 107.07948017 138.40223969 112.96679688 135.31787109 C116.99939301 132.31084879 117.82934381 129.1237673 118.92382812 124.38818359 C119.2257429 120.99796899 119.2257429 120.99796899 119.18945312 117.53662109 C119.19203125 116.27333984 119.19460938 115.01005859 119.19726562 113.70849609 C119.18953125 112.40654297 119.18179688 111.10458984 119.17382812 109.76318359 C119.1815625 108.45349609 119.18929687 107.14380859 119.19726562 105.79443359 C119.19339844 103.90337891 119.19339844 103.90337891 119.18945312 101.97412109 C119.18719727 100.82991699 119.18494141 99.68571289 119.18261719 98.50683594 C118.92245958 95.37169128 118.3414341 93.18377302 116.92382812 90.38818359 C113.21758568 87.79381388 110.11725975 87.66633622 106.18554688 90.04443359 Z " fill="#fff" transform="translate(202.076171875,113.61181640625)"/>
</svg>
