<?xml version="1.0" encoding="UTF-8"?>
<svg version="1.1" xmlns="http://www.w3.org/2000/svg" width="500" height="750">
<path d="M0 0 C1.59806416 -0.00373921 3.19612649 -0.00834181 4.79418594 -0.01373065 C9.17484488 -0.0259427 13.55542734 -0.02570229 17.93609941 -0.02334189 C22.66496158 -0.02293327 27.39379937 -0.03397725 32.12265015 -0.04345703 C41.38367082 -0.06005842 50.64466604 -0.0655662 59.90570035 -0.06668179 C67.43543653 -0.06763272 74.96516432 -0.07174526 82.49489784 -0.07808304 C103.85274431 -0.09569349 125.2105707 -0.10492227 146.56842449 -0.10342209 C148.29494797 -0.10330222 148.29494797 -0.10330222 150.05635071 -0.10317993 C151.20877519 -0.10309817 152.36119968 -0.10301641 153.54854611 -0.10293217 C172.22108477 -0.10211944 190.89354274 -0.12125439 209.56605806 -0.14945666 C228.74834035 -0.17819976 247.93058331 -0.19199616 267.11288768 -0.19026911 C277.87845157 -0.18960568 288.64393086 -0.19507745 299.40947533 -0.21662521 C308.57633066 -0.2348558 317.74306307 -0.23916894 326.9099287 -0.22560637 C331.5839709 -0.21908608 336.25777739 -0.2189255 340.93179703 -0.23631287 C345.21726465 -0.25209036 349.50231059 -0.24913252 353.78776822 -0.2317446 C355.33149367 -0.22868496 356.87525096 -0.23226776 358.41893884 -0.24346475 C373.79380122 -0.34752799 386.24341863 2.59876471 397.61421204 13.36898804 C407.79996742 24.12484167 410.7039866 35.63251042 410.66288757 50.07557678 C410.66741869 51.24930291 410.6719498 52.42302903 410.67661822 53.63232261 C410.68705371 56.87284604 410.68859401 60.11322914 410.68622947 63.35376394 C410.68581996 66.85562486 410.69687328 70.35745314 410.7063446 73.85929871 C410.72292714 80.71397398 410.72845292 87.56861485 410.72956936 94.42330851 C410.73052123 99.99843086 410.73463845 105.57354189 410.74097061 111.14866066 C410.75857627 126.97275577 410.76781065 142.79682381 410.76630966 158.62092879 C410.76622975 159.47324488 410.76614984 160.32556098 410.7660675 161.20370483 C410.76598574 162.05706784 410.76590398 162.91043085 410.76581974 163.78965334 C410.76500725 177.61230935 410.7841375 191.43485629 410.81234424 205.25748076 C410.8411119 219.4677105 410.85488237 233.67788712 410.85315669 247.8881467 C410.85249408 255.85915505 410.85792941 263.83004908 410.87951279 271.80103111 C410.89777586 278.58904248 410.90203013 285.37688771 410.88849394 292.16491308 C410.88198971 295.62382564 410.8817538 299.08241997 410.89920044 302.54130173 C410.91470264 306.30260083 410.9053105 310.06307396 410.88993835 313.82435608 C410.90022548 314.90162529 410.91051261 315.9788945 410.92111146 317.08880824 C410.81729342 328.64913015 407.75104196 339.24480997 400.39546204 348.26742554 C399.84374329 348.95449585 399.29202454 349.64156616 398.72358704 350.34945679 C392.65765074 357.12827021 383.3794873 362.54565438 374.39546204 364.26742554 C372.20253797 364.36164967 370.00693278 364.39832899 367.81198788 364.40164661 C367.14882558 364.40399884 366.48566328 364.40635107 365.80240515 364.40877458 C363.57046317 364.41545482 361.33857955 364.41500666 359.10662842 364.41459656 C357.49409317 364.41789579 355.88155875 364.42162149 354.26902539 364.42573804 C349.82988135 364.43575943 345.39075084 364.43947506 340.95159709 364.44212735 C336.16681205 364.44603 331.38203773 364.4556084 326.59725952 364.46434021 C315.03778126 364.48410607 303.47830211 364.49417115 291.91881117 364.503068 C286.47551691 364.50745084 281.03222362 364.51281768 275.58893013 364.51805687 C257.49445898 364.53506954 239.39998844 364.54956365 221.30551052 364.55680561 C216.60950151 364.55871551 211.91349251 364.56063584 207.21748352 364.56259155 C206.05030995 364.56307529 204.88313638 364.56355903 203.68059392 364.56405743 C184.77365925 364.57235751 165.86678786 364.59769391 146.95988082 364.63017223 C127.54947679 364.66324366 108.13910492 364.68125446 88.72867256 364.68444985 C77.83008626 364.6866149 66.93159222 364.6953629 56.03303337 364.72091103 C46.75111361 364.74261916 37.46930851 364.75066787 28.18736624 364.74094424 C23.45283806 364.73639985 18.71854647 364.73829393 13.98405075 364.75770569 C9.6454917 364.77534017 5.30734179 364.77433735 0.96877838 364.7588084 C-0.5965683 364.75643276 -2.16194333 364.76075362 -3.72724671 364.77263705 C-18.31528167 364.87648141 -29.25361655 361.64730958 -40.29203796 351.89242554 C-47.82777247 343.33834853 -53.71458372 334.04871623 -53.73875904 322.29812717 C-53.74321688 321.29147874 -53.74767473 320.28483031 -53.75226766 319.24767739 C-53.7520833 318.14371225 -53.75189893 317.03974712 -53.75170898 315.90232849 C-53.75538567 314.72793652 -53.75906236 313.55354454 -53.76285046 312.34356493 C-53.77196896 309.08263915 -53.77658519 305.82174296 -53.77923977 302.56080663 C-53.7831468 299.04388675 -53.79272503 295.5269814 -53.80145264 292.0100708 C-53.82120838 283.51475563 -53.83128327 275.01943929 -53.84018043 266.52410689 C-53.8445658 262.52057627 -53.84993206 258.51704696 -53.8551693 254.51351738 C-53.87218259 241.19891287 -53.88667497 227.88430918 -53.89391804 214.56969547 C-53.89582785 211.11501629 -53.89774819 207.66033712 -53.89970398 204.20565796 C-53.90018772 203.34704233 -53.90067146 202.4884267 -53.90116986 201.60379242 C-53.90946343 187.70652263 -53.93478851 173.8093391 -53.96728466 159.91210694 C-54.00039777 145.63420912 -54.01837074 131.35635507 -54.02156228 117.07841867 C-54.02372371 109.06598369 -54.03241823 101.05367441 -54.05802345 93.04127693 C-54.07978884 86.2147498 -54.0877524 79.38837889 -54.07805667 72.56182099 C-54.07352843 69.08267771 -54.07531096 65.60385637 -54.09481812 62.12475777 C-54.11257338 58.34136171 -54.10541166 54.55877286 -54.09228516 50.77537537 C-54.1032544 49.69148673 -54.11422365 48.60759809 -54.1255253 47.49086434 C-54.01309401 33.99372461 -49.782821 22.84598458 -40.50297546 13.04867554 C-28.49655488 1.67863767 -15.8816352 -0.03520514 0 0 Z M15.39546204 121.26742554 C15.39546204 128.19742554 15.39546204 135.12742554 15.39546204 142.26742554 C19.76997509 147.28084785 19.76997509 147.28084785 25.0304718 147.89852905 C26.36193993 147.91732872 26.36193993 147.91732872 27.7203064 147.93650818 C29.13925453 147.91662086 29.13925453 147.91662086 30.58686829 147.89633179 C31.56912888 147.89874374 32.55138947 147.9011557 33.56341553 147.90364075 C35.6353205 147.90266317 37.70725188 147.88929088 39.77900696 147.86434937 C42.95088792 147.83000214 46.11998834 147.843705 49.29194641 147.86312866 C51.30693223 147.85623115 53.32191086 147.84655962 55.33686829 147.83383179 C56.28485794 147.83879166 57.2328476 147.84375153 58.20956421 147.84886169 C63.45847836 147.81203462 63.45847836 147.81203462 67.96162415 145.35702515 C73.51998811 137.25655909 70.39546204 136.38421345 70.39546204 121.26742554 C52.24546204 121.26742554 34.09546204 121.26742554 15.39546204 121.26742554 Z M-41.60453796 121.26742554 C-41.69493531 147.25005529 -41.76857651 173.23255714 -41.81178665 199.21530437 C-41.83238577 211.28034291 -41.86045572 223.34527658 -41.90629578 235.4102478 C-41.94624464 245.92971631 -41.97199003 256.44910885 -41.98089194 266.96865112 C-41.98609304 272.53538122 -41.99826228 278.10189404 -42.02745819 283.66855431 C-42.05475448 288.91589507 -42.06295434 294.16293052 -42.05696869 299.41033554 C-42.05806259 301.3286728 -42.06593125 303.24702103 -42.08135986 305.16529655 C-42.38228294 324.38990922 -42.38228294 324.38990922 -33.35453796 340.76742554 C-26.68229901 347.50529307 -19.96896228 351.78227314 -10.2855866 352.5204252 C-9.12770658 352.52183405 -7.96982657 352.5232429 -6.77685928 352.52469444 C-5.79718402 352.52995355 -5.79718402 352.52995355 -4.79771733 352.53531891 C-2.61794257 352.54459323 -0.43843732 352.53971999 1.74134827 352.53485107 C3.32347558 352.53858934 4.90560104 352.54319157 6.48772359 352.54858172 C10.82889697 352.56080535 15.16999326 352.560552 19.51117992 352.55819297 C24.19571302 352.55778464 28.88022145 352.56882549 33.56474304 352.57830811 C42.74033911 352.59491565 51.91590948 352.60041754 61.09151933 352.60153286 C68.55073981 352.60248346 76.00995182 352.60659437 83.46916962 352.61293411 C104.62170549 352.63054595 125.77422108 352.63977309 146.92676434 352.63827316 C148.06692286 352.63819325 149.20708138 352.63811334 150.38179016 352.63803101 C152.09411838 352.63790836 152.09411838 352.63790836 153.84103909 352.63778324 C172.34039656 352.63697039 190.8396726 352.65610811 209.33900651 352.68430774 C228.33818554 352.71304057 247.33732485 352.72684781 266.33652616 352.72512019 C277.00143704 352.72445642 287.66626256 352.72994299 298.33115387 352.75147629 C307.41172017 352.76969332 316.49216242 352.77403111 325.57273909 352.76045744 C330.20399674 352.75393042 334.83501641 352.75380099 339.46625137 352.77116394 C343.71032977 352.78691147 347.95398183 352.78401398 352.19804993 352.76659568 C353.72898378 352.76352947 355.25994957 352.76714384 356.79084572 352.77831583 C370.01662521 352.86839975 379.6315825 350.91149167 389.30171204 341.48617554 C399.70278537 330.4641426 398.82138476 316.77282161 398.73603821 302.56747437 C398.73519084 300.58558159 398.73566921 298.60368788 398.73736572 296.62179565 C398.73822282 291.26922839 398.72064337 285.91686478 398.69964385 280.56434464 C398.68082933 274.96031124 398.67912285 269.35627264 398.67556763 263.75221252 C398.66626117 253.15253505 398.64166634 242.55295094 398.61151916 231.95331448 C398.57793155 219.88075086 398.56147818 207.80818266 398.54643285 195.7355839 C398.51511552 170.91280084 398.46012094 146.09014568 398.39546204 121.26742554 C383.54546204 121.26742554 368.69546204 121.26742554 353.39546204 121.26742554 C353.26483751 129.13433156 353.26483751 129.13433156 353.18769836 137.00180054 C352.99820283 143.70853073 352.42307987 149.42721158 347.39546204 154.26742554 C341.25206509 158.83607803 335.90000204 158.86771092 328.39936829 158.83383179 C327.25185593 158.84003036 326.10434357 158.84622894 324.92205811 158.85261536 C322.50231268 158.8596995 320.08251837 158.85656422 317.66279602 158.84384155 C313.97315707 158.82998261 310.28605876 158.86406456 306.59663391 158.90219116 C304.23921142 158.90314251 301.88178577 158.90128272 299.52436829 158.89633179 C298.42830765 158.90959 297.33224701 158.92284821 296.20297241 158.93650818 C290.35912199 158.86594116 286.10016795 158.23017696 281.10968018 155.12031555 C271.9785606 145.250533 274.95817082 134.77243646 274.39546204 121.26742554 C211.03546204 121.26742554 147.67546204 121.26742554 82.39546204 121.26742554 C82.06546204 129.18742554 81.73546204 137.10742554 81.39546204 145.26742554 C76.13168121 155.79498718 76.13168121 155.79498718 69.39546204 158.26742554 C65.3497175 158.94125933 61.39653592 158.96940866 57.30171204 158.93148804 C56.15561462 158.93627167 55.00951721 158.9410553 53.82868958 158.94598389 C51.41489787 158.9493737 49.00105969 158.94023609 46.58735657 158.91928101 C42.90645846 158.89250553 39.22860977 158.9190636 35.54780579 158.95101929 C33.19493452 158.94771503 30.84206513 158.94130848 28.48921204 158.93148804 C27.39628845 158.94160919 26.30336487 158.95173035 25.17732239 158.9621582 C18.36024479 158.85831621 13.61580644 157.81824565 8.39546204 153.26742554 C3.43989771 147.19922654 3.7421152 140.92854052 3.64546204 133.32992554 C3.56296204 129.34930054 3.48046204 125.36867554 3.39546204 121.26742554 C-11.45453796 121.26742554 -26.30453796 121.26742554 -41.60453796 121.26742554 Z M286.39546204 121.26742554 C284.90475005 139.03135756 284.90475005 139.03135756 288.39546204 145.26742554 C291.50614934 147.34121708 292.24767508 147.52539116 295.78755188 147.57382202 C296.67212067 147.58980942 297.55668945 147.60579681 298.46806335 147.62226868 C299.42121429 147.62763138 300.37436523 147.63299408 301.35639954 147.63851929 C302.83047775 147.652062 302.83047775 147.652062 304.33433533 147.6658783 C306.41392466 147.68038936 308.49355973 147.68926965 310.57319641 147.69296265 C313.75171529 147.70485539 316.9282907 147.75403008 320.10639954 147.80453491 C322.12722339 147.81399954 324.14805918 147.82123439 326.16889954 147.82601929 C327.11800201 147.84555161 328.06710449 147.86508392 329.04496765 147.88520813 C329.93584076 147.8791304 330.82671387 147.87305267 331.74458313 147.86679077 C332.52385162 147.87186142 333.30312012 147.87693207 334.10600281 147.88215637 C337.25428603 147.24118661 337.25428603 147.24118661 341.39546204 142.26742554 C341.39546204 135.33742554 341.39546204 128.40742554 341.39546204 121.26742554 C323.24546204 121.26742554 305.09546204 121.26742554 286.39546204 121.26742554 Z " fill="#ffffff" transform="translate(77.60453796386719,141.73257446289063)"/>
<path d="M0 0 C1.16662926 -0.00642769 1.16662926 -0.00642769 2.35682678 -0.01298523 C3.99658233 -0.01871055 5.63636327 -0.01924207 7.27612305 -0.01489258 C9.77371893 -0.01173322 12.27012851 -0.03521079 14.76757812 -0.06054688 C16.36588393 -0.06282025 17.9641929 -0.06352318 19.5625 -0.0625 C20.30330307 -0.07170975 21.04410614 -0.08091949 21.80735779 -0.09040833 C27.43306642 -0.04064465 31.57733528 1.1637286 35.7109375 5.0546875 C36.18917969 5.65152344 36.66742188 6.24835938 37.16015625 6.86328125 C37.89685547 7.76240234 37.89685547 7.76240234 38.6484375 8.6796875 C41.31817491 12.28861593 40.97570977 15.61433486 40.9453125 19.93359375 C40.94389755 20.68542938 40.9424826 21.43726501 40.94102478 22.21188354 C40.9354209 24.61655635 40.92286782 27.02113652 40.91015625 29.42578125 C40.90514175 31.05468616 40.90057875 32.68359252 40.89648438 34.3125 C40.88545022 38.30862952 40.86818304 42.30468967 40.84765625 46.30078125 C41.74484375 46.2850708 42.64203125 46.26936035 43.56640625 46.25317383 C46.92860821 46.20172484 50.29038545 46.16427705 53.65283203 46.13598633 C55.10179286 46.12099708 56.55070908 46.10059854 57.99951172 46.07446289 C75.50966006 45.76673802 75.50966006 45.76673802 81.87109375 50.94921875 C82.31710937 51.51898438 82.763125 52.08875 83.22265625 52.67578125 C83.68414062 53.24039063 84.145625 53.805 84.62109375 54.38671875 C88.81766715 60.93551164 88.18514453 67.90133424 88.16333008 75.39257812 C88.16017548 77.66194948 88.1836342 79.93000878 88.20898438 82.19921875 C88.21125835 83.65755046 88.21196041 85.11588563 88.2109375 86.57421875 C88.21391846 87.88825684 88.21689941 89.20229492 88.2199707 90.55615234 C87.60262026 96.76528095 85.23988082 101.78306455 80.84765625 106.30078125 C76.15242298 109.19125977 72.21863526 109.71094039 66.82421875 109.59375 C66.07804291 109.58950516 65.33186707 109.58526031 64.56307983 109.58088684 C62.19922527 109.56420507 59.83624949 109.52657464 57.47265625 109.48828125 C55.86199155 109.47322074 54.25131338 109.45953473 52.640625 109.44726562 C48.7093011 109.41433629 44.77862724 109.36262887 40.84765625 109.30078125 C40.87907715 110.79073608 40.87907715 110.79073608 40.91113281 112.31079102 C40.98392429 116.02125443 41.02959673 119.73165565 41.06738281 123.44262695 C41.08740972 125.04397216 41.11463979 126.64524505 41.14941406 128.24633789 C41.19833044 130.55763662 41.22071336 132.86796279 41.23828125 135.1796875 C41.25892639 135.887267 41.27957153 136.5948465 41.30084229 137.3238678 C41.30330131 142.85990544 39.86571056 145.83521471 36.84765625 150.30078125 C30.43929208 156.70914542 22.51724927 156.57618729 13.95898438 156.62304688 C13.29326416 156.62087158 12.62754395 156.61869629 11.94165039 156.61645508 C9.91823461 156.61329387 7.89628278 156.63680972 5.87304688 156.66210938 C-2.60755119 156.66632648 -8.73297593 156.14881829 -15.96484375 151.48828125 C-20.63131398 146.82181102 -22.03973235 141.50451504 -22.26586914 135.07104492 C-22.26063232 133.8822876 -22.25539551 132.69353027 -22.25 131.46875 C-22.24677734 130.17646484 -22.24355469 128.88417969 -22.24023438 127.55273438 C-22.2318804 126.19791599 -22.22341547 124.84309828 -22.21484375 123.48828125 C-22.20982375 122.1139339 -22.20526172 120.7395848 -22.20117188 119.36523438 C-22.18940043 116.01037201 -22.17295658 112.65559904 -22.15234375 109.30078125 C-23.58900391 109.34005737 -23.58900391 109.34005737 -25.0546875 109.38012695 C-28.64022049 109.47127252 -32.22565317 109.52826046 -35.81201172 109.57543945 C-37.35808587 109.60043857 -38.90404357 109.63445027 -40.44970703 109.67797852 C-55.93691724 110.10290197 -55.93691724 110.10290197 -61.76196289 105.6887207 C-67.19281112 100.26740865 -68.31327726 95.21393861 -68.390625 87.8515625 C-68.39869675 87.1201152 -68.40676849 86.38866791 -68.41508484 85.63505554 C-68.42890738 84.0859106 -68.43963772 82.53673544 -68.44750977 80.98754883 C-68.45900107 79.41356394 -68.47940779 77.83961715 -68.5090332 76.26586914 C-68.84508809 58.40614768 -68.84508809 58.40614768 -62.77514648 51.80249023 C-57.46790239 46.92432406 -51.99252975 46.04573693 -45.00390625 46.10546875 C-44.34651459 46.10829865 -43.68912292 46.11112854 -43.0118103 46.11404419 C-40.93346142 46.12514678 -38.85556009 46.15023139 -36.77734375 46.17578125 C-35.35938127 46.18582394 -33.94141196 46.19494752 -32.5234375 46.203125 C-29.06626338 46.2250532 -25.60934733 46.25951307 -22.15234375 46.30078125 C-22.1680542 45.09131836 -22.1680542 45.09131836 -22.18408203 43.85742188 C-22.22589071 40.17190724 -22.25174888 36.48644271 -22.27734375 32.80078125 C-22.29410156 31.53234375 -22.31085938 30.26390625 -22.328125 28.95703125 C-22.41652256 11.98470057 -22.41652256 11.98470057 -16.83984375 5.92578125 C-15.97939453 4.95511719 -15.97939453 4.95511719 -15.1015625 3.96484375 C-10.565156 0.09207989 -5.73993038 -0.00704257 0 0 Z M-9.15234375 16.30078125 C-9.87413384 19.2527027 -9.85012589 22.1248622 -9.82421875 25.15234375 C-9.8433432 26.43520767 -9.8433432 26.43520767 -9.862854 27.74398804 C-9.89915106 30.47159003 -9.90186299 33.19795896 -9.90234375 35.92578125 C-9.9239471 38.6602847 -9.95238771 41.39460086 -9.98468018 44.1289978 C-10.00246101 45.82947572 -10.01272741 47.53005176 -10.01483154 49.23062134 C-10.04385367 55.08380109 -10.04385367 55.08380109 -11.15234375 57.30078125 C-14.99455033 58.58151678 -18.64684226 58.47544791 -22.65234375 58.51171875 C-24.36068685 58.53977623 -26.06902007 58.56844061 -27.77734375 58.59765625 C-30.47005045 58.63899166 -33.16257041 58.675881 -35.85546875 58.70214844 C-38.45481338 58.72969997 -41.05332025 58.77555626 -43.65234375 58.82421875 C-44.86180664 58.82909805 -44.86180664 58.82909805 -46.09570312 58.83407593 C-50.26016322 58.82071242 -50.26016322 58.82071242 -53.86341858 60.63163757 C-55.94094821 63.3220152 -55.56005827 65.89595384 -55.5859375 69.234375 C-55.59117935 69.90872086 -55.5964212 70.58306671 -55.6018219 71.27784729 C-55.60823814 72.70255152 -55.60691014 74.12730876 -55.59838867 75.55200195 C-55.58988515 77.72768947 -55.61862717 79.90074428 -55.65039062 82.07617188 C-55.65200302 83.4622388 -55.65142437 84.84831036 -55.6484375 86.234375 C-55.65029053 87.49306396 -55.65214355 88.75175293 -55.65405273 90.04858398 C-55.36718398 93.29890825 -55.36718398 93.29890825 -53.67456055 95.7109375 C-49.93964084 98.06519141 -46.63290057 97.84759415 -42.30078125 97.8046875 C-41.44553864 97.81410873 -40.59029602 97.82352997 -39.70913696 97.83323669 C-36.9816278 97.86189047 -34.25499136 97.8649638 -31.52734375 97.86328125 C-28.79268298 97.86688201 -26.05865478 97.87631898 -23.3241272 97.90403748 C-21.62366808 97.920905 -19.92299965 97.92363992 -18.22250366 97.911026 C-15.89599609 97.93188477 -15.89599609 97.93188477 -12.15234375 98.30078125 C-9.58975407 102.14466577 -9.87337658 105.31103244 -9.87890625 109.765625 C-9.85861931 111.46940764 -9.83776856 113.17318363 -9.81640625 114.87695312 C-9.79379261 117.56084804 -9.77733025 120.24448093 -9.77148438 122.9284668 C-9.76196621 125.52050022 -9.72820103 128.11135538 -9.69140625 130.703125 C-9.69645172 131.50427231 -9.70149719 132.30541962 -9.70669556 133.13084412 C-9.64595255 136.56937361 -9.42140095 138.88175306 -7.54443359 141.80493164 C-4.34178394 143.80764999 -2.1070431 143.81798951 1.66015625 143.83203125 C2.31089111 143.83585815 2.96162598 143.83968506 3.63208008 143.84362793 C5.00375929 143.84634201 6.37549069 143.83901578 7.74707031 143.82226562 C9.8416731 143.80084244 11.93284709 143.82207762 14.02734375 143.84765625 C15.36328879 143.84501288 16.6992317 143.83988768 18.03515625 143.83203125 C19.85080078 143.82526367 19.85080078 143.82526367 21.703125 143.81835938 C24.85856852 143.50409406 24.85856852 143.50409406 27.23974609 141.82080078 C29.61809441 138.09330134 29.41321439 134.78768075 29.38671875 130.44921875 C29.39851166 129.59397614 29.41030457 128.73873352 29.42245483 127.85757446 C29.45772265 125.13012423 29.46688749 122.40344095 29.47265625 119.67578125 C29.48897918 116.94121012 29.51095768 114.20698278 29.54428101 111.4725647 C29.56396805 109.77211381 29.57323975 108.07150478 29.57119751 106.37094116 C29.62419242 100.52424508 29.62419242 100.52424508 31.84765625 98.30078125 C34.73849796 98.10358414 37.54161694 98.02387073 40.43359375 98.02734375 C42.18620428 98.00705283 43.9388084 97.986202 45.69140625 97.96484375 C48.45871377 97.94224145 51.22576848 97.92577467 53.99316406 97.91992188 C56.66127418 97.91040311 59.32823978 97.87663069 61.99609375 97.83984375 C62.82225189 97.84488922 63.64841003 97.84993469 64.49960327 97.85513306 C68.12732363 97.79297269 70.25600261 97.6742372 73.36987305 95.70874023 C75.38387814 92.42703988 75.34940226 90.07373599 75.34375 86.234375 C75.34520523 85.55907242 75.34666046 84.88376984 75.34815979 84.18800354 C75.34650445 82.76502147 75.33498377 81.34202083 75.31420898 79.91918945 C75.28520016 77.74157782 75.29361509 75.56639449 75.30664062 73.38867188 C75.3004042 72.00389443 75.29201399 70.61912465 75.28125 69.234375 C75.27150146 67.97681396 75.26175293 66.71925293 75.25170898 65.42358398 C74.80771578 61.9920933 74.48504368 61.35211395 71.84765625 59.30078125 C68.94755762 58.98133599 66.25097446 58.83593153 63.34765625 58.82421875 C62.51556641 58.80863922 61.68347656 58.79305969 60.82617188 58.77700806 C58.16667634 58.72946808 55.50744274 58.7017257 52.84765625 58.67578125 C50.18805569 58.63926939 47.52860279 58.59861304 44.86914062 58.5531311 C43.21428037 58.52595201 41.55931245 58.5045801 39.90429688 58.48959351 C36.63829878 58.44495761 33.9673337 58.34067373 30.84765625 57.30078125 C29.20019677 54.00586229 29.7115129 50.33694274 29.70703125 46.71484375 C29.68870523 44.96222657 29.66913511 43.20962203 29.6484375 41.45703125 C29.6194459 38.68956157 29.59765574 35.92290495 29.59716797 33.15527344 C29.59383606 30.48689362 29.55930558 27.82039698 29.51953125 25.15234375 C29.52660095 24.32618561 29.53367065 23.50002747 29.54095459 22.64883423 C29.45641963 18.66267381 29.35528464 16.89865211 26.70800781 13.78076172 C23.3585271 12.04769991 21.17197758 11.78475249 17.41015625 11.76953125 C16.18554688 11.764375 14.9609375 11.75921875 13.69921875 11.75390625 C11.79269531 11.77710938 11.79269531 11.77710938 9.84765625 11.80078125 C8.57664063 11.7853125 7.305625 11.76984375 5.99609375 11.75390625 C4.15917969 11.76164062 4.15917969 11.76164062 2.28515625 11.76953125 C0.61259766 11.77629883 0.61259766 11.77629883 -1.09375 11.78320312 C-5.00592031 12.44522428 -6.57459116 13.2647746 -9.15234375 16.30078125 Z " fill="#ffffff" transform="translate(246.15234375,300.69921875)"/>
<path d="M0 0 C1.23381093 -0.00679667 1.23381093 -0.00679667 2.49254733 -0.01373065 C5.2289613 -0.02631797 7.96517479 -0.02475795 10.70161438 -0.02310181 C12.67182672 -0.02909067 14.64203672 -0.03589704 16.61224365 -0.04345703 C21.9513281 -0.0610895 27.29034839 -0.0658113 32.62945914 -0.0670886 C35.96975412 -0.06851251 39.31003292 -0.0727867 42.65032387 -0.07808304 C54.31684526 -0.09657542 65.98332101 -0.10475479 77.64985657 -0.10317993 C88.50276734 -0.10197931 99.35547899 -0.12306828 110.20833939 -0.15466726 C119.54366793 -0.18087342 128.87893162 -0.19154538 138.21429664 -0.19026911 C143.78200112 -0.18976068 149.34952863 -0.19537773 154.91719627 -0.21662521 C160.15810711 -0.2360803 165.3986735 -0.23608247 170.63959694 -0.22159195 C172.5547041 -0.21951164 174.46983324 -0.22415794 176.38490295 -0.23631287 C187.17454088 -0.30031673 196.32067519 0.19836092 206.45674133 4.26742554 C207.35761317 4.62491693 208.25848501 4.98240833 209.186656 5.3507328 C223.38305046 11.31021737 232.94409186 24.42274603 239.15986633 37.92367554 C241.65484341 44.35650799 242.7070379 50.0475677 242.7155304 56.93685913 C242.72078735 58.0164389 242.72078735 58.0164389 242.72615051 59.11782837 C242.73486552 61.46727491 242.72915913 63.81641412 242.72236633 66.16586304 C242.72371504 67.80873675 242.72565729 69.45161007 242.72816467 71.09448242 C242.73110127 74.52212356 242.7268623 77.94965992 242.71748352 81.37728882 C242.70603555 85.77576115 242.71269123 90.17399081 242.72462845 94.57245445 C242.73184062 97.95755864 242.72956304 101.34260483 242.72437286 104.72771072 C242.72303738 106.35047052 242.72468056 107.97323555 242.72933197 109.59598923 C242.73439258 111.85558912 242.72669637 114.11478916 242.7155304 116.37435913 C242.71393921 117.66039032 242.71234802 118.94642151 242.71070862 120.27142334 C242.45674133 123.26742554 242.45674133 123.26742554 240.45674133 125.26742554 C234.30851793 125.82635494 234.30851793 125.82635494 231.75714111 124.15216064 C229.83740736 121.36979352 230.0851074 119.15750837 230.08784485 115.79916382 C230.08407837 115.14661118 230.08031189 114.49405853 230.07643127 113.82173157 C230.06999703 112.40419068 230.07033056 110.98660665 230.07661629 109.56906509 C230.08574596 107.31343289 230.07547713 105.05862895 230.05999756 102.80303955 C230.01998301 96.3898145 230.01867418 89.97665312 230.02095032 83.56332397 C230.02100193 79.63688685 230.00157079 75.71088884 229.97161674 71.7845726 C229.96093238 69.58389807 229.97284467 67.38411581 229.98544312 65.18347168 C229.94914308 50.57525727 226.35034009 38.01110416 216.42549133 27.01742554 C206.68700223 17.702349 194.61336942 12.94258724 181.2171936 13 C180.4273214 12.99546889 179.6374492 12.99093777 178.82364148 12.98626935 C176.19778126 12.97368922 173.57213015 12.97524157 170.94624329 12.97689819 C169.05484757 12.97090888 167.1634543 12.9641024 165.27206421 12.95654297 C160.14784841 12.93891503 155.02369946 12.93418889 149.89945626 12.9329114 C146.69316878 12.93148721 143.48689814 12.92721251 140.28061485 12.92191696 C129.0809306 12.90342599 117.88129387 12.89524502 106.68159485 12.89682007 C96.26493318 12.89802061 85.848479 12.87693286 75.4318698 12.84533274 C66.47021082 12.81912156 57.50861938 12.80845483 48.54692239 12.80973089 C43.20278032 12.81023917 37.85882267 12.80463007 32.51471901 12.78337479 C27.4839222 12.76391119 22.45348416 12.76392322 17.42267418 12.77840805 C15.58496955 12.78048733 13.74724198 12.77584832 11.90957642 12.76368713 C-4.32861951 12.66325876 -18.9080778 15.0246267 -31.29325867 26.51742554 C-42.00852919 38.06470531 -45.14769512 51.95445183 -45.05967903 67.32873917 C-45.04683842 69.58254455 -45.05852003 71.83516292 -45.07571411 74.08892822 C-45.10214462 78.04968577 -45.10801889 82.01014159 -45.10661316 85.97097778 C-45.10436435 92.34363452 -45.118466 98.71592461 -45.16219902 105.08843613 C-45.17202476 107.30610465 -45.16333705 109.52318849 -45.15350342 111.74084473 C-45.1596437 113.09362169 -45.16655412 114.44639545 -45.17436218 115.79916382 C-45.17340042 116.97906891 -45.17243866 118.158974 -45.17144775 119.37463379 C-45.54325867 122.26742554 -45.54325867 122.26742554 -46.84365845 124.15216064 C-49.6698347 126.00667626 -52.27770881 125.56429371 -55.54325867 125.26742554 C-58.39883305 122.41185115 -57.80978839 120.45441247 -57.83378601 116.45370483 C-57.84050323 115.75253036 -57.84722046 115.0513559 -57.85414124 114.32893372 C-57.87320517 111.99976579 -57.87705158 109.67088551 -57.87919617 107.34164429 C-57.88562543 105.71654646 -57.89235389 104.09144978 -57.89936829 102.46635437 C-57.91136699 99.04902472 -57.91504717 95.63179626 -57.91386414 92.21444702 C-57.91366242 87.86826252 -57.94079776 83.52274287 -57.97540855 79.1767149 C-57.99784176 75.81258775 -58.00169647 72.44861538 -58.00064468 69.08442116 C-58.00298246 67.4846858 -58.01170134 65.88494496 -58.02730942 64.28528404 C-58.1912301 45.72502302 -53.45681603 30.43880086 -40.29716492 16.96273804 C-29.320379 6.21950076 -15.43284387 -0.06341017 0 0 Z " fill="#ffffff" transform="translate(163.5432586669922,5.732574462890625)"/>
<path d="M0 0 C0.7809608 -0.00367669 1.5619216 -0.00735338 2.36654788 -0.01114148 C4.9919152 -0.02218298 7.61724294 -0.02602296 10.24263 -0.02983093 C12.12169521 -0.03609526 14.00075917 -0.04274203 15.87982178 -0.04974365 C20.99158419 -0.06715676 26.10333726 -0.07770641 31.21512198 -0.08594918 C34.40877491 -0.09109902 37.60242494 -0.09717478 40.79607582 -0.10346031 C50.78815748 -0.12251385 60.78023174 -0.13674426 70.77232808 -0.14507228 C82.30653802 -0.15484423 93.84055603 -0.18116203 105.37469834 -0.22157317 C114.28946142 -0.25173511 123.20416949 -0.26654126 132.11898261 -0.26985329 C137.44349002 -0.2722038 142.76779243 -0.28116434 148.0922451 -0.30631447 C153.10324617 -0.32960128 158.11390734 -0.33382589 163.1249485 -0.32355309 C164.96153011 -0.32305776 166.79812848 -0.32937735 168.63465881 -0.34310913 C171.14787638 -0.36084512 173.65987637 -0.35371408 176.1730957 -0.34057617 C177.25566518 -0.35703004 177.25566518 -0.35703004 178.36010474 -0.37381631 C184.62472473 -0.2950979 189.96920567 1.74009043 194.46260071 6.18232727 C194.91763977 6.85135071 195.37267883 7.52037415 195.84150696 8.20967102 C196.3145929 8.88127258 196.78767883 9.55287415 197.27510071 10.24482727 C199.54903545 14.07668271 199.53532139 17.31910847 199.54927063 21.68232727 C199.55262924 22.34118927 199.55598785 23.00005127 199.55944824 23.67887878 C199.56894393 25.85582872 199.57090049 28.03270167 199.57197571 30.20967102 C199.57518866 31.72277356 199.57855276 33.23587578 199.58206177 34.74897766 C199.58804915 37.91980205 199.58990201 41.09059919 199.58930969 44.26142883 C199.58920796 48.32699648 199.6028736 52.39238994 199.6200819 56.45791626 C199.63119128 59.58227849 199.63322925 62.70659843 199.63269997 65.83097839 C199.63388117 67.33010968 199.6383108 68.82924202 199.64603233 70.32835388 C199.6558133 72.42303245 199.65296219 74.51733027 199.64692688 76.61201477 C199.6483519 77.80431702 199.64977692 78.99661926 199.65124512 80.22505188 C199.40400696 83.14717102 199.40400696 83.14717102 197.40400696 86.14717102 C191.38303912 86.80400388 191.38303912 86.80400388 188.70639038 85.00823975 C186.82447126 82.31903106 187.01817276 80.25903115 187.00337219 76.99507141 C186.99003342 75.72688065 186.97669464 74.45868988 186.96295166 73.15206909 C186.96281644 71.76632182 186.96269991 70.38057455 186.96260071 68.99482727 C186.95082883 67.57378781 186.93746506 66.15276072 186.9225769 64.73175049 C186.88636915 60.9899643 186.8661848 57.24828769 186.85102844 53.50636292 C186.82621299 47.52059037 186.78650298 41.5350602 186.72912788 35.54951286 C186.71281691 33.46002403 186.70902262 31.3707641 186.70611572 29.28121948 C186.6908358 27.37420509 186.6908358 27.37420509 186.67524719 25.42866516 C186.66883461 23.75013206 186.66883461 23.75013206 186.66229248 22.03768921 C186.40239487 19.12912983 186.0891185 17.51471844 184.40400696 15.14717102 C180.80609275 12.70912674 177.1546668 12.86655727 172.96455383 12.89320374 C172.21258476 12.89008375 171.46061569 12.88696377 170.68585968 12.88374925 C168.16474584 12.87576842 165.64387262 12.88209318 163.12275696 12.88838196 C161.31587076 12.88567213 159.50898566 12.88211125 157.70210266 12.87776184 C152.79310911 12.86863456 147.88419951 12.8721835 142.97520447 12.87852001 C137.8414436 12.88357824 132.70768998 12.87888905 127.57392883 12.87574768 C118.95217089 12.87210752 110.3304472 12.87690845 101.70869446 12.88642883 C91.73620102 12.89731347 81.76378936 12.89378793 71.79129791 12.88277602 C63.23410593 12.87370458 54.67693858 12.87241717 46.11974335 12.87765336 C41.00672057 12.88077384 35.89373626 12.88118025 30.78071594 12.87458038 C25.97414821 12.86880964 21.16768607 12.87279887 16.36112976 12.8843689 C14.59544551 12.88701693 12.8297524 12.88624795 11.06407166 12.88184357 C8.65708052 12.87639233 6.25042945 12.88321702 3.84346008 12.89320374 C3.14190544 12.88874229 2.4403508 12.88428085 1.71753693 12.87968421 C-1.87646658 12.90868063 -4.57918683 13.10290128 -7.59599304 15.14717102 C-9.93166787 18.4287466 -9.85216298 21.48392209 -9.86723328 25.42866516 C-9.87741989 26.70000809 -9.88760651 27.97135101 -9.89810181 29.28121948 C-9.8990428 29.95762545 -9.89998379 30.63403141 -9.90095329 31.33093452 C-9.90462354 33.45357835 -9.92136554 35.57575772 -9.94171143 37.69830322 C-9.99707417 43.73105753 -10.0278559 49.76387868 -10.05229187 55.79682922 C-10.06815489 59.49093635 -10.0983544 63.18471027 -10.13705635 66.87864494 C-10.14871179 68.28562831 -10.15463675 69.6926712 -10.15473747 71.09970284 C-10.15492924 73.06487233 -10.17468985 75.0300106 -10.19535828 76.99507141 C-10.20042892 78.11329788 -10.20549957 79.23152435 -10.21072388 80.38363647 C-10.59599304 83.14717102 -10.59599304 83.14717102 -11.89837646 85.00823975 C-14.74799405 86.92004871 -17.29059954 86.5077594 -20.59599304 86.14717102 C-22.98468792 82.56412871 -22.85894353 80.94972535 -22.88652039 76.69136047 C-22.89323761 76.04052994 -22.89995483 75.3896994 -22.90687561 74.71914673 C-22.92588028 72.56617092 -22.92978174 70.41350677 -22.93193054 68.26045227 C-22.93835953 66.75932691 -22.94508797 65.25820281 -22.95210266 63.75708008 C-22.96408354 60.60721435 -22.96778294 57.45745832 -22.96659851 54.30757141 C-22.9663959 50.28711529 -22.99363314 46.26737068 -23.02814293 42.24708271 C-23.05047877 39.14393948 -23.05443393 36.04096522 -23.05337906 32.93774986 C-23.05572747 31.45668791 -23.06450796 29.97562077 -23.08004379 28.49463844 C-23.15602293 20.49950462 -23.14743374 13.99419002 -18.59599304 7.14717102 C-16.56083679 5.08857727 -16.56083679 5.08857727 -14.53349304 3.70967102 C-13.86189148 3.23658508 -13.19028992 2.76349915 -12.49833679 2.27607727 C-8.43078771 -0.13772496 -4.57318133 -0.00115045 0 0 Z " fill="#ffffff" transform="translate(167.5959930419922,44.85282897949219)"/>
</svg>
