<?xml version="1.0" encoding="UTF-8"?>
<svg version="1.1" xmlns="http://www.w3.org/2000/svg" width="512" height="512">
<path d="M0 0 C1.08323044 -0.00428513 2.16646088 -0.00857025 3.28251648 -0.01298523 C5.55902411 -0.01869051 7.83554995 -0.01925712 10.11206055 -0.01489258 C13.55484815 -0.01173651 16.99677156 -0.03522762 20.43945312 -0.06054688 C40.53732415 -0.11948438 57.83635155 1.4757349 73.125 15.9765625 C76.08114763 19.19211613 78.17282862 22.47114935 80.26171875 26.30078125 C80.78378906 26.08421875 81.30585938 25.86765625 81.84375 25.64453125 C89.81797015 22.62801365 97.31967772 21.97056113 105.44921875 24.86328125 C113.40128148 28.46064296 119.59469776 34.34135584 123.26171875 42.30078125 C125.61392842 48.72399693 125.51942754 54.78889075 125.45703125 61.578125 C125.45278641 63.32785362 125.45278641 63.32785362 125.44845581 65.1129303 C125.43730263 68.82148701 125.41220661 72.5297981 125.38671875 76.23828125 C125.37668268 78.75976213 125.36755793 81.2812468 125.359375 83.80273438 C125.33737919 89.96883315 125.30394993 96.13478964 125.26171875 102.30078125 C126.18952148 102.4299292 127.11732422 102.55907715 128.07324219 102.69213867 C134.30305962 103.88133736 138.50285698 108.26579314 143.01171875 112.48828125 C144.06603974 113.46914411 145.12073275 114.44960722 146.17578125 115.4296875 C146.6955957 115.91453613 147.21541016 116.39938477 147.75097656 116.89892578 C149.94162439 118.9316827 152.16264032 120.92972348 154.38671875 122.92578125 C155.19367188 123.65023437 156.000625 124.3746875 156.83203125 125.12109375 C157.63382812 125.84039062 158.435625 126.5596875 159.26171875 127.30078125 C160.92864522 128.80049253 162.59531024 130.30049446 164.26171875 131.80078125 C165.49921875 132.91453125 165.49921875 132.91453125 166.76171875 134.05078125 C204.26171875 167.80078125 204.26171875 167.80078125 206.765625 170.05859375 C208.4135778 171.53891442 210.06713661 173.01302082 211.7265625 174.48046875 C236.76505082 196.71053263 253.09726059 222.3398262 257.26171875 256.30078125 C257.40100093 259.22149598 257.40957099 262.13746212 257.40888977 265.06114197 C257.41256646 265.91902441 257.41624315 266.77690685 257.42003125 267.66078573 C257.43100487 270.52247988 257.43490105 273.38413764 257.4387207 276.24584961 C257.44498987 278.30284234 257.45163707 280.35983395 257.45863342 282.41682434 C257.47961298 289.15808329 257.49002643 295.89934233 257.5 302.640625 C257.50404909 304.96429519 257.50816606 307.28796526 257.51235008 309.61163521 C257.5313841 320.524209 257.54562189 331.43677608 257.55396205 342.34936327 C257.56374423 354.93965514 257.59009692 367.52977167 257.63046294 380.12000173 C257.66061421 389.85861769 257.67542978 399.59718332 257.67874306 409.33584505 C257.68109358 415.14989393 257.69005544 420.96375507 257.71520424 426.77775383 C257.73847414 432.24515095 257.74272242 437.71223653 257.73244286 443.17967033 C257.73194722 445.18396033 257.73827589 447.18826562 257.7519989 449.1925087 C257.76971212 451.93319068 257.76261466 454.67275367 257.74946594 457.41343689 C257.76043519 458.20245846 257.77140443 458.99148003 257.78270608 459.80441135 C257.70271008 466.73224428 255.38674396 471.77372424 250.94921875 477.05078125 C244.28944734 482.62640383 238.73346228 484.42390102 230.11043262 484.43220901 C229.38588968 484.43426165 228.66134673 484.43631428 227.91484794 484.43842912 C225.47412424 484.4441074 223.03345682 484.44264085 220.59272766 484.44122314 C218.83027446 484.44380631 217.06782184 484.44681933 215.30537003 484.45022655 C210.45190643 484.45830558 205.59845761 484.46008662 200.74498808 484.46082401 C195.51443116 484.462673 190.28388195 484.47021957 185.05332947 484.47695923 C173.61117924 484.49054958 162.1690325 484.49656839 150.72687554 484.50096989 C143.58416879 484.50373117 136.44146339 484.50796832 129.29875755 484.51247406 C109.52806972 484.52466774 89.75738298 484.5349668 69.98669147 484.53834915 C68.7209584 484.53856872 67.45522533 484.53878828 66.15113671 484.5390145 C64.8823505 484.53923278 63.6135643 484.53945106 62.30633003 484.53967595 C59.73522588 484.54011942 57.16412173 484.54056598 54.59301758 484.54101562 C52.67997709 484.54134777 52.67997709 484.54134777 50.72828933 484.54168662 C30.06112235 484.54563495 9.39399062 484.5630896 -11.27316274 484.58637515 C-32.48479701 484.61008152 -53.69641359 484.62255068 -74.90806133 484.62371707 C-86.82043267 484.62463424 -98.7327581 484.63039718 -110.64511681 484.64853668 C-120.78859219 484.66392802 -130.93200745 484.66906384 -141.07549229 484.66079858 C-146.25123639 484.65688864 -151.4268594 484.65783851 -156.60258865 484.67185593 C-161.34190398 484.68457406 -166.08100695 484.68341563 -170.8203219 484.67126521 C-172.5336775 484.6693046 -174.24704805 484.67240345 -175.96038266 484.68110958 C-197.19411722 484.78216416 -197.19411722 484.78216416 -204.40187931 477.88574409 C-212.37012323 468.43546557 -211.44391034 457.78679877 -211.36938477 446.11376953 C-211.37452877 444.06594728 -211.38181366 442.01812946 -211.3910675 439.97032166 C-211.40953992 434.4261917 -211.39666417 428.88254441 -211.37697721 423.3384347 C-211.36053299 417.51418194 -211.36941265 411.68995839 -211.37449646 405.86569214 C-211.37901455 396.07574817 -211.36317392 386.28599541 -211.33520508 376.49609375 C-211.30324419 365.22290875 -211.30313519 353.95007023 -211.32041985 342.67686093 C-211.33636773 331.79097847 -211.32949274 320.90522142 -211.31248283 310.01934433 C-211.30566016 305.40821819 -211.30659545 300.79719402 -211.31402779 296.18606949 C-211.3217733 290.73413081 -211.30929885 285.28257873 -211.28217888 279.83070564 C-211.27537624 277.8459888 -211.27510795 275.86123528 -211.28239441 273.87652016 C-211.39172319 240.17494031 -200.93750415 209.58222043 -177.00317383 185.2487793 C-171.35315347 179.60914819 -165.62408953 174.12185486 -159.58251953 168.90209961 C-156.91720869 166.58785897 -154.33095437 164.19618576 -151.73828125 161.80078125 C-147.82935905 158.19968667 -143.87959481 154.65658634 -139.86328125 151.17578125 C-137.12004707 148.7552805 -134.42943557 146.27877483 -131.73828125 143.80078125 C-127.8284653 140.20065369 -123.87961657 136.6566052 -119.86328125 133.17578125 C-117.12004181 130.75527586 -114.42966207 128.27853397 -111.73828125 125.80078125 C-107.1292919 121.56379553 -102.494974 117.37149933 -97.73828125 113.30078125 C-96.86300781 112.52347656 -95.98773438 111.74617188 -95.0859375 110.9453125 C-94.14621094 110.13449219 -93.20648438 109.32367188 -92.23828125 108.48828125 C-91.38234375 107.73933594 -90.52640625 106.99039063 -89.64453125 106.21875 C-86.00819224 103.81896176 -82.99216746 103.15973904 -78.73828125 102.30078125 C-78.75922852 101.42043213 -78.78017578 100.54008301 -78.80175781 99.63305664 C-79.4329574 69.07780309 -76.0765207 43.49092553 -54.078125 20.5234375 C-38.76886471 5.87500859 -20.86688776 -0.01873958 0 0 Z M-25.73828125 20.30078125 C-26.89585937 20.80738281 -28.0534375 21.31398438 -29.24609375 21.8359375 C-46.12230109 31.68458984 -56.47700741 46.64136472 -61.73828125 65.30078125 C-63.9962713 73.95443946 -64.07328829 82.9035499 -64.30078125 91.80078125 C-64.35210205 92.94772461 -64.40342285 94.09466797 -64.45629883 95.27636719 C-64.72393235 101.0855267 -64.72393235 101.0855267 -62.23901367 106.05517578 C-60.45819215 107.28508559 -58.64583875 108.28421286 -56.73828125 109.30078125 C-55.03125 111.29296875 -55.03125 111.29296875 -53.92578125 113.17578125 C-53.54808594 113.79195313 -53.17039063 114.408125 -52.78125 115.04296875 C-51.39928761 118.03463265 -50.62059781 121.13052498 -49.73828125 124.30078125 C-41.68735308 124.37097849 -33.63655748 124.42393996 -25.58539677 124.45621777 C-21.8449868 124.47172678 -18.10478955 124.49268644 -14.36450195 124.52709961 C13.02275249 124.7722939 41.99688011 124.27588575 63.48046875 104.33984375 C66.37440783 101.02704507 68.59756214 97.34610904 70.81640625 93.55859375 C72.26171875 91.30078125 72.26171875 91.30078125 74.26171875 90.30078125 C80.65457184 89.83584648 80.65457184 89.83584648 82.89501953 91.55151367 C84.44711128 93.53806912 85.02521718 95.11366032 85.69140625 97.5390625 C85.92988281 98.35955078 86.16835938 99.18003906 86.4140625 100.02539062 C86.89223396 101.73776138 87.3662591 103.4512959 87.8359375 105.16601562 C89.4432851 110.66280059 91.27840546 114.16218626 95.26171875 118.30078125 C98.75518361 117.13629296 99.13030605 116.03006284 100.95536804 113.01185608 C102.51320438 110.97138216 104.26908546 109.79357284 106.35083008 108.29858398 C109.73884777 105.37253594 110.84617406 103.51436163 111.2175293 99.04321289 C111.23641436 97.01574491 111.21101202 94.98752762 111.1484375 92.9609375 C111.14423294 91.88001328 111.14002838 90.79908905 111.13569641 89.68540955 C111.11928077 87.40667777 111.08366906 85.12801303 111.0300293 82.84985352 C110.94954921 79.37753876 110.92757889 75.90870805 110.91601562 72.43554688 C110.89275198 70.21480518 110.86616916 67.99409527 110.8359375 65.7734375 C110.82632492 64.7429982 110.81671234 63.7125589 110.80680847 62.65089417 C110.6243223 55.67911832 109.8540065 49.70351817 105.5 43.98828125 C102.19807913 41.09491449 99.5743055 38.85760535 95.07421875 38.55078125 C90.27617083 39.49465953 88.9990731 40.23385479 86.26171875 44.30078125 C85.38510081 47.40615897 84.70071934 50.47988828 84.1328125 53.65625 C83.26171875 56.30078125 83.26171875 56.30078125 81.36328125 57.66796875 C78.27524776 58.5978227 76.31952345 58.27667637 73.26171875 57.30078125 C70.35510348 53.48802693 69.8157935 50.26013824 69.38671875 45.55078125 C68.22891317 36.54248905 64.97405753 30.11230685 58.35546875 23.87109375 C51.46565453 18.70373309 43.57131906 16.21806716 35.03515625 16.1237793 C33.50701294 16.10452644 33.50701294 16.10452644 31.94799805 16.08488464 C30.85527588 16.07749771 29.76255371 16.07011078 28.63671875 16.0625 C26.92899292 16.05039238 26.92899292 16.05039238 25.18676758 16.03804016 C22.77605704 16.02422116 20.36532713 16.01348926 17.95458984 16.00561523 C15.50693975 15.9941262 13.0593141 15.97372371 10.61181641 15.9440918 C-8.01097038 15.38238733 -8.01097038 15.38238733 -25.73828125 20.30078125 Z M69.13671875 118.80078125 C51.47923707 133.15542463 28.89543862 138.66286959 6.57758141 138.45291519 C4.15952636 138.43317403 1.74205664 138.43127938 -0.67607117 138.43478394 C-7.54222182 138.44439946 -14.40777677 138.44459339 -21.27368164 138.37988281 C-25.49489462 138.3413865 -29.71458313 138.34177175 -33.93587303 138.36745834 C-35.53583351 138.36986615 -37.13588582 138.35786245 -38.7356205 138.3308754 C-47.36284596 137.85790219 -47.36284596 137.85790219 -54.98312378 141.07051086 C-56.47741499 143.08370816 -57.5717403 145.09058275 -58.73828125 147.30078125 C-59.67671875 147.99042969 -60.61515625 148.68007812 -61.58203125 149.390625 C-64.02718781 151.16819132 -64.02718781 151.16819132 -64.33203125 154.3046875 C-63.56831728 183.29399698 -55.28633617 208.49446728 -35.73828125 230.30078125 C-34.82175781 231.34105469 -34.82175781 231.34105469 -33.88671875 232.40234375 C-19.11061297 248.18448226 1.17368931 257.72461706 22.76171875 258.55078125 C44.61693234 258.2481706 62.10806029 248.37500487 78.26171875 234.30078125 C78.88691406 233.76066406 79.51210938 233.22054687 80.15625 232.6640625 C98.24113474 215.84977856 108.1762258 190.48708256 110.26171875 166.30078125 C110.45701172 164.34205078 110.45701172 164.34205078 110.65625 162.34375 C111.26494996 155.35170682 111.26494996 155.35170682 108.68359375 149.1171875 C106.65507253 147.38649562 106.65507253 147.38649562 104.39453125 145.90625 C101.96270331 144.0756982 100.97373617 142.38654633 99.51171875 139.73828125 C96.40081825 134.68734115 92.39110517 133.13360934 87.109375 130.7578125 C80.59404153 127.42417823 77.70538241 121.95297677 75.26171875 115.30078125 C72.31854796 115.30078125 71.32798543 116.86949536 69.13671875 118.80078125 Z M-81.73828125 120.30078125 C-83.52920037 121.95165219 -85.22285554 123.66536875 -86.90625 125.42578125 C-88.67696137 127.23802316 -90.50658902 128.89781237 -92.42578125 130.55078125 C-95.92542338 133.56794844 -99.34085214 136.66957848 -102.73828125 139.80078125 C-106.64791404 143.40110573 -110.59695064 146.94496139 -114.61328125 150.42578125 C-117.35651543 152.846282 -120.04712693 155.32278767 -122.73828125 157.80078125 C-126.6480972 161.40090881 -130.59694593 164.9449573 -134.61328125 168.42578125 C-137.35651543 170.846282 -140.04712693 173.32278767 -142.73828125 175.80078125 C-146.03857048 178.83966143 -149.34777408 181.8623417 -152.73828125 184.80078125 C-153.35960937 185.34476562 -153.9809375 185.88875 -154.62109375 186.44921875 C-156.25533517 187.87842619 -157.89751388 189.29856087 -159.54296875 190.71484375 C-181.71426214 210.11249441 -193.86983387 236.42054607 -195.90896559 265.75631475 C-196.16991986 271.68761693 -196.14774643 277.61846664 -196.12646484 283.55419922 C-196.13054284 285.49960624 -196.13589152 287.44501095 -196.14239502 289.39041138 C-196.15591585 294.60852307 -196.15083733 299.82645423 -196.14125776 305.04456854 C-196.1335965 310.52744838 -196.14072315 316.01031405 -196.14541626 321.49319458 C-196.15084869 330.68022408 -196.14374182 339.8671808 -196.12939453 349.05419922 C-196.11300466 359.67173886 -196.1184124 370.28910622 -196.13487375 380.90664184 C-196.14847936 390.04929291 -196.15041485 399.19189211 -196.14255774 408.33455002 C-196.13788488 413.78442154 -196.13724717 419.23421193 -196.14716721 424.68407822 C-196.15582346 429.79457842 -196.14983958 434.90485523 -196.13248444 440.01533127 C-196.12851535 441.8902601 -196.12966083 443.76520771 -196.13627243 445.64012909 C-196.1444596 448.19717952 -196.13420161 450.7535118 -196.11923218 453.31051636 C-196.12592434 454.05339964 -196.13261651 454.79628292 -196.13951147 455.56167781 C-196.08924703 459.98176769 -195.47887241 462.79927452 -192.73828125 466.30078125 C-189.51653876 468.44860958 -188.69490815 468.54727273 -184.99145508 468.52783203 C-183.55030083 468.52760544 -183.55030083 468.52760544 -182.08003235 468.52737427 C-181.0455748 468.5170517 -180.01111725 468.50672913 -178.9453125 468.49609375 C-177.88414719 468.49326385 -176.82298187 468.49043396 -175.72966003 468.48751831 C-172.33658628 468.47631309 -168.94377538 468.45120772 -165.55078125 468.42578125 C-163.25195693 468.4157519 -160.95312849 468.40662597 -158.65429688 468.3984375 C-153.01553219 468.37637264 -147.37693381 468.34209219 -141.73828125 468.30078125 C-142.3500712 458.59832967 -143.27109936 448.9735813 -144.41235352 439.31933594 C-144.58028073 437.87854886 -144.74790453 436.4377264 -144.91525269 434.99687195 C-145.27269517 431.9232411 -145.63186916 428.84981956 -145.992342 425.77654266 C-146.56412673 420.89829365 -147.12957784 416.01932276 -147.6938324 411.14019775 C-149.29794098 397.27563952 -150.90614595 383.41157384 -152.5300293 369.54931641 C-153.4294794 361.87072181 -154.32147175 354.19129808 -155.20539135 346.51089978 C-155.67154055 342.46332548 -156.14135872 338.41625786 -156.62051582 334.37020111 C-162.21387971 287.08917486 -162.21387971 287.08917486 -154.35131836 276.41845703 C-149.6018178 270.66055597 -144.24463827 267.0838286 -137.86328125 263.30078125 C-135.72175443 261.99757454 -133.58115965 260.69283523 -131.44140625 259.38671875 C-129.78915039 258.38463379 -129.78915039 258.38463379 -128.10351562 257.36230469 C-122.55546151 253.96359829 -117.08535506 250.44505623 -111.61328125 246.92578125 C-110.56938232 246.25611328 -109.5254834 245.58644531 -108.44995117 244.89648438 C-105.54511603 243.03271656 -102.64151853 241.1670368 -99.73828125 239.30078125 C-98.17711445 238.29812863 -96.61591962 237.29551965 -95.0546875 236.29296875 C-91.94804681 234.29739138 -88.84259303 232.29998025 -85.73828125 230.30078125 C-87.47002077 225.46329291 -89.3824796 223.17725404 -93.73828125 220.30078125 C-100.12661163 218.76758196 -104.59851449 222.17887174 -109.87890625 225.41015625 C-112.18560857 226.93535287 -114.33090426 228.51633815 -116.48828125 230.23828125 C-120.78631696 232.96588084 -122.743403 233.13326096 -127.73828125 232.30078125 C-129.56518555 230.21728516 -129.56518555 230.21728516 -130.73828125 227.30078125 C-130.43126873 224.65011974 -130.00705639 222.53286934 -129.2578125 220.01171875 C-128.97004692 218.9646022 -128.97004692 218.9646022 -128.6764679 217.89633179 C-128.05789027 215.68870252 -127.40488634 213.4943551 -126.73828125 211.30078125 C-126.52959412 210.6106897 -126.32090698 209.92059814 -126.105896 209.20959473 C-124.84792946 205.10539788 -123.51128743 201.03247305 -122.12133789 196.97119141 C-121.42054946 194.91039622 -120.74447365 192.84243969 -120.06835938 190.7734375 C-114.89816148 175.35488767 -106.04289805 165.2837152 -93.37109375 155.36328125 C-89.71868852 152.50204985 -86.14090846 149.55283089 -82.5546875 146.609375 C-80.60792955 145.0136275 -78.65714075 143.42278942 -76.703125 141.8359375 C-75.72472656 141.04058594 -74.74632812 140.24523437 -73.73828125 139.42578125 C-72.40796875 138.34683594 -72.40796875 138.34683594 -71.05078125 137.24609375 C-66.86852653 133.84379192 -66.86852653 133.84379192 -64.80078125 128.98828125 C-64.72202616 124.34173106 -65.58928722 122.68594984 -68.73828125 119.30078125 C-74.12284562 116.80792737 -76.87551383 116.95762865 -81.73828125 120.30078125 Z M117.01171875 118.36328125 C113.94942606 120.52080565 112.61146178 121.80732869 111.26171875 125.30078125 C111.40031001 129.53771391 111.76635569 131.70044634 114.4921875 135.00390625 C115.46800781 135.844375 116.44382812 136.68484375 117.44921875 137.55078125 C118.24791382 138.2478418 118.24791382 138.2478418 119.06274414 138.95898438 C124.13875005 143.33487692 129.43943645 147.43758404 134.734375 151.54296875 C153.50198316 166.14403299 163.19669199 179.8214764 170.35913086 202.47827148 C171.08198049 204.76281197 171.81835861 207.0426708 172.55664062 209.32226562 C173.02812995 210.79271689 173.49886131 212.26341146 173.96875 213.734375 C174.18537796 214.40633408 174.40200592 215.07829315 174.62519836 215.77061462 C177.76587571 225.75469991 177.76587571 225.75469991 176.32421875 230.17578125 C174.26171875 232.30078125 174.26171875 232.30078125 170.6171875 232.73828125 C165.5768343 232.60043907 162.4594522 230.3563073 158.51171875 227.42578125 C157.22650471 226.50997005 155.94008217 225.59585197 154.65234375 224.68359375 C154.05969727 224.26037842 153.46705078 223.83716309 152.85644531 223.40112305 C148.57907324 220.4497887 145.51366161 219.51298982 140.26171875 220.30078125 C137.22820533 222.28770597 134.57167201 224.49883795 132.26171875 227.30078125 C132.26171875 228.29078125 132.26171875 229.28078125 132.26171875 230.30078125 C133.92814176 231.77896919 133.92814176 231.77896919 136.1953125 233.09375 C137.05938721 233.63346436 137.92346191 234.17317871 138.8137207 234.72924805 C139.76593506 235.309729 140.71814941 235.89020996 141.69921875 236.48828125 C143.72305916 237.74805087 145.74648063 239.00849371 147.76953125 240.26953125 C148.83333008 240.92824219 149.89712891 241.58695312 150.99316406 242.265625 C157.45400139 246.28844693 163.8486685 250.41533291 170.2512207 254.5300293 C174.94128006 257.54220642 179.63520971 260.54312044 184.375 263.4765625 C194.60096469 269.8434902 202.74332205 275.1382575 206.26171875 287.30078125 C206.63067051 290.13879536 206.62685085 292.90706203 206.55249023 295.76480103 C206.54155807 296.54581039 206.5306259 297.32681976 206.51936245 298.13149607 C206.35013697 306.10084828 205.55066357 313.96745671 204.609375 321.87646484 C204.43116155 323.43901271 204.25385246 325.00166393 204.07736206 326.56440735 C203.6028369 330.74429288 203.11608705 334.92266903 202.62699509 339.10087156 C202.1148896 343.49562665 201.61483471 347.89175295 201.11352539 352.28775024 C200.16521692 360.58835456 199.20703419 368.88778509 198.24483204 377.18678916 C196.83015911 389.39182391 195.4293047 401.59844665 194.029953 413.80524635 C193.92720723 414.70147347 193.82446146 415.59770058 193.71860218 416.5210861 C193.51381081 418.307472 193.30904712 420.09386109 193.10431194 421.88025343 C192.50538564 427.1029862 191.90312267 432.3253206 191.29792786 437.54733062 C190.92301745 440.78467735 190.5498218 444.02222037 190.17694473 447.25980186 C190.00360043 448.76113433 189.82946229 450.26237539 189.65447617 451.76351738 C189.41595297 453.81032468 189.1801883 455.85743197 188.94506836 457.90463257 C188.81233017 459.05008734 188.67959198 460.19554211 188.54283142 461.37570763 C188.19794294 464.47463194 188.19794294 464.47463194 188.26171875 468.30078125 C195.00597264 468.40227387 201.7500293 468.47228558 208.49487305 468.52050781 C210.78889323 468.54061231 213.08286223 468.56790016 215.37670898 468.60253906 C218.67574701 468.65110684 221.97410697 468.67376202 225.2734375 468.69140625 C226.80963997 468.72237396 226.80963997 468.72237396 228.37687683 468.75396729 C232.81899799 468.75536438 235.49770279 468.74998466 239.38598633 466.46386719 C242.81783953 462.50626998 242.4056002 458.44365404 242.39543152 453.47941589 C242.39882985 452.27144748 242.39882985 452.27144748 242.40229684 451.03907567 C242.40864466 448.33096765 242.40780694 445.62290958 242.40698242 442.91479492 C242.40997364 440.9765008 242.41337608 439.03820728 242.41716003 437.09991455 C242.42601333 431.82452386 242.42833886 426.54914938 242.42897582 421.27375197 C242.42968619 417.97485609 242.43182036 414.67596433 242.43447304 411.37706947 C242.44373458 399.85855472 242.44780738 388.34005155 242.44702148 376.8215332 C242.44642218 366.10343353 242.45694297 355.38538443 242.47276515 344.66729754 C242.48587566 335.45605171 242.49120383 326.24482233 242.49056607 317.03356725 C242.49031189 311.53679175 242.49311837 306.04006107 242.50374413 300.54329491 C242.5134829 295.36326728 242.51346493 290.18332674 242.50622749 285.0032959 C242.50518843 283.11119267 242.50750381 281.21908386 242.51358795 279.32699013 C242.61218223 246.51499693 233.80658832 218.28206174 210.57421875 194.36328125 C207.65368801 191.58739944 204.6138222 188.94706073 201.5625 186.31640625 C198.75398855 183.85597856 196.00709996 181.33103133 193.26171875 178.80078125 C189.96158528 175.76173591 186.65222115 172.73921666 183.26171875 169.80078125 C179.33082625 166.39400775 175.50975302 162.8707534 171.68359375 159.34765625 C168.90677818 156.79522982 166.11191158 154.27094837 163.26171875 151.80078125 C159.33082625 148.39400775 155.50975302 144.8707534 151.68359375 141.34765625 C148.30062981 138.23806313 144.87764723 135.18730861 141.390625 132.1953125 C139.6689117 130.66314562 138.00686356 129.10209306 136.3515625 127.5 C135.83142578 127.00371094 135.31128906 126.50742188 134.77539062 125.99609375 C133.75273228 125.01778861 132.73906175 124.02996734 131.73632812 123.03125 C127.36012638 118.87356305 122.96287525 116.41771086 117.01171875 118.36328125 Z M-87.8828125 170.9375 C-89.50421269 172.27942492 -91.13901772 173.60642771 -92.8125 174.8828125 C-100.21082337 180.65184219 -103.707732 188.55866924 -106.67578125 197.23828125 C-106.89959473 197.88917725 -107.1234082 198.54007324 -107.35400391 199.21069336 C-108.40557516 202.48839038 -108.85396754 203.95372237 -107.73828125 207.30078125 C-106.74828125 206.97078125 -105.75828125 206.64078125 -104.73828125 206.30078125 C-96.49828314 204.02198418 -90.20566685 205.40794744 -82.73828125 209.30078125 C-75.50244078 213.68878089 -70.64861299 221.56978604 -68.0078125 229.4921875 C-67.3506594 233.07173911 -67.86092381 235.26285492 -69.73828125 238.30078125 C-71.30029297 239.55834961 -71.30029297 239.55834961 -73.16796875 240.640625 C-73.87018555 241.05675049 -74.57240234 241.47287598 -75.29589844 241.90161133 C-76.06063477 242.3427124 -76.82537109 242.78381348 -77.61328125 243.23828125 C-79.26325154 244.21747388 -80.91163428 245.19934548 -82.55859375 246.18359375 C-83.41485352 246.69438477 -84.27111328 247.20517578 -85.15332031 247.73144531 C-89.32640842 250.26493703 -93.40686442 252.93543594 -97.48828125 255.61328125 C-103.75520117 259.71613807 -110.04249059 263.78216395 -116.36865234 267.79321289 C-119.17001587 269.56998379 -121.96611473 271.35481026 -124.76171875 273.140625 C-127.70675042 275.01973517 -130.66300397 276.87201429 -133.65234375 278.6796875 C-140.87602567 283.07353219 -140.87602567 283.07353219 -145.328125 290.0078125 C-146.24718979 295.14582234 -145.4031662 300.17166881 -144.73828125 305.30078125 C-144.57005721 306.87846807 -144.40622517 308.45662752 -144.24609375 310.03515625 C-143.5801197 318.2866754 -143.5801197 318.2866754 -141.73828125 326.30078125 C-137.13737222 325.60946748 -133.05096431 323.9116116 -128.79296875 322.1171875 C-128.0060817 321.78994186 -127.21919464 321.46269623 -126.40846252 321.12553406 C-123.80811572 320.04273247 -121.21062859 318.95325616 -118.61328125 317.86328125 C-116.79708454 317.10418549 -114.98075752 316.34540141 -113.16430664 315.58691406 C-110.31500478 314.39670467 -107.46601133 313.20578091 -104.61787415 312.01278687 C-98.66024209 309.51770145 -92.69606642 307.0391864 -86.72546387 304.57530212 C-82.81698335 302.96180847 -78.91092024 301.34251475 -75.00518799 299.72238159 C-73.13159413 298.94656411 -71.25705185 298.17303278 -69.38153076 297.40188599 C-66.74630848 296.3176009 -64.11500316 295.22428152 -61.484375 294.12890625 C-60.71517227 293.81491379 -59.94596954 293.50092133 -59.15345764 293.17741394 C-48.34537876 288.74023311 -48.34537876 288.74023311 -41.41357422 279.86181641 C-39.87067628 274.01040664 -39.81476957 268.00713124 -39.80078125 261.98828125 C-39.7960379 261.28769592 -39.79129456 260.5871106 -39.78640747 259.86529541 C-39.56751069 250.62845365 -39.56751069 250.62845365 -42.88671875 242.28125 C-45.68890802 239.66351857 -48.62624979 237.53402662 -51.73828125 235.30078125 C-68.41923514 215.06051555 -76.43206415 190.13041272 -78.73828125 164.30078125 C-81.68428388 164.30078125 -85.71860061 169.13725648 -87.8828125 170.9375 Z M125.26171875 164.30078125 C125.11476563 165.5846875 124.9678125 166.86859375 124.81640625 168.19140625 C121.81145241 192.62734584 114.35481609 222.88704574 93.97827148 239.11987305 C90.08758495 242.38328954 87.6130128 244.74145804 86.47387695 249.79785156 C86.27285255 253.16591058 86.22015227 256.41975526 86.36303711 259.78491211 C86.44927678 261.86468063 86.46554933 263.93618112 86.47070312 266.01757812 C86.5632676 273.03388103 86.65807683 279.68854425 91.26171875 285.30078125 C96.51423812 289.34918351 102.55558318 291.8901094 108.6640625 294.34765625 C109.56365189 294.71668564 110.46324127 295.08571503 111.39009094 295.46592712 C114.32373023 296.66770214 117.26138545 297.85930017 120.19921875 299.05078125 C122.24021685 299.88441885 124.28090326 300.71881995 126.32128906 301.55395508 C129.46733464 302.84150285 132.6136025 304.12847529 135.76101685 305.41267395 C142.96797516 308.3543707 150.1603657 311.32935308 157.34375 314.328125 C158.29438828 314.72458221 159.24502655 315.12103943 160.22447205 315.5295105 C163.88801579 317.05761711 167.55143315 318.5859949 171.21261597 320.11975098 C173.7120563 321.16632138 176.21324311 322.20860627 178.71484375 323.25 C179.45535477 323.56154526 180.19586578 323.87309052 180.95881653 324.19407654 C184.49047113 325.76119664 184.49047113 325.76119664 188.26171875 326.30078125 C189.64645629 319.61279355 190.63950999 312.89162036 191.44921875 306.11328125 C191.59302979 304.99203857 191.59302979 304.99203857 191.73974609 303.84814453 C192.45564578 297.56567473 192.55739951 292.07423844 189.81640625 286.20703125 C186.21711698 282.11242694 182.02498702 279.60815415 177.38671875 276.80078125 C175.38911766 275.56152872 173.39172762 274.32193594 171.39453125 273.08203125 C170.37391602 272.45425781 169.35330078 271.82648438 168.30175781 271.1796875 C163.59096789 268.26816813 158.92784465 265.28314498 154.26171875 262.30078125 C152.45076251 261.14805773 150.63956306 259.99571621 148.828125 258.84375 C144.93897217 256.3689605 141.05117376 253.89205734 137.1640625 251.4140625 C135.66649414 250.45983398 135.66649414 250.45983398 134.13867188 249.48632812 C132.22687313 248.26811218 130.31539716 247.04938949 128.40429688 245.83007812 C127.54126953 245.28029297 126.67824219 244.73050781 125.7890625 244.1640625 C124.65585571 243.44150269 124.65585571 243.44150269 123.49975586 242.7043457 C121.87275453 241.68398674 120.22455791 240.69718688 118.56469727 239.73120117 C115.90307231 238.07801972 115.09768319 237.31025323 114.26171875 234.30078125 C114.09716545 226.40222306 118.95874537 219.19163748 123.9296875 213.3359375 C129.37801246 208.24997144 136.48227294 205.12930959 143.94921875 204.92578125 C147.9592892 205.11130052 151.47087549 206.01028142 155.26171875 207.30078125 C151.67777087 188.07778807 143.33418246 177.00300462 128.26171875 165.30078125 C127.27171875 164.97078125 126.28171875 164.64078125 125.26171875 164.30078125 Z M-24.73828125 259.30078125 C-24.78726563 260.42355469 -24.83625 261.54632813 -24.88671875 262.703125 C-25.54091676 276.41676992 -26.37892788 287.59098248 -36.36328125 298.05078125 C-41.00411618 301.53140745 -46.51370644 303.84066593 -51.73828125 306.30078125 C-32.68345676 326.54653227 -3.80210848 334.78654121 23.26171875 335.67578125 C50.29192779 334.75167154 76.65287165 326.21987073 97.26171875 308.30078125 C97.59171875 307.64078125 97.92171875 306.98078125 98.26171875 306.30078125 C97.34390625 305.89988281 96.42609375 305.49898438 95.48046875 305.0859375 C85.4419919 300.51814325 78.04600549 295.62196886 73.82421875 284.92578125 C71.37795032 276.62786632 71.44141607 267.89031294 71.26171875 259.30078125 C70.26914062 259.831875 69.2765625 260.36296875 68.25390625 260.91015625 C46.52530073 272.29513829 21.80529408 276.71016714 -2.1796875 269.578125 C-10.0190715 266.7642078 -17.64899069 263.73323193 -24.73828125 259.30078125 Z M-71.77734375 314.296875 C-72.96070313 314.77253906 -74.1440625 315.24820312 -75.36328125 315.73828125 C-76.55179688 316.21136719 -77.7403125 316.68445313 -78.96484375 317.171875 C-79.88007813 317.54441406 -80.7953125 317.91695313 -81.73828125 318.30078125 C-72.56927501 338.32212369 -43.97093065 352.58793977 -24.45458984 359.97802734 C10.40730445 372.60806215 48.66729511 371.06456787 82.32421875 355.36328125 C98.76220593 347.37615376 117.3479495 335.27318577 128.26171875 320.30078125 C128.26171875 319.64078125 128.26171875 318.98078125 128.26171875 318.30078125 C126.35381843 317.40682796 124.43498069 316.53618791 122.51171875 315.67578125 C121.444375 315.18851562 120.37703125 314.70125 119.27734375 314.19921875 C116.40746589 313.04691816 116.40746589 313.04691816 114.11328125 313.9296875 C112.05359623 315.45489729 110.23341421 317.08484886 108.38671875 318.86328125 C81.73471608 342.90660503 46.75694885 350.76490345 11.81347656 349.51660156 C3.74029742 349.02603995 -3.965165 347.47997556 -11.73828125 345.30078125 C-12.7430249 345.02790283 -12.7430249 345.02790283 -13.76806641 344.74951172 C-32.71153145 339.46461085 -49.37893155 329.41278422 -64.0859375 316.55859375 C-67.50218402 313.34943778 -67.50218402 313.34943778 -71.77734375 314.296875 Z M-104.66479492 327.75366211 C-105.42205368 328.07076645 -106.17931244 328.38787079 -106.95951843 328.71458435 C-107.76693985 329.06142776 -108.57436127 329.40827118 -109.40625 329.765625 C-110.24166824 330.11839005 -111.07708649 330.47115509 -111.93782043 330.83460999 C-113.70011933 331.58032355 -115.46097055 332.32946632 -117.22045898 333.08178711 C-119.92314964 334.23715627 -122.63004793 335.3821557 -125.33789062 336.52539062 C-127.04843167 337.25070198 -128.75872685 337.97659347 -130.46875 338.703125 C-131.28224411 339.04794418 -132.09573822 339.39276337 -132.93388367 339.74803162 C-136.59720424 341.10625417 -136.59720424 341.10625417 -139.73828125 343.30078125 C-139.60606427 356.87083741 -137.58860917 370.48372987 -136.05078125 383.9453125 C-135.78530749 386.29177508 -135.52009395 388.63826712 -135.25512695 390.98478699 C-134.70291399 395.86718654 -134.14791596 400.74925875 -133.59082031 405.63110352 C-132.87631355 411.89394891 -132.16837952 418.15751679 -131.4624176 424.42133045 C-130.91751979 429.25045608 -130.3694619 434.0792189 -129.82040405 438.90787315 C-129.55793548 441.21909883 -129.29639543 443.53043015 -129.03579712 445.84186745 C-128.67287729 449.05616419 -128.30577326 452.26995541 -127.9375 455.48364258 C-127.83045746 456.43889832 -127.72341492 457.39415405 -127.61312866 458.37835693 C-127.51222931 459.2512587 -127.41132996 460.12416046 -127.30737305 461.02351379 C-127.17796577 462.16071476 -127.17796577 462.16071476 -127.04594421 463.32088947 C-126.7629546 465.50477168 -126.7629546 465.50477168 -125.73828125 468.30078125 C-27.39828125 468.30078125 70.94171875 468.30078125 172.26171875 468.30078125 C173.54175007 460.62059334 174.72497773 453.04031264 175.59033203 445.3190918 C175.76633438 443.78251167 175.76633438 443.78251167 175.94589233 442.21488953 C176.32779924 438.87278113 176.70511826 435.53017499 177.08203125 432.1875 C177.34805293 429.84485557 177.61424017 427.50222994 177.88058472 425.15962219 C178.43567547 420.27063129 178.98842023 415.38138222 179.53955078 410.49194336 C180.24532224 404.232736 180.95751971 397.97427894 181.67152596 391.71600628 C182.22162358 386.88730402 182.76805595 382.0581923 183.31341171 377.22895241 C183.57456443 374.92078989 183.83691493 372.61276255 184.1004982 370.30487633 C184.46806256 367.08216227 184.83061636 363.85892204 185.19189453 360.63549805 C185.35549469 359.21475983 185.35549469 359.21475983 185.5223999 357.76531982 C186.06126211 352.90750936 186.3762223 348.18834791 186.26171875 343.30078125 C178.79635448 339.4057135 171.15626806 335.98679679 163.3918457 332.74169922 C162.08530288 332.19294138 160.78128384 331.63813951 159.47973633 331.07763672 C157.57239441 330.25629786 155.65850185 329.45248611 153.7421875 328.65234375 C152.05452271 327.93812256 152.05452271 327.93812256 150.33276367 327.20947266 C147.05404562 326.23933285 145.45858961 326.17184182 142.26171875 327.30078125 C140.38562654 329.07459429 138.78398732 330.77475157 137.13671875 332.73828125 C136.16249212 333.84306247 135.1845442 334.94457199 134.203125 336.04296875 C133.71086426 336.59436523 133.21860352 337.14576172 132.71142578 337.71386719 C114.39511023 357.76372422 88.23265138 371.3570965 62.26171875 378.30078125 C61.43220703 378.52378906 60.60269531 378.74679687 59.74804688 378.9765625 C35.90244782 385.04499754 7.98481639 384.65931132 -15.73828125 378.30078125 C-16.59067383 378.07535645 -17.44306641 377.84993164 -18.32128906 377.61767578 C-48.14397181 369.40668294 -75.16534052 352.01366172 -94.80078125 328.1015625 C-98.01492909 325.11421945 -101.00109172 326.20003564 -104.66479492 327.75366211 Z " fill="#000000" transform="translate(232.73828125,13.69921875)"/>
<path d="M0 0 C2.29047075 1.579635 2.89075219 2.71127363 3.875 5.3125 C4.2174005 12.67411071 -2.57463323 18.68115063 -7 24 C-5.86111328 24.23783203 -5.86111328 24.23783203 -4.69921875 24.48046875 C3.39811912 26.38140021 3.39811912 26.38140021 6.25 29.3125 C7.23282716 32.83429733 7.00514119 34.43927716 6 38 C3.99298532 41.29594738 1.66742675 44.321517 -0.6875 47.375 C-1.60692383 48.59316406 -1.60692383 48.59316406 -2.54492188 49.8359375 C-3.76301692 51.44800814 -4.9867361 53.05584604 -6.21630859 54.65917969 C-8.43613572 57.57236098 -10.59723837 60.52718752 -12.74926758 63.49072266 C-14 65 -14 65 -16 66 C-19.83614957 66.35519903 -22.14629634 66.54724594 -25.4375 64.4375 C-27.64584315 60.99248469 -27.46315904 59.06596256 -27 55 C-25.47267381 51.95505292 -23.53112457 49.28979626 -21.5 46.5625 C-20.71302734 45.46518555 -20.71302734 45.46518555 -19.91015625 44.34570312 C-18.62104032 42.55266005 -17.3178858 40.77194462 -16 39 C-17.01320312 38.96132812 -17.01320312 38.96132812 -18.046875 38.921875 C-25.25074331 38.46382557 -25.25074331 38.46382557 -28.625 36.375 C-30.56138726 33.0303311 -30.36846839 30.82886721 -30 27 C-28.1640625 23.9296875 -28.1640625 23.9296875 -25.625 20.875 C-24.70755759 19.75193535 -23.79091509 18.62821685 -22.875 17.50390625 C-22.400625 16.93172363 -21.92625 16.35954102 -21.4375 15.77001953 C-19.99350448 13.99200195 -18.61503558 12.17901346 -17.25 10.33984375 C-16.80962402 9.74896973 -16.36924805 9.1580957 -15.91552734 8.54931641 C-15.07301722 7.41545015 -14.23460257 6.27852601 -13.40087891 5.13818359 C-9.3545624 -0.2238167 -6.61471237 -1.82960129 0 0 Z " fill="#000000" transform="translate(256,51)"/>
<path d="M0 0 C5.09677675 3.96295989 8.38160547 8.6807924 9.41015625 15.1171875 C9.60045917 18.8557191 9.43965144 21.07631539 7.46875 24.30859375 C4.07606874 26.30940577 1.90410839 26.29935923 -1.96875 25.74609375 C-5.98989094 22.95363477 -7.09816175 19.13790965 -8.96875 14.74609375 C-12.17499887 12.6085945 -13.19333103 12.45034376 -16.90625 12.43359375 C-18.18822266 12.40845703 -18.18822266 12.40845703 -19.49609375 12.3828125 C-22.52043137 12.82714646 -23.78717859 13.62082096 -25.96875 15.74609375 C-27.21461854 17.95767034 -27.21461854 17.95767034 -28.09375 20.37109375 C-29.76754276 24.64549013 -29.76754276 24.64549013 -31.96875 25.74609375 C-35.7309096 26.09444186 -38.11003053 26.25251806 -41.40625 24.30859375 C-43.75935069 20.44950861 -43.67832615 17.14836212 -42.96875 12.74609375 C-40.66305306 5.49221574 -36.40124055 1.66828846 -29.84375 -2.00390625 C-20.370335 -6.12278234 -8.76874775 -5.5848572 0 0 Z " fill="#000000" transform="translate(272.96875,226.25390625)"/>
<path d="M0 0 C2.4375 1.5625 2.4375 1.5625 4 4 C4.68689034 7.64051881 4.75655791 9.87609606 2.6484375 13.0078125 C1.16083982 14.74921832 -0.3640135 16.39809655 -2 18 C-1.38125 18.268125 -0.7625 18.53625 -0.125 18.8125 C2 20 2 20 4 23 C4.61703539 27.05480401 4.32038101 28.54369977 1.9375 31.9375 C-1 34 -1 34 -4.296875 33.89453125 C-8.49014436 32.88160015 -10.80223861 31.39514602 -14.1875 28.75 C-15.19167969 27.98171875 -16.19585937 27.2134375 -17.23046875 26.421875 C-19.88375232 24.10165524 -22.00709059 21.90395372 -24 19 C-24.07793476 15.25913176 -23.44025413 13.55765523 -21.125 10.625 C-20.10708064 9.72248429 -19.05979698 8.85295064 -18 8 C-17.1646875 7.31035156 -16.329375 6.62070313 -15.46875 5.91015625 C-6.02062225 -1.4744381 -6.02062225 -1.4744381 0 0 Z " fill="#000000" transform="translate(308,173)"/>
<path d="M0 0 C2.86066905 1.43303157 5.29786126 3.28332732 7.8125 5.25 C8.47958984 5.74113281 9.14667969 6.23226562 9.83398438 6.73828125 C13.14620832 9.24500976 15.40575297 11.06845322 17 15 C17.1875 17.75 17.1875 17.75 16 21 C13.2677398 24.0233053 10.22231401 26.51581479 7 29 C6.29746094 29.5465625 5.59492188 30.093125 4.87109375 30.65625 C1.37084664 33.12217751 -0.43146582 33.99067977 -4.8125 34.0625 C-8 33 -8 33 -9.9375 31.3125 C-11.34589562 28.24716836 -11.47772045 26.34404315 -11 23 C-9.125 20.125 -9.125 20.125 -7 18 C-6.34 18 -5.68 18 -5 18 C-5.433125 17.57589844 -5.86625 17.15179688 -6.3125 16.71484375 C-9.32930743 13.53741925 -10.87601259 11.73152573 -11.625 7.3125 C-11 4 -11 4 -9.4375 1.5625 C-6.00936199 -0.63502437 -4.04040963 -0.44847724 0 0 Z " fill="#000000" transform="translate(211,173)"/>
</svg>
