<?xml version="1.0" standalone="no"?>
<!DOCTYPE svg PUBLIC "-//W3C//DTD SVG 20010904//EN"
 "http://www.w3.org/TR/2001/REC-SVG-20010904/DTD/svg10.dtd">
<svg version="1.0" xmlns="http://www.w3.org/2000/svg"
 width="500" height="650" viewBox="0 0 500.000000 650.000000"
 preserveAspectRatio="xMidYMid meet">

<g transform="translate(0.000000,512.000000) scale(0.100000,-0.100000)"
fill="#fff" stroke="none">
<path d="M2350 5114 c-19 -2 -78 -9 -130 -15 -224 -25 -478 -98 -678 -194
-341 -164 -587 -399 -738 -707 -43 -87 -41 -120 8 -147 48 -27 76 -7 131 93
132 245 300 419 542 562 412 243 976 321 1581 219 525 -89 944 -285 1239 -580
240 -238 373 -501 421 -828 13 -91 15 -161 11 -367 -7 -349 -37 -516 -127
-707 -82 -176 -186 -309 -431 -553 -156 -156 -178 -182 -199 -235 -41 -108
-37 -388 6 -436 22 -24 86 -26 105 -2 11 12 14 57 14 187 0 210 1 213 143 343
55 51 144 142 198 203 342 385 444 678 444 1279 0 292 -29 466 -113 679 -249
635 -910 1064 -1827 1187 -109 15 -525 28 -600 19z"/>
<path d="M2794 4658 c-22 -10 -44 -47 -44 -73 0 -24 43 -62 93 -80 77 -28 164
-92 223 -166 70 -88 88 -93 157 -46 101 70 140 82 262 82 100 0 115 -2 167
-28 85 -41 162 -117 198 -192 16 -35 30 -69 30 -77 0 -24 42 -55 94 -67 199
-49 323 -213 314 -419 -4 -107 -39 -190 -117 -276 -28 -31 -51 -63 -51 -71 0
-8 16 -45 35 -82 46 -87 65 -160 65 -248 0 -142 -46 -251 -150 -356 -153 -155
-388 -193 -578 -94 -78 40 -75 35 -46 99 23 50 25 61 14 87 -14 33 -37 49 -73
49 -29 0 -57 -30 -86 -92 -30 -62 -108 -132 -179 -158 -82 -31 -183 -24 -274
19 -75 36 -72 36 -157 -23 -49 -34 -127 -45 -184 -27 -19 7 -57 31 -83 54
l-48 42 -90 0 c-114 1 -177 25 -240 96 -51 57 -76 121 -76 194 0 60 -18 91
-61 100 -44 10 -106 75 -115 120 -10 54 11 111 57 156 34 34 40 45 37 76 -4
46 -43 79 -82 69 -41 -10 -103 -72 -133 -134 -37 -76 -39 -181 -4 -259 22 -49
99 -134 131 -145 40 -13 -65 -70 -161 -88 -150 -29 -324 61 -393 203 -58 118
-55 225 10 355 l37 72 -29 73 c-26 64 -29 84 -29 182 0 103 2 114 32 177 56
119 149 200 274 239 90 28 95 32 118 106 63 205 277 314 471 242 102 -38 100
-39 184 40 51 46 101 82 150 105 76 36 86 48 86 96 0 31 -39 70 -69 70 -31 0
-164 -71 -226 -120 l-62 -49 -54 14 c-71 19 -190 19 -264 0 -138 -36 -260
-137 -326 -270 -39 -78 -44 -84 -88 -100 -174 -65 -319 -228 -366 -410 -22
-88 -20 -225 6 -312 l22 -72 -26 -65 c-97 -241 -19 -502 191 -639 85 -56 130
-73 225 -86 94 -13 205 4 286 43 30 14 56 26 57 26 1 0 13 -19 27 -43 32 -54
121 -138 175 -166 54 -28 165 -53 217 -50 79 5 90 -11 220 -331 64 -157 127
-303 140 -325 24 -41 67 -79 109 -95 36 -13 269 -50 319 -50 47 0 98 26 122
63 32 49 29 86 -19 243 -25 82 -46 153 -46 157 0 3 21 4 47 0 32 -4 62 -18 93
-41 180 -138 436 -118 600 47 64 64 105 140 123 229 12 61 14 62 72 97 72 44
163 131 211 203 20 29 49 90 66 135 55 148 49 343 -15 482 l-23 50 33 44 c102
133 140 323 98 486 -39 147 -159 293 -296 359 -42 20 -83 36 -92 36 -11 0 -30
27 -53 72 -71 140 -210 254 -360 293 -72 19 -212 19 -281 1 -28 -8 -77 -25
-108 -40 l-57 -26 -63 59 c-71 66 -146 112 -231 141 -65 23 -61 22 -90 8z
m585 -2302 c31 -19 92 -47 136 -62 69 -24 96 -28 197 -28 72 -1 118 -5 118
-11 0 -5 -14 -33 -30 -62 -57 -100 -175 -161 -290 -150 -75 6 -134 34 -197 90
-51 45 -53 45 -120 44 -83 -1 -126 19 -142 64 -6 18 -11 33 -11 34 0 2 21 6
47 10 62 9 136 39 187 75 22 16 43 29 45 30 2 0 29 -15 60 -34z m-538 -46 l35
-12 91 -294 c73 -238 87 -294 74 -294 -9 0 -68 9 -131 20 -89 15 -119 24 -136
42 -17 19 -204 457 -204 479 0 3 23 9 52 12 29 4 77 19 108 35 30 16 60 28 65
26 6 -1 26 -8 46 -14z"/>
<path d="M2400 4019 c-88 -15 -190 -70 -253 -139 -130 -140 -161 -326 -82
-497 22 -49 71 -103 323 -355 163 -164 311 -305 328 -313 40 -19 114 -19 157
-1 39 17 267 246 267 269 0 45 -42 87 -87 87 -9 0 -66 -49 -128 -110 -66 -66
-119 -110 -131 -110 -13 0 -123 103 -306 288 -279 279 -287 289 -303 346 -43
148 32 306 174 369 33 14 66 20 119 20 97 -1 163 -33 233 -114 43 -49 57 -59
84 -59 27 0 41 9 80 55 57 68 112 100 190 114 233 42 430 -214 324 -420 -12
-24 -51 -74 -85 -110 -51 -52 -64 -72 -64 -97 0 -42 31 -72 74 -72 29 0 44 11
108 78 86 90 123 158 140 259 40 237 -138 475 -382 513 -115 17 -252 -19 -342
-90 -20 -17 -40 -30 -43 -30 -4 0 -21 11 -37 26 -90 75 -236 113 -358 93z"/>
<path d="M691 3824 c-12 -15 -21 -36 -21 -48 0 -11 -7 -74 -15 -138 -11 -97
-21 -134 -56 -215 -23 -54 -46 -115 -50 -135 -14 -58 6 -123 66 -225 30 -50
55 -103 55 -118 0 -60 -116 -201 -275 -333 -49 -41 -106 -96 -125 -124 -30
-42 -35 -59 -38 -119 -8 -134 54 -217 206 -279 45 -19 82 -39 82 -46 0 -7 -34
-43 -76 -81 -73 -67 -77 -72 -82 -121 -6 -68 10 -103 72 -157 l50 -45 -18 -31
c-27 -45 -32 -136 -9 -179 16 -30 69 -67 135 -92 4 -2 -3 -30 -17 -63 -32 -79
-40 -149 -25 -221 35 -169 141 -282 321 -339 142 -44 208 -43 647 15 180 24
250 18 349 -30 148 -72 254 -216 392 -528 43 -98 128 -160 230 -169 44 -4 90
4 211 36 85 22 436 112 780 201 423 109 639 169 667 186 72 42 122 124 130
213 5 57 -9 110 -79 297 -23 63 -59 84 -105 62 -51 -24 -52 -54 -5 -196 23
-70 42 -136 42 -146 0 -33 -32 -87 -61 -102 -16 -8 -370 -102 -786 -210 -550
-142 -767 -194 -792 -190 -46 7 -85 47 -112 115 -103 261 -261 467 -426 554
-147 77 -251 85 -553 44 -341 -47 -427 -44 -548 17 -143 72 -197 223 -127 356
55 107 30 188 -75 237 -32 15 -59 34 -59 41 -1 8 12 27 29 42 66 62 57 104
-43 196 l-66 61 51 49 c75 71 108 128 108 183 0 83 -55 140 -170 177 -77 24
-120 69 -120 124 0 48 19 70 170 199 92 78 187 189 234 274 30 53 36 74 36
123 0 54 -5 69 -51 149 -86 148 -84 143 -48 228 55 128 69 180 84 307 8 69 15
137 15 152 0 65 -89 93 -129 42z"/>
</g>
</svg>
