<?xml version="1.0" encoding="UTF-8"?>
<svg version="1.1" xmlns="http://www.w3.org/2000/svg" width="450" height="650">
<path d="M0 0 C3.87156745 0.01837188 7.74289516 0.02050789 11.61450195 0.02026367 C47.03417853 0.06823308 47.03417853 0.06823308 62.48364258 2.89331055 C63.44753906 3.06701172 64.41143555 3.24071289 65.40454102 3.41967773 C101.11369081 10.20406345 132.2054709 27.97364501 158.04614258 53.20581055 C158.88822266 54.01284424 158.88822266 54.01284424 159.74731445 54.83618164 C164.03930016 59.01578073 167.80381481 63.4342168 171.42114258 68.20581055 C171.982771 68.94565186 172.54439941 69.68549316 173.12304688 70.44775391 C178.32409377 77.40602174 182.86335964 84.59892604 187.04614258 92.20581055 C187.38452148 92.80619141 187.72290039 93.40657227 188.0715332 94.02514648 C200.24790203 115.82852967 209.32734788 143.05372939 205.04614258 168.20581055 C205.6984082 168.12459961 206.35067383 168.04338867 207.02270508 167.9597168 C213.92029842 167.46121816 213.92029842 167.46121816 216.76489258 169.3425293 C218.38867482 171.20536837 219.70485589 173.12819894 221.04614258 175.20581055 C221.75254883 176.21772461 222.45895508 177.22963867 223.18676758 178.2722168 C229.04614258 186.78470041 229.04614258 186.78470041 229.04614258 189.20581055 C231.68614258 188.87581055 234.32614258 188.54581055 237.04614258 188.20581055 C237.18656982 187.65868408 237.32699707 187.11155762 237.47167969 186.54785156 C238.96317995 181.15795003 240.89640351 176.08474541 243.17504883 170.9831543 C243.74018427 169.68983244 244.30462787 168.39620807 244.8684082 167.10229492 C245.73765596 165.10857348 246.61757484 163.12415118 247.53662109 161.15283203 C251.41808346 153.52437234 251.41808346 153.52437234 251.09399414 145.39624023 C249.56007044 143.12906222 247.88556855 141.22454559 246.04614258 139.20581055 C243.32530657 132.03269743 243.32197111 125.63802906 245.94848633 118.47924805 C249.08070279 111.99188157 253.86129876 107.40570809 260.58911133 104.8269043 C268.01214489 102.95049359 275.27879736 103.62856399 282.04614258 107.20581055 C287.10478051 110.3821646 290.82667358 115.42468969 292.66723633 121.1315918 C294.14452084 129.21858225 293.23772612 136.12638015 289.04614258 143.20581055 C288.49700195 143.81416748 287.94786133 144.42252441 287.38208008 145.04931641 C285.77725806 147.10181694 285.77725806 147.10181694 286.43994141 149.37231445 C286.79080811 150.13463379 287.1416748 150.89695313 287.50317383 151.68237305 C287.8737793 152.51768555 288.24438477 153.35299805 288.6262207 154.21362305 C289.03291992 155.07729492 289.43961914 155.9409668 289.85864258 156.83081055 C290.6385771 158.5509924 291.41604683 160.2722946 292.19067383 161.99487305 C292.54492432 162.75493652 292.8991748 163.515 293.26416016 164.2980957 C294.04614258 166.20581055 294.04614258 166.20581055 294.04614258 168.20581055 C295.03614258 168.20581055 296.02614258 168.20581055 297.04614258 168.20581055 C297.23176758 167.36018555 297.41739258 166.51456055 297.60864258 165.64331055 C299.92716996 160.09900595 303.88709245 156.67789018 308.79614258 153.33081055 C316.93013675 150.51519718 324.24392156 150.54136232 332.04614258 154.20581055 C338.3748486 157.49186945 341.8228965 162.53607232 344.04614258 169.20581055 C344.6598631 177.12381131 345.18293396 184.72438848 340.04614258 191.20581055 C334.48862458 197.21728423 328.48435751 200.30488067 320.23364258 200.70581055 C313.07386116 200.4997092 307.39637986 198.32405584 302.12817383 193.4206543 C299.70244392 190.70683295 298.20704244 188.68851013 297.04614258 185.20581055 C296.15411133 185.13104492 295.26208008 185.0562793 294.34301758 184.97924805 C293.17254883 184.84776367 292.00208008 184.7162793 290.79614258 184.58081055 C289.63598633 184.46479492 288.47583008 184.3487793 287.28051758 184.22924805 C283.8618092 183.14748283 282.75193977 182.25074818 280.99829102 179.1628418 C278.97189417 174.99781691 277.0968903 170.78555474 275.29614258 166.51831055 C274.88493164 165.56891602 274.4737207 164.61952148 274.05004883 163.64135742 C271.04614258 156.59066053 271.04614258 156.59066053 271.04614258 153.20581055 C270.05614258 153.53581055 269.06614258 153.86581055 268.04614258 154.20581055 C266.69981452 156.95402639 265.54106205 159.63034128 264.43676758 162.4753418 C264.10570007 163.30788986 263.77463257 164.14043793 263.43353271 164.99821472 C262.73554349 166.7622507 262.04325044 168.52854946 261.35620117 170.296875 C260.30201703 173.00322936 259.22433629 175.69933996 258.14379883 178.39526367 C257.4691836 180.10889091 256.7959599 181.82306675 256.12426758 183.5378418 C255.80041077 184.34526321 255.47655396 185.15268463 255.1428833 185.98457336 C254.85217957 186.74183212 254.56147583 187.49909088 254.26196289 188.27929688 C254.0023175 188.94246414 253.74267212 189.60563141 253.47515869 190.28889465 C252.95115655 192.63022404 253.22524987 193.96477919 254.04614258 196.20581055 C254.68551758 196.98956055 255.32489258 197.77331055 255.98364258 198.58081055 C260.77057392 204.67326862 260.94040223 211.73168252 260.04614258 219.20581055 C257.81731712 226.60758439 253.75721521 231.44354255 247.04614258 235.20581055 C240.45160474 238.35172942 233.23525872 238.10939345 226.29614258 236.14331055 C220.13764638 232.47189935 214.34317579 228.23202979 212.04614258 221.20581055 C210.40849726 212.94021488 211.49979556 206.93509133 214.87426758 199.3425293 C215.15566884 195.84419995 213.31876014 193.81258753 211.42114258 190.95581055 C210.72762695 189.8781543 210.03411133 188.80049805 209.31958008 187.69018555 C207.28808952 184.93407511 207.28808952 184.93407511 204.27270508 184.84643555 C203.53793945 184.9650293 202.80317383 185.08362305 202.04614258 185.20581055 C201.7290332 186.07979492 201.41192383 186.9537793 201.08520508 187.85424805 C196.69061084 199.43558203 191.21629862 210.68361286 184.18286133 220.91674805 C182.70462444 223.89354122 183.14615476 225.03928281 184.04614258 228.20581055 C185.38493984 230.80375444 185.38493984 230.80375444 187.10864258 233.41674805 C187.73681885 234.40755371 188.36499512 235.39835938 189.01220703 236.41918945 C190.01900513 237.98419189 190.01900513 237.98419189 191.04614258 239.58081055 C192.41546816 241.74173936 193.78395911 243.90319728 195.15161133 246.06518555 C195.81854004 247.11512695 196.48546875 248.16506836 197.17260742 249.24682617 C199.60393886 253.08677106 202.00086434 256.94532951 204.35864258 260.83081055 C205.03540039 261.93682617 205.7121582 263.0428418 206.40942383 264.18237305 C209.88942658 270.61082682 211.15739634 276.52213698 209.46411133 283.65893555 C205.44835 295.61453547 194.79358312 300.87266396 184.10864258 306.20581055 C182.97362305 306.78975586 181.83860352 307.37370117 180.66918945 307.9753418 C172.36181698 312.20581055 172.36181698 312.20581055 170.04614258 312.20581055 C169.80814941 313.1592334 169.57015625 314.11265625 169.32495117 315.0949707 C168.62081309 317.91507179 167.91528728 320.73482258 167.20922852 323.55444336 C166.45857072 326.55283532 165.71204363 329.55220448 164.96899414 332.55249023 C164.07148871 336.16909937 163.15513729 339.78057701 162.22875977 343.38989258 C161.85466207 344.8597493 161.48656639 346.33114571 161.12426758 347.80395508 C158.34716099 359.06859369 155.41463912 370.17871077 145.22973633 376.95581055 C132.12559844 384.45728483 119.18107741 382.94993666 105.04614258 379.20581055 C102.58540874 378.16347312 101.36803098 377.61966706 99.73364258 375.51831055 C98.71691429 372.09840631 99.17333109 369.63471281 100.04614258 366.20581055 C101.60864258 364.26831055 101.60864258 364.26831055 104.04614258 363.20581055 C108.63638093 362.81010034 112.49567348 363.23562749 116.98364258 364.20581055 C123.21202116 365.526112 128.5366169 366.48424816 134.35864258 363.51831055 C140.62885299 358.12301321 142.20742349 353.07840962 144.10473633 345.24487305 C144.66132993 343.05996524 145.21797206 340.87506978 145.7746582 338.69018555 C146.63214626 335.25925139 147.48455994 331.82710532 148.33447266 328.39428711 C149.16210971 325.07037067 150.00776867 321.75140745 150.85473633 318.43237305 C151.10074081 317.41237213 151.3467453 316.39237122 151.60020447 315.34146118 C153.34099923 308.54445067 155.36664172 303.12629913 161.04394531 298.62011719 C162.00216187 298.12306274 162.00216187 298.12306274 162.97973633 297.6159668 C164.06738281 297.03407593 164.06738281 297.03407593 165.17700195 296.44042969 C165.93819336 296.05363037 166.69938477 295.66683105 167.48364258 295.26831055 C169.0868399 294.41476856 170.68970029 293.56059344 172.29223633 292.70581055 C173.08871582 292.2881543 173.88519531 291.87049805 174.70581055 291.44018555 C178.18454895 289.60537422 181.62031781 287.69969387 185.04614258 285.76831055 C186.15989258 285.15084961 187.27364258 284.53338867 188.42114258 283.8972168 C191.26258868 282.31336953 191.26258868 282.31336953 193.04614258 279.20581055 C192.95079167 273.33739566 189.8591085 269.24403062 186.73364258 264.51831055 C185.64626289 262.83480728 184.55902771 261.15121067 183.47192383 259.4675293 C182.90940918 258.60434082 182.34689453 257.74115234 181.76733398 256.85180664 C178.95604417 252.52999686 176.18628887 248.18223066 173.42114258 243.83081055 C172.65870239 242.64612183 172.65870239 242.64612183 171.88085938 241.4375 C167.11244131 233.95052436 164.89635847 228.22060724 166.04614258 219.20581055 C167.90937745 213.62515077 171.31497658 208.76352405 174.36425781 203.77075195 C185.89329685 184.84702871 192.60340304 162.56963443 187.58911133 140.3503418 C176.93521179 98.27127097 151.16699455 62.53975765 113.92919922 40.1315918 C97.03731139 30.23147977 79.51005719 23.67712493 60.29614258 19.89331055 C59.49402344 19.73378906 58.6919043 19.57426758 57.86547852 19.40991211 C45.55242732 17.16712474 32.94722354 17.04903187 20.46801758 17.0378418 C19.12249724 17.03461043 17.77697721 17.03124514 16.43145752 17.02775574 C13.63487944 17.0218335 10.83833194 17.01990864 8.04174805 17.02050781 C5.2184406 17.020589 2.39529566 17.01364611 -0.42797852 17 C-44.75061083 16.78921477 -82.8083316 23.38181844 -115.57885742 55.33081055 C-131.66905543 71.52154664 -141.78757491 91.38627235 -147.95385742 113.20581055 C-148.29545898 114.39561523 -148.63706055 115.58541992 -148.98901367 116.8112793 C-153.57366646 136.36535652 -152.9322263 160.03835826 -146.95385742 179.20581055 C-146.71248047 179.98811035 -146.47110352 180.77041016 -146.22241211 181.57641602 C-139.79955086 201.74581616 -128.9921677 217.59442908 -115.70385742 233.89331055 C-88.70285723 267.01459061 -88.70285723 267.01459061 -89.95385742 289.20581055 C-90.71468003 294.55986941 -91.8321246 299.81220304 -92.99682617 305.08862305 C-93.32142712 306.60987566 -93.64476201 308.13139889 -93.9669342 309.65316772 C-94.82976905 313.71100191 -95.71003016 317.76485706 -96.59449768 321.81802368 C-97.51384833 326.04238335 -98.41909655 330.26976475 -99.32592773 334.49682617 C-100.43551708 339.66335406 -101.54748785 344.82934065 -102.66763306 349.99359131 C-104.92564578 360.4043598 -107.14263571 370.82262388 -109.31766701 381.25103378 C-110.19203022 385.43493752 -111.07521497 389.61698515 -111.95925808 393.79885292 C-112.64907314 397.06405634 -113.33291325 400.33023067 -114.00839233 403.59844971 C-114.752244 407.18945172 -115.51467116 410.77600981 -116.28198242 414.36206055 C-116.49492447 415.41259613 -116.70786652 416.46313171 -116.92726135 417.54550171 C-118.83631148 426.30439137 -118.83631148 426.30439137 -122.95385742 429.20581055 C-125.59442815 430.39832636 -126.69780067 430.2745087 -129.51635742 429.51831055 C-132.27438577 428.03321836 -133.33434581 426.86474971 -134.95385742 424.20581055 C-135.11920261 422.06809139 -135.11920261 422.06809139 -134.80335999 419.73875427 C-134.68370943 418.85561995 -134.56405888 417.97248562 -134.44078255 417.06258965 C-133.56088448 411.90024688 -132.4928912 406.79137497 -131.36181641 401.67871094 C-131.09832397 400.46597 -130.83483154 399.25322906 -130.56335449 398.0037384 C-129.99388045 395.38529035 -129.42247636 392.76735228 -128.84783745 390.15004158 C-127.93748788 386.00174936 -127.0370163 381.85135025 -126.13819885 377.70054626 C-123.5822833 365.90419804 -121.01360705 354.1106501 -118.43457031 342.31933594 C-117.00700385 335.79211055 -115.5877032 329.26314081 -114.17707688 322.73223299 C-113.28734473 318.61531257 -112.3875846 314.50076083 -111.48004329 310.38773167 C-110.78301197 307.21457511 -110.10095227 304.03819515 -109.41650391 300.86230469 C-109.04015556 299.17790283 -109.04015556 299.17790283 -108.65620422 297.45947266 C-106.39609896 286.83808704 -105.27691893 276.90208016 -110.95385742 267.20581055 C-113.66807294 263.59524927 -116.59693182 260.20346453 -119.57299805 256.81079102 C-123.37505314 252.3916414 -126.88858933 247.72747462 -130.45922852 243.12133789 C-132.03379645 241.1033601 -133.62792136 239.10182577 -135.22338867 237.1003418 C-142.4678808 227.93418613 -148.73346509 218.66733163 -153.95385742 208.20581055 C-154.27580078 207.56321289 -154.59774414 206.92061523 -154.92944336 206.25854492 C-160.12348064 195.67908312 -163.50883665 184.72347767 -165.95385742 173.20581055 C-166.14149658 172.32755615 -166.32913574 171.44930176 -166.52246094 170.54443359 C-168.17656496 161.87934303 -168.31360222 153.302709 -168.26635742 144.51831055 C-168.2635376 143.76269836 -168.26071777 143.00708618 -168.2578125 142.22857666 C-168.19647855 131.3004293 -168.02226717 120.77267615 -164.95385742 110.20581055 C-164.69572266 109.3025 -164.43758789 108.39918945 -164.17163086 107.46850586 C-156.39105939 80.95597162 -143.77353478 59.50391745 -123.95385742 40.20581055 C-123.51557617 39.72241211 -123.07729492 39.23901367 -122.62573242 38.7409668 C-107.73228318 22.75683566 -86.6639818 12.30335662 -65.95385742 6.20581055 C-64.95418945 5.90852051 -64.95418945 5.90852051 -63.93432617 5.60522461 C-43.20793091 -0.36116005 -21.38557495 -0.10473124 0 0 Z M261.04614258 124.20581055 C259.58811116 128.15107203 259.80357769 129.67014641 261.54614258 133.51831055 C263.87531712 136.45690727 263.87531712 136.45690727 267.48364258 137.33081055 C271.0595399 137.46167616 271.0595399 137.46167616 273.92114258 135.70581055 C276.65492772 132.48959274 276.97140696 130.39100502 277.04614258 126.20581055 C276.23798998 123.48747909 275.55712045 122.55820908 273.23364258 120.95581055 C267.89814537 119.12649722 264.93270953 120.10332321 261.04614258 124.20581055 Z M314.04614258 170.20581055 C311.71409547 172.13223662 311.71409547 172.13223662 311.60864258 175.51831055 C311.75458882 179.30441565 311.75458882 179.30441565 314.17114258 182.14331055 C316.88381441 184.38324721 316.88381441 184.38324721 320.04614258 184.83081055 C324.15317698 183.97517838 325.60015371 182.58703046 328.04614258 179.20581055 C328.6827921 175.1736969 328.74432489 173.18843751 326.35864258 169.83081055 C321.52315076 166.43289738 318.76173459 166.76470286 314.04614258 170.20581055 Z M229.04614258 207.20581055 C227.13214321 209.72880971 227.04213397 211.01339734 227.10864258 214.20581055 C228.30691457 218.04028092 229.58783624 219.207678 233.04614258 221.20581055 C236.04614258 221.95581055 236.04614258 221.95581055 239.04614258 221.20581055 C242.37492889 218.74540327 243.83916205 217.30970667 244.60864258 213.20581055 C243.90178296 209.4358926 242.86446043 207.80162962 240.04614258 205.20581055 C235.36354349 203.61173426 232.88216287 204.11568309 229.04614258 207.20581055 Z " fill="#fff" transform="translate(167.953857421875,40.794189453125)"/>
<path d="M0 0 C4.0200798 1.47315628 7.74615143 0.23874261 11.82324219 -0.64916992 C31.3286284 -4.22367803 52.87019979 -0.07519513 69.3984375 10.87890625 C71.13334291 12.41014885 72.82604117 13.99131207 74.4609375 15.62890625 C79.33340972 20.42767721 84.10022289 21.40357709 90.65234375 22.875 C103.5170913 26.32259137 114.61026675 36.18155888 121.86328125 47.12109375 C126.46307682 55.38433973 129.34136095 63.84420332 129.6484375 73.25390625 C130.06201822 79.14907266 131.21158188 81.5946819 135.3984375 85.87890625 C140.43813458 95.14329989 141.70888258 104.2758105 139.140625 114.53125 C135.34324461 126.54296376 127.3692552 136.00824108 116.47843933 142.29522705 C106.59278083 147.37824732 96.9730574 148.45137837 86.00390625 148.26953125 C84.69053787 148.26387146 83.37716949 148.25821167 82.02400208 148.25238037 C78.57970106 148.23731249 75.13610533 148.198202 71.69207764 148.15356445 C68.1587477 148.11219704 64.62530063 148.09428211 61.09179688 148.07421875 C54.19372584 148.03168245 47.29611578 147.96366946 40.3984375 147.87890625 C40.42200317 149.73068481 40.42200317 149.73068481 40.44604492 151.61987305 C40.50089381 156.25863968 40.53498489 160.89737846 40.56323242 165.53637695 C40.5781951 167.533171 40.59857261 169.52993289 40.62475586 171.52661133 C40.85631649 189.65644627 40.12090652 205.51884857 27.2109375 219.69140625 C18.32307838 227.72912232 7.11227523 231.85228793 -3.88452148 236.15161133 C-13.45387186 239.96646712 -22.62971835 244.41021563 -27.6015625 253.87890625 C-31.06172427 263.56377256 -31.05718377 273.3287823 -31.11279297 283.49438477 C-31.12844122 285.47815633 -31.16160905 287.46176553 -31.1953125 289.4453125 C-31.20240234 290.61006104 -31.20949219 291.77480957 -31.21679688 292.97485352 C-31.6015625 295.87890625 -31.6015625 295.87890625 -32.97851562 297.73022461 C-35.21805922 299.31522049 -36.86643005 299.68353965 -39.6015625 299.87890625 C-42.87345421 299.09988441 -44.21799417 298.39772288 -46.22729492 295.67993164 C-47.82219214 292.42922 -47.97488772 290.29437189 -47.96484375 286.6875 C-47.96387695 284.89795898 -47.96387695 284.89795898 -47.96289062 283.07226562 C-47.94677734 281.83283203 -47.93066406 280.59339844 -47.9140625 279.31640625 C-47.91728516 278.10404297 -47.92050781 276.89167969 -47.92382812 275.64257812 C-47.82403505 258.72311646 -44.77062931 246.01490032 -33.23828125 233.23046875 C-24.96936643 225.85582176 -15.38473335 222.1124553 -5.17626953 218.2043457 C5.57894414 214.06107862 14.90376339 209.89376404 20.42578125 199.28515625 C22.69073191 193.68190482 23.64558365 188.67143325 23.59375 182.6328125 C23.5909201 181.97683578 23.58809021 181.32085907 23.58517456 180.64500427 C23.57409734 178.57694216 23.54901813 176.50933452 23.5234375 174.44140625 C23.51339152 173.0280011 23.50426852 171.61458908 23.49609375 170.20117188 C23.47419934 166.76027231 23.43975801 163.31963373 23.3984375 159.87890625 C22.93348877 160.87140381 22.46854004 161.86390137 21.98950195 162.88647461 C15.24559961 177.13001853 6.7530606 185.81099691 -8.08203125 192.0390625 C-15.68880051 194.57465225 -23.67815723 195.80027474 -31.6015625 196.87890625 C-31.74851562 197.48476563 -31.89546875 198.090625 -32.046875 198.71484375 C-34.96191847 209.60437395 -40.16789169 216.69671753 -48.19238281 224.32958984 C-54.2280319 230.21159733 -59.21534669 237.603052 -59.74632263 246.23120117 C-59.76059044 247.53214722 -59.76059044 247.53214722 -59.77514648 248.859375 C-59.78863632 249.84719971 -59.80212616 250.83502441 -59.81602478 251.8527832 C-59.82646317 252.91327881 -59.83690155 253.97377441 -59.84765625 255.06640625 C-59.8805828 257.31380615 -59.91379464 259.56120189 -59.94726562 261.80859375 C-59.99475097 265.35055795 -60.03921282 268.89250384 -60.07836914 272.43457031 C-60.11803245 275.85369022 -60.16957747 279.27247201 -60.22265625 282.69140625 C-60.2310704 283.75190186 -60.23948456 284.81239746 -60.24815369 285.9050293 C-60.26479568 286.892854 -60.28143768 287.88067871 -60.29858398 288.8984375 C-60.30889145 289.76573486 -60.31919891 290.63303223 -60.32981873 291.52661133 C-60.62904924 294.11683961 -61.15784821 295.71055369 -62.6015625 297.87890625 C-66.74046463 299.7095745 -68.68541445 300.21822034 -72.9765625 298.62890625 C-75.6015625 296.87890625 -75.6015625 296.87890625 -76.6015625 294.87890625 C-76.70693517 293.2728202 -76.75029386 291.66246974 -76.76269531 290.05297852 C-76.77230286 289.04755508 -76.7819104 288.04213165 -76.79180908 287.00624084 C-76.79605896 285.91363449 -76.80030884 284.82102814 -76.8046875 283.6953125 C-76.81038757 282.57003647 -76.81608765 281.44476044 -76.82196045 280.28538513 C-76.83142478 277.89542585 -76.83795009 275.50545344 -76.84179688 273.11547852 C-76.85143984 269.48755421 -76.88242408 265.86021159 -76.9140625 262.23242188 C-76.92059885 259.90755544 -76.92584683 257.58268495 -76.9296875 255.2578125 C-76.9420343 254.18342422 -76.9543811 253.10903595 -76.96710205 252.00209045 C-76.91517861 234.11594504 -69.64754923 222.34942115 -57.6015625 209.87890625 C-53.05235239 205.11001597 -50.60114999 201.21093332 -48.6015625 194.87890625 C-49.27960938 194.84152344 -49.95765625 194.80414063 -50.65625 194.765625 C-55.45439875 194.4266976 -59.75218536 193.95493769 -64.2890625 192.31640625 C-68.73418561 190.83940986 -72.84174198 190.75716612 -77.4765625 190.87890625 C-93.73295716 191.21252629 -106.91766898 185.03567974 -118.62036133 173.9387207 C-123.02524903 169.60411978 -126.68720423 165.73627585 -128.6015625 159.75390625 C-128.6015625 156.23609299 -127.73098218 154.63926509 -125.6015625 151.87890625 C-122.46285062 150.30955031 -120.06300428 150.52689522 -116.6015625 150.87890625 C-114.03983604 152.92828742 -112.15299898 155.1815871 -110.125 157.74609375 C-101.51977667 168.22733733 -90.8067112 173.12459906 -77.6015625 174.87890625 C-77.62250977 174.15413086 -77.64345703 173.42935547 -77.66503906 172.68261719 C-77.74926946 169.33152697 -77.80055754 165.98066054 -77.8515625 162.62890625 C-77.88507813 161.489375 -77.91859375 160.34984375 -77.953125 159.17578125 C-78.09197536 146.95694992 -75.24257618 136.76731091 -66.6015625 127.87890625 C-56.49038104 118.48244448 -44.85620881 116.69922781 -31.5390625 116.62890625 C-30.55873047 116.60828125 -29.57839844 116.58765625 -28.56835938 116.56640625 C-19.52615945 116.51729722 -19.52615945 116.51729722 -15.6015625 119.87890625 C-14.05569374 122.97064377 -14.30796729 125.47320177 -14.6015625 128.87890625 C-15.921875 131.0703125 -15.921875 131.0703125 -18.6015625 132.87890625 C-22.32407603 133.45369186 -26.02797625 133.43903632 -29.7890625 133.44140625 C-38.43977306 133.48029833 -45.7194083 134.104955 -53.3515625 138.44140625 C-60.39878993 146.07590263 -61.29346627 153.96429878 -60.9140625 164.00390625 C-60.89150391 165.15117187 -60.86894531 166.2984375 -60.84570312 167.48046875 C-60.78735128 170.28135739 -60.70554402 173.07940374 -60.6015625 175.87890625 C-42.62597634 180.87873816 -23.43010454 181.17737801 -6.71484375 172.11328125 C0.73953939 167.75914988 5.03792409 161.73321811 7.375 153.39453125 C8.11773842 149.89840898 8.77567138 146.39816175 9.3984375 142.87890625 C11.00986607 135.26747768 11.00986607 135.26747768 13.3984375 132.87890625 C17.16761181 131.46584707 21.17541498 131.72686838 25.14526367 131.72119141 C26.3095137 131.71357033 26.3095137 131.71357033 27.49728394 131.70579529 C29.18055793 131.69510899 30.86384597 131.68648201 32.54714012 131.67967606 C35.21739906 131.66785367 37.88749869 131.64839063 40.55769348 131.6265564 C48.1491663 131.56506435 55.7406231 131.51099172 63.33227539 131.47753906 C67.97952064 131.45651225 72.62647537 131.42114306 77.27355385 131.37678146 C79.03842038 131.36268245 80.80333831 131.3539129 82.56825829 131.35072708 C95.76203973 131.32439742 106.55003841 130.72730534 116.3984375 120.87890625 C120.92330991 115.13981231 123.85220437 109.3148278 123.3984375 101.87890625 C122.60980229 98.93229219 122.60980229 98.93229219 121.3984375 96.87890625 C120.7178125 97.89984375 120.7178125 97.89984375 120.0234375 98.94140625 C112.21535176 107.679026 102.19421336 112.48624363 90.55078125 113.29296875 C88.83381273 113.35695819 87.11624194 113.4064287 85.3984375 113.44140625 C84.16009155 113.48189087 84.16009155 113.48189087 82.89672852 113.52319336 C78.71851923 113.49611516 77.02751395 113.46138445 73.8671875 110.53515625 C72.07251844 107.28947817 71.77647269 105.53294948 72.3984375 101.87890625 C74.2655366 99.57615069 75.75491491 98.20066754 78.3984375 96.87890625 C80.73089803 96.77394553 83.06454606 96.69478222 85.3984375 96.62890625 C92.40749412 96.30569547 97.45128667 94.51516418 103.3984375 90.87890625 C104.12546875 90.53472656 104.8525 90.19054687 105.6015625 89.8359375 C107.96088497 88.57934184 108.33364607 87.29243349 109.3984375 84.87890625 C109.90246094 84.28851563 110.40648437 83.698125 110.92578125 83.08984375 C113.7828774 78.80041028 113.01349308 73.81692394 112.3984375 68.87890625 C108.90414228 56.40815488 101.62112367 47.23267319 90.3984375 40.87890625 C85.66810456 38.68325683 81.33547523 37.81083156 76.1484375 37.50390625 C72.45121865 37.2177438 71.57754068 37.01907395 68.5234375 34.62890625 C67.21131123 32.93086049 65.93242481 31.20577681 64.7109375 29.44140625 C58.07982246 22.09341391 48.7329542 19.26452978 39.3984375 16.87890625 C38.63273438 16.68167969 37.86703125 16.48445313 37.078125 16.28125 C33.16172743 15.69321946 29.29021587 15.7347572 25.3359375 15.75390625 C24.13227539 15.74810547 24.13227539 15.74810547 22.90429688 15.7421875 C21.73930664 15.74412109 21.73930664 15.74412109 20.55078125 15.74609375 C19.84945068 15.74722168 19.14812012 15.74834961 18.42553711 15.74951172 C16.31201491 15.88442281 14.43283406 16.30417281 12.3984375 16.87890625 C12.28134107 20.39945539 12.2108906 23.91949737 12.1484375 27.44140625 C12.09816406 28.92737305 12.09816406 28.92737305 12.046875 30.44335938 C11.96209122 36.82333851 12.37647348 40.81149794 16.3984375 45.87890625 C22.50828163 50.60411058 31.0096011 49.34716861 38.36523438 49.40625 C39.44998047 49.42816406 40.53472656 49.45007813 41.65234375 49.47265625 C43.12682983 49.48329102 43.12682983 49.48329102 44.63110352 49.49414062 C47.87101467 49.94461261 49.76555258 50.96747556 52.3984375 52.87890625 C53.94430626 55.97064377 53.69203271 58.47320177 53.3984375 61.87890625 C51.21930238 64.85328332 50.01624552 65.77404212 46.34912109 66.39648438 C45.17687988 66.40099609 44.00463867 66.40550781 42.796875 66.41015625 C41.50136719 66.4153125 40.20585937 66.42046875 38.87109375 66.42578125 C38.1970752 66.41740234 37.52305664 66.40902344 36.82861328 66.40039062 C34.7998586 66.37918245 32.77473102 66.40008353 30.74609375 66.42578125 C20.50011114 66.38524324 11.71002506 64.88457526 4 57.72265625 C-1.83513432 51.00513577 -4.61613392 44.59711045 -4.91796875 35.80078125 C-4.98081055 34.06054688 -4.98081055 34.06054688 -5.04492188 32.28515625 C-5.08423828 31.07859375 -5.12355469 29.87203125 -5.1640625 28.62890625 C-5.20724609 27.406875 -5.25042969 26.18484375 -5.29492188 24.92578125 C-5.40093605 21.91026705 -5.50300186 18.89467177 -5.6015625 15.87890625 C-22.54600191 10.16913045 -39.29978981 12.2081543 -55.26538086 19.92382812 C-59.50755019 22.05624002 -63.64524109 24.24135864 -67.6015625 26.87890625 C-66.828125 27.29140625 -66.0546875 27.70390625 -65.2578125 28.12890625 C-53.91801211 34.41632033 -45.81327153 41.25710736 -41.6015625 53.87890625 C-40.77319998 58.20159549 -40.19887096 62.55375013 -39.80151367 66.93652344 C-39.33770085 71.29151755 -38.98915597 73.38921499 -36.19921875 76.9140625 C-31.03271341 80.82196052 -25.51364742 80.08379609 -19.265625 80.20703125 C-14.82373337 81.0215359 -13.33991108 82.3544538 -10.6015625 85.87890625 C-10.02946026 89.38303244 -10.16115552 91.10295109 -11.9140625 94.19140625 C-15.74071539 98.01805914 -21.35496183 97.1276194 -26.40576172 97.12988281 C-34.54843762 97.00865191 -41.20623696 95.13728503 -47.6015625 89.87890625 C-53.51328113 83.13075741 -55.70564096 77.50577407 -56.4765625 68.56640625 C-57.34139742 60.32118028 -58.64727032 54.41737883 -64.8515625 48.56640625 C-69.53184263 44.89618657 -74.17065662 43.18829427 -80.0390625 42.44140625 C-90.72496938 43.7537106 -100.79977702 51.05307191 -107.4765625 59.25390625 C-112.4734965 66.1847498 -116.67096817 73.63282895 -116.8515625 82.31640625 C-116.87734375 83.05761719 -116.903125 83.79882812 -116.9296875 84.5625 C-116.36664701 88.53729772 -114.59816626 91.0719547 -111.5078125 93.57421875 C-102.7811874 98.75919405 -92.90381638 102.78728288 -82.61328125 100.421875 C-81.28095825 100.06227714 -79.94892221 99.7016142 -78.6171875 99.33984375 C-74.16112352 98.32082137 -70.15404263 97.94741817 -66.1015625 100.37890625 C-63.84766948 104.13539461 -64.11776181 106.52470006 -64.6015625 110.87890625 C-68.07446554 115.4195652 -74.11854393 116.27194616 -79.4140625 117.56640625 C-95.46510172 119.14003755 -110.72402434 116.05973642 -123.6015625 105.87890625 C-124.29592254 109.36190578 -124.67192286 112.71946424 -124.7421875 116.26171875 C-124.76152344 117.03644531 -124.78085938 117.81117188 -124.80078125 118.609375 C-124.83479565 120.2132846 -124.85287704 121.81760686 -124.85546875 123.421875 C-124.98658647 127.55553368 -125.05780047 129.27930334 -127.921875 132.4375 C-131.58468082 134.40772645 -133.65108685 133.9762606 -137.6015625 132.87890625 C-139.66094466 131.30004659 -140.44727461 130.18748202 -141.6015625 127.87890625 C-142.2261017 116.25286893 -142.44007287 105.73997903 -135.9140625 95.69140625 C-132.80927832 90.48308485 -133.47543425 85.61927729 -133.6640625 79.71875 C-133.43070544 65.38187553 -124.9816915 52.5691485 -115.40625 42.484375 C-109.14448438 36.66738661 -102.17367885 31.9273494 -94.3515625 28.44140625 C-89.29397581 26.08010972 -86.37120436 22.57044937 -82.796875 18.3671875 C-73.01765773 7.28291454 -58.64215862 1.44733362 -44.6015625 -2.12109375 C-43.31958984 -2.45947266 -43.31958984 -2.45947266 -42.01171875 -2.8046875 C-28.45089939 -5.83445454 -12.82714819 -5.52761491 0 0 Z " fill="#fff" transform="translate(179.6015625,75.12109375)"/>
<path d="M0 0 C2.10882939 0.40235857 4.2200077 0.79034972 6.33154297 1.17822266 C7.68717929 1.43645911 9.04265433 1.69554395 10.39794922 1.95556641 C12.22084473 2.29950439 12.22084473 2.29950439 14.08056641 2.65039062 C17.33477216 3.52151498 19.62328734 4.56860732 22.35107422 6.52587891 C23.77769641 9.37912328 23.6614129 11.3604244 23.35107422 14.52587891 C21.91357422 17.40087891 21.91357422 17.40087891 19.35107422 19.52587891 C11.73236606 20.09883054 4.71816673 18.6121162 -2.71142578 17.02587891 C-4.4390918 16.66816406 -4.4390918 16.66816406 -6.20166016 16.30322266 C-9.01916817 15.71867742 -11.8347175 15.12607307 -14.64892578 14.52587891 C-14.69877121 15.11623932 -14.74861664 15.70659973 -14.79997253 16.31484985 C-15.40155174 22.90069859 -16.39256421 29.35719009 -17.57470703 35.86181641 C-17.85800117 37.42447739 -17.85800117 37.42447739 -18.14701843 39.01870728 C-18.54552583 41.2023709 -18.94650421 43.38558492 -19.34985352 45.56835938 C-19.96307655 48.90987412 -20.55496352 52.25476843 -21.14697266 55.60009766 C-21.53823532 57.72924606 -21.93076878 59.85816142 -22.32470703 61.98681641 C-22.49778885 62.98474213 -22.67087067 63.98266785 -22.84919739 65.01083374 C-24.4898154 73.63306864 -24.4898154 73.63306864 -28.64892578 76.52587891 C-31.66397904 77.60820572 -33.22792893 77.63357577 -36.33642578 76.83837891 C-39.06788629 75.28809051 -39.55342607 74.42105575 -40.64892578 71.52587891 C-40.86192734 63.27559658 -38.76023498 54.76498667 -37.28564453 46.68603516 C-37.05238968 45.40151962 -36.81913483 44.11700409 -36.57881165 42.79356384 C-36.08759284 40.09773222 -35.5917644 37.40279064 -35.09350586 34.70825195 C-34.45738938 31.26212624 -33.84074227 27.81280557 -33.22830486 24.36240482 C-32.63615178 21.05106364 -32.02189758 17.74390312 -31.41064453 14.43603516 C-31.19381516 13.20063492 -30.97698578 11.96523468 -30.75358582 10.69239807 C-30.42853813 8.97427162 -30.42853813 8.97427162 -30.09692383 7.22143555 C-29.91340866 6.21536758 -29.72989349 5.20929962 -29.54081726 4.17274475 C-25.32147599 -8.34899197 -9.63083483 -1.84939126 0 0 Z " fill="#fff" transform="translate(225.64892578125,393.47412109375)"/>
</svg>
