<?xml version="1.0" encoding="UTF-8"?>
<svg version="1.1" xmlns="http://www.w3.org/2000/svg" width="510" height="650">
<path d="M0 0 C0.97324219 0.77988281 1.94648438 1.55976563 2.94921875 2.36328125 C8.25094568 6.64459212 13.3884216 11.06612273 18.41796875 15.6640625 C20.51985354 17.56561637 22.64220072 19.43378038 24.78125 21.29296875 C32.05496025 27.64588085 39.06107454 34.28474931 46 41 C46.57314941 41.55413574 47.14629883 42.10827148 47.73681641 42.67919922 C58.494922 53.24249679 66.07065543 65.95110972 66.43164062 81.37158203 C66.47227835 100.03445695 60.68558548 112.4396544 47.46875 125.859375 C45.99034299 127.33873427 44.50361898 128.80871255 43.00927734 130.27197266 C41.49434392 131.75553897 39.99053479 133.24969885 38.48828125 134.74609375 C33.69648301 139.49931108 28.83578111 144.1337335 23.71191406 148.52880859 C21.29486765 150.6059794 18.96480134 152.77408368 16.625 154.9375 C11.57999066 159.52763145 6.39066168 163.82423778 1 168 C0.41009277 168.46245117 -0.17981445 168.92490234 -0.78759766 169.40136719 C-17.41735882 182.43044164 -34.72220086 194.39396195 -53 205 C-54.31532715 205.76546143 -54.31532715 205.76546143 -55.65722656 206.54638672 C-89.23531161 225.88759893 -127.1959918 240.35620899 -166 244 C-166.99515625 244.10957031 -167.9903125 244.21914063 -169.015625 244.33203125 C-228.63141107 250.06431837 -286.79996563 229.84097857 -337 199 C-337.71929687 198.55881836 -338.43859375 198.11763672 -339.1796875 197.66308594 C-356.73260804 186.8158745 -373.18179617 174.22150826 -389 161 C-389.5161084 160.57025879 -390.0322168 160.14051758 -390.56396484 159.69775391 C-400.01290477 151.80623853 -409.04985914 143.51294321 -417.92919922 134.98730469 C-419.2785919 133.69232044 -420.63161514 132.40110541 -421.98876953 131.11425781 C-434.1400148 119.5713468 -445.43193284 107.51857452 -446.33984375 89.92578125 C-446.3868722 88.07583218 -446.41933122 86.22545755 -446.4375 84.375 C-446.4478125 83.50431885 -446.458125 82.6336377 -446.46875 81.73657227 C-446.2294058 64.11651759 -436.82134534 51.98711678 -425 40 C-424.01949037 38.99222727 -423.03902039 37.98441597 -422.05859375 36.9765625 C-417.58484393 32.41339935 -413.01067934 28.01497748 -408.1484375 23.8671875 C-405.96810437 21.9722798 -403.84643522 20.02090137 -401.72973633 18.05541992 C-395.68078962 12.44503861 -389.46220145 7.13412997 -383 2 C-382.40606445 1.51756836 -381.81212891 1.03513672 -381.20019531 0.53808594 C-362.45632289 -14.68129766 -342.13261381 -28.31676347 -321 -40 C-320.28569824 -40.40089844 -319.57139648 -40.80179688 -318.83544922 -41.21484375 C-291.82645126 -56.29618899 -262.38735955 -67.19693652 -232 -73 C-231.19111328 -73.16371094 -230.38222656 -73.32742187 -229.54882812 -73.49609375 C-146.56135488 -89.78398388 -63.10040088 -51.19466486 0 0 Z M-366 35 C-366.80099121 35.67579102 -366.80099121 35.67579102 -367.61816406 36.36523438 C-379.19818803 46.13812221 -390.35431988 56.27745049 -401.125 66.9375 C-402.24612183 68.03904419 -402.24612183 68.03904419 -403.38989258 69.1628418 C-404.08880615 69.86062744 -404.78771973 70.55841309 -405.5078125 71.27734375 C-406.13316895 71.89859131 -406.75852539 72.51983887 -407.40283203 73.15991211 C-410.50638972 76.7355028 -411.3092632 79.68139217 -411.375 84.375 C-411.40335937 85.29023438 -411.43171875 86.20546875 -411.4609375 87.1484375 C-410.47014859 93.27789434 -405.69691866 97.59485167 -401.421875 101.80859375 C-400.89160706 102.33840347 -400.36133911 102.8682132 -399.81500244 103.41407776 C-398.69788656 104.52818976 -397.57835855 105.6398879 -396.45654297 106.74926758 C-394.76346096 108.42418347 -393.07842903 110.10687173 -391.39453125 111.79101562 C-385.76433342 117.40286406 -380.07757384 122.86889074 -374 128 C-372.9783909 128.88843165 -371.95751635 129.7777089 -370.9375 130.66796875 C-362.5729545 137.84234621 -353.90092096 144.5062595 -345 151 C-344.32453125 151.4964502 -343.6490625 151.99290039 -342.953125 152.50439453 C-290.41077034 190.99618154 -226.87884373 217.60433147 -160.86328125 207.96484375 C-110.65704903 199.99860189 -64.3315803 174.44408977 -25 143 C-24.09378906 142.27554688 -23.18757813 141.55109375 -22.25390625 140.8046875 C-19.48215654 138.55993229 -16.73605187 136.28813069 -14 134 C-13.20988525 133.33943604 -13.20988525 133.33943604 -12.40380859 132.66552734 C-0.38848859 122.5855609 11.08388037 111.94855661 22.25 100.9375 C22.7869751 100.41357666 23.3239502 99.88965332 23.87719727 99.34985352 C28.48411261 94.75334256 31.42805988 91.21778302 31.4375 84.5625 C31.45683594 83.65628906 31.47617187 82.75007813 31.49609375 81.81640625 C30.44449675 75.84631622 25.89331352 71.63791864 21.74609375 67.48046875 C20.99465843 66.72616325 20.99465843 66.72616325 20.2280426 65.95661926 C19.17067861 64.897902 18.11081568 63.84167513 17.04858398 62.7878418 C15.45911913 61.20897498 13.88047628 59.61986796 12.30273438 58.02929688 C6.59157391 52.31071032 0.74105925 46.97496099 -5.58569336 41.9284668 C-8.1174644 39.9061734 -10.55086507 37.79982223 -12.97753906 35.65429688 C-32.08256188 18.81638709 -53.63340875 4.63595931 -75.8203125 -7.77880859 C-77.78310118 -8.8784803 -79.73559521 -9.9944674 -81.6875 -11.11328125 C-176.00719757 -64.23541668 -273.65861799 -36.14825227 -366 35 Z " fill="#fff" transform="translate(446,233)"/>
<path d="M0 0 C20.12598884 18.98201729 30.77174324 44.58029913 32.3515625 72.0390625 C33.14494175 100.52858997 22.44055671 125.78882524 3.8203125 146.8671875 C-14.61803272 166.27279018 -40.04981839 177.20378612 -66.69921875 178.35546875 C-96.87475641 178.51053318 -123.11494912 168.26016141 -144.8125 147.1875 C-164.07730613 127.98680305 -173.31502747 102.09105915 -174.0625 75.25 C-173.69664057 46.87926428 -162.39191056 21.57112858 -143.0625 1 C-103.11453788 -36.95056401 -40.47113083 -36.59566271 0 0 Z M-124.0625 32.875 C-135.01691509 47.36092057 -140.63128253 65.19911098 -138.375 83.34765625 C-135.4803729 102.1203611 -126.49816129 118.76963568 -111.11328125 130.19140625 C-94.41875716 141.21788935 -76.48395852 145.78987758 -56.625 142 C-39.2294433 137.82584298 -23.96952701 127.75602429 -14 112.8125 C-4.14628933 96.23508087 -0.24146299 77.98019664 -4.72265625 59.08203125 C-9.45173252 41.40645041 -20.24070205 26.83590814 -35.8125 17.1875 C-40.05039238 14.90595502 -44.34162863 12.96587634 -48.8125 11.1875 C-49.63621094 10.84589844 -50.45992188 10.50429687 -51.30859375 10.15234375 C-77.35042129 1.19395508 -106.83446892 12.70398473 -124.0625 32.875 Z " fill="#fff" transform="translate(326.8125,241.8125)"/>
<path d="M0 0 C0.82242188 0.05542969 1.64484375 0.11085938 2.4921875 0.16796875 C9.136496 1.79454279 12.57414479 6.2736612 16.06640625 11.71875 C16.51154572 12.39209885 16.95668518 13.06544769 17.41531372 13.75920105 C18.85071487 15.93642664 20.26929206 18.12404479 21.6875 20.3125 C22.67131853 21.81288799 23.65610496 23.31264176 24.6418457 24.81176758 C27.04851423 28.47729969 29.44192124 32.15127579 31.83190918 35.82769775 C33.66126238 38.63562454 35.50605602 41.43313162 37.3515625 44.23046875 C38.5059141 45.98651543 39.65962743 47.74298196 40.8125 49.5 C41.57639038 50.66208984 41.57639038 50.66208984 42.35571289 51.84765625 C47.3921832 59.59957026 50.34719927 65.36448763 49.125 74.8125 C47.80812353 78.85984915 45.60167378 81.40082719 42.375 84.1875 C35.83980962 87.45509519 31.03013162 87.18199438 24.30078125 84.9921875 C17.99485193 81.57317376 14.36320487 75.03619132 10.50390625 69.234375 C9.88152573 68.30836487 9.2591452 67.38235474 8.61790466 66.42828369 C6.63580443 63.47653599 4.6615673 60.51962438 2.6875 57.5625 C1.364446 55.58949917 0.0408833 53.61683936 -1.28320312 51.64453125 C-4.27848889 47.18005957 -7.2699533 42.71308414 -10.25289917 38.24035645 C-11.35785275 36.58653282 -12.46650576 34.93517627 -13.57839966 33.28601074 C-14.11592865 32.48683228 -14.65345764 31.68765381 -15.20727539 30.86425781 C-15.68652969 30.15424622 -16.165784 29.44423462 -16.65956116 28.71270752 C-19.96973253 23.53761166 -20.18656353 19.15446908 -19.41015625 13.2109375 C-18.29824008 8.22760517 -15.83228987 5.55041094 -11.875 2.5 C-7.71240625 0.15854102 -4.74531573 -0.39174725 0 0 Z " fill="#fff" transform="translate(104.875,68.1875)"/>
<path d="M0 0 C4.69364251 3.3068845 8.70360493 7.1305823 9.75 12.9375 C11.17363025 24.80108538 1.01134834 35.78919706 -5.375 45.0625 C-6.32544766 46.45015522 -7.27547827 47.83809619 -8.22509766 49.22631836 C-9.62687277 51.27459676 -11.02944943 53.32229519 -12.43502808 55.3679657 C-14.92783576 58.99654046 -17.39643513 62.63859696 -19.828125 66.30859375 C-20.31651855 67.03997559 -20.80491211 67.77135742 -21.30810547 68.52490234 C-22.14277695 69.77675482 -22.97078225 71.0330991 -23.78955078 72.29541016 C-26.9701874 77.01664575 -31.10717857 81.36608928 -36.25 83.9375 C-42.77847416 84.70684881 -48.1717928 84.50028451 -53.58984375 80.55078125 C-57.61758667 76.63676284 -59.0173822 72.53997815 -59.8125 67.0625 C-59.3152426 58.23298924 -52.44085481 49.88492669 -47.62890625 42.8359375 C-47.00652573 41.91463043 -46.3841452 40.99332336 -45.74290466 40.0440979 C-44.43550663 38.11114827 -43.12525019 36.18012917 -41.81225586 34.25097656 C-39.81580999 31.31736376 -37.82806495 28.37801101 -35.84179688 25.4375 C-34.56300261 23.5491387 -33.28372205 21.66110661 -32.00390625 19.7734375 C-31.41621964 18.90552582 -30.82853302 18.03761414 -30.22303772 17.1434021 C-15.16789149 -4.95873376 -15.16789149 -4.95873376 0 0 Z " fill="#fff" transform="translate(434.25,70.0625)"/>
<path d="M0 0 C4.30790999 2.40736146 6.77845862 5.17751865 8.83276367 9.69189453 C10.19587016 15.07248256 10.05509306 20.33735247 10.05078125 25.8671875 C10.05506638 27.08270294 10.0593515 28.29821838 10.06376648 29.55056763 C10.06950039 32.11752704 10.07001698 34.6845027 10.06567383 37.25146484 C10.06251683 41.16662499 10.08597594 45.0810271 10.11132812 48.99609375 C10.11360158 51.49479072 10.1143044 53.99348971 10.11328125 56.4921875 C10.122491 57.65700653 10.13170074 58.82182556 10.14118958 60.02194214 C10.10075952 67.169596 9.84253717 73.6827292 4.99609375 79.37109375 C4.39925781 79.82613281 3.80242187 80.28117187 3.1875 80.75 C2.58808594 81.22308594 1.98867188 81.69617188 1.37109375 82.18359375 C-3.30519289 85.44009216 -8.75502657 84.8303509 -14.25 84.3125 C-19.26791684 81.89314724 -22.74958655 78.3133269 -25.25 73.3125 C-25.36181564 71.34840533 -25.40929449 69.3805253 -25.42700195 67.41333008 C-25.43983719 66.17476761 -25.45267242 64.93620514 -25.46589661 63.66011047 C-25.47406609 62.3007548 -25.48150942 60.9413946 -25.48828125 59.58203125 C-25.49235678 58.89755102 -25.4964323 58.21307079 -25.50063133 57.50784874 C-25.5214979 53.88178179 -25.53579447 50.25575269 -25.54516602 46.62963867 C-25.55620465 42.89493371 -25.5905723 39.16082884 -25.63033772 35.42633533 C-25.65656864 32.54628949 -25.66486374 29.66638486 -25.66844749 26.78623009 C-25.67330037 25.41038672 -25.6848773 24.0345491 -25.70348549 22.65882301 C-25.8743468 9.18433045 -25.8743468 9.18433045 -21.25 3.3125 C-14.61639422 -1.83192897 -7.7777577 -3.60539049 0 0 Z " fill="#fff" transform="translate(264.25,35.6875)"/>
</svg>
