<?xml version="1.0" encoding="UTF-8"?>
<svg version="1.1" xmlns="http://www.w3.org/2000/svg" width="512" height="512">
<path d="M0 0 C3.85090385 3.360071 7.52618488 6.88414835 11.17236328 10.46337891 C12.51234375 11.74535156 12.51234375 11.74535156 13.87939453 13.05322266 C38.59471489 37.0851701 53.78514501 66.87859235 55.17236328 101.46337891 C56.77144531 101.22361328 56.77144531 101.22361328 58.40283203 100.97900391 C94.34063233 96.52918626 130.75940468 105.82511769 159.4909668 127.87817383 C184.43123478 147.55441622 202.32960587 173.5241327 210.17236328 204.46337891 C210.49076172 205.65576172 210.80916016 206.84814453 211.13720703 208.07666016 C215.79437628 229.08757579 215.10193469 253.84713758 209.17236328 274.46337891 C208.86685547 275.58341309 208.86685547 275.58341309 208.55517578 276.72607422 C199.14230907 310.58624752 175.70078287 339.92308059 145.26611328 357.29931641 C129.61459284 365.96629155 113.85197349 371.65309686 96.17236328 374.46337891 C95.36412109 374.59486328 94.55587891 374.72634766 93.72314453 374.86181641 C88.11296769 375.58634186 82.4466556 375.59250379 76.79736328 375.65087891 C76.05010986 375.66401123 75.30285645 375.67714355 74.53295898 375.69067383 C73.74622803 375.69172119 72.95949707 375.69276855 72.14892578 375.69384766 C70.80048584 375.72224731 70.80048584 375.72224731 69.42480469 375.7512207 C66.56382223 375.49802311 64.70967907 374.99715759 62.05664062 374.04467773 C56.49653945 372.34830967 51.79961207 371.64675041 46.17236328 373.46337891 C35.90334199 380.15481368 27.68476268 389.81966245 19.41973877 398.76367188 C16.29381937 402.12303918 13.10636035 405.42284117 9.92236328 408.72705078 C6.35243374 412.43760219 2.78986922 416.15352899 -0.72842407 419.91316223 C-1.26024796 420.48087845 -1.79207184 421.04859467 -2.3400116 421.6335144 C-3.33271937 422.69545506 -4.32305809 423.75961714 -5.31059265 424.82637024 C-8.44721095 428.18151112 -9.8190842 429.32426821 -14.45263672 429.96337891 C-18.17539809 429.90697742 -19.8180368 428.99952064 -22.53369141 426.49241638 C-23.22910034 425.85339827 -23.92450928 425.21438015 -24.64099121 424.55599785 C-28.4439056 420.91661019 -32.19202803 417.22913112 -35.90576172 413.4987793 C-36.77499771 412.62968933 -37.6442337 411.76059937 -38.53981018 410.86517334 C-40.89851724 408.50589327 -43.25499875 406.14443261 -45.61047745 403.78193212 C-48.08168773 401.30442626 -50.55577285 398.8297945 -53.02954102 396.35484314 C-57.70265419 391.67863481 -62.37321468 386.99988565 -67.04284 382.32019466 C-72.36378412 376.98803271 -77.68760346 371.65874539 -83.0116539 366.32968533 C-93.95349391 355.37742209 -104.89175768 344.4215944 -115.82763672 333.46337891 C-119.10271466 334.89704138 -121.26170985 336.6537343 -123.77441406 339.18310547 C-124.54823425 339.95706665 -125.32205444 340.73102783 -126.11932373 341.52844238 C-126.95892639 342.37837769 -127.79852905 343.22831299 -128.66357422 344.10400391 C-130.03198907 345.47690171 -131.40040418 346.84979925 -132.76882935 348.22268677 C-134.23656397 349.6971577 -135.70178537 351.17408513 -137.1663208 352.6517334 C-140.22030053 355.73277712 -143.28191124 358.8061609 -146.34472656 361.87841797 C-152.84496145 368.40084552 -159.33672336 374.93167679 -165.82763672 381.46337891 C-172.83518587 388.51496334 -179.84415623 395.56509796 -186.86293221 402.60551071 C-189.90709474 405.65963685 -192.94631387 408.71857351 -195.98184204 411.78128052 C-197.41610194 413.22686783 -198.85263357 414.67015026 -200.29022217 416.11242676 C-202.04263149 417.87057701 -203.79143491 419.63233161 -205.53594971 421.39831543 C-206.3097699 422.17227661 -207.08359009 422.94623779 -207.88085938 423.74365234 C-208.55041656 424.41765076 -209.21997375 425.09164917 -209.90982056 425.78607178 C-212.97007132 428.46254334 -215.15182394 429.3882886 -219.20263672 429.83837891 C-226.31990749 429.10210952 -230.90229157 423.67593665 -235.71923828 418.81469727 C-236.38014465 418.15568924 -237.04105103 417.49668121 -237.72198486 416.81770325 C-239.8923187 414.65105638 -242.05539822 412.47732483 -244.21826172 410.30322266 C-245.72910675 408.79118479 -247.24032243 407.2795172 -248.75189209 405.76820374 C-251.91208581 402.60644886 -255.06889994 399.44137133 -258.22314453 396.27368164 C-262.26891706 392.21088351 -266.32127751 388.15473559 -270.37594986 384.1008215 C-273.49371298 380.98278672 -276.60886515 377.86215462 -279.7231369 374.74063301 C-281.21689618 373.24368975 -282.71126348 371.74735298 -284.20624542 370.25163078 C-286.29123216 368.16447972 -288.37289511 366.07407138 -290.45361328 363.98266602 C-291.07284668 363.3638858 -291.69208008 362.74510559 -292.33007812 362.10757446 C-292.89631897 361.53706863 -293.46255981 360.96656281 -294.04595947 360.37876892 C-294.53777836 359.88527419 -295.02959724 359.39177946 -295.53631973 358.88333035 C-299.00631351 355.06767337 -299.56088593 352.18337021 -299.43554688 347.19807816 C-298.20973798 341.68374575 -293.9665921 338.30882002 -290.01513672 334.515625 C-289.06718708 333.57049959 -288.12144091 332.62315978 -287.17773438 331.67379761 C-284.62120481 329.11440928 -282.0351211 326.58693968 -279.44244385 324.06424665 C-276.73392223 321.41841741 -274.0538625 318.74406658 -271.37060547 316.07266235 C-266.29051379 311.02359992 -261.1854844 306.00055992 -256.07090759 300.98645937 C-250.24717376 295.27466336 -244.45195259 289.53430172 -238.65890503 283.79141116 C-226.74650068 271.98341459 -214.79895078 260.21165328 -202.82763672 248.46337891 C-204.51888172 244.86327719 -206.49123095 242.57921174 -209.34643555 239.78100586 C-210.28534134 238.8551619 -211.22424713 237.92931793 -212.19160461 236.97541809 C-212.69477015 236.48373453 -213.19793568 235.99205097 -213.71634865 235.48546791 C-215.30927598 233.92759365 -216.89478365 232.36250715 -218.47843933 230.79521179 C-222.98238922 226.33985508 -227.49683009 221.89526079 -232.02172852 217.46118164 C-263.80202331 186.29637907 -289.47697771 152.52689741 -290.07763672 106.02587891 C-290.05517205 68.71654882 -272.07919788 36.85239778 -246.82763672 10.46337891 C-244.26844958 7.98366963 -241.59802498 5.70357217 -238.82763672 3.46337891 C-237.89435547 2.70412109 -236.96107422 1.94486328 -235.99951172 1.16259766 C-168.93716852 -52.3986064 -67.06421492 -56.38554217 0 0 Z M-241.82763672 36.46337891 C-240.29866096 40.08030664 -238.14948039 42.3837311 -235.37792969 45.14013672 C-234.45712616 46.06078918 -233.53632263 46.98144165 -232.58761597 47.92999268 C-231.58179207 48.92560421 -230.57585892 49.92110538 -229.56982422 50.91650391 C-228.54091523 51.94168084 -227.51244835 52.96730166 -226.48440552 53.99334717 C-223.7828209 56.68731055 -221.07528331 59.37521258 -218.36645508 62.06188965 C-215.60119183 64.80666195 -212.84161039 67.55713363 -210.08154297 70.30712891 C-204.66911397 75.69813463 -199.25038234 81.08274855 -193.82763672 86.46337891 C-190.00249804 85.20287906 -186.23125039 83.86603765 -182.4765625 82.40795898 C-140.40578632 66.16928872 -95.31160615 65.08765118 -53.05419922 81.81494141 C-48.70041017 83.51299961 -44.26103188 84.98558052 -39.82763672 86.46337891 C-23.98763672 70.62337891 -8.14763672 54.78337891 8.17236328 38.46337891 C-1.3432681 25.7758704 -12.60047596 16.14959131 -25.82763672 7.46337891 C-26.85630859 6.77630859 -27.88498047 6.08923828 -28.94482422 5.38134766 C-45.52638276 -5.32836607 -64.52636757 -12.58974853 -83.82763672 -16.53662109 C-84.59398437 -16.69743164 -85.36033203 -16.85824219 -86.14990234 -17.02392578 C-145.55176061 -28.99811583 -200.68187732 -5.38639538 -241.82763672 36.46337891 Z M-254.82763672 55.46337891 C-268.33812421 81.00869384 -272.87096075 106.63898697 -264.64404297 134.61181641 C-256.4450409 160.600424 -239.31738626 180.17830771 -220.32373047 199.06494141 C-219.34988175 200.03691852 -218.3762584 201.00912149 -217.40284729 201.98153687 C-214.8751009 204.50551641 -212.34436379 207.02647518 -209.81292725 209.54675293 C-207.21635835 212.13298019 -204.6227183 214.72214129 -202.02880859 217.31103516 C-196.96456626 222.36464345 -191.89714918 227.41505688 -186.82763672 232.46337891 C-180.38073033 227.15323636 -174.52814235 221.29211007 -168.64404297 215.37744141 C-167.57809563 214.30962546 -166.51192467 213.24203269 -165.44554138 212.1746521 C-162.66013533 209.38545573 -159.87774742 206.5932679 -157.0960083 203.80041504 C-154.24862607 200.94274316 -151.39835686 198.08795388 -148.54833984 195.23291016 C-142.97196591 189.64586048 -137.39878178 184.05564257 -131.82763672 178.46337891 C-137.20864535 171.92793878 -143.15576613 165.99389695 -149.14135742 160.02026367 C-150.28366922 158.87659497 -151.42576859 157.73271404 -152.56767273 156.58863831 C-155.65173416 153.50004007 -158.73892344 150.4145865 -161.8268435 147.32984662 C-165.06031355 144.09891593 -168.29133455 140.86553759 -171.52275085 137.6325531 C-176.94200024 132.21148818 -182.36334679 126.79252724 -187.78588867 121.37475586 C-194.06243329 115.10366916 -200.33534509 108.82896587 -206.60641414 102.55240399 C-211.99235496 97.16193409 -217.38023082 91.77340411 -222.76974744 86.38650936 C-225.98839368 83.1694249 -229.20635375 79.95166191 -232.42257118 76.73214912 C-235.44003813 73.7118059 -238.45991702 70.69389571 -241.48172188 67.67789268 C-242.59323328 66.56770949 -243.70388358 65.45666345 -244.81363297 64.34471893 C-246.32144926 62.83419392 -247.83227288 61.32674499 -249.34394836 59.82008362 C-250.19065755 58.97375146 -251.03736673 58.1274193 -251.90973377 57.25544071 C-253.51194031 55.3495907 -253.51194031 55.3495907 -254.82763672 55.46337891 Z M17.04524171 58.34210348 C15.71128419 59.67720016 15.71128419 59.67720016 14.35037804 61.03926849 C13.85337686 61.53396198 13.35637568 62.02865547 12.84431386 62.53833967 C11.16088904 64.21642209 9.48475977 65.90161287 7.80844116 67.58679199 C6.59857577 68.79578618 5.38827137 70.00434119 4.17756331 71.21249151 C0.83690241 74.54865806 -2.49745301 77.89106651 -5.83086395 81.2344749 C-9.42098919 84.83320242 -13.01685647 88.42618405 -16.61204529 92.01985168 C-22.84514002 98.25189551 -29.07454988 104.48760334 -35.30150223 110.7257843 C-44.30473799 119.74524441 -53.3134631 128.75920503 -62.32355623 137.77181429 C-76.94015729 152.39279727 -91.55228245 167.01824502 -106.16162109 181.64648438 C-120.35687493 195.86008414 -134.55421882 210.07159083 -148.75439453 224.28027344 C-149.62905879 225.15546314 -150.50372305 226.03065285 -151.40489228 226.93236345 C-155.79264952 231.32273068 -160.18044804 235.71305664 -164.56826711 240.10336208 C-200.99446136 276.55030434 -237.41340405 313.00448607 -273.82763672 349.46337891 C-272.88158951 350.57535959 -271.93435242 351.68632801 -270.98662376 352.79687595 C-270.19557922 353.72504654 -270.19557922 353.72504654 -269.38855398 354.67196804 C-267.26926581 357.10420192 -265.02403615 359.38654666 -262.74023438 361.66430664 C-262.03666306 362.368097 -262.03666306 362.368097 -261.31887817 363.08610535 C-259.7955146 364.60878222 -258.26865994 366.12790385 -256.74169922 367.64697266 C-255.67388327 368.71292 -254.6062905 369.77909096 -253.53890991 370.84547424 C-250.74971354 373.63088029 -247.95752572 376.4132682 -245.16467285 379.19500732 C-242.30700097 382.04238955 -239.45221169 384.89265876 -236.59716797 387.74267578 C-231.0101183 393.31904972 -225.41990038 398.89223385 -219.82763672 404.46337891 C-215.09827612 400.5048357 -210.59571685 396.3920173 -206.21534729 392.05209351 C-205.58866636 391.43473379 -204.96198542 390.81737407 -204.31631416 390.18130648 C-202.23517603 388.12970947 -200.15744552 386.07469906 -198.07983398 384.01953125 C-196.58140167 382.5404789 -195.08284806 381.06154941 -193.58418274 379.58273315 C-179.95932907 366.13060828 -166.37352441 352.63890337 -152.79769993 339.13731956 C-142.76830741 329.16392585 -132.71991256 319.21049476 -122.64639241 309.28166997 C-115.5553975 302.2891258 -108.48744896 295.2738001 -101.43595356 288.24142802 C-97.22673207 284.04497537 -93.00782008 279.85946306 -88.76346016 275.69852829 C-84.7734835 271.78617615 -80.8127818 267.84640997 -76.87260246 263.88393021 C-75.42372619 262.43675626 -73.96456468 260.9997944 -72.49449158 259.57415771 C-64.57919337 252.36320041 -64.57919337 252.36320041 -59.99249077 243.0341835 C-59.97976893 240.04289094 -60.30444811 237.39971197 -60.82763672 234.46337891 C-60.78673251 232.7624139 -60.70636353 231.06137302 -60.56591797 229.36572266 C-60.50178711 228.55441895 -60.43765625 227.74311523 -60.37158203 226.90722656 C-57.06969483 191.15071393 -40.83179351 157.0530858 -13.41357422 133.45556641 C-1.84748956 123.89691356 10.78651138 116.70731241 24.61376953 110.97119141 C27.87536165 109.58922153 31.0237477 108.08377583 34.17236328 106.46337891 C35.30667418 88.9865888 29.40476388 71.66165694 21.17236328 56.46337891 C18.94920101 56.24271604 18.94920101 56.24271604 17.04524171 58.34210348 Z M-176.82763672 102.46337891 C-171.2082601 109.32245006 -164.92449161 115.49347381 -158.64794922 121.74072266 C-157.46803225 122.91877149 -156.28833814 124.09704357 -155.1088562 125.27552795 C-152.02373981 128.35685033 -148.93563083 131.43515607 -145.84686279 134.51281738 C-142.68757939 137.66181925 -139.53117155 140.81370061 -136.37451172 143.96533203 C-130.19501145 150.13415001 -124.01234282 156.2997802 -117.82763672 162.46337891 C-113.81192417 160.85478386 -111.12284058 158.02697526 -108.14111328 155.00390625 C-107.58457565 154.44766068 -107.02803802 153.8914151 -106.45463562 153.3183136 C-104.6210623 151.48334985 -102.79467 149.6414096 -100.96826172 147.79931641 C-99.69646147 146.52378502 -98.42421818 145.24869523 -97.15155029 143.97402954 C-93.80657414 140.62142495 -90.46764821 137.26285718 -87.12994385 133.90301514 C-83.72160841 130.47420435 -80.30758927 127.05106317 -76.89404297 123.62744141 C-70.19966374 116.91162619 -63.51166205 110.18949797 -56.82763672 103.46337891 C-58.22656028 100.66553178 -59.68095963 100.62079494 -62.61279297 99.62353516 C-63.61101074 99.28394775 -64.60922852 98.94436035 -65.63769531 98.59448242 C-67.24765381 98.06552368 -67.24765381 98.06552368 -68.89013672 97.52587891 C-70.52329834 96.9862854 -70.52329834 96.9862854 -72.18945312 96.43579102 C-80.68816572 93.69514134 -88.9805949 91.67501627 -97.82763672 90.46337891 C-98.66166016 90.33447266 -99.49568359 90.20556641 -100.35498047 90.07275391 C-125.45401349 86.81202483 -154.39507993 90.51139526 -176.82763672 102.46337891 Z M1.17236328 148.46337891 C0.32158203 149.14916016 -0.52919922 149.83494141 -1.40576172 150.54150391 C-24.08818394 169.80016428 -37.98449619 199.27420052 -40.41992188 228.68212891 C-42.43396324 257.81402133 -34.11284179 288.69598828 -14.80029297 311.07275391 C-11.9044572 314.29969913 -8.87825549 317.38297725 -5.82763672 320.46337891 C-5.14056641 321.21103516 -4.45349609 321.95869141 -3.74560547 322.72900391 C14.98324256 342.759014 44.18643344 353.4817336 71.11767578 354.74462891 C102.18777363 355.61136546 132.06559637 345.11566886 155.03173828 323.98291016 C171.72954856 308.07287043 182.90848543 289.69539992 189.17236328 267.46337891 C189.49205078 266.38958984 189.81173828 265.31580078 190.14111328 264.20947266 C197.40585406 235.18414261 191.38234389 203.59967465 176.65698242 177.97924805 C173.06106726 171.99468854 168.79283372 166.68995669 164.17236328 161.46337891 C163.63869141 160.80982422 163.10501953 160.15626953 162.55517578 159.48291016 C146.98749014 140.42301395 123.64891184 129.17648581 100.17236328 123.46337891 C99.22103516 123.21845703 98.26970703 122.97353516 97.28955078 122.72119141 C63.47968771 115.52550626 27.41114189 126.96833428 1.17236328 148.46337891 Z M-59.61830139 274.13378906 C-60.39773605 274.91544434 -61.17717072 275.69709961 -61.98022461 276.50244141 C-62.86106216 277.38335449 -63.74189972 278.26426758 -64.64942932 279.171875 C-65.61643696 280.14399016 -66.58339022 281.11615942 -67.55029297 282.08837891 C-68.53513702 283.07508703 -69.52020135 284.06157532 -70.50547791 285.04785156 C-73.10353931 287.64973898 -75.69858435 290.25461502 -78.29302979 292.86010742 C-80.93883114 295.5161211 -83.58745042 298.16932131 -86.23583984 300.82275391 C-91.43588043 306.03353329 -96.63274026 311.24747053 -101.82763672 316.46337891 C-97.39019919 321.7762549 -92.70806622 326.72075053 -87.80273438 331.60180664 C-86.63099167 332.77376839 -86.63099167 332.77376839 -85.43557739 333.96940613 C-82.87331655 336.5309747 -80.30754035 339.08899079 -77.74169922 341.64697266 C-75.95643628 343.43036898 -74.17139514 345.21398736 -72.38656616 346.99781799 C-68.18119548 351.19977094 -63.97360565 355.39949297 -59.76491487 359.5981198 C-54.96964741 364.38217168 -50.17725257 369.16909684 -45.38508534 373.95625389 C-35.53577368 383.7951407 -25.68289758 393.63045145 -15.82763672 403.46337891 C-12.73630849 401.98436462 -10.59507137 400.48328234 -8.16064453 398.05517578 C-7.11000824 397.01399597 -7.11000824 397.01399597 -6.03814697 395.95178223 C-5.29320984 395.20279663 -4.54827271 394.45381104 -3.78076172 393.68212891 C-3.00955994 392.91284058 -2.23835815 392.14355225 -1.44378662 391.35095215 C0.18251458 389.72601063 1.80629804 388.09854591 3.42773438 386.46875 C5.91982596 383.96592715 8.4224292 381.47397328 10.92626953 378.98291016 C12.5037344 377.40412423 14.08057905 375.8247183 15.65673828 374.24462891 C16.40977234 373.49564331 17.1628064 372.74665771 17.93865967 371.97497559 C18.62647522 371.28085571 19.31429077 370.58673584 20.02294922 369.87158203 C20.63265564 369.26028442 21.24236206 368.64898682 21.87054443 368.01916504 C23.38627456 366.5458358 23.38627456 366.5458358 23.17236328 364.46337891 C22.19138672 364.00189453 21.21041016 363.54041016 20.19970703 363.06494141 C-14.17542557 346.5860079 -40.58653642 319.07831959 -53.49951172 282.92041016 C-54.68475216 279.45739143 -55.78399942 275.97188822 -56.82763672 272.46337891 C-58.11390212 272.3496911 -58.11390212 272.3496911 -59.61830139 274.13378906 Z " fill="#000000" transform="translate(298.82763671875,61.53662109375)"/>
<path d="M0 0 C1.71725784 -0.01441132 1.71725784 -0.01441132 3.46920776 -0.02911377 C4.70671783 -0.03336365 5.94422791 -0.03761353 7.21923828 -0.04199219 C9.12613937 -0.0505423 9.12613937 -0.0505423 11.07156372 -0.05926514 C13.76324036 -0.06871852 16.45480541 -0.07561375 19.14648438 -0.07910156 C22.58867877 -0.08458438 26.03047723 -0.10861218 29.47254753 -0.13707352 C32.76308101 -0.16022182 36.05363477 -0.16215088 39.34423828 -0.16699219 C40.57769989 -0.17933899 41.8111615 -0.19168579 43.08200073 -0.20440674 C44.23314362 -0.20140564 45.3842865 -0.19840454 46.5703125 -0.1953125 C48.08563065 -0.20078094 48.08563065 -0.20078094 49.63156128 -0.20635986 C53.68542648 0.32895145 56.30838015 2.08882916 59.20874023 4.90039062 C60.92423655 8.11672913 60.75214585 10.70340052 60.70751953 14.33300781 C60.70327469 15.01542542 60.69902985 15.69784302 60.69465637 16.40093994 C60.6779205 18.57141285 60.64028037 20.7409426 60.60205078 22.91113281 C60.58699724 24.38637978 60.57331 25.86164136 60.56103516 27.33691406 C60.52803455 30.94529126 60.47628845 34.55311992 60.41455078 38.16113281 C61.29715576 38.14542236 62.17976074 38.12971191 63.08911133 38.11352539 C66.37855964 38.06225283 69.66758039 38.02471364 72.95727539 37.99633789 C74.37824219 37.98129521 75.79916291 37.96085577 77.2199707 37.93481445 C79.26801964 37.89822934 81.31545228 37.88136184 83.36376953 37.86816406 C85.20974731 37.84459839 85.20974731 37.84459839 87.09301758 37.82055664 C91.52913339 38.27541747 94.01036196 39.65112576 97.0287323 42.8969574 C98.8049461 45.79896778 98.80744495 47.72742571 98.83447266 51.11962891 C98.85038452 52.3212265 98.86629639 53.5228241 98.88269043 54.76083374 C98.88289185 56.05566681 98.88309326 57.35049988 98.88330078 58.68457031 C98.8904058 60.03211788 98.8981053 61.37966243 98.90637207 62.72720337 C98.91980832 65.54999195 98.92139011 68.37250092 98.91552734 71.1953125 C98.90963735 74.8025302 98.94019456 78.40839906 98.98064423 82.01535606 C99.00657127 84.79848382 99.00939414 87.58128916 99.00575256 90.36452103 C99.00825703 92.33760218 99.03292375 94.31061522 99.0579834 96.28353882 C98.98105261 106.26963845 98.98105261 106.26963845 96.12744141 109.96044922 C91.63345964 113.60594522 88.3825555 113.2837995 82.68017578 113.25878906 C80.73691406 113.25395508 80.73691406 113.25395508 78.75439453 113.24902344 C77.39111261 113.24066879 76.02783136 113.23220385 74.66455078 113.22363281 C73.28564613 113.21861449 71.90673974 113.21405217 70.52783203 113.20996094 C67.15669419 113.19817374 63.78564451 113.18171916 60.41455078 113.16113281 C60.44597168 114.53047974 60.44597168 114.53047974 60.47802734 115.92749023 C60.54637795 119.32879816 60.59643407 122.72937181 60.63427734 126.13110352 C60.65433903 127.60062202 60.68159556 129.07006122 60.71630859 130.53930664 C60.76507219 132.65693768 60.78757239 134.77350968 60.80517578 136.89160156 C60.83659668 138.80042114 60.83659668 138.80042114 60.86865234 140.74780273 C60.33774614 144.73844769 59.22526592 146.34029074 56.41455078 149.16113281 C53.71787877 150.50946882 51.59483245 150.31066134 48.57543945 150.33813477 C46.7379438 150.35738762 46.7379438 150.35738762 44.86332703 150.37702942 C43.51972864 150.38519714 42.17612568 150.39264081 40.83251953 150.39941406 C40.15657557 150.40348959 39.4806316 150.40756512 38.78420448 150.41176414 C35.20583018 150.4326241 31.62749422 150.44692554 28.04907227 150.45629883 C24.35676653 150.46735758 20.66506442 150.50175042 16.97297192 150.54147053 C14.13075151 150.5676442 11.28867469 150.57599131 8.44634438 150.57958031 C7.08559408 150.58444517 5.72485015 150.59605653 4.36421776 150.6146183 C2.45690856 150.63901843 0.54930561 150.63562406 -1.3581543 150.63110352 C-2.98458611 150.63990288 -2.98458611 150.63990288 -4.64387512 150.64888 C-8.29110281 150.04412724 -9.95082132 148.70160674 -12.58544922 146.16113281 C-14.07224647 143.18753832 -13.69657527 140.49814102 -13.68310547 137.18457031 C-13.68169052 136.49932281 -13.68027557 135.81407532 -13.67881775 135.10806274 C-13.67321597 132.9173752 -13.66066328 130.72678951 -13.64794922 128.53613281 C-13.64293444 127.05175929 -13.6383715 125.56738416 -13.63427734 124.08300781 C-13.62324599 120.44234966 -13.60598021 116.80175117 -13.58544922 113.16113281 C-14.43776123 113.17160645 -15.29007324 113.18208008 -16.16821289 113.19287109 C-19.34577427 113.22705936 -22.52324154 113.25208355 -25.70092773 113.27099609 C-27.07335505 113.28102207 -28.44576117 113.29464637 -29.81811523 113.31201172 C-31.79645449 113.33640908 -33.77495289 113.34657766 -35.75341797 113.35644531 C-36.94217529 113.36691895 -38.13093262 113.37739258 -39.35571289 113.38818359 C-43.9531306 113.06498468 -46.47769796 112.31605086 -49.69729614 108.95936584 C-51.90607811 105.68596247 -52.09590446 104.0003518 -52.11889648 100.08911133 C-52.13473282 98.88758926 -52.15056915 97.6860672 -52.16688538 96.44813538 C-52.16192551 95.15846359 -52.15696564 93.86879181 -52.15185547 92.54003906 C-52.15709495 91.19391959 -52.16337263 89.84780379 -52.17063904 88.50169373 C-52.18102915 85.68479092 -52.17650315 82.86839369 -52.16186523 80.05151367 C-52.14468652 76.45211622 -52.16816511 72.85431656 -52.20335484 69.25509739 C-52.22538026 66.47622724 -52.22387513 63.69773633 -52.21558952 60.91880608 C-52.21437712 58.95018722 -52.23426313 56.98159167 -52.25453186 55.01307678 C-52.1509794 45.05968448 -52.1509794 45.05968448 -49.17114258 41.36401367 C-45.09881288 37.89459332 -42.92524595 38.04186535 -37.60888672 38.06347656 C-36.58101547 38.06559898 -36.58101547 38.06559898 -35.53237915 38.06776428 C-33.34169161 38.07336607 -31.15110592 38.08591875 -28.96044922 38.09863281 C-27.47607569 38.10364759 -25.99170057 38.10821053 -24.50732422 38.11230469 C-20.86666606 38.12333604 -17.22606758 38.14060182 -13.58544922 38.16113281 C-13.6116333 37.21794189 -13.63781738 36.27475098 -13.66479492 35.30297852 C-13.75021844 31.78980136 -13.8127922 28.27773374 -13.86010742 24.76391602 C-13.88519031 23.2458348 -13.91926582 21.72787363 -13.96264648 20.21020508 C-14.02358215 18.02297316 -14.05171817 15.83734242 -14.07373047 13.64941406 C-14.09991455 12.33497314 -14.12609863 11.02053223 -14.15307617 9.66625977 C-13.44341906 5.28408894 -12.02505267 3.87255044 -8.58544922 1.16113281 C-5.46916303 0.12237075 -3.26955845 0.02213374 0 0 Z M7.41455078 21.16113281 C7.20480974 30.80866309 7.20480974 30.80866309 7.02661133 40.45678711 C6.97694214 42.26530151 6.97694214 42.26530151 6.92626953 44.11035156 C6.90008545 45.34100342 6.87390137 46.57165527 6.84692383 47.83959961 C6.38138552 51.41591166 5.57908177 53.3052032 3.41455078 56.16113281 C-0.26613315 58.6149221 -2.26598641 58.46759495 -6.65966797 58.57519531 C-7.91094482 58.61080566 -9.16222168 58.64641602 -10.45141602 58.68310547 C-12.04252197 58.71710449 -13.63362793 58.75110352 -15.27294922 58.78613281 C-20.32607422 58.90988281 -25.37919922 59.03363281 -30.58544922 59.16113281 C-30.58544922 70.05113281 -30.58544922 80.94113281 -30.58544922 92.16113281 C-20.18946531 92.45017227 -20.18946531 92.45017227 -9.79321289 92.72924805 C-7.8553894 92.78640991 -7.8553894 92.78640991 -5.87841797 92.84472656 C-5.20282837 92.86120239 -4.52723877 92.87767822 -3.83117676 92.89465332 C-0.83219284 92.98786574 1.54654627 93.20513131 4.41455078 94.16113281 C6.36059009 98.5431978 6.70668656 102.55442804 6.82861328 107.30957031 C6.86422363 108.51274902 6.89983398 109.71592773 6.93652344 110.95556641 C6.97052246 112.46715332 7.00452148 113.97874023 7.03955078 115.53613281 C7.16330078 120.36238281 7.28705078 125.18863281 7.41455078 130.16113281 C17.97455078 130.16113281 28.53455078 130.16113281 39.41455078 130.16113281 C39.66376716 120.51354996 39.66376716 120.51354996 39.89257812 110.86547852 C39.92818848 109.65980225 39.96379883 108.45412598 40.00048828 107.21191406 C40.04761963 105.36593628 40.04761963 105.36593628 40.09570312 103.48266602 C40.40567205 100.25362526 40.89674447 98.01523392 42.41455078 95.16113281 C45.97011496 92.79075669 48.59389876 92.81623978 52.70751953 92.74707031 C54.64534302 92.69365479 54.64534302 92.69365479 56.62231445 92.63916016 C58.26562744 92.60516113 59.90894043 92.57116211 61.60205078 92.53613281 C66.82017578 92.41238281 72.03830078 92.28863281 77.41455078 92.16113281 C77.41455078 81.27113281 77.41455078 70.38113281 77.41455078 59.16113281 C67.43790499 58.99085489 67.43790499 58.99085489 57.46069336 58.86328125 C56.21441162 58.83266602 54.96812988 58.80205078 53.68408203 58.77050781 C52.41153564 58.74956055 51.13898926 58.72861328 49.82788086 58.70703125 C45.87055621 58.07413103 44.19803589 56.99909493 41.41455078 54.16113281 C40.27160764 50.7323034 40.20490606 47.92030443 40.09814453 44.30566406 C40.06003662 43.09499268 40.02192871 41.88432129 39.98266602 40.63696289 C39.91801147 38.3286145 39.91801147 38.3286145 39.85205078 35.97363281 C39.63548828 28.64144531 39.63548828 28.64144531 39.41455078 21.16113281 C28.85455078 21.16113281 18.29455078 21.16113281 7.41455078 21.16113281 Z " fill="#000000" transform="translate(351.58544921875,223.8388671875)"/>
</svg>
