<?xml version="1.0" encoding="UTF-8"?>
<svg version="1.1" xmlns="http://www.w3.org/2000/svg" width="520" height="650">
<path d="M0 0 C4.58347084 2.1684617 8.80203033 4.89062261 13.0625 7.625 C14.31250389 8.40863375 15.56366115 9.19043049 16.81591797 9.97045898 C19.35094565 11.55198168 21.88041859 13.14183122 24.40576172 14.73876953 C29.43775375 17.91436337 34.53238028 20.98545624 39.625 24.0625 C48.87482822 29.68607172 58.09344658 35.35993502 67.30908203 41.03930664 C74.35927165 45.38187549 81.42321377 49.70092598 88.5 54 C97.79140153 59.64442978 107.05355167 65.33524672 116.30859375 71.0390625 C123.35899177 75.38163822 130.42305885 79.70083187 137.5 84 C146.78635455 89.64136379 156.04406048 95.32814937 165.29321289 101.03027344 C171.53008079 104.87278323 177.77858743 108.6949588 184.04223633 112.49365234 C217.93358166 133.05308723 217.93358166 133.05308723 227 141 C227.87527344 141.7321875 228.75054687 142.464375 229.65234375 143.21875 C247.83482271 158.92759578 260.32504606 180.28937826 267.3125 203.125 C267.55500488 203.91140869 267.79750977 204.69781738 268.04736328 205.50805664 C271.34025234 216.82605377 272.36205946 228.12499039 272.375 239.875 C272.39949219 241.00679687 272.42398437 242.13859375 272.44921875 243.3046875 C272.4743691 250.95039311 271.59253294 258.14023107 270.23756409 265.64820862 C270.05897246 266.65468148 269.88038083 267.66115434 269.69637734 268.69812638 C267.8379035 279.07795742 265.80610246 289.42173704 263.73803711 299.76147461 C263.32830628 301.82078235 262.91880315 303.8801354 262.50950623 305.93952942 C261.41318529 311.45148255 260.3132449 316.96270681 259.21219707 322.47371745 C258.52275385 325.92532248 257.83408202 329.37708054 257.14566231 332.82888985 C254.73969123 344.89230841 252.33059333 356.9550979 249.91870117 369.01733398 C247.6758475 380.23465119 245.44023232 391.45339512 243.207838 402.6727981 C241.28299839 412.34475266 239.35298141 422.0156648 237.41896826 431.68578917 C236.267186 437.44523775 235.11752039 443.20508891 233.97315788 448.96601677 C232.89971386 454.36907213 231.8198329 459.77080131 230.73501015 465.17158318 C230.33883387 467.14960476 229.94494772 469.12808666 229.55355072 471.10705948 C229.01804747 473.81277335 228.47421894 476.51668702 227.92832947 479.22032166 C227.70040023 480.38748314 227.70040023 480.38748314 227.46786636 481.57822365 C224.76130644 494.8257957 224.76130644 494.8257957 220 498 C216.44974612 498.32275035 213.90291396 498.40393519 210.625 496.9375 C208.21380438 494.06261291 208.28239769 491.72651672 208 488 C208.30721328 484.85788746 208.92895339 481.80558328 209.57466125 478.71728516 C209.75615555 477.80308839 209.93764985 476.88889162 210.12464398 475.94699192 C210.73402586 472.89204209 211.35982024 469.84069299 211.9855957 466.7890625 C212.42655317 464.59584918 212.86647884 462.40242819 213.30545044 460.20881653 C214.25253829 455.48758288 215.20690913 450.76790127 216.16695595 446.04928589 C217.68696825 438.5782119 219.19076527 431.10393071 220.69242859 423.62915039 C222.80148251 413.13984071 224.91789481 402.65204597 227.04077148 392.16552734 C229.21940544 381.40340668 231.39601347 370.64088258 233.56811523 359.87744141 C233.76843531 358.88481057 233.76843531 358.88481057 233.97280226 357.87212658 C236.20669747 346.8017599 238.43655926 335.73058247 240.66466969 324.65904999 C242.15820617 317.24005714 243.65742525 309.8222424 245.16139758 302.40535831 C246.09969717 297.77379588 247.03401728 293.14143658 247.9674263 288.50888634 C248.3986148 286.37335113 248.83148592 284.2381548 249.26623726 282.10334206 C256.87662243 244.71968729 256.84886415 210.54474966 236 177 C233.20686322 173.13029007 230.17315547 169.5609249 227 166 C226.30261719 165.15953125 225.60523438 164.3190625 224.88671875 163.453125 C212.78584368 149.20639092 196.34746074 140.54363852 180.51367188 131.10009766 C175.44852238 128.07704128 170.41129907 125.00830614 165.375 121.9375 C164.45412598 121.37708008 163.53325195 120.81666016 162.58447266 120.23925781 C154.26892999 115.17511111 145.97952706 110.06876122 137.69091797 104.96069336 C130.64072835 100.61812451 123.57678623 96.29907402 116.5 92 C107.20859847 86.35557022 97.94644833 80.66475328 88.69140625 74.9609375 C80.70205831 70.04003116 72.69212467 65.15401063 64.67260742 60.2824707 C56.45315396 55.28542061 48.26356911 50.24060326 40.07592773 45.19165039 C34.23384284 41.59314184 28.38277367 38.01058529 22.515625 34.453125 C21.89137131 34.07460892 21.26711761 33.69609283 20.62394714 33.30610657 C17.61757459 31.48400267 14.60997076 29.66396405 11.60083008 27.84643555 C8.39511245 25.90638745 5.19625691 23.95558801 2 22 C0.95956543 21.36980957 -0.08086914 20.73961914 -1.15283203 20.09033203 C-2.13493652 19.48431152 -3.11704102 18.87829102 -4.12890625 18.25390625 C-4.99717041 17.72224854 -5.86543457 17.19059082 -6.76000977 16.64282227 C-9.08580881 14.93706731 -10.50711673 13.46032169 -12 11 C-12.48505011 7.11959911 -12.56851618 4.9238388 -10.5 1.5625 C-6.912969 -0.67939437 -4.04609435 -0.84829822 0 0 Z " fill="#fff" transform="translate(170,7)"/>
<path d="M0 0 C2.80017801 1.33590356 5.27565982 3.03442643 7.8125 4.8125 C9.31423044 5.82421479 10.81686795 6.83458421 12.3203125 7.84375 C13.09149414 8.36710937 13.86267578 8.89046875 14.65722656 9.4296875 C18.44970674 11.97170839 22.31852713 14.38917539 26.1875 16.8125 C27.78549962 17.81846518 29.38314905 18.82498683 30.98046875 19.83203125 C31.79563965 20.34588379 32.61081055 20.85973633 33.45068359 21.38916016 C37.97459607 24.24769057 42.48684903 27.12452087 47 30 C56.21038386 35.86648142 65.4369908 41.70673066 74.67333984 47.53222656 C78.61660245 50.01983357 82.55820768 52.51006414 86.5 55 C88.0833256 56.00001224 89.66665893 57.00001225 91.25 58 C100.75 64 100.75 64 103.12744141 65.50195312 C104.70214141 66.49622759 106.2773327 67.48972444 107.85302734 68.48242188 C111.94793714 71.06368206 116.03202572 73.6601399 120.1015625 76.28125 C120.94267578 76.82007813 121.78378906 77.35890625 122.65039062 77.9140625 C124.24348436 78.93505075 125.83358556 79.96073138 127.41992188 80.9921875 C136.49606234 86.7919454 144.02814723 90.40353344 155 89 C158.3235223 88.07878474 161.56654027 86.99864521 164.8359375 85.90234375 C173.94828413 83.30363749 183.13322901 84.86725821 191.4140625 89.2890625 C199.73477594 94.49298696 205.52460949 101.40880245 208.5859375 110.796875 C210.35669569 120.21864498 209.8153905 130.5986804 205 139 C202.221443 142.566506 199.1802354 145.79126786 196 149 C192.06854409 153.0598703 189.99608577 157.10041186 188.0234375 162.34765625 C183.92673953 172.96467121 178.65640241 182.07613109 168 187 C158.6426876 190.46368235 149.12985069 191.35652279 139.6875 187.7265625 C130.96399886 183.51447984 124.30677099 178.83215979 120 170 C118.57075233 165.86985463 117.37660441 161.67381541 116.26782227 157.44726562 C111.72238391 140.62079595 101.65100524 132.26997378 87.37207031 123.46630859 C84.2284596 121.52306796 81.10962955 119.54178432 77.98925781 117.56152344 C74.79973142 115.5392504 71.60328569 113.52803962 68.40722656 111.51611328 C64.43563053 109.01473282 60.46800284 106.50707491 56.5 104 C54.91668601 102.99996938 53.33335267 101.99996939 51.75 101 C42.25 95 32.75 89 23.25 83 C22.4664917 82.50516113 21.6829834 82.01032227 20.87573242 81.50048828 C19.28992675 80.49890965 17.70415209 79.49728192 16.1184082 78.49560547 C11.42119602 75.52859012 6.72299499 72.5631528 2.0234375 69.59985352 C0.47168159 68.62011298 -1.07910819 67.63884049 -2.62890625 66.65600586 C-7.06241721 63.8451489 -11.51191902 61.06347288 -15.98046875 58.30859375 C-17.98702177 57.0599643 -19.99353293 55.81126757 -22 54.5625 C-22.95044189 53.98322754 -23.90088379 53.40395508 -24.88012695 52.80712891 C-25.76531006 52.25331543 -26.65049316 51.69950195 -27.5625 51.12890625 C-28.34753906 50.64494385 -29.13257812 50.16098145 -29.94140625 49.66235352 C-32.39759462 47.6789348 -33.63372952 45.83736499 -35 43 C-34.93550991 39.25957491 -34.81081016 36.96673519 -32.375 34.0625 C-28.93318285 32.5227397 -26.77990136 32.59995109 -23 33 C-19.60175298 34.55277842 -16.5517544 36.57057499 -13.4375 38.625 C-12.52564941 39.20822021 -11.61379883 39.79144043 -10.67431641 40.39233398 C-8.74759447 41.62628532 -6.82513948 42.86692143 -4.90673828 44.11376953 C-1.16652435 46.54085611 2.59946256 48.92611681 6.36572266 51.3125 C9.13124725 53.06646215 11.89234338 54.82720381 14.65234375 56.58984375 C19.65491044 59.78279886 24.66843836 62.95805012 29.6875 66.125 C30.45980957 66.61234619 31.23211914 67.09969238 32.02783203 67.60180664 C33.57626986 68.57871597 35.12477219 69.55552305 36.67333984 70.53222656 C40.61660245 73.01983357 44.55820768 75.51006414 48.5 78 C50.0833256 79.00001224 51.66665893 80.00001225 53.25 81 C56.41666667 83 59.58333333 85 62.75 87 C63.92622925 87.74286255 63.92622925 87.74286255 65.1262207 88.50073242 C66.70553146 89.4982175 68.28479598 90.49577579 69.86401367 91.4934082 C74.70144148 94.54917736 79.54064956 97.60210295 84.38110352 100.65307617 C86.77154152 102.16165162 89.15936802 103.67429135 91.546875 105.1875 C94.33814263 106.95570216 97.13889674 108.70610677 99.953125 110.4375 C117.63279584 121.39299177 129.01871029 134.37900681 134.0625 154.8125 C134.34222656 156.03582031 134.62195313 157.25914062 134.91015625 158.51953125 C136.30125159 162.96206154 138.14588703 166.51512152 141.82421875 169.4609375 C147.67923242 172.33320836 152.82436943 173.20162031 159.171875 171.375 C164.81241608 169.00003534 167.48377454 165.46479205 170 160 C170.80782898 157.86019881 171.59840829 155.71383496 172.375 153.5625 C175.30463116 145.64334078 179.64929116 140.16495872 185.75 134.4375 C189.83437229 130.43591904 191.86449035 126.46433359 192.08984375 120.703125 C191.66295392 114.17937272 189.31833161 110.09215292 184.4375 105.6875 C179.57218717 102.3192065 174.71530489 102.4277263 169 103 C166.6942316 103.61612714 164.40244194 104.2862502 162.125 105 C150.55769881 108.52157274 139.91739739 107.84500239 129.0078125 102.546875 C120.29494275 97.74121543 112.04326562 92.16990031 103.7355957 86.7043457 C97.86232324 82.84416524 91.95306962 79.0717789 85.9375 75.4375 C76.41963891 69.68571452 67.05676305 63.69920082 57.68554688 57.71240234 C53.56900794 55.08754742 49.44162334 52.47999925 45.3125 49.875 C44.15439819 49.14422241 44.15439819 49.14422241 42.97290039 48.39868164 C41.42422235 47.42160334 39.87547591 46.44463343 38.32666016 45.46777344 C35.97122111 43.98184484 33.61635986 42.49500518 31.26171875 41.0078125 C30.08246826 40.26301636 30.08246826 40.26301636 28.87939453 39.50317383 C27.3007732 38.50588555 25.72232097 37.50832956 24.14404297 36.51049805 C20.07857631 33.94086393 16.00934116 31.37752015 11.93359375 28.82421875 C7.95307412 26.32892159 3.98298758 23.81799123 0.0234375 21.28955078 C-1.76060584 20.15256756 -3.55165365 19.02659111 -5.34375 17.90234375 C-9.10172438 15.445622 -11.53634383 13.82795745 -13.75 9.875 C-14.04238504 6.51257208 -13.72270918 4.89728362 -12 2 C-8.57270278 -1.95457372 -4.68740662 -1.19861585 0 0 Z " fill="#fff" transform="translate(153,63)"/>
<path d="M0 0 C2.46973574 1.08026298 4.05860011 1.11329812 6.73876953 0.99121094 C8.05711792 0.94988037 8.05711792 0.94988037 9.40209961 0.90771484 C10.32659912 0.87597168 11.25109863 0.84422852 12.20361328 0.81152344 C23.10636248 0.63877351 31.70355307 2.10501929 40.35986328 9.18261719 C47.47611824 16.18963139 51.1428906 24.99946954 51.51611328 34.93652344 C51.0699127 46.79802216 46.07908771 54.15806655 37.7878418 62.21020508 C31.85039591 67.97746065 27.12286561 73.59901593 23.14111328 80.93652344 C22.62033203 81.82726562 22.09955078 82.71800781 21.56298828 83.63574219 C18.00187967 90.37127337 16.30953601 97.02026884 14.87939453 104.45214844 C14.56557076 106.05242386 14.56557076 106.05242386 14.2454071 107.68502808 C10.85203718 125.29255594 7.98399216 142.99991143 5.01330566 160.68237305 C4.15062823 165.81553026 3.28474526 170.94812647 2.41454124 176.08001328 C2.01367603 178.45191767 1.61748802 180.82457147 1.22151184 183.19729614 C0.97530273 184.65224122 0.72887012 186.1071485 0.48217773 187.56201172 C0.27075638 188.82119415 0.05933502 190.08037659 -0.15849304 191.37771606 C-1.91742465 200.31511655 -1.91742465 200.31511655 -3.98388672 203.87402344 C-7.15013013 205.66822804 -10.37744827 205.53194048 -13.85888672 204.93652344 C-16.35888672 203.56152344 -16.35888672 203.56152344 -17.85888672 200.93652344 C-18.46447851 194.37413986 -17.59637399 187.91510732 -16.48535156 181.45800781 C-16.33893219 180.56862518 -16.19251282 179.67924255 -16.04165649 178.76290894 C-15.55960502 175.85052769 -15.06541694 172.94037878 -14.56982422 170.03027344 C-14.2251711 167.98023483 -13.88082644 165.93014434 -13.53677368 163.88000488 C-12.81443477 159.58893103 -12.08555317 155.29902819 -11.35253906 151.00976562 C-10.42283052 145.56404081 -9.51366627 140.11511547 -8.61009789 134.66500092 C-7.90451707 130.42827933 -7.18557343 126.19390127 -6.46306229 121.96003723 C-6.12289995 119.95494412 -5.78719791 117.94908818 -5.45640182 115.94242859 C-0.82877138 87.96781405 7.97806995 66.29564283 28.82080078 46.38183594 C33.07140984 41.90223784 33.59591085 38.51043293 33.45361328 32.47167969 C32.79960351 27.16602541 30.42071058 24.01707227 26.32861328 20.56152344 C20.70863074 17.6964343 16.13666981 17.91695554 10.01611328 18.62402344 C1.8885153 19.36289598 -4.76852524 17.04550848 -12.20654297 13.96386719 C-16.91834385 12.01196509 -19.90653494 11.58588204 -24.85888672 12.93652344 C-28.39513039 14.42277078 -31.20697797 16.17596323 -33.73388672 19.12402344 C-35.79639231 24.28028742 -36.4449081 28.86591457 -34.92138672 34.24902344 C-33.24725835 37.60503078 -31.04742781 40.60455715 -28.92138672 43.68652344 C-15.10496192 63.92860168 -19.7385143 87.14123258 -23.72607422 109.80371094 C-24.12606328 112.14091569 -24.52481341 114.47833279 -24.9223938 116.81594849 C-25.75182288 121.67344289 -26.59141804 126.52902068 -27.43945312 131.38330078 C-28.52575184 137.60246338 -29.59312824 143.82468401 -30.65389824 150.04824638 C-31.47430737 154.85657249 -32.30094344 159.66380957 -33.12985611 164.47067642 C-33.52564114 166.76620936 -33.92033202 169.06193122 -34.31389999 171.35784531 C-34.86330291 174.55291722 -35.42020746 177.74658641 -35.97949219 180.93994141 C-36.14061493 181.88329346 -36.30173767 182.82664551 -36.46774292 183.79858398 C-37.35426528 188.8077943 -38.26425388 193.36739275 -40.98388672 197.74902344 C-44.09909372 199.72198787 -47.34777091 199.5440807 -50.85888672 198.93652344 C-53.35888672 197.49902344 -53.35888672 197.49902344 -54.85888672 194.93652344 C-55.19584014 188.14928919 -54.37286005 181.86232537 -53.19067383 175.19116211 C-53.01350327 174.15573776 -52.8363327 173.12031342 -52.65379333 172.05351257 C-52.27063681 169.81865363 -51.8841968 167.58435561 -51.49479485 165.3505764 C-50.87792387 161.8067724 -50.27166619 158.2612995 -49.66835022 154.71516418 C-47.9521879 144.63745531 -46.21968078 134.56260554 -44.47387695 124.48999023 C-43.4044663 118.31551376 -42.3495365 112.13870118 -41.3032856 105.96026039 C-40.9033621 103.6163282 -40.49791361 101.27333135 -40.08668327 98.93135643 C-39.51013798 95.64642102 -38.95205872 92.35881107 -38.39770508 89.07006836 C-38.22579651 88.11747131 -38.05388794 87.16487427 -37.87677002 86.18341064 C-35.94432304 74.43759527 -36.87161657 63.10572428 -43.79638672 53.15136719 C-44.49763672 52.21421875 -45.19888672 51.27707031 -45.92138672 50.31152344 C-53.01272441 40.8167901 -53.88355371 32.60375439 -52.85888672 20.93652344 C-51.21201038 13.46676291 -47.23551645 8.22702867 -41.85888672 2.93652344 C-40.74513672 1.82277344 -40.74513672 1.82277344 -39.60888672 0.68652344 C-27.13227351 -7.25313951 -12.80325559 -7.32479398 0 0 Z " fill="#fff" transform="translate(326.85888671875,270.0634765625)"/>
<path d="M0 0 C5.0846462 3.2600124 9.12556285 8.13063053 13.35498047 12.40039062 C19.94929898 19.05227989 26.58941179 25.24907477 34 31 C35.20969201 31.98270486 36.41791778 32.96721623 37.625 33.953125 C77.94692399 66.51728741 125.23665041 92.03540814 172.93237305 111.84277344 C173.82093994 112.21692383 174.70950684 112.59107422 175.625 112.9765625 C176.40101563 113.29705566 177.17703125 113.61754883 177.9765625 113.94775391 C181.286349 115.66893873 182.73092817 117.18463081 183.90234375 120.734375 C184.02817294 124.94210315 182.55374768 127.67836154 180.5625 131.25 C179.8133702 132.67679547 179.06738293 134.10524444 178.32421875 135.53515625 C177.9379834 136.27137207 177.55174805 137.00758789 177.15380859 137.76611328 C165.31549746 160.68624593 156.4165276 187.25516369 161 213.25 C166.84890568 250.2369647 157.19834741 289.04191602 147.3125 324.5625 C147.12645203 325.23749542 146.94040405 325.91249084 146.74871826 326.60794067 C144.76095647 333.767554 142.77608935 340.56872362 139 347 C135.86128812 348.56935594 133.46144178 348.35201103 130 348 C127 346.0625 127 346.0625 125 343 C125.18148468 334.92825259 127.75776329 327.33959874 130.00732422 319.64828491 C133.66489122 307.0878703 136.96632336 294.52397103 139.5 281.6875 C139.73033936 280.52323486 139.96067871 279.35896973 140.19799805 278.15942383 C142.66078025 265.20118568 144.33872381 252.17713772 145 239 C145.04253906 238.16339844 145.08507812 237.32679688 145.12890625 236.46484375 C145.25149121 231.56961785 144.72309803 226.96616693 144 222.125 C141.40813646 203.44840391 141.65963761 184.13513933 147 166 C147.24137695 165.16452637 147.48275391 164.32905273 147.73144531 163.46826172 C151.60033902 150.36998824 156.86019153 138.18215966 163 126 C161.78441406 125.63261719 160.56882813 125.26523437 159.31640625 124.88671875 C152.92876328 122.75417688 146.97473432 119.77255045 140.9375 116.8125 C139.7217567 116.2203778 138.50585345 115.62858391 137.28979492 115.03710938 C133.85649103 113.36493207 130.4283294 111.68235218 127 110 C125.50796356 109.27442887 124.01580317 108.54911249 122.5234375 107.82421875 C85.93531854 89.93127277 51.19802588 68.24174375 20 42 C18.92580037 41.11325808 17.8515806 40.22654058 16.77734375 39.33984375 C9.94391876 33.64451162 3.48201287 27.66245862 -2.8125 21.375 C-3.51270264 20.67560303 -4.21290527 19.97620605 -4.93432617 19.25561523 C-10.87964663 13.2436515 -10.87964663 13.2436515 -11.375 8.125 C-11.32615897 4.76717927 -11.1665357 4.19592435 -8.875 1.5 C-5.3405323 -0.3440701 -3.92618718 -0.84682469 0 0 Z " fill="#fff" transform="translate(81,134)"/>
<path d="M0 0 C5.68707361 4.89352845 9.05642833 10.40292581 12.4375 17 C12.83582031 17.75861328 13.23414063 18.51722656 13.64453125 19.29882812 C17.23106781 26.18619409 18.28279891 31.49498984 17.6875 39.3125 C15.9643185 44.68477172 12.37512043 48.2905777 7.6875 51.3125 C0.92335607 54.14877552 -5.18027426 53.05544018 -12.3125 52.3125 C-13.34117187 52.2194458 -13.34117187 52.2194458 -14.390625 52.12451172 C-32.88953522 50.45018906 -32.88953522 50.45018906 -39.25 43.25 C-42.18797542 39.06561077 -42.51506176 36.01665532 -42.625 31 C-42.66238281 29.89011719 -42.69976562 28.78023437 -42.73828125 27.63671875 C-41.89323396 21.03914772 -36.88929963 16.49714015 -32.5 11.8125 C-31.96810059 11.24297607 -31.43620117 10.67345215 -30.88818359 10.08666992 C-21.9890447 0.64946248 -13.16915682 -6.70881574 0 0 Z M-14.37890625 16.98046875 C-14.94673828 17.54443359 -15.51457031 18.10839844 -16.09960938 18.68945312 C-16.68548828 19.28693359 -17.27136719 19.88441406 -17.875 20.5 C-18.46474609 21.07814453 -19.05449219 21.65628906 -19.66210938 22.25195312 C-22.78225407 25.39339574 -25.05591164 27.95139923 -26.3125 32.3125 C-22.60854822 34.59038249 -18.73264722 34.96069209 -14.5 35.4375 C-13.81357422 35.52386719 -13.12714844 35.61023438 -12.41992188 35.69921875 C-8.02056461 36.22364544 -3.74202243 36.39356316 0.6875 36.3125 C1.99500934 33.45089631 1.99500934 33.45089631 0.88305664 31.2277832 C0.45887451 30.44749756 0.03469238 29.66721191 -0.40234375 28.86328125 C-1.08393555 27.59194336 -1.08393555 27.59194336 -1.77929688 26.29492188 C-2.26462891 25.41384766 -2.74996094 24.53277344 -3.25 23.625 C-3.97219727 22.28598633 -3.97219727 22.28598633 -4.70898438 20.91992188 C-5.90126897 18.71242466 -7.10267894 16.51042067 -8.3125 14.3125 C-11.79000331 14.3125 -12.03040517 14.64736287 -14.37890625 16.98046875 Z " fill="#fff" transform="translate(386.3125,214.6875)"/>
</svg>
