<?xml version="1.0" encoding="UTF-8"?>
<svg version="1.1" xmlns="http://www.w3.org/2000/svg" width="500" height="700">
<path d="M0 0 C0.84304688 -0.03996094 1.68609375 -0.07992188 2.5546875 -0.12109375 C8.56525332 1.18515384 12.16872066 8.00573469 15.625 12.75 C25.40987116 25.96293541 35.74707848 38.56434795 47.125 50.4375 C47.90488281 51.25863281 48.68476563 52.07976563 49.48828125 52.92578125 C54.99037257 58.58423751 60.88448109 63.61084866 67.125 68.4375 C67.65222656 68.84645508 68.17945313 69.25541016 68.72265625 69.67675781 C92.69843864 88.08369713 118.14239983 95.19487556 148.37890625 92.10498047 C158.35369589 90.7165541 167.87442543 88.34945398 177.42578125 85.203125 C181.37909781 84.08177906 185.07588576 83.57706322 189.125 84.4375 C191.99529869 86.23143668 193.61631638 87.42013276 195.125 90.4375 C195.22556111 92.48215409 195.26012023 94.53015191 195.26544189 96.57727051 C195.27115204 97.88871033 195.27686218 99.20015015 195.28274536 100.55133057 C195.28399093 102.01403799 195.28511599 103.47674552 195.28613281 104.93945312 C195.29076073 106.47389851 195.29578536 108.00834275 195.30117798 109.54278564 C195.31432993 113.72609728 195.3207555 117.90939284 195.32518864 122.09272194 C195.32812246 124.7164748 195.33222844 127.34022332 195.33669281 129.963974 C195.35039172 138.20051697 195.36003957 146.43704996 195.3638947 154.67360353 C195.36834396 164.12535168 195.38573397 173.57695293 195.4148953 183.02865648 C195.43671685 190.36152951 195.44661018 197.69436192 195.44793582 205.02726698 C195.44897186 209.39100255 195.45461414 213.75460056 195.47275543 218.11830139 C195.56957052 242.81723919 194.6339721 266.93759425 189.375 291.1875 C189.11895996 292.39083984 188.86291992 293.59417969 188.59912109 294.83398438 C186.15146962 305.95833164 182.93992328 316.71222021 179.125 327.4375 C178.82899902 328.28650879 178.53299805 329.13551758 178.22802734 330.01025391 C165.04431366 367.52436518 144.41376813 402.7035975 117.390625 431.9609375 C115.51353839 434.01278734 113.69125363 436.09410954 111.875 438.19921875 C108.03919482 442.59266102 104.00049932 446.75418715 99.875 450.875 C98.75411987 451.99467163 98.75411987 451.99467163 97.6105957 453.13696289 C92.83504884 457.85995761 87.99367805 462.27581419 82.703125 466.41796875 C79.91923539 468.59868228 77.24813649 470.88709825 74.5625 473.1875 C50.58654955 493.12636882 22.66314593 515.23683442 -9.875 512.4375 C-29.84620544 508.95766875 -49.09488628 492.43222177 -64.875 480.4375 C-65.5232373 479.94620605 -66.17147461 479.45491211 -66.83935547 478.94873047 C-73.60452063 473.7947314 -80.14676084 468.4774009 -86.3984375 462.703125 C-88.45028734 460.82603839 -90.53160954 459.00375363 -92.63671875 457.1875 C-97.03016102 453.35169482 -101.19168715 449.31299932 -105.3125 445.1875 C-106.05894775 444.44024658 -106.80539551 443.69299316 -107.57446289 442.9230957 C-112.29612289 438.14889842 -116.71161586 433.30946307 -120.8515625 428.01953125 C-123.05214247 425.21145527 -125.36462639 422.52007665 -127.6875 419.8125 C-149.67300919 393.37551987 -165.94314924 362.54652185 -177.875 330.4375 C-178.17776855 329.62716309 -178.48053711 328.81682617 -178.79248047 327.98193359 C-189.77051213 298.15299782 -194.99558287 266.17098012 -195.05200195 234.46704102 C-195.05828251 232.89704748 -195.06493066 231.32705538 -195.07191467 229.75706482 C-195.09273538 224.65185541 -195.10328327 219.54664637 -195.11328125 214.44140625 C-195.11733443 212.67578555 -195.12145151 210.910165 -195.12563133 209.1445446 C-195.14461966 200.86056164 -195.15887436 192.57658734 -195.1672433 184.29258686 C-195.17704906 174.74729783 -195.20348157 165.20223861 -195.24374419 155.65703064 C-195.27387379 148.25974219 -195.2887084 140.86251991 -195.29202431 133.46517128 C-195.29437455 129.0535813 -195.30333484 124.64223872 -195.32848549 120.2307148 C-195.35172189 116.0896051 -195.35601758 111.94890674 -195.34572411 107.80774879 C-195.34522787 106.28918338 -195.35157412 104.77059791 -195.36528015 103.25209427 C-195.38295218 101.17831535 -195.37591893 99.10602138 -195.36274719 97.03224182 C-195.36513555 95.87254159 -195.3675239 94.71284136 -195.36998463 93.5179987 C-194.76914118 89.77869581 -193.49159635 88.12382114 -190.875 85.4375 C-184.78875513 82.39437756 -178.00913715 84.84518621 -171.9375 86.75 C-149.98116139 93.50745957 -123.74501982 96.92041678 -101.875 88.4375 C-100.73933594 88.025 -99.60367188 87.6125 -98.43359375 87.1875 C-83.43571948 81.2888947 -70.78540153 72.13640758 -58.875 61.4375 C-57.99199219 60.6640625 -57.10898438 59.890625 -56.19921875 59.09375 C-46.53090731 50.55315762 -37.91563632 41.51678585 -29.875 31.4375 C-28.83154179 30.17013094 -27.78583022 28.90461492 -26.73828125 27.640625 C-20.66369892 20.28751057 -14.92189878 12.88618004 -9.6796875 4.9140625 C-6.87014553 1.05854387 -4.61442878 0.11921776 0 0 Z M-0.875 29.4375 C-2.90800718 31.77394109 -4.83822708 34.12958581 -6.75 36.5625 C-7.9375203 38.04529828 -9.12634731 39.5270509 -10.31640625 41.0078125 C-10.91598145 41.75579102 -11.51555664 42.50376953 -12.13330078 43.27441406 C-24.23097735 58.29900257 -37.37693513 72.84996943 -52.875 84.4375 C-53.47328613 84.89044434 -54.07157227 85.34338867 -54.68798828 85.81005859 C-69.63464683 97.04873203 -85.65190761 106.67847696 -103.875 111.4375 C-104.9122522 111.71243286 -104.9122522 111.71243286 -105.97045898 111.99291992 C-113.84913476 113.84329587 -121.76726522 113.78735211 -129.8125 113.75 C-130.54089081 113.74950653 -131.26928162 113.74901306 -132.01974487 113.74850464 C-142.20108899 113.72739167 -152.09154704 113.19457646 -162.09765625 111.19140625 C-166.02627257 110.40730806 -169.89916299 109.91587956 -173.875 109.4375 C-173.94555976 127.25944082 -173.99821538 145.08134462 -174.03043652 162.90339565 C-174.04580517 171.18133189 -174.06669931 179.45918057 -174.10131836 187.73706055 C-174.13153135 194.96493236 -174.1506473 202.19274068 -174.15726548 209.42067391 C-174.16112471 213.23613588 -174.16997586 217.05141647 -174.19219017 220.86681938 C-174.31951305 243.63196822 -173.33358 266.06832825 -168.0625 288.3125 C-167.67457275 289.99496826 -167.67457275 289.99496826 -167.27880859 291.71142578 C-164.97481941 301.46744539 -162.21018322 310.9871509 -158.875 320.4375 C-158.59462891 321.24783691 -158.31425781 322.05817383 -158.02539062 322.89306641 C-146.88126249 354.79405571 -129.67628323 384.9919751 -107.43359375 410.4765625 C-105.11774586 413.15658188 -102.9317612 415.89853078 -100.75 418.6875 C-96.57195085 423.82506496 -91.99066964 428.50428597 -87.3125 433.1875 C-86.60399902 433.89680664 -85.89549805 434.60611328 -85.16552734 435.33691406 C-80.55783663 439.89655238 -75.80210467 444.22660524 -70.875 448.4375 C-70.26438721 448.96553223 -69.65377441 449.49356445 -69.0246582 450.03759766 C-36.47848111 479.1546483 -36.47848111 479.1546483 3.2578125 491.890625 C10.05300079 491.09442112 15.36861704 487.94456963 21.125 484.4375 C22.25010986 483.76219238 22.25010986 483.76219238 23.39794922 483.07324219 C33.38376916 477.04170176 42.9529253 470.6512128 52.125 463.4375 C53.2753056 462.55372862 54.42638447 461.67096305 55.578125 460.7890625 C62.21145409 455.68061596 68.54612024 450.39503317 74.68359375 444.6953125 C76.77188422 442.76406147 78.89591534 440.9043194 81.0625 439.0625 C89.39687846 431.7869975 97.01350858 423.90926058 103.875 415.234375 C105.38987593 413.35130006 106.95432166 411.50717121 108.5625 409.703125 C121.87940305 394.72160906 133.00706112 377.27377151 142.125 359.4375 C142.5885791 358.53483398 143.0521582 357.63216797 143.52978516 356.70214844 C156.19307411 331.7983577 165.25053715 305.73908283 170.375 278.25 C170.52614258 277.4448999 170.67728516 276.6397998 170.83300781 275.81030273 C171.31916237 273.02533947 171.72623697 270.2364512 172.125 267.4375 C172.29480377 266.25026337 172.46460754 265.06302673 172.63955688 263.83981323 C174.58930193 248.7523567 174.3864667 233.6231945 174.32778788 218.44287133 C174.31510976 214.59792325 174.31409679 210.75297052 174.31173706 206.90800476 C174.30557165 199.65895942 174.28922927 192.40997589 174.26903808 185.16095752 C174.24652333 176.89466117 174.23564688 168.62836155 174.22564721 160.36204207 C174.2048574 143.38715923 174.16977979 126.41233619 174.125 109.4375 C172.88290771 109.58695068 171.64081543 109.73640137 170.36108398 109.89038086 C169.66240707 109.97444687 168.96373016 110.05851288 168.24388123 110.14512634 C165.58625853 110.5118382 162.97273129 111.06601056 160.34326172 111.59350586 C124.67168382 118.31979999 91.92114642 111.57592343 61.9453125 91.28515625 C58.93570105 89.07784175 56.02036393 86.79259891 53.125 84.4375 C52.5976123 84.01162598 52.07022461 83.58575195 51.52685547 83.14697266 C37.41329478 71.67216085 24.23848781 58.85339433 13.125 44.4375 C11.53430665 42.39906746 9.93816963 40.36522577 8.33520508 38.33642578 C7.25307536 36.9661664 6.17716944 35.59096437 5.1081543 34.21044922 C3.82610364 32.58244166 2.48070497 31.00470341 1.125 29.4375 C0.465 29.4375 -0.195 29.4375 -0.875 29.4375 Z " fill="#000000" transform="translate(255.875,-0.4375)"/>
<path d="M0 0 C0.67501053 -0.0065712 1.35002106 -0.0131424 2.04548645 -0.01991272 C4.28317371 -0.03965067 6.52079382 -0.05130962 8.75854492 -0.0612793 C9.90485162 -0.06739259 9.90485162 -0.06739259 11.07431602 -0.07362938 C15.11952825 -0.09449273 19.16470653 -0.10879299 23.20996094 -0.11816406 C27.38650817 -0.12922629 31.56252229 -0.16362266 35.73888111 -0.20333576 C38.95168543 -0.22949308 42.16436259 -0.2378551 45.37726402 -0.24144554 C46.91663906 -0.24631422 48.45600831 -0.25793635 49.99527931 -0.27648354 C52.15222914 -0.30085673 54.30779811 -0.29991424 56.46484375 -0.29296875 C58.30445427 -0.30176811 58.30445427 -0.30176811 60.18122864 -0.31074524 C64.03811969 0.26892273 65.67590551 1.46746914 68.42651367 4.17700195 C69.63538658 6.59474776 69.5471071 8.1103126 69.54003906 10.81030273 C69.53996353 11.77114777 69.539888 12.7319928 69.53981018 13.72195435 C69.5346489 14.76157318 69.52948761 15.80119202 69.52416992 16.87231445 C69.5220475 18.46618484 69.5220475 18.46618484 69.5198822 20.09225464 C69.51427201 23.49553204 69.50171776 26.89874434 69.48901367 30.30200195 C69.48399999 32.60538642 69.47943685 34.90877192 69.4753418 37.2121582 C69.46429927 42.86712844 69.44755119 48.52206055 69.42651367 54.17700195 C70.01675827 54.16811951 70.60700287 54.15923706 71.21513367 54.15008545 C77.36321317 54.06153188 83.51111125 54.00123447 89.65966797 53.95727539 C91.95368815 53.9371709 94.24765715 53.90988304 96.54150391 53.87524414 C99.84054193 53.82667636 103.13890189 53.80402119 106.43823242 53.78637695 C107.4623674 53.76573181 108.48650238 53.74508667 109.54167175 53.72381592 C116.67739524 53.72157166 116.67739524 53.72157166 120.55078125 56.07641602 C123.75691358 59.66688362 123.56527877 61.9961506 123.60351562 66.75048828 C123.61008682 67.42549881 123.61665802 68.10050934 123.62342834 68.79597473 C123.6431663 71.03366199 123.65482525 73.27128211 123.66479492 75.5090332 C123.66887045 76.27323767 123.67294598 77.03744213 123.677145 77.82480431 C123.69800835 81.87001653 123.71230862 85.91519482 123.72167969 89.96044922 C123.73274191 94.13699646 123.76713828 98.31301057 123.80685139 102.48936939 C123.8330087 105.70217371 123.84137072 108.91485087 123.84496117 112.1277523 C123.84982985 113.66712734 123.86145197 115.20649659 123.87999916 116.74576759 C123.90437236 118.90271742 123.90342986 121.05828639 123.89648438 123.21533203 C123.90235062 124.44173904 123.90821686 125.66814606 123.91426086 126.93171692 C123.3345929 130.78860797 122.13604648 132.42639379 119.42651367 135.17700195 C117.00876786 136.38587486 115.49320303 136.29759538 112.79321289 136.29052734 C111.83236786 136.29045181 110.87152283 136.29037628 109.88156128 136.29029846 C108.84194244 136.28513718 107.80232361 136.27997589 106.73120117 136.2746582 C105.66862091 136.27324326 104.60604065 136.27182831 103.51126099 136.27037048 C100.10798358 136.26476029 96.70477129 136.25220604 93.30151367 136.23950195 C90.9981292 136.23448827 88.69474371 136.22992513 86.39135742 136.22583008 C80.73638718 136.21478755 75.08145508 136.19803947 69.42651367 136.17700195 C69.43539612 136.76724655 69.44427856 137.35749115 69.45343018 137.96562195 C69.54198375 144.11370145 69.60228115 150.26159954 69.64624023 156.41015625 C69.66634473 158.70417643 69.69363258 160.99814543 69.72827148 163.29199219 C69.77683927 166.59103021 69.79949444 169.88939017 69.81713867 173.1887207 C69.83778381 174.21285568 69.85842896 175.23699066 69.87969971 176.29216003 C69.88194396 183.42788352 69.88194396 183.42788352 67.52709961 187.30126953 C63.93663201 190.50740187 61.60736503 190.31576705 56.85302734 190.35400391 C56.17801682 190.3605751 55.50300629 190.3671463 54.80754089 190.37391663 C52.56985364 190.39365458 50.33223352 190.40531353 48.09448242 190.4152832 C47.33027796 190.41935873 46.56607349 190.42343426 45.77871132 190.42763329 C41.73349909 190.44849663 37.68832081 190.4627969 33.64306641 190.47216797 C29.46651917 190.48323019 25.29050506 190.51762657 21.11414623 190.55733967 C17.90134191 190.58349698 14.68866476 190.591859 11.47576332 190.59544945 C9.93638828 190.60031813 8.39701903 190.61194025 6.85774803 190.63048744 C4.7007982 190.65486064 2.54522924 190.65391815 0.38818359 190.64697266 C-0.83822342 190.6528389 -2.06463043 190.65870514 -3.32820129 190.66474915 C-7.18509235 190.08508118 -8.82287817 188.88653477 -11.57348633 186.17700195 C-12.78235923 183.75925614 -12.69407976 182.24369131 -12.68701172 179.54370117 C-12.68693619 178.58285614 -12.68686066 177.62201111 -12.68678284 176.63204956 C-12.68162155 175.59243073 -12.67646027 174.55281189 -12.67114258 173.48168945 C-12.66972763 172.41910919 -12.66831268 171.35652893 -12.66685486 170.26174927 C-12.66124467 166.85847186 -12.64869042 163.45525957 -12.63598633 160.05200195 C-12.63097264 157.74861748 -12.62640951 155.44523199 -12.62231445 153.1418457 C-12.61127192 147.48687546 -12.59452384 141.83194336 -12.57348633 136.17700195 C-13.16373093 136.1858844 -13.75397552 136.19476685 -14.36210632 136.20391846 C-20.51018583 136.29247203 -26.65808391 136.35276943 -32.80664062 136.39672852 C-35.10066081 136.41683301 -37.39462981 136.44412087 -39.68847656 136.47875977 C-42.98751459 136.52732755 -46.28587455 136.54998272 -49.58520508 136.56762695 C-50.60934006 136.58827209 -51.63347504 136.60891724 -52.68864441 136.63018799 C-59.82436789 136.63243224 -59.82436789 136.63243224 -63.69775391 134.27758789 C-66.90388624 130.68712029 -66.71225142 128.35785331 -66.75048828 123.60351562 C-66.75705948 122.9285051 -66.76363068 122.25349457 -66.770401 121.55802917 C-66.79013895 119.32034192 -66.8017979 117.0827218 -66.81176758 114.8449707 C-66.81584311 114.08076624 -66.81991863 113.31656178 -66.82411766 112.5291996 C-66.84498101 108.48398737 -66.85928127 104.43880909 -66.86865234 100.39355469 C-66.87971457 96.21700745 -66.91411094 92.04099334 -66.95382404 87.86463451 C-66.97998136 84.6518302 -66.98834338 81.43915304 -66.99193382 78.2262516 C-66.9968025 76.68687657 -67.00842463 75.14750731 -67.02697182 73.60823631 C-67.05134501 71.45128648 -67.05040252 69.29571752 -67.04345703 67.13867188 C-67.04932327 65.91226486 -67.05518951 64.68585785 -67.06123352 63.42228699 C-66.48156555 59.56539594 -65.28301914 57.92761011 -62.57348633 55.17700195 C-60.15574052 53.96812905 -58.64017569 54.05640853 -55.94018555 54.06347656 C-54.97934052 54.06355209 -54.01849548 54.06362762 -53.02853394 54.06370544 C-51.9889151 54.06886673 -50.94929626 54.07402802 -49.87817383 54.0793457 C-48.81559357 54.08076065 -47.75301331 54.0821756 -46.65823364 54.08363342 C-43.25495624 54.08924362 -39.85174394 54.10179786 -36.44848633 54.11450195 C-34.14510186 54.11951564 -31.84171636 54.12407877 -29.53833008 54.12817383 C-23.88335984 54.13921636 -18.22842773 54.15596444 -12.57348633 54.17700195 C-12.58236877 53.58675735 -12.59125122 52.99651276 -12.60040283 52.38838196 C-12.68895641 46.24030245 -12.74925381 40.09240437 -12.79321289 33.94384766 C-12.81331739 31.64982748 -12.84060524 29.35585847 -12.87524414 27.06201172 C-12.92381192 23.76297369 -12.94646709 20.46461373 -12.96411133 17.1652832 C-12.98475647 16.14114822 -13.00540161 15.11701324 -13.02667236 14.06184387 C-13.02891662 6.92612039 -13.02891662 6.92612039 -10.67407227 3.05273438 C-7.08360466 -0.15339796 -4.75433768 0.03823686 0 0 Z M8.42651367 21.17700195 C8.38913086 24.27204102 8.35174805 27.36708008 8.31323242 30.5559082 C8.26696409 33.56777845 8.21574968 36.57952704 8.1640625 39.59130859 C8.13089706 41.67749582 8.10283924 43.76377097 8.08007812 45.85009766 C8.04637798 48.85658074 7.99405399 51.86226421 7.93823242 54.8684082 C7.92864754 56.25788414 7.92864754 56.25788414 7.91886902 57.6754303 C7.79471609 63.19737732 7.3662501 67.42256532 4.42651367 72.17700195 C-0.51015527 74.91056064 -6.26262842 74.52258901 -11.78442383 74.59106445 C-12.75256012 74.6104306 -13.72069641 74.62979675 -14.71817017 74.64974976 C-17.79485403 74.70928525 -20.87157584 74.75582665 -23.94848633 74.80200195 C-26.0409501 74.84020569 -28.13339855 74.8792588 -30.22583008 74.91918945 C-35.34163345 75.01655605 -40.45728367 75.09633154 -45.57348633 75.17700195 C-45.57348633 88.37700195 -45.57348633 101.57700195 -45.57348633 115.17700195 C-42.47844727 115.21438477 -39.3834082 115.25176758 -36.19458008 115.2902832 C-33.18270983 115.33655153 -30.17096124 115.38776594 -27.15917969 115.43945312 C-25.07299246 115.47261857 -22.98671731 115.50067638 -20.90039062 115.5234375 C-17.89390754 115.55713764 -14.88822407 115.60946164 -11.88208008 115.6652832 C-10.95576279 115.67167313 -10.0294455 115.67806305 -9.07505798 115.68464661 C-3.55311096 115.80879953 0.67207704 116.23726552 5.42651367 119.17700195 C8.16007236 124.1136709 7.77210073 129.86614405 7.84057617 135.38793945 C7.85994232 136.35607574 7.87930847 137.32421204 7.89926147 138.32168579 C7.95879697 141.39836966 8.00533837 144.47509146 8.05151367 147.55200195 C8.0897174 149.64446573 8.12877052 151.73691417 8.16870117 153.8293457 C8.26606777 158.94514908 8.34584326 164.0607993 8.42651367 169.17700195 C21.62651367 169.17700195 34.82651367 169.17700195 48.42651367 169.17700195 C48.46389648 166.08196289 48.5012793 162.98692383 48.53979492 159.7980957 C48.58606325 156.78622545 48.63727766 153.77447687 48.68896484 150.76269531 C48.72213029 148.67650808 48.7501881 146.59023293 48.77294922 144.50390625 C48.80664936 141.49742316 48.85897336 138.4917397 48.91479492 135.4855957 C48.92118484 134.55927841 48.92757477 133.63296112 48.93415833 132.67857361 C49.05831125 127.15662659 49.48677724 122.93143858 52.42651367 118.17700195 C57.36318262 115.44344326 63.11565577 115.8314149 68.63745117 115.76293945 C69.60558746 115.7435733 70.57372375 115.72420715 71.57119751 115.70425415 C74.64788137 115.64471865 77.72460318 115.59817726 80.80151367 115.55200195 C82.89397744 115.51379822 84.98642589 115.4747451 87.07885742 115.43481445 C92.1946608 115.33744785 97.31031102 115.25767237 102.42651367 115.17700195 C102.42651367 101.97700195 102.42651367 88.77700195 102.42651367 75.17700195 C99.33147461 75.13961914 96.23643555 75.10223633 93.04760742 75.0637207 C90.03573717 75.01745237 87.02398859 74.96623797 84.01220703 74.91455078 C81.9260198 74.88138534 79.83974465 74.85332752 77.75341797 74.83056641 C74.74693488 74.79686626 71.74125142 74.74454227 68.73510742 74.6887207 C67.80879013 74.68233078 66.88247284 74.67594086 65.92808533 74.6693573 C60.40613831 74.54520437 56.1809503 74.11673839 51.42651367 71.17700195 C48.69295498 66.24033301 49.08092662 60.48785986 49.01245117 54.96606445 C48.99308502 53.99792816 48.97371887 53.02979187 48.95376587 52.03231812 C48.89423037 48.95563425 48.84768897 45.87891244 48.80151367 42.80200195 C48.76330994 40.70953818 48.72425682 38.61708973 48.68432617 36.5246582 C48.58695957 31.40885483 48.50718409 26.29320461 48.42651367 21.17700195 C35.22651367 21.17700195 22.02651367 21.17700195 8.42651367 21.17700195 Z " fill="#000000" transform="translate(227.573486328125,160.822998046875)"/>
<path d="M0 0 C3.32828585 2.46003737 4.73108621 4.08335474 5.8984375 8.0625 C6.03855414 13.49471439 4.16570405 17.09238957 1.75 21.875 C1.07142944 23.25449829 1.07142944 23.25449829 0.37915039 24.66186523 C-14.47117707 54.17641305 -37.58906613 82.100349 -64 102 C-64.59586914 102.45632813 -65.19173828 102.91265625 -65.80566406 103.3828125 C-67.77904176 104.89122727 -69.7622775 106.38554888 -71.75 107.875 C-72.36439941 108.34019043 -72.97879883 108.80538086 -73.61181641 109.28466797 C-78.33573068 112.76229464 -83.07762348 116 -89.125 116 C-93.29511948 114.54952366 -96.02287687 111.95424625 -98 108 C-98.60824216 102.64746901 -97.23783857 100.208118 -94 96 C-91.15234375 93.76171875 -91.15234375 93.76171875 -87.9375 91.6875 C-77.07915711 84.47710833 -67.46622343 75.92111787 -58 67 C-57.2678125 66.31035156 -56.535625 65.62070312 -55.78125 64.91015625 C-50.37001716 59.65997201 -45.63625166 53.93831585 -41 48 C-40.57847656 47.46552246 -40.15695312 46.93104492 -39.72265625 46.38037109 C-30.70160498 34.85979263 -23.55065281 22.34603321 -16.64355469 9.47167969 C-16.21204102 8.67407227 -15.78052734 7.87646484 -15.3359375 7.0546875 C-14.95743652 6.34554199 -14.57893555 5.63639648 -14.18896484 4.90576172 C-10.52839966 -0.96166576 -6.63653022 -1.60192109 0 0 Z " fill="#000000" transform="translate(372,342)"/>
<path d="M0 0 C2.87029869 1.79393668 4.49131638 2.98263276 6 6 C6.45487581 10.54875813 6.71689456 13.67392638 3.9375 17.4375 C0.41360794 20.5115335 -1.34975862 21.08158318 -6 21 C-9.60115926 19.75344487 -11.47582284 18.64648516 -13.875 15.6875 C-15.23833511 12.43064391 -15.50047119 10.50329831 -15 7 C-11.06142639 0.04185329 -7.71503326 -0.99935664 0 0 Z " fill="#000000" transform="translate(388,300)"/>
</svg>
