<?xml version="1.0" encoding="UTF-8"?>
<svg version="1.1" xmlns="http://www.w3.org/2000/svg" width="490" height="550">
<path d="M0 0 C1.26807495 0.05365723 1.26807495 0.05365723 2.56176758 0.10839844 C3.46822021 0.16157227 4.37467285 0.21474609 5.30859375 0.26953125 C6.24662842 0.32141602 7.18466309 0.37330078 8.15112305 0.42675781 C29.99300008 1.80605068 49.62953848 6.20209773 67.15234375 19.8828125 C69.93063303 21.973339 71.67912091 22.20247774 75.09765625 22.1796875 C75.9484375 22.17646484 76.79921875 22.17324219 77.67578125 22.16992188 C79.00996094 22.15735352 79.00996094 22.15735352 80.37109375 22.14453125 C81.26828125 22.14001953 82.16546875 22.13550781 83.08984375 22.13085938 C85.30866023 22.11905716 87.52734393 22.1025928 89.74609375 22.08203125 C93.53808787 32.25304053 94.38216265 42.38621445 90.80859375 52.83203125 C89.30613805 56.01370215 87.33146692 58.62649545 85.05078125 61.29296875 C83.556588 63.34189243 83.01768299 64.55947355 82.74609375 67.08203125 C83.28694339 69.90652125 83.28694339 69.90652125 84.18359375 72.95703125 C86.50919841 82.4514723 86.58658867 91.53255156 84.21875 101.00390625 C83.35695311 104.79296367 82.82542776 108.26496349 83.74609375 112.08203125 C85.76501431 115.10286001 88.09850036 117.60328948 90.74609375 120.08203125 C93.70784498 119.46925513 95.12668158 118.82830603 97.74609375 117.08203125 C100.80859375 116.83203125 100.80859375 116.83203125 103.74609375 117.08203125 C105.74609375 119.08203125 105.74609375 119.08203125 105.74609375 121.39453125 C104.32195216 125.22191177 101.92662627 126.55706062 98.74609375 129.08203125 C99.26300781 129.99984375 99.77992188 130.91765625 100.3125 131.86328125 C106.38062966 143.00337113 106.38062966 143.00337113 105.99609375 147.58203125 C104.19123102 152.6356469 102.23486088 155.83341509 97.44921875 158.234375 C95.86128792 158.90444135 94.25701691 159.53750779 92.63671875 160.125 C90.38754459 160.98501118 90.38754459 160.98501118 89.74609375 164.08203125 C91.39609375 164.08203125 93.04609375 164.08203125 94.74609375 164.08203125 C95.40609375 162.76203125 96.06609375 161.44203125 96.74609375 160.08203125 C97.42897461 160.09886963 98.11185547 160.11570801 98.81542969 160.13305664 C116.16750818 160.46540901 116.16750818 160.46540901 132.12109375 154.51953125 C141.71442044 149.16020033 151.15961099 149.27523541 161.87109375 149.39453125 C162.69051453 149.40185272 163.5099353 149.40917419 164.35418701 149.41671753 C166.69679143 149.44778336 169.0371285 149.50143668 171.37890625 149.5703125 C172.44936188 149.59773026 172.44936188 149.59773026 173.54144287 149.6257019 C178.50539308 149.84133058 178.50539308 149.84133058 180.74609375 152.08203125 C181.01351929 154.23851013 181.01351929 154.23851013 181.03662109 156.94311523 C181.0493808 157.95433945 181.0621405 158.96556366 181.07528687 160.00743103 C181.07862534 161.65117455 181.07862534 161.65117455 181.08203125 163.328125 C181.08868805 164.45017838 181.09534485 165.57223175 181.10220337 166.72828674 C181.11234274 169.10472978 181.11701999 171.48120137 181.11669922 173.85766602 C181.12107186 177.50128905 181.15737829 181.1437009 181.1953125 184.78710938 C181.20118035 187.09244376 181.20514995 189.39778392 181.20703125 191.703125 C181.22140228 192.79692978 181.23577332 193.89073456 181.25057983 195.01768494 C181.24442657 196.03206131 181.23827332 197.04643768 181.23193359 198.09155273 C181.23478363 198.98486801 181.23763367 199.87818329 181.24057007 200.79856873 C180.74609375 203.08203125 180.74609375 203.08203125 178.84072876 204.89393616 C176.74609375 206.08203125 176.74609375 206.08203125 174.74609375 206.08203125 C174.75053497 206.8292746 174.7549762 207.57651794 174.759552 208.34640503 C174.79958559 215.38008671 174.83005612 222.41372909 174.84971809 229.4474926 C174.86016624 233.06383998 174.87434407 236.68009341 174.89697266 240.29638672 C174.91866455 243.78471936 174.9306546 247.27296149 174.93584824 250.76135635 C174.94135544 252.74343096 174.95697409 254.72546904 174.97268677 256.70748901 C174.97283783 257.90858307 174.97298889 259.10967712 174.97314453 260.34716797 C174.97758575 261.4086203 174.98202698 262.47007263 174.98660278 263.56369019 C174.74609375 266.08203125 174.74609375 266.08203125 172.74609375 268.08203125 C169.62109375 268.20703125 169.62109375 268.20703125 166.74609375 268.08203125 C167.17236581 270.14688103 167.61260824 272.20884946 168.05859375 274.26953125 C168.30222656 275.41808594 168.54585937 276.56664062 168.796875 277.75 C170.11162066 282.36513599 171.45729542 285.23259599 175.49609375 287.89453125 C180.8440971 289.8486094 184.89776604 289.62703043 190.12109375 287.51953125 C199.86665522 282.78739105 208.47244408 274.93939734 213.87109375 265.51953125 C215.74609375 263.08203125 215.74609375 263.08203125 218.87109375 262.58203125 C221.74609375 263.08203125 221.74609375 263.08203125 223.74609375 265.08203125 C223.42395988 272.50150168 218.47151861 276.80905716 213.74609375 282.08203125 C212.74449219 283.20931641 212.74449219 283.20931641 211.72265625 284.359375 C203.78632202 292.79780384 193.54144983 298.88647972 181.80859375 299.58203125 C175.21974321 299.33610215 169.70890206 296.83900235 164.890625 292.35546875 C159.20511014 285.53285092 157.16308127 276.82721838 157.74609375 268.08203125 C156.61171875 267.95828125 155.47734375 267.83453125 154.30859375 267.70703125 C152.54515625 267.39765625 152.54515625 267.39765625 150.74609375 267.08203125 C149.41655583 264.42295541 149.62623344 262.41637757 149.63256836 259.43896484 C149.63264389 258.25789154 149.63271942 257.07681824 149.63279724 255.85995483 C149.63795853 254.57972443 149.64311981 253.29949402 149.6484375 251.98046875 C149.65055992 250.02036362 149.65055992 250.02036362 149.65272522 248.0206604 C149.65654481 244.54526867 149.66637033 241.06991868 149.6774292 237.59454346 C149.68765532 234.0487118 149.69222542 230.5028734 149.69726562 226.95703125 C149.70799309 219.99868076 149.72506283 213.04035801 149.74609375 206.08203125 C148.14290283 205.90414062 148.14290283 205.90414062 146.50732422 205.72265625 C143.13856517 205.14887826 141.37549885 204.61406038 138.56640625 202.83203125 C125.66962978 195.22960459 114.9539116 193.71159676 100.06420898 194.2421875 C97.74609375 194.08203125 97.74609375 194.08203125 94.74609375 192.08203125 C94.74609375 191.42203125 94.74609375 190.76203125 94.74609375 190.08203125 C91.77609375 190.08203125 88.80609375 190.08203125 85.74609375 190.08203125 C85.66359375 191.50515625 85.58109375 192.92828125 85.49609375 194.39453125 C84.51744554 203.60687311 82.20365075 210.72951948 74.94140625 216.7421875 C69.9553658 219.78526913 65.42071618 220.30688763 59.66015625 220.13671875 C58.30339567 220.11142311 56.94662429 220.08670141 55.58984375 220.0625 C53.48109066 220.01301486 51.37292178 219.9570893 49.26464844 219.89013672 C37.91223049 219.51826337 37.91223049 219.51826337 27.74609375 224.08203125 C23.19121426 229.32014266 23.0737152 234.43646848 23.31640625 241.24609375 C24.75903706 254.12485243 30.64089451 265.8320743 36.17504883 277.38989258 C40.58614585 286.90471347 40.58614585 286.90471347 38.74609375 293.08203125 C35.93359375 293.33203125 35.93359375 293.33203125 32.74609375 293.08203125 C28.74184852 288.7798225 26.88585137 282.91601873 24.61254883 277.58642578 C23.82412625 275.74334136 23.02060364 273.90673975 22.21679688 272.0703125 C17.53361245 261.15655855 12.93024556 249.88752888 13.18359375 237.83203125 C13.19382568 237.07116211 13.20405762 236.31029297 13.21459961 235.52636719 C13.52306578 227.33672137 16.06746551 221.31961373 22.05859375 215.64453125 C30.06743487 208.88644114 39.56312622 209.79556766 49.37109375 210.08203125 C52.13408416 210.1623211 54.89642936 210.22200646 57.66015625 210.26953125 C58.87654785 210.30433594 60.09293945 210.33914063 61.34619141 210.375 C65.70062189 209.99977979 69.29531707 208.80308961 72.171875 205.390625 C74.67578243 200.10704941 76.03146421 194.97289287 75.74609375 189.08203125 C74.55482843 186.26184375 74.55482843 186.26184375 72.74609375 184.08203125 C70.71618989 180.32670911 70.4672089 177.32034555 71.1328125 173.078125 C72.54003257 168.49793737 75.83088154 165.69217272 79.74609375 163.08203125 C80.31552952 161.08540835 80.31552952 161.08540835 80.68359375 158.83203125 C81.70857247 155.30972869 82.4300032 154.2857632 85.5703125 152.26171875 C87.73168114 151.24370133 89.91842821 150.27754877 92.12890625 149.37109375 C92.99257813 148.94570312 93.85625 148.5203125 94.74609375 148.08203125 C96.08877475 145.17361604 96.08877475 145.17361604 94.75 142.8203125 C94.27433594 142.01980469 93.79867187 141.21929687 93.30859375 140.39453125 C92.83550781 139.58628906 92.36242187 138.77804688 91.875 137.9453125 C91.50246094 137.33042969 91.12992188 136.71554688 90.74609375 136.08203125 C89.42609375 136.08203125 88.10609375 136.08203125 86.74609375 136.08203125 C86.82859375 137.11328125 86.91109375 138.14453125 86.99609375 139.20703125 C86.69944933 143.80501976 85.73733034 145.61849414 82.74609375 149.08203125 C78.43540699 152.18973566 74.96448626 152.50806024 69.86328125 151.7265625 C65.81876147 150.49529725 63.71711116 147.69705677 61.609375 144.19140625 C60.08724465 140.47217372 60.79708735 136.90536637 61.74609375 133.08203125 C63.86627209 129.64588014 65.84231539 127.27485242 69.74609375 126.08203125 C75.10045643 125.7365885 78.65897782 126.25588707 83.74609375 128.08203125 C83.19179688 127.4065625 82.6375 126.73109375 82.06640625 126.03515625 C80.97972656 124.69710937 80.97972656 124.69710937 79.87109375 123.33203125 C79.15179688 122.4503125 78.4325 121.56859375 77.69140625 120.66015625 C72.92193838 114.33917473 73.25927402 108.85242317 73.74609375 101.08203125 C74.15971951 99.03529691 74.707732 97.08828325 75.29296875 95.0859375 C77.21576701 86.58252794 75.2449573 77.49975601 73.74609375 69.08203125 C72.75609375 69.41203125 71.76609375 69.74203125 70.74609375 70.08203125 C67.64661035 70.31241134 64.5407915 70.27182206 61.43359375 70.26953125 C60.53294189 70.27017578 59.63229004 70.27082031 58.7043457 70.27148438 C52.38419721 70.221919 46.36422129 69.56297249 40.125 68.5390625 C31.24101883 67.33741418 21.74530643 66.57338411 13.74609375 71.08203125 C9.89193728 74.58974669 7.37671903 78.1135113 5.74609375 83.08203125 C5.55169767 86.43718529 5.55169767 86.43718529 5.7265625 90.0703125 C5.7567366 91.43031936 5.78600484 92.79034657 5.81445312 94.15039062 C5.87002978 96.27038312 5.93339725 98.38932803 6.01342773 100.50854492 C6.51992699 114.75861098 6.51992699 114.75861098 2.06518555 120.73706055 C-0.9222191 123.78307428 -3.56245651 124.01917218 -7.69140625 124.39453125 C-13.66327532 123.87068309 -17.92084055 121.09804337 -22.25390625 117.08203125 C-24.06272138 114.82715086 -25.80313759 112.53770288 -27.5078125 110.203125 C-29.71144705 107.52622666 -31.98807518 105.67275241 -35.12890625 104.20703125 C-38.59403507 104.00320014 -40.4176172 105.15094083 -43.25390625 107.08203125 C-48.67245981 115.9323354 -46.36761412 126.48889451 -44.296875 136.15234375 C-42.61945486 143.03226994 -39.94100985 149.18525224 -34.06640625 153.33203125 C-31.20489089 154.37124311 -31.20489089 154.37124311 -28.25390625 153.08203125 C-27.09554952 150.10700003 -27.09554952 150.10700003 -26.25390625 147.08203125 C-25.25390625 146.08203125 -25.25390625 146.08203125 -22.81640625 145.89453125 C-20.25390625 146.08203125 -20.25390625 146.08203125 -18.25390625 148.08203125 C-17.68382532 152.96843921 -17.72035281 155.12163505 -20.12890625 159.45703125 C-23.13842209 162.56885358 -26.48116028 163.40520413 -30.6796875 164.0390625 C-34.84283354 164.10855356 -37.53925734 162.9393557 -41.25390625 161.08203125 C-42.24390625 160.09203125 -42.24390625 160.09203125 -43.25390625 159.08203125 C-43.47304687 160.13261719 -43.6921875 161.18320312 -43.91796875 162.265625 C-46.28035136 172.96710347 -49.31624061 181.7134415 -58.1953125 188.79296875 C-62.88880605 191.73196851 -68.42182453 194.42906098 -74.02734375 193.7421875 C-76.25390625 193.08203125 -76.25390625 193.08203125 -77.25390625 192.08203125 C-76.9666057 189.74258389 -76.63453846 187.40811695 -76.25390625 185.08203125 C-75.61324219 184.93507813 -74.97257812 184.788125 -74.3125 184.63671875 C-68.14434625 183.03722732 -63.26668054 181.20472183 -59.25390625 176.08203125 C-54.95915274 167.91152457 -54.0599377 160.2263694 -54.06640625 151.14453125 C-54.06576172 150.20738281 -54.06511719 149.27023437 -54.06445312 148.3046875 C-54.11358823 141.80098622 -54.74496658 135.69836473 -55.79296875 129.28125 C-57.17109886 119.7160927 -57.02856586 110.69902048 -52.25390625 102.08203125 C-48.62500028 97.40017847 -44.32588064 95.14711611 -38.51171875 94.2109375 C-32.70047519 93.8791537 -28.77230231 95.35704304 -24.31640625 99.08203125 C-20.35683557 102.7765913 -16.87614151 106.87194031 -13.4296875 111.04296875 C-10.99189976 113.32757413 -9.5333469 113.7718915 -6.25390625 114.08203125 C-3.82782813 110.44291407 -4.06751992 108.89377159 -4.19921875 104.578125 C-4.22371094 103.27939453 -4.24820313 101.98066406 -4.2734375 100.64257812 C-4.32267329 98.59100562 -4.37822971 96.54006699 -4.44580078 94.48901367 C-4.75586683 84.43628189 -4.16923957 76.03050871 1.99609375 67.76953125 C8.8709755 61.05089682 16.38509249 57.85678311 26.04882812 57.8046875 C26.79455078 57.81371094 27.54027344 57.82273438 28.30859375 57.83203125 C29.09943359 57.83589844 29.89027344 57.83976562 30.70507812 57.84375 C36.60955227 57.92952929 42.25906768 58.67479891 48.0859375 59.62890625 C52.50964398 60.17655828 56.85504076 60.31049916 61.30859375 60.33203125 C62.45231445 60.34556641 62.45231445 60.34556641 63.61914062 60.359375 C68.75868467 60.33191528 72.74492995 60.08771235 76.4765625 56.34765625 C82.1959864 48.43553096 83.15324796 41.72357593 83.74609375 32.08203125 C82.82828125 32.11683594 81.91046875 32.15164062 80.96484375 32.1875 C70.63953784 32.4152641 64.88631779 31.80318734 56.93359375 25.20703125 C41.8974267 12.7868388 21.91688232 11.74385356 3.23291016 10.03271484 C2.01909668 9.92137207 0.8052832 9.8100293 -0.4453125 9.6953125 C-1.54045166 9.60032471 -2.63559082 9.50533691 -3.76391602 9.4074707 C-6.25390625 9.08203125 -6.25390625 9.08203125 -7.25390625 8.08203125 C-7.50390625 5.14453125 -7.50390625 5.14453125 -7.25390625 2.08203125 C-4.10182747 -0.0193546 -3.55271884 -0.1577204 0 0 Z M72.74609375 135.08203125 C70.97418466 136.43647426 70.97418466 136.43647426 69.74609375 138.08203125 C70.53727279 140.08186659 70.53727279 140.08186659 71.74609375 142.08203125 C72.73609375 142.41203125 73.72609375 142.74203125 74.74609375 143.08203125 C76.39165074 141.85394034 76.39165074 141.85394034 77.74609375 140.08203125 C77.51851644 137.91903914 77.51851644 137.91903914 76.74609375 136.08203125 C74.90908586 135.30960856 74.90908586 135.30960856 72.74609375 135.08203125 Z M150.74609375 159.08203125 C150.74609375 171.62203125 150.74609375 184.16203125 150.74609375 197.08203125 C157.67609375 197.08203125 164.60609375 197.08203125 171.74609375 197.08203125 C171.74609375 184.54203125 171.74609375 172.00203125 171.74609375 159.08203125 C164.81609375 159.08203125 157.88609375 159.08203125 150.74609375 159.08203125 Z M132.62109375 165.08203125 C130.68234375 166.07203125 128.74359375 167.06203125 126.74609375 168.08203125 C126.74609375 174.35203125 126.74609375 180.62203125 126.74609375 187.08203125 C128.68484375 188.07203125 130.62359375 189.06203125 132.62109375 190.08203125 C133.71164062 190.63890625 134.8021875 191.19578125 135.92578125 191.76953125 C138.52984457 193.22267219 138.52984457 193.22267219 140.74609375 193.08203125 C140.74609375 182.85203125 140.74609375 172.62203125 140.74609375 162.08203125 C137.62495012 162.08203125 135.37620665 163.67516509 132.62109375 165.08203125 Z M103.74609375 169.08203125 C103.74609375 174.36203125 103.74609375 179.64203125 103.74609375 185.08203125 C108.36609375 185.08203125 112.98609375 185.08203125 117.74609375 185.08203125 C117.74609375 179.80203125 117.74609375 174.52203125 117.74609375 169.08203125 C113.12609375 169.08203125 108.50609375 169.08203125 103.74609375 169.08203125 Z M80.74609375 175.08203125 C81.03592644 178.38886591 81.03592644 178.38886591 82.74609375 181.08203125 C84.59896877 181.15429627 86.45443253 181.16584345 88.30859375 181.14453125 C89.32050781 181.13550781 90.33242188 181.12648438 91.375 181.1171875 C92.15746094 181.10558594 92.93992187 181.09398437 93.74609375 181.08203125 C93.74609375 178.44203125 93.74609375 175.80203125 93.74609375 173.08203125 C91.95475397 173.02811132 90.16295476 172.98927554 88.37109375 172.95703125 C87.37335938 172.93382812 86.375625 172.910625 85.34765625 172.88671875 C82.58347202 172.80986277 82.58347202 172.80986277 80.74609375 175.08203125 Z M158.74609375 206.08203125 C158.74609375 223.57203125 158.74609375 241.06203125 158.74609375 259.08203125 C161.05609375 259.08203125 163.36609375 259.08203125 165.74609375 259.08203125 C165.74609375 241.59203125 165.74609375 224.10203125 165.74609375 206.08203125 C163.43609375 206.08203125 161.12609375 206.08203125 158.74609375 206.08203125 Z " fill="#fff" transform="translate(183.25390625,106.91796875)"/>
<path d="M0 0 C2.375 0.75 2.375 0.75 3.375 1.75 C3.2890625 3.67578125 3.2890625 3.67578125 3 6.0625 C2.90976563 6.84238281 2.81953125 7.62226563 2.7265625 8.42578125 C2.375 10.75 2.375 10.75 1.85546875 12.81640625 C0.05108955 20.0779323 1.96602106 26.30029601 5.375 32.75 C8.93509005 37.99102343 13.2633764 40.07124739 18.79296875 42.90625 C21.375 44.75 21.375 44.75 22.3046875 47.3515625 C22.375 49.75 22.375 49.75 21.3125 51.625 C19.375 52.75 19.375 52.75 16.8125 52.8125 C7.43504385 49.91401355 -0.17175438 44.04585634 -4.90625 35.4140625 C-9.58689319 25.35067964 -9.81730262 15.41380113 -6.57421875 4.84375 C-5.02011027 1.41575763 -3.89627388 -0.3710737 0 0 Z " fill="#fff" transform="translate(187.625,256.25)"/>
<path d="M0 0 C3.81204297 0.64732805 4.26096632 1.19577531 6.5625 4.125 C10.60972053 10.15345152 12.15990148 16.31250952 11.3125 23.5625 C9.99914134 29.95270725 7.4552382 35.38634874 2.3125 39.5625 C-0.9375 40.625 -0.9375 40.625 -3.6875 40.5625 C-5.6875 38.5625 -5.6875 38.5625 -6.125 35.75 C-5.54830113 31.54833683 -3.70622946 30.43748044 -0.6875 27.5625 C1.63108485 22.81994008 1.75208179 18.57586877 0.3125 13.5625 C-1.01155988 11.55634866 -2.34418346 9.55580842 -3.6875 7.5625 C-4 4.25 -4 4.25 -3.6875 1.5625 C-2.6875 0.5625 -2.6875 0.5625 0 0 Z " fill="#fff" transform="translate(237.6875,261.4375)"/>
</svg>
