<?xml version="1.0" encoding="UTF-8"?>
<svg version="1.1" xmlns="http://www.w3.org/2000/svg" width="530" height="750">
<path d="M0 0 C0.74211066 -0.00581376 1.48422132 -0.01162753 2.24882019 -0.01761746 C4.73153612 -0.03219675 7.21326018 -0.01834252 9.69596863 -0.00457001 C11.49543926 -0.00917975 13.29490613 -0.01553316 15.09436512 -0.02347898 C20.03622407 -0.04018531 24.97777425 -0.03191996 29.91963434 -0.01953411 C35.25032302 -0.01049132 40.58095826 -0.02444953 45.91163635 -0.0354538 C56.35326561 -0.05325181 66.79477993 -0.0493933 77.23641372 -0.03780323 C85.72160902 -0.02877424 94.20677209 -0.0275426 102.69197083 -0.0318985 C103.89905884 -0.03251143 105.10614685 -0.03312436 106.34981328 -0.03375587 C108.80189444 -0.03503475 111.25397558 -0.03633161 113.70605671 -0.03764623 C136.70592028 -0.04905579 159.70572009 -0.03593242 182.7055732 -0.01444477 C202.44581181 0.00342654 222.18595633 0.00032253 241.92619324 -0.01811981 C264.843061 -0.03951987 287.75987287 -0.04795712 310.67674923 -0.03567076 C313.1198724 -0.03439654 315.56299558 -0.03313906 318.00611877 -0.0318985 C319.20822095 -0.0312814 320.41032313 -0.03066429 321.64885265 -0.03002849 C330.12507169 -0.026573 338.60125532 -0.03240824 347.07746887 -0.04181671 C357.40540995 -0.05302845 367.73322939 -0.05001396 378.06115651 -0.02869374 C383.33188398 -0.01817228 388.60240858 -0.01408026 393.87313461 -0.02729034 C398.69679955 -0.03919722 403.52007329 -0.03267971 408.34370267 -0.01138014 C410.08990128 -0.00690686 411.83613285 -0.00919658 413.58231032 -0.01888329 C415.95470758 -0.03103573 418.32576249 -0.01858503 420.6980896 0 C422.01610156 0.00064941 423.33411352 0.00129882 424.69206524 0.00196791 C430.3140854 0.77278493 433.99879021 2.93968838 437.75553894 7.2902298 C439.64248148 11.09504836 439.85128255 13.67816846 439.84513855 17.91352081 C439.84659378 18.6034462 439.84804901 19.29337158 439.84954834 20.0042038 C439.8478975 21.45391846 439.83642788 22.90365214 439.81559753 24.35321808 C439.78657541 26.56353333 439.79501656 28.77145507 439.80802917 30.98188019 C439.75529363 42.94421585 439.75529363 42.94421585 436.3490448 47.50336456 C431.36124031 51.88290021 428.92853544 52.62824533 422.31300354 52.62361908 C421.21400646 52.62490072 421.21400646 52.62490072 420.09280741 52.62620825 C417.62529826 52.62786203 415.15785633 52.62234333 412.69035339 52.61688995 C410.92653403 52.61660803 409.16271456 52.61676591 407.39889526 52.61733246 C402.59956977 52.61762025 397.80026909 52.61172651 393.00094938 52.6047585 C387.98942915 52.59852188 382.9779084 52.59792092 377.96638489 52.59673309 C368.47142515 52.59362069 358.97647688 52.58540852 349.4815222 52.5753836 C338.67394419 52.56421965 327.86636564 52.5587113 317.05878329 52.55368817 C294.82219721 52.54322584 272.58562213 52.52542754 250.3490448 52.50336456 C250.3490448 61.74336456 250.3490448 70.98336456 250.3490448 80.50336456 C254.01860291 80.48765411 257.68816101 80.47194366 261.46891785 80.45575714 C273.5827427 80.40608456 285.69656041 80.37277213 297.81045818 80.34792805 C305.15629964 80.33246208 312.50204459 80.31137781 319.8478241 80.2770462 C326.25074399 80.24713547 332.65359398 80.22778759 339.0565818 80.22109908 C342.44663987 80.21718962 345.83649797 80.20800774 349.22649193 80.18617439 C353.0118491 80.16445001 356.79678978 80.16139563 360.5821991 80.16278839 C361.70501282 80.15200256 362.82782654 80.14121674 363.98466492 80.13010406 C365.53476509 80.13629005 365.53476509 80.13629005 367.11618042 80.14260101 C368.4587719 80.13845294 368.4587719 80.13845294 369.82848644 80.13422108 C372.92732351 80.58805525 374.81790502 81.68894778 377.3490448 83.50336456 C378.89491356 86.59510208 378.64264001 89.09766009 378.3490448 92.50336456 C376.17614698 95.48262148 374.9764238 96.40033063 371.3060165 97.00311857 C370.10121622 97.00301124 368.89641593 97.0029039 367.65510654 97.00279331 C366.64247136 97.01090075 366.64247136 97.01090075 365.6093789 97.01917198 C363.33656784 97.03247702 361.06484082 97.01718732 358.79205322 97.00215912 C357.15048914 97.00588444 355.50892826 97.01137237 353.86737531 97.01847595 C349.34812091 97.03296274 344.82920994 97.02253488 340.30996764 97.0081929 C335.43939411 96.99710188 330.56887279 97.00906363 325.69830322 97.01837921 C317.25582775 97.03148541 308.81345124 97.03029469 300.37097359 97.01978493 C288.15906107 97.0048651 275.94726499 97.01474508 263.73535912 97.03130411 C243.91623625 97.05778099 224.09713946 97.06862345 204.27799988 97.06757355 C203.09130876 97.06751522 201.90461764 97.0674569 200.68196618 97.06739681 C195.87348183 97.06713095 191.06499749 97.06681367 186.25651315 97.06643355 C173.02116202 97.06546737 159.78581168 97.06679492 146.55046082 97.06952667 C144.77304132 97.06988651 144.77304132 97.06988651 142.95971436 97.07025362 C123.21710409 97.07465696 103.47451807 97.09087758 83.73192209 97.11474746 C71.54766104 97.12883726 59.36349196 97.13168097 47.1792277 97.12012457 C38.83377551 97.1128135 30.48836971 97.11584486 22.14292199 97.12708301 C17.32411972 97.13316919 12.50544712 97.13420964 7.68665314 97.12220573 C3.27814687 97.11128961 -1.13012897 97.11402667 -5.53862543 97.1277492 C-7.13616207 97.13025202 -8.73371634 97.1276366 -10.33123409 97.11947531 C-12.49816434 97.10911755 -14.66427563 97.11712064 -16.8311758 97.12977695 C-18.03613844 97.12950727 -19.24110108 97.12923758 -20.48257774 97.12895972 C-24.01224858 97.54605834 -25.89315845 98.27435524 -28.6509552 100.50336456 C-30.05308727 103.66342008 -29.77733515 107.07607678 -29.77958965 110.49452114 C-29.7828141 111.72904048 -29.78603855 112.96355982 -29.7893607 114.23548883 C-29.78788953 115.60765336 -29.7863218 116.97981779 -29.78466797 118.35198212 C-29.78653574 119.807926 -29.78883631 121.26386939 -29.79153329 122.71981198 C-29.79766176 126.72588278 -29.79751647 130.73193276 -29.79633892 134.73800719 C-29.79613518 139.05641289 -29.80165108 143.37481184 -29.80639648 147.69321442 C-29.81470909 156.15532778 -29.81745159 164.61743417 -29.81800886 173.07955127 C-29.81848369 179.95584497 -29.82053676 186.83213637 -29.82370949 193.70842934 C-29.83251735 213.19361712 -29.8371286 232.67879939 -29.83637901 252.16398918 C-29.83633906 253.21482339 -29.8362991 254.2656576 -29.83625793 255.34833527 C-29.83621705 256.40044872 -29.83617617 257.45256218 -29.83613405 258.53655786 C-29.83572744 275.59486527 -29.84530056 292.65315062 -29.8593963 309.71145164 C-29.87374747 327.21662609 -29.8806672 344.72178977 -29.87980253 362.22697026 C-29.87947014 372.05892783 -29.88223531 381.89086227 -29.89298058 391.72281456 C-29.90206898 400.09250224 -29.90427449 408.4621563 -29.89747115 416.83184677 C-29.89419767 421.10380464 -29.89417904 425.37569796 -29.9028244 429.64764977 C-29.91065376 433.55650147 -29.9092947 437.46523704 -29.90054027 441.37408579 C-29.8989974 442.78992789 -29.90085089 444.20577851 -29.90640035 445.62161057 C-29.91343466 447.54318437 -29.90698727 449.46479345 -29.89984417 451.38636684 C-29.90006154 452.45463016 -29.90027891 453.52289348 -29.90050286 454.62352842 C-29.63922218 457.63876626 -28.99020224 459.79924889 -27.6509552 462.50336456 C-24.25757752 465.13661337 -20.5708823 464.74604383 -16.41477966 464.73473358 C-15.68463949 464.73558702 -14.95449931 464.73644046 -14.20223367 464.73731977 C-11.75485922 464.73793388 -9.30776331 464.7244169 -6.86042786 464.71112823 C-5.1060495 464.70896698 -3.35166971 464.7077804 -1.59729004 464.70749664 C2.18138296 464.70544071 5.95998836 464.69773725 9.73864365 464.68606377 C15.71392594 464.66891996 21.68908705 464.67215124 27.66438293 464.67971039 C44.65601622 464.69890564 61.6474926 464.70554699 78.63908386 464.65790558 C88.02293505 464.63176192 97.40644212 464.63042476 106.7902962 464.65705281 C111.75608551 464.67005306 116.72112874 464.66997927 121.68685532 464.63918877 C126.3575248 464.61028567 131.02705025 464.61367403 135.69771385 464.64179611 C137.41096971 464.64629462 139.12430543 464.6388281 140.83744621 464.61846733 C153.76719764 464.47445033 153.76719764 464.47445033 157.6377449 466.99205208 C159.19722216 468.76872512 160.25932345 470.41440716 161.3490448 472.50336456 C162.20194215 473.71443929 163.06637659 474.91754631 163.94670105 476.10883331 C165.19047901 477.9049662 166.42308129 479.70790504 167.64787292 481.51703644 C170.59741246 485.76195037 173.63150221 489.14459327 178.3490448 491.50336456 C179.82103483 491.59734218 181.29722894 491.6289107 182.77221584 491.6292057 C184.17573887 491.63311732 184.17573887 491.63311732 185.60761589 491.63710797 C186.64251799 491.63487725 187.67742009 491.63264652 188.74368286 491.63034821 C190.38465914 491.63268819 190.38465914 491.63268819 192.05878645 491.63507545 C195.74922129 491.63908549 199.43961547 491.63589576 203.13005066 491.63275909 C205.76583986 491.63411314 208.4016262 491.63585673 211.03741455 491.63806915 C217.46844424 491.64252498 223.89946228 491.64155117 230.33049243 491.63865651 C235.55591645 491.63640155 240.78133719 491.63609036 246.00676155 491.63718033 C247.12075105 491.63741018 247.12075105 491.63741018 248.25724538 491.63764467 C249.76578112 491.63796439 251.27431686 491.6382886 252.7828526 491.63861726 C266.94190813 491.64147155 281.1009572 491.63818593 295.26001168 491.6328169 C307.41688989 491.62834982 319.57375856 491.62912409 331.7306366 491.63373566 C345.83618867 491.6390839 359.94173506 491.6411959 374.047288 491.63812339 C375.55069609 491.63780483 377.05410419 491.63749046 378.55751228 491.63718033 C379.29728172 491.63702605 380.03705116 491.63687178 380.79923786 491.63671283 C386.01965256 491.63584835 391.24006368 491.63730907 396.46047783 491.63965988 C402.82068018 491.64246089 409.18087018 491.64171328 415.54107111 491.63637914 C418.78796703 491.63374606 422.03483801 491.63326626 425.28173447 491.63602829 C428.79698484 491.63874374 432.31217651 491.63535371 435.8274231 491.63034821 C437.37643016 491.63369429 437.37643016 491.63369429 438.95673031 491.63710797 C439.89502007 491.63450022 440.83330983 491.63189247 441.80003262 491.6292057 C442.6119297 491.62904335 443.42382678 491.628881 444.2603268 491.62871373 C446.54429507 491.58207517 446.54429507 491.58207517 449.3490448 490.50336456 C450.26917401 486.59337587 450.47522727 482.96449886 450.47767925 478.95187378 C450.48030881 477.98056136 450.48030881 477.98056136 450.48299149 476.98962647 C450.48764838 474.81689764 450.4851868 472.64423583 450.48275757 470.47150421 C450.48462569 468.8992029 450.48692639 467.32690206 450.48962289 465.75460196 C450.495747 461.43154685 450.49560658 457.10851106 450.49442852 452.7854526 C450.49422467 448.1241849 450.49974168 443.46292344 450.50448608 438.80165863 C450.51279609 429.66924747 450.51554107 420.53684275 450.51609846 411.40442812 C450.51657337 403.9837266 450.51862686 396.56302721 450.52179909 389.14232635 C450.53060592 368.11359601 450.53521831 347.08487078 450.53446861 326.05613858 C450.53442866 324.92223389 450.5343887 323.78832921 450.53434753 322.62006378 C450.53430665 321.48477861 450.53426577 320.34949345 450.53422365 319.1798057 C450.53381697 300.77005853 450.54339196 282.3603318 450.5574859 263.95059055 C450.57183588 245.05772933 450.57875687 226.16487809 450.57789212 207.27201128 C450.57755972 196.66094379 450.58032586 186.04989773 450.59107018 175.43883514 C450.60015697 166.40675224 450.6023654 157.37470049 450.59556075 148.34261501 C450.59228657 143.7324324 450.59227117 139.12230963 450.600914 134.51213264 C450.60874018 130.29430311 450.60738759 126.07658124 450.59862987 121.85875446 C450.5970863 120.33056079 450.59894306 118.80235925 450.60448994 117.27417487 C450.61151857 115.20093698 450.60628148 113.12808005 450.59793377 111.05485535 C450.59815114 109.90207675 450.59836851 108.74929814 450.59859246 107.56158686 C450.34494215 104.45308627 449.75443565 102.27604797 448.3490448 99.50336456 C445.6257304 97.60610342 443.37676814 97.25142406 440.10295105 97.23212433 C439.27529236 97.22193771 438.44763367 97.2117511 437.59489441 97.2012558 C436.70938904 97.19911575 435.82388367 97.19697571 434.9115448 97.19477081 C433.0287291 97.16961877 431.14591667 97.14422064 429.2631073 97.11859894 C426.30055024 97.08981953 423.33804984 97.06579505 420.37541199 97.04706573 C417.51216391 97.02543209 414.64956781 96.98600395 411.7865448 96.94477081 C410.90103943 96.944655 410.01553406 96.94453918 409.10319519 96.94441986 C402.99236691 96.84593607 402.99236691 96.84593607 399.8177948 95.15546417 C397.61015813 92.67223989 397.41473859 90.78805395 397.3490448 87.50336456 C399.00463504 83.66936612 400.53323351 82.06111803 404.3490448 80.50336456 C406.36398315 80.24266815 406.36398315 80.24266815 408.51579285 80.22870636 C409.32731308 80.21917435 410.13883331 80.20964233 410.97494507 80.19982147 C411.84476517 80.20073288 412.71458527 80.20164429 413.61076355 80.20258331 C414.51599258 80.19829819 415.42122162 80.19401306 416.35388184 80.18959808 C418.26949733 80.18385916 420.18513461 80.1833513 422.10075378 80.18769073 C425.00877416 80.19083454 427.91576072 80.16744258 430.82365417 80.14203644 C432.69018936 80.13976156 434.55672726 80.13906083 436.42326355 80.14008331 C437.28296249 80.13087357 438.14266144 80.12166382 439.02841187 80.11217499 C446.56751916 80.16893867 453.96890071 81.55673657 459.7240448 86.75336456 C460.35052917 87.29477081 460.97701355 87.83617706 461.6224823 88.39398956 C465.67500135 93.34503093 466.72400868 98.24215383 466.72656822 104.51680088 C466.73310871 105.52658129 466.73310871 105.52658129 466.73978132 106.55676129 C466.75070019 108.80488151 466.74033182 111.05238358 466.72999573 113.30049896 C466.73345363 114.93156352 466.73821908 116.56262575 466.74417746 118.19368309 C466.75669884 122.66996933 466.7505119 127.14606365 466.74121881 131.62235057 C466.73443339 136.45198483 466.744907 141.28158599 466.75315857 146.11121368 C466.76650319 155.56990182 466.76361499 165.02851857 466.75492065 174.48720951 C466.74814779 182.17340124 466.74722566 189.85957296 466.7504921 197.54576683 C466.7509518 198.63935375 466.75141149 199.73294068 466.75188512 200.8596666 C466.75284429 203.08119648 466.75381693 205.30272635 466.7548029 207.52425622 C466.76335882 228.35850898 466.75351926 249.19272215 466.7374018 270.02696841 C466.72399656 287.90901286 466.72632802 305.7909989 466.74015808 323.6730423 C466.75620706 344.4338742 466.76253681 365.19467141 466.75332129 385.95550865 C466.75236563 388.16859845 466.75142252 390.38168825 466.7504921 392.59477806 C466.75002927 393.68369243 466.74956644 394.7726068 466.74908959 395.89451857 C466.7464978 403.57320469 466.75087474 411.25186882 466.75793076 418.93055153 C466.76633829 428.28573449 466.76408125 437.64084192 466.74808852 446.99601621 C466.74019606 451.77040369 466.73713086 456.54466516 466.74703598 461.31905174 C466.75596305 465.68802325 466.7510829 470.05675173 466.73510332 474.42570113 C466.73174711 476.00768534 466.73346843 477.58968999 466.74073069 479.17166109 C466.74983779 481.31999017 466.74051306 483.46748404 466.72656822 485.61576939 C466.72608117 486.8096128 466.72559411 488.00345621 466.72509229 489.2334767 C466.0698683 494.93091923 463.24763178 499.38818942 459.3490448 503.50336456 C454.2668183 507.04192414 449.77721321 508.62418149 443.6368618 508.63758564 C442.2129406 508.64427241 442.2129406 508.64427241 440.76025331 508.65109426 C439.72038794 508.6509099 438.68052256 508.65072553 437.60914612 508.65053558 C435.94851369 508.65605062 435.94851369 508.65605062 434.25433314 508.66167706 C430.53117899 508.67272203 426.80805274 508.67655914 423.08488464 508.68036652 C420.42074924 508.68663055 417.75661683 508.6932645 415.09248352 508.70027924 C407.08810485 508.72003001 399.08372494 508.73010819 391.079328 508.73900703 C387.3080229 508.74339229 383.53671919 508.74875849 379.76541519 508.7539959 C367.22543059 508.77100695 354.68544686 508.78550048 342.1454525 508.79274464 C338.89219029 508.79465447 335.63892808 508.79657481 332.38566589 508.79853058 C331.57710379 508.79901432 330.76854168 508.79949806 329.93547769 508.79999646 C316.84126126 508.80829437 303.74713626 508.83362779 290.65295975 508.86611126 C277.2033754 508.89920383 263.75383748 508.91719539 250.30421221 508.92038888 C242.7552089 508.92255196 235.20633891 508.93127102 227.65737534 508.95685005 C221.22748004 508.97858716 214.79775045 508.98659275 208.36782257 508.97688327 C205.08952643 508.97234714 201.81164231 508.97637905 198.5333786 508.99364471 C194.97224713 509.01134846 191.41197764 509.00426372 187.85084534 508.99111176 C186.31112377 509.00756562 186.31112377 509.00756562 184.74029672 509.02435189 C175.90425678 508.94577488 167.89675875 506.40497289 160.79369545 501.02129555 C159.10363119 499.24550227 158.33307822 497.61579661 157.3855896 495.35991669 C155.04848282 489.91176936 152.46038968 485.7117976 147.3490448 482.50336456 C135.97935195 479.38854472 123.57380977 480.38517528 111.89882684 480.64360166 C107.16663425 480.7297273 102.43470154 480.7170643 97.70187378 480.71477509 C88.74432627 480.72490125 79.789841 480.81961596 70.8332693 480.946742 C58.67862149 481.1153242 46.52362155 481.1651357 34.36801565 481.21728313 C31.44170217 481.22989986 28.51539105 481.24293216 25.58908081 481.25627899 C24.63978689 481.26053593 23.69049297 481.26479287 22.71243256 481.26917881 C17.08971705 481.29709379 11.46765146 481.34568803 5.84528124 481.41382229 C2.34428032 481.4558319 -1.15677631 481.49065622 -4.6578598 481.5249939 C-6.27475627 481.54299829 -7.891617 481.56466305 -9.5084095 481.59036064 C-30.79949832 481.92728383 -30.79949832 481.92728383 -38.6509552 475.50336456 C-43.88465426 470.22605134 -45.89881051 465.58645485 -45.90822411 458.1788969 C-45.914673 456.89546908 -45.92112189 455.61204125 -45.9277662 454.28972167 C-45.92482399 452.86754262 -45.92168856 451.44536397 -45.91838074 450.02318573 C-45.9221172 448.51076795 -45.92671871 446.9983521 -45.93211138 445.48593932 C-45.94435732 441.32828127 -45.94407904 437.17070358 -45.94172263 433.0130316 C-45.94131487 428.52961269 -45.95234975 424.04621968 -45.96183777 419.56281281 C-45.97845748 410.77831206 -45.98394775 401.99383816 -45.98506252 393.20932301 C-45.98601254 386.06944146 -45.9901205 378.92956877 -45.99646378 371.78969002 C-46.01407883 351.55087864 -46.02330223 331.31208849 -46.02180283 311.07326939 C-46.02172292 309.98197082 -46.021643 308.89067224 -46.02156067 307.76630402 C-46.02147891 306.67367439 -46.02139715 305.58104476 -46.02131291 304.45530514 C-46.02049993 286.74594176 -46.03963985 269.03666343 -46.0678374 251.32732465 C-46.09655591 233.14748216 -46.11037827 214.96768115 -46.10864985 196.78781539 C-46.10798559 186.57960121 -46.11349358 176.37147616 -46.13500595 166.16328239 C-46.15320415 157.47198075 -46.15757628 148.78080865 -46.1439871 140.08949622 C-46.13745057 135.65507118 -46.13736489 131.22089479 -46.1546936 126.7864933 C-46.17039921 122.72567706 -46.16758661 118.66530713 -46.15012534 114.60450194 C-46.14704988 113.13681827 -46.15070843 111.6691015 -46.16184549 110.20145687 C-46.22589428 101.16111458 -45.8779686 94.73827897 -40.04548645 87.51508331 C-33.21367 81.79659992 -25.90251238 80.03847631 -17.12774658 80.14260101 C-16.3196805 80.14003774 -15.51161441 80.13747446 -14.67906147 80.13483351 C-11.99817788 80.12993111 -9.31787001 80.14632928 -6.63703918 80.16278839 C-4.70470188 80.16363543 -2.7723636 80.16315802 -0.84002686 80.16146088 C4.38663156 80.16060251 9.61308211 80.17820268 14.83969235 80.19918275 C20.30893978 80.21797593 25.77819231 80.21970207 31.24746704 80.22325897 C41.59575876 80.23257167 51.94395504 80.257175 62.2922048 80.28730744 C74.07694005 80.32087556 85.86167993 80.33734353 97.64645112 80.35239375 C121.88070365 80.38372521 146.11486484 80.43707717 170.3490448 80.50336456 C170.3490448 71.26336456 170.3490448 62.02336456 170.3490448 52.50336456 C168.11762222 52.5100264 165.88619965 52.51668823 163.5871582 52.52355194 C142.5887913 52.58481166 121.59043617 52.62948132 100.59200001 52.65880108 C89.79572842 52.6742761 78.99952237 52.69537778 68.20329285 52.72968292 C58.79432354 52.7595658 49.38540169 52.77893495 39.97638625 52.78563005 C34.99345284 52.78954418 30.01065521 52.79875619 25.02776527 52.82055473 C20.33860675 52.84090229 15.64964007 52.84720185 10.96044159 52.84268761 C9.23870743 52.84351358 7.51696693 52.84948954 5.79527092 52.86098099 C3.44522766 52.8758982 1.09590951 52.87232128 -1.25415039 52.86412811 C-3.22724827 52.86827618 -3.22724827 52.86827618 -5.24020672 52.87250805 C-10.19476517 52.33627883 -12.65807586 50.63414382 -15.9009552 46.94086456 C-19.81437811 41.49002551 -18.91147269 35.48452499 -18.94612122 29.0102005 C-18.96328503 26.77551988 -19.00716363 24.54233835 -19.05134583 22.30805206 C-19.06147763 20.87837541 -19.06999221 19.44868621 -19.07673645 18.01898956 C-19.09131897 16.72251495 -19.10590149 15.42604034 -19.1209259 14.09027863 C-18.55434125 9.7659868 -17.502198 7.79146107 -14.6509552 4.50336456 C-9.54775294 1.05730018 -6.28274147 0.00309562 0 0 Z M-3.6509552 16.50336456 C-3.6509552 23.10336456 -3.6509552 29.70336456 -3.6509552 36.50336456 C-1.75267229 38.40164748 1.6062004 37.62888982 4.12229919 37.6292057 C4.84240063 37.63065914 5.56250207 37.63211259 6.30442476 37.63361007 C8.74802961 37.63729626 11.19157309 37.63377162 13.63517761 37.63034821 C15.39249326 37.63149899 17.14980867 37.63308623 18.90712357 37.63507545 C23.76001051 37.63927462 28.61287796 37.63717545 33.465765 37.63408923 C38.69008394 37.63183772 43.91439939 37.63531349 49.13871765 37.63806915 C59.38260312 37.64252853 69.62648129 37.64154964 79.87036705 37.63865651 C88.19175146 37.63640313 96.51313381 37.63608967 104.83451843 37.63718033 C106.01639811 37.63733356 107.19827778 37.63748679 108.41597199 37.63764467 C110.81652673 37.63796438 113.21708147 37.63828859 115.6176362 37.63861726 C138.15658965 37.64147255 160.69553904 37.63818428 183.23449183 37.6328169 C202.59689693 37.62834881 221.95929605 37.62912473 241.32170105 37.63373566 C263.77699762 37.63908057 286.23229062 37.64119785 308.68758774 37.63812339 C311.07958221 37.63780483 313.47157669 37.63749046 315.86357117 37.63718033 C317.04064644 37.63702605 318.21772171 37.63687178 319.43046594 37.63671283 C327.74711711 37.63584742 336.06376604 37.63731105 344.38041687 37.63965988 C354.50807669 37.64245716 364.63572875 37.64172115 374.76338768 37.63637914 C379.93605349 37.63374114 385.10870634 37.6327387 390.28137207 37.63602829 C395.00860729 37.63898925 399.73581745 37.63740181 404.46305037 37.63205074 C406.18106165 37.63092569 407.89907501 37.63151965 409.61708498 37.63392653 C411.93668438 37.63692909 414.25619576 37.63388754 416.57579041 37.6292057 C417.8689555 37.62904335 419.16212059 37.628881 420.4944725 37.62871373 C423.24778138 37.8297632 423.24778138 37.8297632 424.3490448 36.50336456 C424.3490448 29.90336456 424.3490448 23.30336456 424.3490448 16.50336456 C283.1090448 16.50336456 141.8690448 16.50336456 -3.6509552 16.50336456 Z M186.3490448 52.50336456 C186.3490448 61.74336456 186.3490448 70.98336456 186.3490448 80.50336456 C202.1890448 80.50336456 218.0290448 80.50336456 234.3490448 80.50336456 C234.3490448 71.26336456 234.3490448 62.02336456 234.3490448 52.50336456 C218.5090448 52.50336456 202.6690448 52.50336456 186.3490448 52.50336456 Z " fill="#fff" transform="translate(45.65095520019531,1.4966354370117188)"/>
<path d="M0 0 C0.75497821 -0.00205263 1.50995643 -0.00410527 2.28781277 -0.0062201 C4.8380508 -0.0119108 7.38823518 -0.01043031 9.93847847 -0.00901413 C11.77716577 -0.01159657 13.61585251 -0.01460939 15.45453846 -0.01801753 C20.52321207 -0.02610485 25.59187154 -0.02787806 30.66055083 -0.028615 C36.12077132 -0.03046252 41.58098441 -0.03800827 47.04120064 -0.04475021 C58.98725772 -0.0583458 70.93331145 -0.06436001 82.87937498 -0.06876087 C90.3337807 -0.07152092 97.78818511 -0.0757578 105.24258995 -0.08026505 C125.86850783 -0.09245873 146.49442466 -0.10275823 167.12034607 -0.10614014 C168.45437783 -0.10636177 169.7884096 -0.10658355 171.12244136 -0.10680549 C172.45971934 -0.10702613 173.79699733 -0.10724661 175.13427532 -0.10746694 C177.81714813 -0.10790949 180.50002094 -0.10835661 183.18289375 -0.10880661 C183.84809114 -0.108916 184.51328853 -0.10902539 185.19864341 -0.1091381 C206.77546785 -0.11277003 228.35225872 -0.12869526 249.9290703 -0.15199697 C272.73349572 -0.17657949 295.5379066 -0.19030549 318.34234631 -0.19150805 C330.77662945 -0.19242612 343.21086863 -0.19821163 355.64513969 -0.21632767 C366.23085443 -0.2316958 376.81651161 -0.23686857 387.40223537 -0.22858956 C392.8063301 -0.22467153 398.21030882 -0.22566871 403.61438942 -0.23964691 C408.55769591 -0.25231675 413.5007984 -0.25124959 418.44410433 -0.2390562 C420.23615291 -0.23708715 422.0282156 -0.24023284 423.8202443 -0.24890056 C426.24950317 -0.25991019 428.6780315 -0.25256453 431.10726929 -0.24050903 C432.15958747 -0.25190182 432.15958747 -0.25190182 433.23316461 -0.26352477 C437.93633436 -0.21287118 441.3003663 0.75231828 444.67947578 4.13142776 C444.77965972 5.93216072 444.80871627 7.73686795 444.81090355 9.54038429 C444.81474469 10.72139634 444.81858584 11.9024084 444.82254338 13.11920869 C444.8216769 14.43328097 444.82081042 15.74735324 444.81991768 17.10124588 C444.82249911 18.49827902 444.82551164 19.89531142 444.82892108 21.29234278 C444.83702048 25.1494288 444.83878228 29.00649625 444.83951855 32.86358976 C444.84136401 37.01636604 444.84890875 41.16913256 444.85565376 45.32190323 C444.86925836 54.41059723 444.87526508 63.49928684 444.87966442 72.58798933 C444.8824232 78.25839043 444.88665987 83.92878982 444.89116859 89.59918976 C444.90336393 105.28561102 444.91366279 120.9720309 444.91704369 136.6584568 C444.91726325 137.66318721 444.91748282 138.66791762 444.91770904 139.7030944 C444.91792732 140.71028729 444.91814559 141.71748018 444.91837049 142.75519407 C444.91881396 144.79629541 444.91926052 146.83739674 444.91971016 148.87849808 C444.91993159 149.89096405 444.92015302 150.90343003 444.92038116 151.94657679 C444.92433091 168.35978442 444.94178913 184.7729477 444.96506968 201.1861382 C444.98875501 218.01998085 445.00124425 234.85380122 445.0024116 251.68766081 C445.00332995 261.14626009 445.0091221 270.6048016 445.02723122 280.06338501 C445.04259422 288.11627661 445.04777524 296.16909259 445.03949311 304.22199605 C445.03557308 308.33372268 445.03658166 312.44529684 445.05055046 316.55700493 C445.06320893 320.31727103 445.06216357 324.07726884 445.04995975 327.83753414 C445.04705115 329.85042 445.05899925 331.86331015 445.07138181 333.87616003 C445.06479196 335.06238757 445.05820212 336.24861512 445.05141258 337.47078896 C445.05200967 338.49890926 445.05260676 339.52702956 445.05322194 340.58630502 C444.67947578 343.13142776 444.67947578 343.13142776 443.40622973 344.92271769 C439.52639112 347.63856497 435.4231743 347.2574399 430.81374645 347.26006222 C430.12008422 347.26181525 429.42642199 347.26356829 428.71173969 347.26537445 C426.37610057 347.27004432 424.04052343 347.26756642 421.70488167 347.26514053 C420.01794904 347.267008 418.33101685 347.26930845 416.64408535 347.27200586 C411.9995272 347.27813807 407.35498701 347.2779886 402.71042573 347.27681148 C397.7048975 347.27660783 392.6993751 347.28212274 387.69384956 347.28686905 C377.88418214 347.29518372 368.07452073 347.29792425 358.26485009 347.29848143 C350.29397206 347.29895616 342.32309602 347.30100875 334.35221863 347.30418205 C311.76812942 347.31299049 289.18404496 347.31760108 266.59995402 347.31685158 C265.38184806 347.31681162 264.16374209 347.31677167 262.90872383 347.3167305 C261.68913595 347.31668962 260.46954806 347.31664874 259.21300297 347.31660662 C239.43875576 347.31619999 219.66452757 347.32577326 199.89028586 347.33986887 C179.60076107 347.35421803 159.31124557 347.36113987 139.02171558 347.36027509 C127.62480137 347.35994264 116.22790712 347.36271087 104.83099747 347.37345314 C95.1291512 347.38253892 85.42733394 347.38474924 75.72548527 347.37794372 C70.77304109 347.37466889 65.82065261 347.3746564 60.86821365 347.38329697 C56.33762528 347.39112044 51.80713716 347.38977335 47.27655136 347.38101283 C45.63460046 347.37946865 43.99264223 347.38132829 42.35069997 347.38687291 C40.12402619 347.3938961 37.89770768 347.38866864 35.67104626 347.38031673 C34.43266823 347.3805341 33.1942902 347.38075147 31.91838557 347.38097543 C27.58004992 347.04672051 24.7706875 346.22263948 21.67947578 343.13142776 C20.99186638 336.02613054 20.99186638 336.02613054 23.28976631 333.03615189 C26.45253401 330.5152597 28.35721792 330.61529634 32.37576485 330.58552933 C33.03959175 330.57519165 33.70341866 330.56485397 34.38736153 330.55420303 C36.57352269 330.52479131 38.75875739 330.52327634 40.94510078 330.52205276 C42.46397859 330.50706985 43.98284011 330.49034246 45.50168037 330.4719429 C49.49324482 330.42826886 53.4845895 330.40827042 57.47635078 330.39320755 C61.55200381 330.37363647 65.6274195 330.33166653 69.70291328 330.29158401 C77.69503868 330.21628146 85.68707087 330.16599055 93.67947578 330.13142776 C93.46794365 329.59951828 93.25641151 329.0676088 93.03846931 328.51958084 C92.76394432 327.81254013 92.48941933 327.10549942 92.20657539 326.37703323 C91.79646469 325.33166901 91.79646469 325.33166901 91.37806892 324.26518631 C88.82455954 316.46583622 89.70122276 305.77247051 93.24197578 298.42049026 C99.92427142 287.7796608 112.011637 276.76542503 124.10135078 272.69002151 C140.13450975 269.21617041 154.6441191 277.34536093 168.81033516 283.90510941 C171.04238584 284.9383313 173.2784814 285.96233895 175.51541328 286.98494339 C182.8665309 290.35719982 190.18026894 293.80719197 197.44119453 297.36970901 C198.09071083 297.6829361 198.74022713 297.99616318 199.40942574 298.31888199 C205.17239602 301.1811588 211.70569449 305.18386517 214.67947578 311.13142776 C215.33947578 311.13142776 215.99947578 311.13142776 216.67947578 311.13142776 C218.30182093 309.31550734 219.76116611 307.39982189 221.24197578 305.46736526 C229.2583134 297.78504171 240.61808605 293.76219258 250.61697578 289.25642776 C252.18549727 288.54493579 253.75393763 287.83326495 255.32229805 287.121418 C296.14521616 268.63825887 296.14521616 268.63825887 309.92947578 273.69392776 C315.13190056 276.09375597 319.36442697 279.40346042 323.67947578 283.13142776 C324.54056953 283.84814651 325.40166328 284.56486526 326.28885078 285.30330276 C334.27891102 292.15867989 340.12147984 299.07314135 340.98025703 309.93611526 C340.99469001 311.29281495 340.99843655 312.64966669 340.99197578 314.00642776 C341.00808907 314.6754512 341.02420235 315.34447464 341.04080391 316.03377151 C341.04627475 321.71250447 339.84002053 324.3699751 337.67947578 330.13142776 C368.03947578 330.46142776 398.39947578 330.79142776 429.67947578 331.13142776 C429.67947578 227.18142776 429.67947578 123.23142776 429.67947578 16.13142776 C288.43947578 16.13142776 147.19947578 16.13142776 1.67947578 16.13142776 C1.79833146 123.61252925 1.79833146 123.61252925 1.94973946 231.09358597 C1.96328926 251.8368721 1.96328926 251.8368721 1.96580696 261.5341835 C1.96861258 268.33658305 1.97965076 275.13890928 1.99620247 281.94128799 C2.01524486 289.77880931 2.02399625 297.61625992 2.01981064 305.45380456 C2.01799661 309.46648845 2.02095224 313.47901415 2.03712118 317.4916693 C2.05163544 321.11555132 2.05250184 324.73916214 2.04217911 328.36305618 C2.04029084 330.30354892 2.0532958 332.2440382 2.0667181 334.18448544 C2.06074549 335.32988859 2.05477287 336.47529175 2.04861927 337.65540409 C2.04975843 338.64761331 2.05089759 339.63982254 2.05207127 340.66209871 C1.61679354 343.54684632 0.99195727 344.41199801 -1.32052422 346.13142776 C-4.36707989 347.17367049 -5.90847075 347.25600207 -9.00802422 346.31892776 C-11.32052422 345.13142776 -11.32052422 345.13142776 -13.32052422 343.13142776 C-13.57237321 340.71280485 -13.57237321 340.71280485 -13.57499981 337.59942341 C-13.5837481 335.82491876 -13.5837481 335.82491876 -13.59267312 334.01456553 C-13.5888938 332.7034061 -13.58511448 331.39224667 -13.58122063 330.04135513 C-13.58423856 328.64345769 -13.58812623 327.2455619 -13.59281319 325.84766906 C-13.60314819 321.99281787 -13.60089748 318.13805911 -13.5966326 314.28320014 C-13.5941753 310.13111787 -13.60316709 305.97905843 -13.61067009 301.82698441 C-13.62344695 293.68744402 -13.62520707 285.54793657 -13.62286983 277.40838785 C-13.62108984 270.79518433 -13.62282943 264.18199085 -13.62709427 257.56878853 C-13.62768946 256.62907822 -13.62828465 255.6893679 -13.62889787 254.72118152 C-13.63010957 252.81241878 -13.6313237 250.90365604 -13.63254025 248.99489331 C-13.64342729 231.0774406 -13.64124779 213.1600067 -13.6351554 195.24255293 C-13.62998516 178.83587219 -13.64124245 162.42925081 -13.66025362 146.02258182 C-13.67960572 129.19322371 -13.68789265 112.3638937 -13.68413037 95.53452438 C-13.68221433 86.07929815 -13.68474495 76.62412245 -13.69884491 67.16890526 C-13.71072626 59.11969207 -13.71220025 51.07056052 -13.70005474 43.02134628 C-13.69414312 38.91164188 -13.69312916 34.80208702 -13.70505714 30.69239235 C-13.71583904 26.9340099 -13.71290541 23.17590323 -13.69879546 19.41753411 C-13.69485799 17.40569515 -13.70575813 15.39384429 -13.71709234 13.38203341 C-13.70988579 12.19642256 -13.70267925 11.01081171 -13.69525433 9.78927326 C-13.69530934 8.76169503 -13.69536436 7.7341168 -13.69542104 6.67539984 C-13.32052422 4.13142776 -13.32052422 4.13142776 -11.98460358 2.34031242 C-8.28325678 -0.34856255 -4.35982941 -0.01092366 0 0 Z M108.67947578 304.13142776 C105.89615255 308.56951283 105.24583549 312.26943497 106.30447578 317.38142776 C108.8749912 324.39192434 111.06728544 326.88333426 117.67947578 330.13142776 C121.74041994 331.35906572 125.72874548 331.26433648 129.93631172 331.24495316 C130.76594933 331.24509918 131.59558693 331.24524521 132.45036507 331.24539566 C135.18822038 331.24469989 137.92600738 331.23692316 140.66385078 331.22908401 C142.56385448 331.22721865 144.46385865 331.2257953 146.36386299 331.2247963 C151.36155719 331.22098049 156.35922228 331.21115818 161.35690498 331.20009232 C166.45791416 331.18985807 171.55892805 331.18529436 176.65994453 331.18025589 C186.66646774 331.16953509 196.67296934 331.15246989 206.67947578 331.13142776 C206.20805841 329.844126 205.73379797 328.55786513 205.25833321 327.27205276 C204.99453362 326.55565628 204.73073402 325.8392598 204.45894051 325.10115433 C201.70178089 318.13374401 196.24154609 314.61767647 189.71072578 311.47127151 C189.01840355 311.13167908 188.32608131 310.79208664 187.61277962 310.44220352 C179.33790427 306.41964322 170.94629628 302.64715307 162.54739571 298.89241409 C159.82342482 297.67445498 157.10189176 296.45116868 154.38064766 295.22713089 C152.64054968 294.44622792 150.90032036 293.66561755 149.15994453 292.88533401 C148.35067009 292.52186371 147.54139565 292.1583934 146.70759773 291.78390884 C145.95863731 291.44943237 145.2096769 291.1149559 144.43802071 290.77034378 C143.78234612 290.47692596 143.12667152 290.18350815 142.45112801 289.88119888 C128.52783552 283.98879943 117.37101807 294.05669421 108.67947578 304.13142776 Z M281.49197578 293.31892776 C279.71189562 294.13800878 277.93179972 294.95705694 276.15095711 295.77447891 C274.91101894 296.34468591 273.67202559 296.91695159 272.43394661 297.49118423 C267.89948916 299.59092241 263.33128679 301.60018113 258.74197578 303.57674026 C256.79029524 304.42437583 254.83919908 305.27334145 252.88830757 306.12279129 C251.03762021 306.92416313 249.18147724 307.71289842 247.32522774 308.50130081 C238.63259644 312.32072546 230.69180005 316.45083481 226.67947578 325.50642776 C226.28760078 326.35978714 225.89572578 327.21314651 225.49197578 328.09236526 C224.61778195 329.92042576 224.61778195 329.92042576 224.67947578 331.13142776 C235.62389257 331.20105664 246.56825631 331.25430446 257.51284981 331.28686428 C262.59532708 331.3024944 267.67765237 331.32368418 272.76004219 331.35774612 C277.66837233 331.39043423 282.57655663 331.40830073 287.48498726 331.41605949 C289.35400881 331.42158605 291.22302272 331.43237803 293.09198189 331.44861794 C295.71767372 331.47051796 298.34276925 331.47338947 300.96853828 331.47200394 C301.73458885 331.48278976 302.50063942 331.49357559 303.28990364 331.50468826 C309.655417 331.46853938 316.34885943 330.15764393 321.05447578 325.50642776 C324.90111647 321.23823741 325.84360873 316.61609636 325.57791328 310.97517776 C323.6597885 302.00225505 314.47249409 295.4992795 307.32791328 290.47908401 C297.95308319 285.23142016 290.33281941 289.15296732 281.49197578 293.31892776 Z " fill="#fff" transform="translate(40.32052421569824,108.86857223510742)"/>
<path d="M0 0 C6.65821639 5.01744164 8.73942099 10.35826608 10.0625 18.3125 C10.40748555 21.99734568 10.56396952 25.6768062 10.6875 29.375 C10.72617187 30.33599609 10.76484375 31.29699219 10.8046875 32.28710938 C10.89788626 34.62872814 10.98369185 36.97036037 11.0625 39.3125 C11.95262283 39.18499863 12.84274567 39.05749725 13.75984192 38.9261322 C22.18703236 37.72129801 30.61583441 36.52859622 39.04662037 35.34917355 C43.3799468 34.7425368 47.71253109 34.13138205 52.04370117 33.50952148 C56.23083046 32.90851781 60.41953584 32.31987984 64.60956383 31.73944283 C66.20038445 31.51692357 67.79061041 31.29010532 69.38016701 31.05872917 C82.68418891 29.12683162 95.58291857 27.8069049 107.25390625 35.81640625 C114.02505008 41.35409693 119.62490907 48.54319531 121.0625 57.3125 C121.88047124 67.65216773 120.90455111 76.54942334 115.0625 85.3125 C115.44684607 88.29118207 116.66414879 90.68030949 118.0625 93.3125 C122.29880725 101.28672541 122.45553885 111.07659536 120.15625 119.71875 C116.04878486 130.14539227 110.27464988 136.55219077 100.0625 141.3125 C97.62151694 141.97152207 95.60299112 142.20204386 93.0625 142.3125 C93.23007812 143.06273437 93.39765625 143.81296875 93.5703125 144.5859375 C95.40527588 153.80720916 95.43050302 160.89089123 90.4375 169.0625 C86.25536345 174.8397791 80.8896193 179.14109833 74.0625 181.3125 C70.8127291 181.63806574 67.57291591 181.66419091 64.30859375 181.68359375 C63.37072525 181.69262222 62.43285675 181.7016507 61.46656799 181.71095276 C59.48889345 181.72542724 57.51117132 181.73433501 55.53344727 181.73803711 C52.50651086 181.74997432 49.48158715 181.79922081 46.45507812 181.84960938 C44.53125993 181.85906955 42.60742925 181.86630652 40.68359375 181.87109375 C39.77935165 181.89062607 38.87510956 181.91015839 37.94346619 181.93028259 C31.70909406 181.88541227 31.70909406 181.88541227 28.45727539 179.00415039 C26.55472598 175.33259302 26.97033506 173.2442938 28.0625 169.3125 C29.13964844 167.62915039 29.13964844 167.62915039 31.0625 166.3125 C33.70407186 166.005066 36.12223372 165.87151419 38.765625 165.87109375 C39.89964752 165.85128197 39.89964752 165.85128197 41.05657959 165.83106995 C43.47525644 165.79017918 45.89355597 165.76852583 48.3125 165.75 C50.71704289 165.72611381 53.12123542 165.69777746 55.52557373 165.65821838 C57.0202825 165.63411881 58.51517437 165.61905176 60.0100708 165.61460876 C65.75503241 165.52985789 71.01279921 165.04686221 75.5 161.25 C77.65919612 157.19071129 77.74143094 153.81961984 77.0625 149.3125 C75.40488726 145.41711006 73.9195217 143.90032106 70.0625 142.3125 C63.67407441 141.54075829 57.12200661 142.69762965 50.8046875 143.625 C49.3837529 143.8247644 49.3837529 143.8247644 47.93411255 144.02856445 C44.93437822 144.45069914 41.93586888 144.88078124 38.9375 145.3125 C35.93193026 145.74372763 32.92614699 146.17303507 29.91946411 146.59643555 C28.05671758 146.85884284 26.19458945 147.12569158 24.33322144 147.39770508 C23.48188629 147.51782959 22.63055115 147.6379541 21.75341797 147.76171875 C21.01445282 147.86830811 20.27548767 147.97489746 19.51412964 148.0847168 C16.37618659 148.37626602 13.213958 148.3125 10.0625 148.3125 C10.0625 164.8125 10.0625 181.3125 10.0625 198.3125 C16.4975 197.3225 16.4975 197.3225 23.0625 196.3125 C25.26635593 196.13755474 27.47673015 196.00913541 29.6875 196 C30.64914062 195.98324219 31.61078125 195.96648437 32.6015625 195.94921875 C35.0625 196.3125 35.0625 196.3125 36.83984375 197.62109375 C38.88536097 200.45083482 39.00324516 202.87571901 39.0625 206.3125 C37.75 209.125 37.75 209.125 35.0625 211.3125 C27.31441073 214.12579432 18.21134072 213.8996254 10.0625 214.3125 C10.08570313 215.2303125 10.10890625 216.148125 10.1328125 217.09375 C10.27496673 226.76023751 10.34972446 234.45346943 4.0625 242.3125 C-1.19256644 247.33908529 -5.54937005 249.342493 -12.75 249.6875 C-18.93971665 249.52926664 -24.15967964 247.87618432 -28.76171875 243.62890625 C-35.01484929 236.58845661 -36.08829467 230.29673543 -36 220.9375 C-35.99097656 219.69226563 -35.98195313 218.44703125 -35.97265625 217.1640625 C-35.96105469 216.22304688 -35.94945312 215.28203125 -35.9375 214.3125 C-37.26201172 214.23902344 -37.26201172 214.23902344 -38.61328125 214.1640625 C-58.94502506 212.89742325 -58.94502506 212.89742325 -63.6875 209.125 C-65.3517982 205.38032904 -65.02461382 203.22610975 -63.9375 199.3125 C-62.71484375 197.62109375 -62.71484375 197.62109375 -60.9375 196.3125 C-58.4765625 195.94921875 -58.4765625 195.94921875 -55.5625 196 C-54.62664062 196.00386719 -53.69078125 196.00773438 -52.7265625 196.01171875 C-47.09561634 196.45871138 -41.52047544 197.4535807 -35.9375 198.3125 C-35.9375 181.8125 -35.9375 165.3125 -35.9375 148.3125 C-40.5575 147.9825 -45.1775 147.6525 -49.9375 147.3125 C-52.99931972 146.95055176 -56.0346633 146.56909284 -59.08203125 146.12109375 C-60.68163285 145.89642904 -62.28124246 145.67182127 -63.88085938 145.44726562 C-66.32734023 145.09797935 -68.77350735 144.74660927 -71.21948242 144.39379883 C-73.63129082 144.04768073 -76.04407574 143.7091078 -78.45703125 143.37109375 C-79.17599075 143.26486191 -79.89495026 143.15863007 -80.63569641 143.04917908 C-89.91737894 141.67132784 -89.91737894 141.67132784 -98.875 143.5625 C-101.60181511 145.87616131 -102.7284264 147.95352159 -103.2734375 151.49609375 C-103.34063677 155.37349152 -103.22633812 157.76948434 -101.375 161.25 C-96.3034697 165.54129487 -90.12034238 165.58758368 -83.73828125 165.55078125 C-82.18423589 165.56618441 -80.63019924 165.58248679 -79.07617188 165.59960938 C-76.65336739 165.61611786 -74.2312063 165.6249455 -71.80834961 165.61791992 C-69.45093366 165.61530348 -67.09544011 165.64336341 -64.73828125 165.67578125 C-64.0153035 165.66557449 -63.29232574 165.65536774 -62.54743958 165.64485168 C-58.80825319 165.71760045 -57.22562754 166.04498325 -54.44604492 168.62573242 C-52.38781926 172.29149928 -52.82932456 174.32306842 -53.9375 178.3125 C-55.48746256 180.32031719 -56.35718357 181.1936569 -58.86341858 181.70690918 C-59.59048508 181.71532837 -60.31755157 181.72374756 -61.06665039 181.73242188 C-61.89503922 181.74833374 -62.72342804 181.76424561 -63.57691956 181.78063965 C-64.47063766 181.78084106 -65.36435577 181.78104248 -66.28515625 181.78125 C-67.2116246 181.78886353 -68.13809296 181.79647705 -69.09263611 181.80432129 C-71.05709135 181.81513354 -73.02160413 181.81797084 -74.98608398 181.81347656 C-77.96503474 181.81251133 -80.9413479 181.85397011 -83.91992188 181.8984375 C-103.8466113 182.02583969 -103.8466113 182.02583969 -112.04467773 174.3359375 C-117.69750255 168.47274345 -120.99443987 161.56878056 -120.9375 153.3125 C-120.44684881 149.60317701 -119.74968381 145.96397102 -118.9375 142.3125 C-119.88625 142.27125 -120.835 142.23 -121.8125 142.1875 C-129.11438981 141.09369464 -135.19322477 136.6532108 -139.8125 131.0625 C-146.46753954 121.5912617 -148.20366935 112.88181212 -146.9375 101.3125 C-145.62107481 96.46510259 -143.71568164 92.47977246 -140.9375 88.3125 C-141.17445638 84.16576338 -143.06726754 80.86568895 -145 77.27734375 C-148.64276252 69.64272063 -147.97472805 59.44788345 -145.5 51.5625 C-141.94545286 43.07664451 -135.43894378 36.22542108 -127.16796875 32.2109375 C-114.14635125 26.9658026 -99.83957073 30.46191665 -86.3515625 32.37890625 C-84.9143126 32.57966642 -83.47700463 32.78001131 -82.03964233 32.97996521 C-78.30739792 33.50027324 -74.57595441 34.02611189 -70.84466553 34.55322266 C-67.01671538 35.09295022 -63.18801241 35.62728286 -59.359375 36.16210938 C-51.88468201 37.20704773 -44.41082918 38.25784704 -36.9375 39.3125 C-36.92291748 38.69842285 -36.90833496 38.0843457 -36.89331055 37.45166016 C-36.81788055 34.61304015 -36.72154224 31.77547742 -36.625 28.9375 C-36.60244141 27.97199219 -36.57988281 27.00648438 -36.55664062 26.01171875 C-36.20998462 16.62049244 -34.94557473 8.00202588 -27.9375 1.3125 C-19.46974657 -4.72757182 -8.94410481 -5.64735213 0 0 Z M-17.9375 14.3125 C-19.70162997 17.91366111 -20.18556685 20.80935168 -20.16796875 24.796875 C-20.16603516 25.81394531 -20.16410156 26.83101562 -20.16210938 27.87890625 C-20.14986328 28.92949219 -20.13761719 29.98007813 -20.125 31.0625 C-20.12435547 32.12855469 -20.12371094 33.19460937 -20.12304688 34.29296875 C-20.55487477 39.15128525 -20.55487477 39.15128525 -18.9375 43.3125 C-16.93950428 43.41123816 -14.93792842 43.44221799 -12.9375 43.4375 C-11.844375 43.44007813 -10.75125 43.44265625 -9.625 43.4453125 C-7.01919646 43.61797755 -7.01919646 43.61797755 -5.9375 42.3125 C-5.65592891 38.59106873 -5.7056217 34.85580554 -5.6875 31.125 C-5.666875 30.08279297 -5.64625 29.04058594 -5.625 27.96679688 C-5.59662055 22.38668668 -5.60262674 18.04817921 -8.9375 13.3125 C-12.4968441 11.85225627 -14.85586775 11.97471002 -17.9375 14.3125 Z M-124.7890625 49.9296875 C-129.56963377 55.41674714 -131.35325073 59.52745044 -131.19140625 66.83203125 C-130.84367416 70.22910626 -129.92536212 72.54369204 -127.9375 75.3125 C-124.98829377 76.69494042 -124.09819966 76.36606655 -120.9375 75.3125 C-104.60534992 73.9524608 -88.31128614 77.08372375 -72.20843506 79.48455811 C-67.77332793 80.14315 -63.33579671 80.78517711 -58.89843655 81.42838287 C-55.45604586 81.92747165 -52.01415224 82.4293479 -48.57350159 82.94030762 C-47.3504985 83.12049438 -46.12749542 83.30068115 -44.86743164 83.48632812 C-43.79143204 83.64621216 -42.71543243 83.80609619 -41.60682678 83.9708252 C-38.8900639 84.37598225 -38.8900639 84.37598225 -35.9375 84.3125 C-35.9375 75.0725 -35.9375 65.8325 -35.9375 56.3125 C-50.83430751 53.53141167 -65.80325481 51.44569532 -80.81652832 49.39801025 C-83.50643 49.03008382 -86.19577669 48.65818562 -88.88512993 48.28627491 C-92.10802155 47.84104887 -95.33136373 47.39911611 -98.5546875 46.95703125 C-100.35448563 46.70866264 -100.35448563 46.70866264 -102.19064331 46.45527649 C-103.8498027 46.22955208 -103.8498027 46.22955208 -105.54248047 45.99926758 C-106.51490692 45.86619705 -107.48733337 45.73312653 -108.48922729 45.59602356 C-114.36730029 44.9153101 -120.22873633 45.9466178 -124.7890625 49.9296875 Z M68.44140625 47.26953125 C66.84882255 47.49557349 65.25603949 47.72021509 63.66307068 47.94352722 C59.49788163 48.53159154 55.33591688 49.14004284 51.17425537 49.75250244 C47.76880106 50.25010791 44.36133909 50.73302418 40.95367527 51.21522999 C36.88639486 51.79102067 32.82001235 52.37301107 28.75390625 52.95703125 C27.97980471 53.0681254 27.20570316 53.17921955 26.408144 53.29368019 C24.22285147 53.60890368 22.03821253 53.92828225 19.85375977 54.24926758 C18.61151138 54.4307283 17.369263 54.61218903 16.08937073 54.79914856 C13.02829833 55.23881944 13.02829833 55.23881944 10.0625 56.3125 C10.0625 65.5525 10.0625 74.7925 10.0625 84.3125 C21.59596487 82.91919552 33.10476194 81.46876159 44.59765625 79.77734375 C46.4819828 79.5031967 48.36634185 79.22927304 50.25073242 78.95556641 C53.06582044 78.54664068 55.87996188 78.1337465 58.69229126 77.70623779 C72.67060669 75.58312862 87.02335627 73.58457328 101.0625 76.3125 C104.78418039 71.61994647 105.4702876 67.83350134 105.41015625 61.94921875 C104.69033236 56.48988023 101.5008933 52.87418415 97.875 48.9375 C88.61465505 43.58707847 78.4723009 45.76969338 68.44140625 47.26953125 Z M-19.9375 59.3125 C-19.9375 67.8925 -19.9375 76.4725 -19.9375 85.3125 C-10.87869467 86.78711953 -10.87869467 86.78711953 -5.9375 85.3125 C-5.9375 76.7325 -5.9375 68.1525 -5.9375 59.3125 C-10.5575 59.3125 -15.1775 59.3125 -19.9375 59.3125 Z M-127.53125 97.07421875 C-131.28745166 102.21812824 -131.89019631 107.08333185 -130.9375 113.3125 C-128.88891371 119.02697756 -125.42354087 122.80788601 -120.24609375 125.94140625 C-116.36221292 127.55090114 -113.50203299 127.64645858 -109.3125 127.5625 C-108.02085937 127.54703125 -106.72921875 127.5315625 -105.3984375 127.515625 C-102.17255805 127.441199 -102.17255805 127.441199 -100.05737305 126.81542969 C-88.30449184 124.02711513 -74.69373047 127.56123188 -63 129.3125 C-60.08238469 129.74388148 -57.16442531 130.17254337 -54.24571228 130.59643555 C-52.44306362 130.85877605 -50.64106245 131.12561889 -48.83985901 131.39770508 C-48.02137985 131.51782959 -47.2029007 131.6379541 -46.35961914 131.76171875 C-45.29258507 131.92160278 -45.29258507 131.92160278 -44.20399475 132.0847168 C-41.46126698 132.36036152 -38.69404415 132.3125 -35.9375 132.3125 C-35.9375 121.7525 -35.9375 111.1925 -35.9375 100.3125 C-51.0732059 97.92747968 -66.2220641 95.64251181 -81.39022827 93.47344971 C-83.28019568 93.20186105 -85.16971539 92.92713635 -87.05874634 92.64910889 C-108.90946812 88.16956042 -108.90946812 88.16956042 -127.53125 97.07421875 Z M63.71484375 92.24609375 C62.28579022 92.44619518 60.85663442 92.64556746 59.42738342 92.84425354 C56.46097706 93.2584096 53.49544844 93.67819467 50.53051758 94.1027832 C46.73550502 94.64621686 42.93920521 95.17990081 39.14231014 95.71000576 C35.49938332 96.21893215 31.85707075 96.73218638 28.21484375 97.24609375 C27.18077046 97.39158063 27.18077046 97.39158063 26.12580681 97.54000664 C24.17590249 97.81524061 22.22648889 98.09394434 20.27709961 98.37280273 C19.1704747 98.53046616 18.06384979 98.68812958 16.9236908 98.85057068 C13.85271763 99.30487093 13.85271763 99.30487093 10.0625 100.3125 C10.0625 110.8725 10.0625 121.4325 10.0625 132.3125 C20.95960553 131.48906989 20.95960553 131.48906989 31.75 130.12109375 C33.28902272 129.89621197 34.8280865 129.67161103 36.3671875 129.44726562 C38.7170479 129.0997821 41.06639439 128.74941035 43.41503906 128.39379883 C66.89526544 124.85806236 66.89526544 124.85806236 76.0625 127.3125 C78.51801985 127.45661629 80.97793102 127.53304408 83.4375 127.5625 C85.36722656 127.60117187 85.36722656 127.60117187 87.3359375 127.640625 C93.85252867 127.0668371 97.86336179 124.19257955 102.0625 119.3125 C105.28750188 114.41939369 105.93175701 110.02062104 105.0625 104.3125 C103.0321148 98.12309996 99.83468518 94.59599478 94.26817322 91.2263031 C85.41396599 87.55803441 72.88399706 90.92088697 63.71484375 92.24609375 Z M-19.9375 101.3125 C-19.9375 112.8625 -19.9375 124.4125 -19.9375 136.3125 C-10.87869467 137.78711953 -10.87869467 137.78711953 -5.9375 136.3125 C-5.9375 124.7625 -5.9375 113.2125 -5.9375 101.3125 C-10.5575 101.3125 -15.1775 101.3125 -19.9375 101.3125 Z M-19.9375 152.3125 C-19.9375 161.5525 -19.9375 170.7925 -19.9375 180.3125 C-10.87869467 181.78711953 -10.87869467 181.78711953 -5.9375 180.3125 C-5.9375 171.0725 -5.9375 161.8325 -5.9375 152.3125 C-10.5575 152.3125 -15.1775 152.3125 -19.9375 152.3125 Z M-19.9375 196.3125 C-20.00653966 200.63642847 -20.06621715 204.9584293 -20.10229492 209.2824707 C-20.11734066 210.75193782 -20.13778238 212.22136034 -20.16381836 213.69067383 C-20.20038955 215.8082177 -20.21726801 217.92516565 -20.23046875 220.04296875 C-20.2461792 221.31551514 -20.26188965 222.58806152 -20.27807617 223.89916992 C-19.91191845 227.56888397 -19.21033776 229.43521602 -16.9375 232.3125 C-14.03398876 233.47698881 -14.03398876 233.47698881 -10.9375 233.3125 C-7.77001366 231.60034522 -7.09171464 230.77514391 -5.9375 227.3125 C-5.85352843 224.95569787 -5.83021813 222.59655919 -5.83984375 220.23828125 C-5.8412587 219.5544487 -5.84267365 218.87061615 -5.84413147 218.1660614 C-5.84972124 215.98566278 -5.86227178 213.80536749 -5.875 211.625 C-5.88001633 210.14518378 -5.884579 208.66536594 -5.88867188 207.18554688 C-5.8988357 203.56112624 -5.9184129 199.93692856 -5.9375 196.3125 C-10.5575 196.3125 -15.1775 196.3125 -19.9375 196.3125 Z " fill="#fff" transform="translate(268.9375,150.6875)"/>
<path d="M0 0 C0.76469101 -0.00700928 1.52938202 -0.01401855 2.31724548 -0.02124023 C4.84142521 -0.03882538 7.36448103 -0.02719636 9.88867188 -0.01367188 C11.64457413 -0.01636666 13.40047493 -0.02024896 15.15637207 -0.02526855 C18.83502419 -0.03116428 22.51328761 -0.02259843 26.19189453 -0.00390625 C30.90663848 0.01888356 35.62047166 0.00576085 40.33518219 -0.01819611 C43.96062072 -0.0326522 47.58584341 -0.02804901 51.21128845 -0.01768494 C52.94962166 -0.01501712 54.68797448 -0.01828937 56.42628479 -0.02760315 C58.85633221 -0.03776594 61.28490607 -0.02227319 63.71484375 0 C64.79190834 -0.01214539 64.79190834 -0.01214539 65.89073181 -0.02453613 C69.24966057 0.03248417 71.07444567 0.30779929 73.80383301 2.33117676 C76.07861344 5.53252761 75.90432495 7.68925659 75.35742188 11.51757812 C73.13879158 14.42474885 71.83797259 15.35739455 68.35742188 16.51757812 C66.04367382 16.62267946 63.72698923 16.66627904 61.41088867 16.67871094 C60.7080777 16.68367584 60.00526672 16.68864075 59.28115845 16.6937561 C56.9563092 16.70835937 54.63152821 16.71517699 52.30664062 16.72070312 C50.68862405 16.72645653 49.07060749 16.73221424 47.45259094 16.73797607 C44.05896691 16.74848114 40.66536652 16.75432689 37.27172852 16.7578125 C32.93062407 16.76329318 28.58983391 16.787314 24.24882793 16.81578445 C20.90559486 16.8344416 17.56243699 16.83961809 14.21915627 16.84114838 C12.61922298 16.844169 11.01929084 16.85217758 9.4194088 16.86533356 C7.17674485 16.88245729 4.93484212 16.88049869 2.69213867 16.87402344 C0.78044136 16.87949188 0.78044136 16.87949188 -1.1698761 16.8850708 C-4.974739 16.48242778 -7.39790457 15.51456356 -10.64257812 13.51757812 C-12.18844688 10.42584061 -11.93617334 7.9232826 -11.64257812 4.51757812 C-8.48879356 0.02947128 -5.12200778 -0.05775769 0 0 Z " fill="#fff" transform="translate(380.642578125,466.482421875)"/>
<path d="M0 0 C2.9375 2.0625 2.9375 2.0625 5 5 C5.3125 8.8125 5.3125 8.8125 5 12 C6.60875 11.9071875 6.60875 11.9071875 8.25 11.8125 C12 12 12 12 14.375 13.0625 C16.83289714 15.99306967 17 18.22089384 17 22 C15.23358828 24.80189446 13.96950178 26.51524911 11 28 C9.00039988 28.039992 6.99952758 28.04346799 5 28 C5.12375 29.3303125 5.12375 29.3303125 5.25 30.6875 C4.94097242 34.78211541 3.95769094 36.20218425 1 39 C-2.47454134 40.46296477 -3.72080658 40.11275119 -7.25 38.6875 C-10 37 -10 37 -11 35 C-11.04022391 32.6670134 -11.04320247 30.33293334 -11 28 C-11.886875 28.061875 -12.77375 28.12375 -13.6875 28.1875 C-17.37829746 27.97858694 -19.06364264 27.18129404 -22 25 C-23.42662219 22.14675563 -23.31033868 20.16545451 -23 17 C-21.5 14.125 -21.5 14.125 -19 12 C-16.19811145 11.57757787 -13.8580389 11.76183009 -11 12 C-11.12375 10.14375 -11.12375 10.14375 -11.25 8.25 C-11.23373935 5.19299695 -11.10738813 4.171821 -9.4375 1.5 C-6.00863886 -0.61006839 -3.95779649 -0.62491523 0 0 Z " fill="#fff" transform="translate(437,141)"/>
<path d="M0 0 C1.91015625 0.4453125 1.91015625 0.4453125 4.47265625 2.5078125 C6.3464113 6.33679022 6.03978326 8.37865526 4.91015625 12.4453125 C3.34113991 14.79883701 2.23678215 15.32172432 -0.40234375 16.3203125 C-4.01741189 16.4884552 -6.04247407 15.31528935 -9.08984375 13.4453125 C-10.63571251 10.35357498 -10.38343896 7.85101698 -10.08984375 4.4453125 C-7.53315462 0.29069266 -4.61630624 -0.25885829 0 0 Z " fill="#fff" transform="translate(239.08984375,466.5546875)"/>
<path d="M0 0 C2.73883355 1.59029045 2.94967699 2.83465297 3.875 5.875 C4.02797399 9.6993498 3.48896378 11.10959044 1 14 C-2.34708903 15.67354451 -4.09775482 16.2255613 -7.75 15.3125 C-10 14 -10 14 -12 11 C-12.41857482 7.16306413 -12.54644269 4.88796936 -10.5 1.5625 C-6.75107996 -0.78057502 -4.38964238 -0.48773804 0 0 Z " fill="#fff" transform="translate(270,467)"/>
<path d="M0 0 C2.49518108 1.52930453 2.87047343 2.62138387 3.8125 5.375 C4.03578841 8.50103781 3.42252752 10.22981483 2 13 C-0.42520546 15.42520546 -1.62067741 15.68564441 -5 16 C-8.09653751 15.0638375 -9.70423322 14.29576678 -12 12 C-12.66666667 5.11111111 -12.66666667 5.11111111 -10.5 1.5 C-6.74351164 -0.75389302 -4.35420619 -0.48380069 0 0 Z " fill="#fff" transform="translate(299,467)"/>
<path d="M0 0 C2.2051188 2.91075681 2.0020449 5.33555769 1.99609375 8.90625 C1.46652447 11.53978371 0.6550109 12.42378664 -1.4375 14.0625 C-4.48405567 15.10474273 -6.02544654 15.1870743 -9.125 14.25 C-11.4375 13.0625 -11.4375 13.0625 -13.4375 11.0625 C-13.93359528 8.02247427 -13.87817049 5.10814668 -13.4375 2.0625 C-10.14149863 -2.28822181 -4.75725006 -1.82971156 0 0 Z " fill="#fff" transform="translate(483.4375,467.9375)"/>
</svg>
