<?xml version="1.0" encoding="UTF-8"?>
<svg version="1.1" xmlns="http://www.w3.org/2000/svg" width="512" height="512">
<path d="M0 0 C0.79462646 0.00491455 1.58925293 0.0098291 2.40795898 0.01489258 C8.41408877 0.13458551 13.65676227 0.83981616 19.1875 3.3125 C19.89390625 3.61800781 20.6003125 3.92351562 21.328125 4.23828125 C31.9915164 9.51244067 40.84333382 18.95138773 49.515625 26.921875 C52.1359063 29.26633722 54.82191324 31.48552567 57.5625 33.6875 C62.3589071 37.55468863 66.8579146 41.66230716 71.35107422 45.87060547 C74.69831785 48.98789336 78.11745906 51.94816482 81.6875 54.8125 C85.8541621 58.15551959 89.79169812 61.66365137 93.6875 65.3125 C97.60433636 68.98075794 101.56512939 72.50903933 105.75 75.875 C127.56638137 93.53892225 127.56638137 93.53892225 130.1875 108.3125 C130.38452078 112.25291551 130.2158202 115.52828165 129.1875 119.3125 C130.39082474 119.30361755 131.59414948 119.29473511 132.8339386 119.2855835 C144.20603914 119.20429402 155.57808029 119.14443698 166.95040607 119.10525131 C172.79624407 119.0844279 178.64184642 119.05620614 184.48754883 119.01074219 C190.13506048 118.96709737 195.78234629 118.94332348 201.43001366 118.93299103 C203.57846821 118.92563305 205.72691122 118.91126503 207.87526894 118.88957977 C232.0400685 118.65549127 232.0400685 118.65549127 241.5625 125.5 C248.56884748 133.00680087 250.62752416 140.56765638 250.5234375 150.6640625 C249.75899719 158.9662398 245.70603924 164.49150752 239.54296875 169.83984375 C231.5738298 174.82220757 224.36781144 174.68903492 215.1875 174.5 C213.93582031 174.48646484 212.68414062 174.47292969 211.39453125 174.45898438 C208.32506884 174.42383786 205.25651491 174.37463226 202.1875 174.3125 C202.20844727 174.9830542 202.22939453 175.6536084 202.25097656 176.34448242 C202.33436027 179.3961678 202.38623016 182.44761317 202.4375 185.5 C202.48777344 187.08264648 202.48777344 187.08264648 202.5390625 188.69726562 C202.63698791 196.45785441 202.63698791 196.45785441 200.484375 200.55078125 C198.1875 202.3125 198.1875 202.3125 193.1875 202.3125 C193.1875 219.1425 193.1875 235.9725 193.1875 253.3125 C195.1675 253.3125 197.1475 253.3125 199.1875 253.3125 C201.52441406 254.68652344 201.52441406 254.68652344 203.1875 257.3125 C203.78988095 260.64896089 203.79246066 263.94435345 203.796875 267.328125 C203.81341125 268.29909119 203.82994751 269.27005737 203.84698486 270.27044678 C203.89552119 273.36786183 203.91684857 276.46478573 203.9375 279.5625 C203.96565493 281.66408729 203.99558168 283.76565164 204.02734375 285.8671875 C204.1012819 291.01558458 204.15082229 296.16370808 204.1875 301.3125 C204.82790222 301.60593292 205.46830444 301.89936584 206.12811279 302.20169067 C208.1875 303.3125 208.1875 303.3125 209.13769531 305.08544922 C209.34491211 305.79717285 209.55212891 306.50889648 209.765625 307.2421875 C210.00345703 308.0475293 210.24128906 308.85287109 210.48632812 309.68261719 C210.71771484 310.55047852 210.94910156 311.41833984 211.1875 312.3125 C211.42404297 313.1984082 211.66058594 314.08431641 211.90429688 314.99707031 C212.62082439 317.80264272 213.28527394 320.61633284 213.9375 323.4375 C214.17082031 324.38753906 214.40414063 325.33757812 214.64453125 326.31640625 C215.86765627 331.59708374 216.66159882 335.95846185 215.1875 341.3125 C214.11778259 342.97424316 214.11778259 342.97424316 212.1875 344.3125 C209.53960735 344.61885893 207.12462249 344.74291087 204.47485352 344.73242188 C203.69080139 344.74089142 202.90674927 344.74936096 202.09893799 344.75808716 C199.50459619 344.78150514 196.91084579 344.7824782 194.31640625 344.78125 C192.51423402 344.78834875 190.71206407 344.79604732 188.90989685 344.80432129 C185.13119221 344.81777715 181.35269653 344.81932996 177.57397461 344.81347656 C172.73020266 344.80757969 167.88743278 344.83816587 163.04385471 344.87859344 C159.32149346 344.90443627 155.59937456 344.90735098 151.87693596 344.90370178 C150.09112975 344.90539628 148.30531274 344.91507046 146.51959419 344.93284607 C144.0222267 344.95496917 141.52690118 344.94536965 139.02954102 344.92773438 C138.29122543 344.94099762 137.55290985 344.95426086 136.79222107 344.96792603 C132.98258463 344.905379 131.48662565 344.60438167 128.71443176 341.89932251 C127.12205997 339.20163602 126.74187662 338.31590358 127.2578125 335.3046875 C127.38575195 334.52706055 127.51369141 333.74943359 127.64550781 332.94824219 C127.91379395 331.6435498 127.91379395 331.6435498 128.1875 330.3125 C128.38956055 329.31637695 128.59162109 328.32025391 128.79980469 327.29394531 C129.50811227 323.99616909 130.27694268 320.71768082 131.0625 317.4375 C131.31902344 316.31085938 131.57554687 315.18421875 131.83984375 314.0234375 C132.09636719 312.94578125 132.35289062 311.868125 132.6171875 310.7578125 C132.84647949 309.78344238 133.07577148 308.80907227 133.31201172 307.80517578 C134.50567947 304.40658468 136.00254923 302.90497538 139.1875 301.3125 C139.20151855 299.34458496 139.20151855 299.34458496 139.21582031 297.33691406 C139.25569661 292.46873029 139.32144913 287.60118005 139.39501953 282.73339844 C139.42324279 280.6267104 139.44445056 278.5199162 139.45849609 276.41308594 C139.47990661 273.3842122 139.5265476 270.35661669 139.578125 267.328125 C139.57935364 266.38632385 139.58058228 265.44452271 139.58184814 264.47418213 C139.72589159 258.04136965 139.72589159 258.04136965 141.85058594 254.68652344 C144.1875 253.3125 144.1875 253.3125 150.1875 253.3125 C150.1875 236.4825 150.1875 219.6525 150.1875 202.3125 C148.5375 202.3125 146.8875 202.3125 145.1875 202.3125 C141.1875 197.3125 141.1875 197.3125 141.1875 174.3125 C99.6075 174.3125 58.0275 174.3125 15.1875 174.3125 C23.83404726 197.95421327 23.83404726 197.95421327 32.71508789 221.50317383 C34.37678319 225.83463876 36.02955756 230.16951212 37.68359375 234.50390625 C38.03537689 235.42539459 38.38716003 236.34688293 38.74960327 237.29629517 C43.12348169 248.75764436 47.47802554 260.22630162 51.8196106 271.69992065 C52.72989589 274.10397309 53.64141104 276.50756022 54.5541687 278.91067505 C55.83090737 282.27260852 57.10347491 285.63609186 58.375 289 C58.95502525 290.52348305 58.95502525 290.52348305 59.54676819 292.07774353 C59.89613937 293.00470535 60.24551056 293.93166718 60.60546875 294.88671875 C60.91250732 295.69713623 61.2195459 296.50755371 61.53588867 297.3425293 C62.1875 299.3125 62.1875 299.3125 62.1875 301.3125 C62.87714844 301.33828125 63.56679687 301.3640625 64.27734375 301.390625 C74.45507676 302.0049189 82.71959266 305.22271455 90.1875 312.3125 C96.6467586 320.05776484 99.44203892 328.05041143 99.68359375 338.05078125 C98.97828014 341.26634489 97.78789005 342.30374312 95.1875 344.3125 C92.50196371 344.70227964 90.22747262 344.85032773 87.54492188 344.81420898 C86.39788536 344.82231346 86.39788536 344.82231346 85.22767639 344.83058167 C82.70347218 344.84307483 80.18040729 344.82657493 77.65625 344.80859375 C75.90034933 344.80874873 74.14444831 344.81023746 72.3885498 344.81300354 C68.70988835 344.81438779 65.03161666 344.8018253 61.35302734 344.77905273 C56.63839822 344.7506679 51.92441673 344.75340501 47.20973969 344.76614285 C43.58431469 344.77309888 39.95903931 344.76531163 36.33363342 344.75288582 C34.59530715 344.74837058 32.85696481 344.74803516 31.11863708 344.75195122 C28.68878273 344.75486274 26.25981982 344.73836014 23.83007812 344.71655273 C23.11203506 344.72105438 22.393992 344.72555603 21.65419006 344.73019409 C18.70791352 344.68627447 16.49903162 344.47056444 13.85374451 343.12840271 C11.75092112 340.83670862 10.92485315 338.78645554 9.88500977 335.85400391 C9.48101456 334.73498688 9.07701935 333.61596985 8.66078186 332.46304321 C8.23776291 331.25062958 7.81474396 330.03821594 7.37890625 328.7890625 C6.92694879 327.52369961 6.47379812 326.25876234 6.01951599 324.99423218 C4.82482726 321.65932578 3.64544529 318.31920917 2.46948242 314.97766113 C1.05387055 310.96355844 -0.37904307 306.95561054 -1.80980778 302.94688988 C-2.92671829 299.81664025 -4.04015563 296.68531367 -5.14683533 293.55142212 C-7.9069999 285.75160263 -10.80378369 278.01974386 -13.8125 270.3125 C-15.09882054 274.38619443 -16.3812734 278.46104411 -17.65771484 282.5378418 C-18.0927045 283.92439162 -18.52921763 285.31046445 -18.96728516 286.69604492 C-19.5967914 288.68805392 -20.2207939 290.68171559 -20.84375 292.67578125 C-21.22080078 293.87501221 -21.59785156 295.07424316 -21.98632812 296.30981445 C-22.94514292 299.27553983 -22.94514292 299.27553983 -22.8125 302.3125 C-22.20664063 302.49683594 -21.60078125 302.68117188 -20.9765625 302.87109375 C-11.57377187 306.12590589 -4.31065643 311.72345116 0.25 320.6875 C2.40755581 325.52472476 3.38612793 329.49047922 3.5 334.8125 C3.55607422 336.52953125 3.55607422 336.52953125 3.61328125 338.28125 C3.1875 341.3125 3.1875 341.3125 1.74755859 342.97669983 C-2.15704974 345.01406588 -5.85653654 344.7383782 -10.19921875 344.71655273 C-11.1492276 344.72341599 -12.09923645 344.73027924 -13.07803345 344.73735046 C-16.21884091 344.75565461 -19.35915064 344.75177611 -22.5 344.74609375 C-24.68188643 344.75065347 -26.86377141 344.75595842 -29.0456543 344.76197815 C-33.6187117 344.77091612 -38.19159452 344.76847785 -42.76464844 344.75854492 C-48.62945352 344.7470485 -54.49365713 344.76727395 -60.35838318 344.79646206 C-64.86393063 344.81479282 -69.36933308 344.81453792 -73.87490845 344.80882454 C-76.03749435 344.80867097 -78.20008986 344.81474425 -80.36264038 344.82711601 C-83.38407334 344.84196672 -86.40438382 344.83139258 -89.42578125 344.81420898 C-90.32148834 344.82387695 -91.21719543 344.83354492 -92.14004517 344.84350586 C-95.89433163 344.79871642 -98.15912681 344.71509613 -101.39916992 342.71864319 C-103.72030156 338.76700078 -103.28659592 335.44060668 -102.30848694 331.05010223 C-101.59744556 328.38792876 -100.81126085 325.757984 -100.00195312 323.12402344 C-99.70268921 322.12273911 -99.40342529 321.12145477 -99.09509277 320.08982849 C-98.10371154 316.78104301 -97.0987745 313.47653946 -96.09375 310.171875 C-95.39461236 307.84785218 -94.69634417 305.52356765 -93.99890137 303.19903564 C-92.15599283 297.06495322 -90.3016668 290.934381 -88.44482422 284.80450439 C-86.58690029 278.6646026 -84.73898388 272.52169294 -82.890625 266.37890625 C-80.47244828 258.34402895 -78.05082198 250.31022201 -75.62175751 242.2786293 C-74.34586058 238.05488465 -73.07603382 233.82932217 -71.80581665 229.60386658 C-70.75075405 226.10790407 -69.68478069 222.61535769 -68.61889648 219.12268066 C-67.89601718 216.73194424 -67.1734345 214.34111811 -66.45117188 211.95019531 C-66.11640083 210.86257275 -65.78162979 209.77495018 -65.43671417 208.65436935 C-62.61567885 199.26337299 -60.82572584 189.84862947 -60.1875 180.0625 C-60.11273438 178.96421875 -60.03796875 177.8659375 -59.9609375 176.734375 C-59.91195312 175.93515625 -59.86296875 175.1359375 -59.8125 174.3125 C-61.15828125 174.33606567 -61.15828125 174.33606567 -62.53125 174.36010742 C-65.89345196 174.41155641 -69.2552292 174.4490042 -72.61767578 174.47729492 C-74.06663661 174.49228417 -75.51555283 174.51268271 -76.96435547 174.53881836 C-88.70581557 174.7451638 -96.91278608 174.02712363 -105.82421875 165.53125 C-111.70059981 158.97371671 -112.46942104 152.33397329 -112.19921875 143.6875 C-111.35797191 136.34570935 -108.15327711 130.42106941 -102.8125 125.3125 C-96.63116711 121.60370027 -91.04052629 119.30394015 -83.828125 118.99609375 C-82.89355469 118.95419922 -81.95898438 118.91230469 -80.99609375 118.86914062 C-80.02800781 118.82982422 -79.05992188 118.79050781 -78.0625 118.75 C-77.07894531 118.70681641 -76.09539062 118.66363281 -75.08203125 118.61914062 C-72.65898725 118.51327948 -70.2358446 118.41119829 -67.8125 118.3125 C-67.54576477 117.28234772 -67.27902954 116.25219543 -67.00421143 115.19082642 C-64.48113729 105.45006279 -61.95112084 95.71112515 -59.41441727 85.97390175 C-58.11071111 80.9686794 -56.80940016 75.9628605 -55.51367188 70.95556641 C-54.26152403 66.11705864 -53.00294266 61.28026532 -51.74001312 56.444561 C-51.26095111 54.60572467 -50.78415207 52.76629713 -50.30973053 50.92625809 C-43.73813443 25.45462715 -43.73813443 25.45462715 -35.8125 16.3125 C-35.23757812 15.631875 -34.66265625 14.95125 -34.0703125 14.25 C-25.19068706 4.52294143 -13.00965581 -0.09510184 0 0 Z M-24.8125 26.3125 C-29.42759695 32.38810572 -31.36975386 38.68001459 -33.25 46 C-33.56710938 47.19157715 -33.88421875 48.3831543 -34.2109375 49.61083984 C-34.96319317 52.43798689 -35.70622139 55.26740104 -36.44482422 58.09814453 C-37.77155706 63.17248878 -39.12504589 68.23953912 -40.47999573 73.30641174 C-42.095509 79.34886264 -43.70388313 85.39321028 -45.3125 91.4375 C-45.63362762 92.64167572 -45.95475525 93.84585144 -46.28561401 95.08651733 C-47.20477806 98.53841582 -48.11876492 101.99164329 -49.03125 105.4453125 C-49.31210953 106.49722275 -49.59296906 107.549133 -49.88233948 108.63291931 C-50.13708542 109.60113113 -50.39183136 110.56934296 -50.65429688 111.56689453 C-50.87887573 112.41430206 -51.10345459 113.26170959 -51.33483887 114.13479614 C-51.91962418 116.42931061 -51.91962418 116.42931061 -51.8125 119.3125 C-29.7025 119.3125 -7.5925 119.3125 15.1875 119.3125 C19.82086275 102.84755972 19.82086275 102.84755972 24.1875 86.3125 C29.3801553 84.91934858 32.59674021 85.82133358 37.1875 88.3125 C40.30689718 90.37281819 43.27604671 92.61136181 46.25 94.875 C47.93689746 96.13882547 49.62440216 97.40184082 51.3125 98.6640625 C52.13878906 99.28442383 52.96507812 99.90478516 53.81640625 100.54394531 C57.09636867 102.99040822 60.41513247 105.37915823 63.75 107.75 C64.76191406 108.47058594 65.77382812 109.19117188 66.81640625 109.93359375 C67.3465332 110.29364502 67.87666016 110.65369629 68.42285156 111.0246582 C70.1875 112.3125 70.1875 112.3125 72.20996094 114.13745117 C80.00444932 120.66059753 87.71584478 120.13266972 97.3125 119.75 C98.85669953 119.71481612 100.40097687 119.68288963 101.9453125 119.65429688 C105.69434996 119.57788602 109.4404146 119.45750118 113.1875 119.3125 C115.20163918 114.80801043 115.68259795 111.06416188 114.1875 106.3125 C111.43994329 101.57312479 108.15656433 98.11121165 104.125 94.5 C103.55136719 93.97792969 102.97773438 93.45585937 102.38671875 92.91796875 C98.05019188 89.00358166 93.55636151 85.3119354 89 81.65625 C85.20665006 78.49512505 81.62625584 75.12837695 78.0234375 71.75390625 C74.67633131 68.63681446 71.25735859 65.67668887 67.6875 62.8125 C62.92561158 58.9919151 58.47314406 54.92182197 54.02124023 50.75170898 C49.85818299 46.87444232 45.51705606 43.28864485 41.07421875 39.734375 C37.60759085 36.8259727 34.34500822 33.7374437 31.0625 30.625 C26.09602863 25.95047706 21.22300506 21.58519037 15.1875 18.3125 C14.58292969 17.97734375 13.97835937 17.6421875 13.35546875 17.296875 C0.16311335 11.18673145 -15.56385401 15.66602552 -24.8125 26.3125 Z M34.1875 105.3125 C33.68057308 106.8936292 33.18223557 108.47751383 32.6875 110.0625 C32.4090625 110.94421875 32.130625 111.8259375 31.84375 112.734375 C31.02304715 115.51517529 31.02304715 115.51517529 31.1875 119.3125 C38.7775 119.3125 46.3675 119.3125 54.1875 119.3125 C50.30675044 116.20790035 46.42001692 113.11682802 42.5 110.0625 C41.91927734 109.60359375 41.33855469 109.1446875 40.74023438 108.671875 C37.80856747 106.1352326 37.80856747 106.1352326 34.1875 105.3125 Z M-95.1875 140 C-97.10193574 143.90250363 -97.91525665 147.0960775 -96.8125 151.3125 C-94.71977693 154.6302317 -92.35331384 157.54209308 -88.8125 159.3125 C-87.09419722 159.41189089 -85.37203552 159.44713235 -83.65086842 159.4523077 C-82.55045021 159.45799894 -81.450032 159.46369018 -80.31626779 159.46955389 C-79.09732865 159.47073376 -77.87838951 159.47191364 -76.62251282 159.47312927 C-75.33534038 159.47821709 -74.04816795 159.48330491 -72.72199029 159.48854691 C-69.13712931 159.50247968 -65.55227852 159.51004413 -61.96739733 159.5165199 C-58.8955037 159.5228834 -55.82362684 159.53295456 -52.75174365 159.54308056 C-42.62926982 159.57643245 -32.50678578 159.59793131 -22.38427499 159.61628041 C-19.74911814 159.62107404 -17.11396171 159.62605752 -14.4788053 159.63108563 C1.87843122 159.6620558 18.23567125 159.68874673 34.59292889 159.70550442 C38.38316034 159.70945405 42.17339173 159.71345702 45.96362305 159.7175293 C47.37672368 159.71904184 47.37672368 159.71904184 48.81837181 159.72058494 C64.08106508 159.73759371 79.34359625 159.77870391 94.60621037 159.82955229 C110.2694089 159.88130674 125.93252404 159.91044383 141.59580737 159.9177013 C150.39285774 159.92236637 159.18964271 159.93714676 167.98660851 159.9774456 C175.47837571 160.01172324 182.96982965 160.02569424 190.46167078 160.01302146 C194.28448396 160.00718908 198.10663446 160.0110978 201.92934799 160.0411911 C206.0742202 160.07355426 210.21763857 160.0594237 214.3625946 160.04075623 C215.57038014 160.05755115 216.77816567 160.07434608 218.02255076 160.09164995 C224.48759942 160.01870565 228.36485443 159.48146445 233.00946933 154.79470974 C235.38351776 151.80765873 235.52660368 149.19123651 235.46484375 145.41015625 C235.00120299 141.90346486 233.49466755 139.92324223 231.1875 137.3125 C225.43690875 133.31562487 219.38665116 133.89380605 212.66162109 133.93154907 C211.3866596 133.9268691 210.11169811 133.92218913 208.79810143 133.91736734 C205.26586934 133.90485331 201.73388068 133.91102944 198.20164776 133.92032599 C194.38972519 133.92711453 190.57784444 133.91663623 186.76593018 133.90838623 C179.30102455 133.89504461 171.8362094 133.89792854 164.37130022 133.90662415 C158.30455311 133.9133986 152.23783135 133.91431845 146.17108154 133.9110527 C145.30771411 133.910593 144.44434668 133.91013331 143.5548166 133.90965968 C141.80091619 133.9087005 140.04701578 133.90772786 138.29311538 133.9067419 C121.84580168 133.89818675 105.39853814 133.9080241 88.95123267 133.924143 C74.83790604 133.9375463 60.72465342 133.93521824 46.61132812 133.92138672 C30.22297001 133.90533312 13.83465585 133.89901074 -2.55370903 133.90822351 C-4.30116653 133.90917916 -6.04862403 133.91012227 -7.79608154 133.9110527 C-9.08576385 133.91174694 -9.08576385 133.91174694 -10.40150034 133.91245521 C-16.46113873 133.91504576 -22.52074923 133.9106727 -28.5803833 133.90361404 C-35.96480634 133.89520129 -43.34913371 133.89747444 -50.73354578 133.91345628 C-54.50138013 133.92134204 -58.26905495 133.92442545 -62.03688812 133.91450882 C-66.12027142 133.9039242 -70.2032517 133.91656034 -74.28662109 133.93154907 C-76.07523025 133.92151082 -76.07523025 133.92151082 -77.89997292 133.91126978 C-85.12846806 133.96291077 -90.15635883 134.30686657 -95.1875 140 Z M-44.8125 174.3125 C-45.30609246 180.8309199 -45.30609246 180.8309199 -45.76855469 187.3515625 C-47.21324996 204.66175743 -53.46803941 221.47672641 -58.47641754 238.0014534 C-59.46924417 241.28112605 -60.45704432 244.56231034 -61.44482422 247.84350586 C-61.64453764 248.50685912 -61.84425106 249.17021238 -62.0500164 249.85366726 C-62.45647406 251.20376821 -62.86291408 252.55387448 -63.2693367 253.90398598 C-63.88467068 255.94757746 -64.50042846 257.99104081 -65.11630249 260.0344696 C-69.05851731 273.11616183 -72.97908832 286.20419668 -76.87341309 299.30023193 C-77.58120235 301.67802872 -78.29058668 304.05535131 -79.00158691 306.43218994 C-79.98668681 309.72579445 -80.96667598 313.02087646 -81.9453125 316.31640625 C-82.38458572 317.77928322 -82.38458572 317.77928322 -82.83273315 319.27171326 C-83.09563141 320.16117142 -83.35852966 321.05062958 -83.62939453 321.96704102 C-83.97431442 323.12454613 -83.97431442 323.12454613 -84.32620239 324.30543518 C-84.93023974 326.45425001 -84.93023974 326.45425001 -84.8125 329.3125 C-61.0525 329.3125 -37.2925 329.3125 -12.8125 329.3125 C-16.34636468 323.42272554 -19.62815088 319.51414118 -26.125 317.0625 C-28.22725459 316.6349228 -30.33162237 316.2168519 -32.44140625 315.828125 C-33.34761719 315.65796875 -34.25382812 315.4878125 -35.1875 315.3125 C-36.46753906 315.0959375 -36.46753906 315.0959375 -37.7734375 314.875 C-38.44632813 314.689375 -39.11921875 314.50375 -39.8125 314.3125 C-43.85167547 306.23414906 -36.77690931 291.71101498 -34.23046875 283.67578125 C-33.65443265 281.83321227 -33.0792816 279.9903664 -32.50495911 278.14726257 C-30.98745852 273.28523502 -29.4586161 268.42684957 -27.92712402 263.56921387 C-26.41713262 258.77402194 -24.91671119 253.97584202 -23.41601562 249.17773438 C-21.63985426 243.50094239 -19.86320762 237.8243062 -18.08322144 232.14871216 C-14.27653828 220.00913402 -10.4844806 207.86514072 -6.73037148 195.70918846 C-6.19747197 193.98468212 -5.66359886 192.26047632 -5.12871361 190.53658485 C-4.39593769 188.17391872 -3.66678578 185.81016626 -2.9387207 183.44604492 C-2.72131792 182.74727674 -2.50391514 182.04850857 -2.27992439 181.3285656 C-1.18160484 177.88378185 -1.18160484 177.88378185 -0.8125 174.3125 C-15.3325 174.3125 -29.8525 174.3125 -44.8125 174.3125 Z M156.1875 174.3125 C156.1875 178.6025 156.1875 182.8925 156.1875 187.3125 C166.4175 187.3125 176.6475 187.3125 187.1875 187.3125 C187.1875 183.0225 187.1875 178.7325 187.1875 174.3125 C176.9575 174.3125 166.7275 174.3125 156.1875 174.3125 Z M7.1875 199.3125 C5.83539651 203.48895454 4.4845506 207.66581331 3.13476562 211.84301758 C2.67741137 213.2578372 2.21973997 214.67255436 1.76171875 216.0871582 C1.54128906 216.7680249 1.32085937 217.4488916 1.09375 218.15039062 C0.87368286 218.8295755 0.65361572 219.50876038 0.42687988 220.20852661 C-0.01494174 221.5803799 -0.45283473 222.9535045 -0.88684082 224.32785034 C-1.90413946 227.54598188 -2.96235344 230.71576907 -4.13867188 233.88134766 C-4.53119141 234.97882324 -4.92371094 236.07629883 -5.328125 237.20703125 C-5.68680664 238.1503833 -6.04548828 239.09373535 -6.41503906 240.06567383 C-7.01310266 244.95120687 -5.4532041 248.73511216 -3.8125 253.3125 C-3.25193909 254.90952003 -3.25193909 254.90952003 -2.68005371 256.5388031 C-1.36380853 260.23866154 -0.01750907 263.92693303 1.3359375 267.61328125 C1.83555745 268.98024081 2.33495278 270.34728249 2.83413696 271.71440125 C3.87627057 274.56667779 4.92027975 277.4182577 5.96582031 280.26928711 C7.29186946 283.88532385 8.61447063 287.50260883 9.93579674 291.12037373 C10.96615703 293.9409371 11.99774497 296.76105018 13.02974319 299.58101463 C13.5170649 300.91270108 14.0041715 302.24446627 14.49103928 303.57631874 C15.17828596 305.4553435 15.86720318 307.33375699 16.55615234 309.2121582 C17.13881363 310.80239555 17.13881363 310.80239555 17.73324585 312.42475891 C19.84459727 318.06915586 22.02416263 323.68782284 24.1875 329.3125 C43.3275 329.3125 62.4675 329.3125 82.1875 329.3125 C79.98227615 323.79944037 78.04769176 321.48846689 73.1875 318.3125 C69.26610002 316.91674747 66.334716 316.30503115 62.1875 316.33203125 C61.135625 316.32558594 60.08375 316.31914062 59 316.3125 C58.01644531 316.35375 57.03289062 316.395 56.01953125 316.4375 C51.98273468 314.83391736 51.28501927 312.59978967 49.55249023 308.72021484 C46.85794421 301.99324768 44.31446661 295.21622585 41.82937622 288.40933228 C40.07731196 283.61196465 38.30572947 278.821811 36.53515625 274.03125 C36.17419357 273.05352127 35.8132309 272.07579254 35.44132996 271.06843567 C31.79820114 261.22014462 28.03686514 251.41874669 24.25 241.625 C23.0204488 238.44285675 21.79125197 235.26057695 20.5625 232.078125 C20.27277817 231.32787048 19.98305634 230.57761597 19.68455505 229.80462646 C15.77572677 219.66940459 11.96812755 209.49618294 8.1875 199.3125 C7.8575 199.3125 7.5275 199.3125 7.1875 199.3125 Z M165.1875 202.3125 C165.1875 219.1425 165.1875 235.9725 165.1875 253.3125 C169.4775 253.3125 173.7675 253.3125 178.1875 253.3125 C178.1875 236.4825 178.1875 219.6525 178.1875 202.3125 C173.8975 202.3125 169.6075 202.3125 165.1875 202.3125 Z M155.1875 268.3125 C155.1875 279.2025 155.1875 290.0925 155.1875 301.3125 C166.0775 301.3125 176.9675 301.3125 188.1875 301.3125 C188.1875 290.4225 188.1875 279.5325 188.1875 268.3125 C177.2975 268.3125 166.4075 268.3125 155.1875 268.3125 Z M147.1875 316.3125 C145.7025 322.7475 145.7025 322.7475 144.1875 329.3125 C162.3375 329.3125 180.4875 329.3125 199.1875 329.3125 C198.1975 325.0225 197.2075 320.7325 196.1875 316.3125 C180.0175 316.3125 163.8475 316.3125 147.1875 316.3125 Z " fill="#000000" transform="translate(186.8125,145.6875)"/>
<path d="M0 0 C0.87128036 -0.00004028 1.74256073 -0.00008057 2.64024353 -0.00012207 C4.47678872 0.00522554 6.31333392 0.02277593 8.1496582 0.05175781 C10.95920748 0.09366593 13.76636226 0.09282007 16.57617188 0.0859375 C18.36329789 0.09642887 20.15041157 0.10936669 21.9375 0.125 C22.77612076 0.12520142 23.61474152 0.12540283 24.47877502 0.12561035 C27.92212808 0.19546107 30.3040729 0.28733428 33.40014648 1.87304688 C36.67938306 5.62927301 36.01963528 9.9746174 36 14.765625 C35.99858505 15.4480426 35.9971701 16.13046021 35.99571228 16.83355713 C35.99013459 19.00366684 35.97758629 21.1736717 35.96484375 23.34375 C35.95982586 24.81900892 35.95526346 26.29426947 35.95117188 27.76953125 C35.9401725 31.37763798 35.92292328 34.98568375 35.90234375 38.59375 C36.8152417 38.58327637 37.72813965 38.57280273 38.66870117 38.56201172 C42.0699315 38.52783719 45.47097817 38.50280616 48.87231445 38.48388672 C50.34174487 38.47385648 51.81115546 38.46022899 53.28051758 38.44287109 C55.39799912 38.41849102 57.51521574 38.40723714 59.6328125 38.3984375 C60.90535889 38.38796387 62.17790527 38.37749023 63.48901367 38.36669922 C66.81456414 38.587911 68.98522213 39.01428498 71.90234375 40.59375 C74.51617343 44.51449452 74.24449065 47.90636093 74.2734375 52.4609375 C74.28246597 53.33267609 74.29149445 54.20441467 74.30079651 55.10256958 C74.31530237 56.94676274 74.32418658 58.7910074 74.32788086 60.63525391 C74.3397719 63.45173233 74.38894716 66.26601566 74.43945312 69.08203125 C74.44891821 70.87498932 74.45615284 72.66796083 74.4609375 74.4609375 C74.48046982 75.30067108 74.50000214 76.14040466 74.52012634 77.00558472 C74.48831171 81.14496685 74.22269063 83.1162207 71.86279297 86.6340332 C68.16257915 89.08344903 65.26479197 89.23618024 60.9765625 89.08203125 C60.22897171 89.07495651 59.48138092 89.06788177 58.71113586 89.06059265 C56.33632973 89.03272645 53.96393024 88.97001132 51.58984375 88.90625 C49.97464357 88.88115668 48.35940621 88.85834531 46.74414062 88.83789062 C42.79595556 88.78292647 38.84955686 88.69671527 34.90234375 88.59375 C34.93376465 90.16056519 34.93376465 90.16056519 34.96582031 91.7590332 C35.03820524 95.63340554 35.08413737 99.5077181 35.12207031 103.38256836 C35.1421894 105.05975392 35.16948826 106.73686931 35.20410156 108.41381836 C35.25260944 110.824232 35.27530839 113.23371872 35.29296875 115.64453125 C35.31361389 116.39462967 35.33425903 117.14472809 35.35552979 117.91755676 C35.35684727 120.97226038 35.29569778 123.05935349 33.45410156 125.5612793 C29.55888683 127.1373282 25.85010308 127.06152829 21.68359375 127.0625 C20.78870239 127.07011353 19.89381104 127.07772705 18.97180176 127.08557129 C17.08230374 127.09636277 15.19274612 127.09922926 13.30322266 127.09472656 C10.41207644 127.09375328 7.52357622 127.13540346 4.6328125 127.1796875 C2.79557845 127.18489394 0.95833518 127.1875827 -0.87890625 127.1875 C-1.74253784 127.20389526 -2.60616943 127.22029053 -3.49597168 127.23718262 C-7.51737091 127.19084897 -9.44722084 127.11767037 -12.64941406 124.53833008 C-14.43744495 120.90288831 -14.60573613 117.84658098 -14.48828125 113.88671875 C-14.48262146 113.16132401 -14.47696167 112.43592926 -14.47113037 111.68855286 C-14.44884724 109.38542992 -14.39867112 107.08389776 -14.34765625 104.78125 C-14.32758059 103.21421528 -14.30933168 101.64715601 -14.29296875 100.08007812 C-14.24900962 96.25069481 -14.18004248 92.42249154 -14.09765625 88.59375 C-15.07114014 88.61469727 -16.04462402 88.63564453 -17.04760742 88.65722656 C-20.67229401 88.72983186 -24.2969168 88.77562335 -27.92211914 88.81347656 C-29.48863548 88.83354558 -31.05507734 88.86080751 -32.62133789 88.89550781 C-34.87795419 88.94423754 -37.13357708 88.9667647 -39.390625 88.984375 C-40.08665329 89.00502014 -40.78268158 89.02566528 -41.49980164 89.04693604 C-44.7986684 89.04844543 -47.06821469 88.60807167 -50.04223633 87.16137695 C-53.12302465 83.3128616 -52.77991564 79.91840586 -52.69140625 75.12109375 C-52.69144653 74.20163467 -52.69148682 73.2821756 -52.69152832 72.33485413 C-52.68617343 70.39398348 -52.66859195 68.45311338 -52.63964844 66.51245117 C-52.59775454 63.53822783 -52.59858284 60.56626578 -52.60546875 57.59179688 C-52.59497755 55.7057134 -52.58203982 53.81964161 -52.56640625 51.93359375 C-52.56620483 51.04292709 -52.56600342 50.15226044 -52.5657959 49.23460388 C-52.54988403 48.40686966 -52.53397217 47.57913544 -52.51757812 46.72631836 C-52.50915894 45.99891953 -52.50073975 45.27152069 -52.49206543 44.52207947 C-51.98710883 42.05326602 -51.0293979 41.16152521 -49.09765625 39.59375 C-45.50433442 38.18597891 -41.73726448 38.48047292 -37.92578125 38.49609375 C-36.90215485 38.49821617 -36.90215485 38.49821617 -35.85784912 38.50038147 C-33.68773941 38.50595916 -31.51773455 38.51850746 -29.34765625 38.53125 C-27.87239733 38.53626789 -26.39713678 38.54083029 -24.921875 38.54492188 C-21.31376827 38.55592125 -17.7057225 38.57317047 -14.09765625 38.59375 C-14.12384033 37.62026611 -14.15002441 36.64678223 -14.17700195 35.64379883 C-14.26775646 32.01919698 -14.32499526 28.39469473 -14.37231445 24.76928711 C-14.39740172 23.20270886 -14.4314804 21.63624701 -14.47485352 20.07006836 C-14.53576851 17.81334691 -14.56392124 15.55817706 -14.5859375 13.30078125 C-14.61174393 12.60475296 -14.63755035 11.90872467 -14.66413879 11.19160461 C-14.66620484 7.5792425 -14.14969758 5.67185733 -12.13574219 2.64916992 C-7.99311241 -0.15353018 -4.89523322 -0.0959347 0 0 Z M0.90234375 15.59375 C0.85335937 18.01332031 0.804375 20.43289062 0.75390625 22.92578125 C0.69989677 25.26902453 0.64258923 27.61216553 0.58496094 29.95532227 C0.54667757 31.58382549 0.51182351 33.21241309 0.48046875 34.84106445 C0.43480373 37.18211014 0.37681298 39.5225753 0.31640625 41.86328125 C0.29907944 42.95561821 0.29907944 42.95561821 0.28140259 44.07002258 C0.17355863 47.76336374 0.00350099 49.44201414 -2.09765625 52.59375 C-4.78550442 52.93159096 -7.25479875 53.08267244 -9.94921875 53.10546875 C-10.72325043 53.12341995 -11.4972821 53.14137115 -12.29476929 53.15986633 C-14.77067592 53.21411392 -17.24638828 53.24791009 -19.72265625 53.28125 C-21.39976671 53.31441046 -23.07685148 53.34889893 -24.75390625 53.38476562 C-28.86851973 53.47235393 -32.9822367 53.5322942 -37.09765625 53.59375 C-37.09765625 60.19375 -37.09765625 66.79375 -37.09765625 73.59375 C-33.46830078 73.64982422 -33.46830078 73.64982422 -29.765625 73.70703125 C-27.42235267 73.75324252 -25.07924035 73.80447743 -22.73608398 73.85620117 C-21.10760216 73.88945536 -19.47900494 73.91748584 -17.8503418 73.94018555 C-15.50910264 73.97372357 -13.16892139 74.02603585 -10.828125 74.08203125 C-10.09990036 74.08842117 -9.37167572 74.0948111 -8.62138367 74.10139465 C-5.85648082 74.18182172 -3.60800367 74.3194191 -1.14648438 75.64257812 C0.51411551 78.73185054 0.38400507 81.89873784 0.4140625 85.32421875 C0.4320137 86.07463943 0.4499649 86.82506012 0.46846008 87.59822083 C0.52259562 89.9925069 0.55646791 92.38659331 0.58984375 94.78125 C0.62301411 96.40562677 0.65750351 98.02997717 0.69335938 99.65429688 C0.78080619 103.63414378 0.84084164 107.6130791 0.90234375 111.59375 C7.50234375 111.59375 14.10234375 111.59375 20.90234375 111.59375 C20.95132813 109.09039062 21.0003125 106.58703125 21.05078125 104.0078125 C21.10476136 101.58847982 21.16208042 99.16924777 21.21972656 96.75 C21.25805479 95.06615671 21.29290087 93.38223045 21.32421875 91.69824219 C21.36978662 89.28029694 21.42779298 86.86292472 21.48828125 84.4453125 C21.49983246 83.6900528 21.51138367 82.93479309 21.52328491 82.15664673 C21.67460034 76.82149341 21.67460034 76.82149341 23.90234375 74.59375 C26.55022164 74.34831859 29.10138198 74.22025614 31.75390625 74.1796875 C32.52793793 74.16032135 33.3019696 74.1409552 34.09945679 74.1210022 C36.5753065 74.0611517 39.05120258 74.01479989 41.52734375 73.96875 C43.20444752 73.93057518 44.88153159 73.89152375 46.55859375 73.8515625 C50.67307538 73.75379264 54.78734335 73.67427009 58.90234375 73.59375 C58.90234375 66.99375 58.90234375 60.39375 58.90234375 53.59375 C56.39898437 53.54476562 53.895625 53.49578125 51.31640625 53.4453125 C48.89707357 53.39133239 46.47784152 53.33401333 44.05859375 53.27636719 C42.37475046 53.23803896 40.6908242 53.20319288 39.00683594 53.171875 C36.58889069 53.12630713 34.17151847 53.06830077 31.75390625 53.0078125 C30.99864655 52.99626129 30.24338684 52.98471008 29.46524048 52.97280884 C24.13008716 52.82149341 24.13008716 52.82149341 21.90234375 50.59375 C21.65691234 47.94587211 21.52884989 45.39471177 21.48828125 42.7421875 C21.4689151 41.96815582 21.44954895 41.19412415 21.42959595 40.39663696 C21.36974545 37.92078725 21.32339364 35.44489117 21.27734375 32.96875 C21.23916893 31.29164623 21.2001175 29.61456216 21.16015625 27.9375 C21.06238639 23.82301837 20.98286384 19.7087504 20.90234375 15.59375 C14.30234375 15.59375 7.70234375 15.59375 0.90234375 15.59375 Z " fill="#000000" transform="translate(354.09765625,105.40625)"/>
<path d="M0 0 C2.51431847 2.20284319 4.89579933 4.47544061 7.2421875 6.85546875 C7.81710937 7.42007813 8.39203125 7.9846875 8.984375 8.56640625 C18.96441894 19.16697105 22.75479883 33.71126849 22.59375 47.92382812 C22.06402222 63.30064851 15.90678032 76.33095135 5.16796875 87.15625 C-8.48458997 99.75160124 -23.54234706 102.52425921 -41.39111328 101.98730469 C-46.18248226 101.72040359 -50.3361119 100.66843519 -54.7578125 98.85546875 C-56.19447266 98.28699219 -56.19447266 98.28699219 -57.66015625 97.70703125 C-70.2261711 92.11135411 -80.94529878 82.17841896 -86.1875 69.359375 C-92.01654449 53.85762739 -93.0097736 38.44815745 -86.7578125 22.85546875 C-80.49792737 9.14495947 -69.78097839 -1.76352942 -55.7109375 -7.35546875 C-36.98321726 -13.92414675 -16.0660042 -12.49325256 0 0 Z M-65.7578125 17.85546875 C-73.8544742 28.50543455 -76.94322335 38.50313266 -75.7578125 51.85546875 C-73.84487987 62.87077248 -67.57780999 73.01337767 -58.7578125 79.85546875 C-47.0478917 86.76402099 -35.48110765 88.9850366 -22.1015625 86.0546875 C-14.14093623 83.29689911 -8.46712676 78.97925228 -2.7578125 72.85546875 C-1.86255859 71.91380859 -1.86255859 71.91380859 -0.94921875 70.953125 C5.84128123 62.94338313 8.0133234 52.33402904 7.6171875 42.046875 C6.31801352 30.99036308 1.38185854 21.57868923 -6.7734375 13.9765625 C-24.80266911 -0.18419225 -49.78299054 0.40831297 -65.7578125 17.85546875 Z " fill="#000000" transform="translate(253.7578125,36.14453125)"/>
</svg>
