<?xml version="1.0" encoding="UTF-8"?>
<svg version="1.1" xmlns="http://www.w3.org/2000/svg" width="512" height="512">
<path d="M0 0 C1.14440804 -0.01007584 1.14440804 -0.01007584 2.31193542 -0.02035522 C4.83644101 -0.03936756 7.36068117 -0.04326109 9.88525391 -0.04541016 C11.6401887 -0.05183609 13.39512241 -0.05856429 15.15005493 -0.06558228 C18.83036787 -0.0775633 22.5105869 -0.08126228 26.19091797 -0.08007812 C30.904405 -0.07987494 35.61728902 -0.10717222 40.33063316 -0.14162254 C43.95607259 -0.16387283 47.5813665 -0.16791624 51.20686722 -0.16685867 C52.94439395 -0.16921764 54.6819245 -0.17805785 56.419384 -0.19352341 C58.85163181 -0.21314513 61.28257441 -0.20736111 63.71484375 -0.1953125 C64.43086258 -0.20655151 65.14688141 -0.21779053 65.88459778 -0.22937012 C69.42679084 -0.18483642 71.38676688 0.22745443 74.4100647 2.13339233 C78.11302801 5.97968352 77.64829275 10.09331311 77.67626953 15.12670898 C77.68456284 15.92372726 77.69285614 16.72074554 77.70140076 17.54191589 C77.71879429 19.27214134 77.73396302 21.00239025 77.74717712 22.73265266 C77.76820031 25.46810692 77.79522221 28.203443 77.82385254 30.93882751 C77.89369542 37.73115167 77.95313255 44.52355989 78.01287842 51.315979 C78.06376092 57.05692503 78.11856684 62.79780701 78.17869568 68.53866386 C78.20532447 71.23865243 78.22610435 73.9386468 78.2467041 76.63868713 C78.26330233 78.28704109 78.28017375 79.93539233 78.29736328 81.58374023 C78.3015477 82.33859711 78.30573212 83.09345398 78.31004333 83.8711853 C78.29026 87.70797607 78.29026 87.70797607 79.48681641 91.29052734 C79.85548828 90.91283203 80.22416016 90.53513672 80.60400391 90.14599609 C106.52736156 65.54761005 144.64705257 56.25720808 179.36181641 57.00537109 C216.96174733 58.41125086 251.01236993 74.81608087 277.48681641 101.29052734 C280.68111354 104.82217599 283.62122238 108.48859918 286.48681641 112.29052734 C287.57929687 113.73492187 287.57929687 113.73492187 288.69384766 115.20849609 C297.38996175 127.22466776 311.20009701 146.61978094 310.26025391 161.99755859 C309.42042611 165.57318906 308.28693707 167.23881715 305.29931641 169.40771484 C301.80246199 171.11092411 299.34365784 170.84150469 295.48681641 170.29052734 C289.8910212 167.08285891 288.45638689 162.20244975 286.23681641 156.47802734 C273.52994121 125.4102514 251.07031773 102.11732027 220.48681641 88.29052734 C196.56205361 78.31837533 169.68300872 76.00863438 144.48681641 82.29052734 C143.83729004 82.45149902 143.18776367 82.6124707 142.51855469 82.77832031 C117.46461265 89.25811004 97.66909756 102.84908918 79.74072266 121.08349609 C76.91035692 123.85499807 76.15181696 124.24033862 72.17431641 124.54052734 C68.17833391 124.26961328 66.66427703 123.62583174 63.48681641 121.29052734 C52.64918733 103.7887661 56.11731041 76.78090012 56.28082275 57.07299805 C56.31745773 52.1801129 56.33077715 47.28711097 56.34818268 42.39412689 C56.37691402 35.02602506 56.43453262 27.65866849 56.48681641 20.29052734 C40.31681641 20.29052734 24.14681641 20.29052734 7.48681641 20.29052734 C7.57831833 32.7526032 7.57831833 32.7526032 7.69580078 45.21435547 C7.74961686 50.31531897 7.80073684 55.41618439 7.83325195 60.51733398 C8.09351779 100.11299923 12.93876352 135.89943204 33.01025391 170.70068359 C49.14602102 198.71096902 52.68900997 226.32261083 44.7199707 257.55615234 C35.93884249 289.9099661 18.63987692 321.81936065 -10.71630859 339.70068359 C-17.90826399 343.78884819 -25.07203497 346.52481361 -33.01318359 348.72802734 C-47.23469607 352.69106585 -57.87200394 359.39492345 -65.51318359 372.29052734 C-71.20181776 384.04801286 -73.91235142 396.62548878 -70.38818359 409.54052734 C-61.81437701 433.41346585 -40.52404486 450.88308901 -18.20068359 461.54052734 C26.70262818 482.18690883 78.52677791 478.57636848 124.24365234 462.09692383 C157.42816664 449.66109063 187.89609752 430.96879645 212.48681641 405.29052734 C217.48681641 400.29052734 217.48681641 400.29052734 219.18212891 398.70068359 C225.12910313 393.00651596 230.10489066 386.69077836 235.07226562 380.14941406 C235.98995073 378.9434675 236.91314641 377.74168695 237.84277344 376.54492188 C265.68936608 340.69561559 283.87608482 296.23945837 291.07006836 251.51782227 C291.89867872 246.76566289 292.96693336 243.82407984 296.48681641 240.29052734 C299.97563067 238.54612021 303.68014817 238.72511548 307.48681641 239.29052734 C311.1809272 241.75326787 312.26260082 243.32380888 313.26416016 247.64208984 C313.88939314 253.78811606 312.34749699 259.68819039 311.04931641 265.66552734 C310.77635742 266.94266602 310.50339844 268.21980469 310.22216797 269.53564453 C293.49020514 346.15285902 248.86131347 414.6969361 182.87744141 457.51708984 C176.2374019 461.74917102 169.46499715 465.64482936 162.48681641 469.29052734 C161.74222168 469.68449707 160.99762695 470.0784668 160.23046875 470.484375 C137.90847066 482.15174628 113.31573372 490.13372767 88.48681641 494.29052734 C87.53129883 494.45133789 86.57578125 494.61214844 85.59130859 494.77783203 C40.07529354 502.07061938 -8.74589527 496.88605416 -47.51318359 470.29052734 C-65.00237764 457.54233159 -81.73567039 441.95894642 -89.51318359 421.29052734 C-90.90962542 421.29661206 -92.30589783 421.34726703 -93.70068359 421.41552734 C-94.47798828 421.43873047 -95.25529297 421.46193359 -96.05615234 421.48583984 C-99.66419135 422.66748696 -101.60684524 425.12455217 -103.51318359 428.29052734 C-104.24722715 431.90985015 -104.24722715 431.90985015 -104.125 435.85302734 C-104.13066483 436.58553711 -104.13632965 437.31804687 -104.14216614 438.07275391 C-104.15560289 440.47920892 -104.13477039 442.88413956 -104.11474609 445.29052734 C-104.12024993 446.97152737 -104.12837784 448.65252067 -104.13900757 450.33349609 C-104.16185867 454.75031898 -104.15768695 459.16664628 -104.14520264 463.58349609 C-104.1268744 470.65213788 -104.13691001 477.72048969 -104.17106247 484.7890625 C-104.17715089 487.25201591 -104.16392711 489.714342 -104.14907837 492.17724609 C-104.15202747 493.6941748 -104.15568281 495.21110236 -104.16015625 496.72802734 C-104.15617828 498.04673828 -104.15220032 499.36544922 -104.14810181 500.72412109 C-104.54567991 504.60797694 -105.44513424 506.99698832 -107.51318359 510.29052734 C-111.16077321 512.72225376 -113.89827038 512.5998587 -118.11816406 512.61279297 C-118.89085632 512.62272278 -119.66354858 512.63265259 -120.45965576 512.6428833 C-123.01659706 512.67210042 -125.57329028 512.6857251 -128.13037109 512.69677734 C-129.90772509 512.70828187 -131.68507901 512.71979732 -133.46243286 512.73132324 C-137.18981075 512.75233535 -140.91710246 512.76402594 -144.64453125 512.77099609 C-149.41880304 512.78196863 -154.19193481 512.83002961 -158.96584892 512.88694 C-162.63761719 512.92420343 -166.30911102 512.93460436 -169.9810524 512.93766785 C-171.74095014 512.94371913 -173.50084315 512.95977091 -175.26055527 512.98603821 C-177.7243885 513.02019254 -180.18543953 513.01639736 -182.64941406 513.00341797 C-183.37478363 513.02184753 -184.1001532 513.0402771 -184.84750366 513.05926514 C-188.81613499 512.99384294 -190.41921436 512.37076584 -193.46522522 509.76983643 C-196.07990088 506.07275889 -196.21177477 502.31657761 -196.14428711 497.90869141 C-196.15144241 497.08816788 -196.15859772 496.26764435 -196.16596985 495.42225647 C-196.18283726 492.71631661 -196.16344588 490.01204039 -196.14208984 487.30615234 C-196.14291968 485.40728622 -196.14538337 483.50842017 -196.1493988 481.60955811 C-196.15225674 477.62490258 -196.13757292 473.64080901 -196.11010742 469.65625 C-196.07630361 464.59990572 -196.08194939 459.54458424 -196.10077 454.48819351 C-196.11145862 450.56021951 -196.10229143 446.63247408 -196.08738518 442.70452118 C-196.08227035 440.84379511 -196.0826018 438.98304442 -196.08893013 437.12232208 C-196.14750343 409.5135039 -188.49541167 385.68381724 -170.51318359 364.29052734 C-169.84544922 363.43845703 -169.17771484 362.58638672 -168.48974609 361.70849609 C-153.37384787 343.21691309 -127.62529082 332.21159802 -104.51318359 329.29052734 C-99.78701002 329.03679152 -95.07339869 329.03652098 -90.34130859 329.05224609 C-89.00672635 329.0462017 -87.67215043 329.03858317 -86.33758545 329.02949524 C-80.74179273 328.99292036 -75.14620282 328.97373824 -69.55029297 328.98510742 C-45.0861672 329.01960921 -26.5257481 327.21085612 -7.91162109 309.71240234 C12.97977769 288.61685308 26.49166586 256.59224258 27.55322266 226.86865234 C27.19015513 207.30571965 19.85512557 192.77256151 10.63916016 176.04443359 C-6.9489007 144.06943204 -13.84513032 109.98463301 -13.81396484 73.77490234 C-13.81786342 71.86061512 -13.82220043 69.94632875 -13.82695007 68.03204346 C-13.83434067 64.05876835 -13.83416959 60.08558227 -13.82885742 56.11230469 C-13.82301138 51.02491455 -13.84015083 45.93788243 -13.8632021 40.85055161 C-13.87791811 36.9146106 -13.87881509 32.97875691 -13.87569237 29.04279327 C-13.87620466 27.16572601 -13.88142511 25.28865374 -13.89150429 23.41161346 C-13.90383699 20.7990697 -13.89710105 18.18723928 -13.88549805 15.57470703 C-13.89314178 14.80587692 -13.90078552 14.03704681 -13.90866089 13.24491882 C-13.86450838 8.7484316 -13.32174055 5.84670579 -10.51318359 2.29052734 C-6.8809969 -0.13093045 -4.19866655 -0.005285 0 0 Z M-154.93896484 378.30224609 C-159.18903205 383.23593564 -162.43158241 388.57056899 -165.51318359 394.29052734 C-165.99529297 395.18384766 -166.47740234 396.07716797 -166.97412109 396.99755859 C-173.57354785 410.33639995 -175.11313862 423.77983599 -174.90380859 438.38427734 C-174.8963208 439.95323962 -174.89063994 441.52221143 -174.88665771 443.09118652 C-174.87160043 447.16175524 -174.83249893 451.23172584 -174.7878418 455.30206299 C-174.73913622 460.21734766 -174.7212599 465.13283567 -174.69802856 470.04829407 C-174.65962867 477.46278402 -174.58284019 484.87596945 -174.51318359 492.29052734 C-158.34318359 492.29052734 -142.17318359 492.29052734 -125.51318359 492.29052734 C-125.48740234 487.56998047 -125.46162109 482.84943359 -125.43505859 477.98583984 C-125.40986326 474.97797463 -125.38350994 471.97020731 -125.35302734 468.96240234 C-125.30485556 464.19840245 -125.26075019 459.43462945 -125.2421875 454.67041016 C-125.22693525 450.82514983 -125.1923408 446.980487 -125.14487457 443.13549423 C-125.13014833 441.67570086 -125.12214766 440.21582214 -125.12129974 438.75595474 C-125.10774901 427.11354543 -123.6834613 417.71049615 -115.41552734 409.04052734 C-108.89543969 403.04258223 -102.10954923 401.0527823 -93.51318359 399.29052734 C-93.38363281 397.6025 -93.38363281 397.6025 -93.25146484 395.88037109 C-91.75352636 378.68516784 -87.07965796 364.24189292 -76.51318359 350.29052734 C-108.17692974 349.34108968 -132.17569987 354.82458479 -154.93896484 378.30224609 Z " fill="#000000" transform="translate(195.51318359375,-0.29052734375)"/>
<path d="M0 0 C18.65797633 16.59000248 28.85261301 39.15070843 32.38183594 63.62109375 C35.70583139 135.76690419 12.65152602 205.92627635 -35.9375 259.79541016 C-45.72738629 270.43003678 -55.96765795 280.06759986 -67.61816406 288.62109375 C-68.74710926 289.46869812 -69.87601549 290.31635441 -71.00488281 291.1640625 C-98.57783569 311.6079169 -130.66719786 325.34167332 -164.61816406 330.62109375 C-165.61493164 330.7924585 -165.61493164 330.7924585 -166.63183594 330.96728516 C-202.28142492 337.02556123 -240.1539186 332.20648726 -270.46972656 311.69140625 C-281.47245711 303.27344415 -293.79069239 292.3248093 -297.61816406 278.62109375 C-298.76321235 268.12925595 -297.07610119 259.59220841 -290.43066406 251.30859375 C-283.82185245 244.3791014 -276.2356926 242.08504344 -267.16894531 239.640625 C-252.99549914 235.57102164 -240.76382304 228.1482412 -229.61816406 218.62109375 C-228.85761719 217.99460937 -228.09707031 217.368125 -227.31347656 216.72265625 C-198.3439393 192.16370598 -182.46738963 151.39934602 -179.34326172 114.36206055 C-178.84710516 107.41635613 -178.53342129 100.50817143 -178.44238281 93.546875 C-178.14366096 70.98767573 -177.36119862 50.37799346 -167.61816406 29.62109375 C-167.10511719 28.52539062 -166.59207031 27.4296875 -166.06347656 26.30078125 C-154.96089061 4.2549766 -135.8743185 -13.79122266 -112.37207031 -21.921875 C-73.87184821 -34.25766045 -30.88062165 -26.31468785 0 0 Z M-126.61816406 10.62109375 C-127.32328125 11.16378906 -128.02839844 11.70648438 -128.75488281 12.265625 C-143.51700692 24.18553268 -151.81351245 42.43614878 -155.61816406 60.62109375 C-155.81410156 61.50796875 -156.01003906 62.39484375 -156.21191406 63.30859375 C-156.83236266 68.36763612 -156.72141774 73.40501931 -156.68066406 78.49609375 C-156.67615234 79.56601563 -156.67164063 80.6359375 -156.66699219 81.73828125 C-156.65526155 84.36594361 -156.63884635 86.99348913 -156.61816406 89.62109375 C-155.90249268 89.39043213 -155.18682129 89.15977051 -154.44946289 88.92211914 C-140.69148694 84.65276143 -124.86447387 84.77309327 -111.61816406 90.62109375 C-110.26854338 91.38466293 -108.93200937 92.17248923 -107.61816406 92.99609375 C-106.62816406 93.53234375 -105.63816406 94.06859375 -104.61816406 94.62109375 C-102.20051114 93.90425678 -102.20051114 93.90425678 -99.61816406 92.62109375 C-98.64878906 92.20730469 -97.67941406 91.79351562 -96.68066406 91.3671875 C-94.63805526 90.4943891 -92.59638709 89.61938605 -90.55566406 88.7421875 C-78.12522021 83.99812183 -61.58848001 85.33595425 -49.61816406 90.62109375 C-48.27987874 91.4885009 -46.94596549 92.36272172 -45.61816406 93.24609375 C-43.80430635 94.38062047 -43.80430635 94.38062047 -41.61816406 94.62109375 C-38.13702127 93.49113479 -35.08139891 92.0100164 -31.86425781 90.26953125 C-25.06589868 86.81717559 -18.90640289 86.26551756 -11.43066406 86.30859375 C-10.50680908 86.30988281 -9.5829541 86.31117188 -8.63110352 86.3125 C-1.52822643 86.41207595 4.61704681 87.41223028 11.38183594 89.62109375 C12.28173544 62.2122317 7.9906658 40.89037691 -10.32519531 19.640625 C-26.27218958 2.72261938 -50.9882369 -5.98718228 -73.77197266 -6.66455078 C-93.36535041 -6.90830463 -111.32045297 -1.95812264 -126.61816406 10.62109375 Z M-151.61816406 110.62109375 C-152.64941406 111.05035156 -153.68066406 111.47960937 -154.74316406 111.921875 C-159.43502079 116.32686549 -159.31166237 121.87384196 -160.11816406 128.05859375 C-160.51222833 130.70593097 -160.93063136 133.34916007 -161.35253906 135.9921875 C-161.66288086 137.94487549 -161.66288086 137.94487549 -161.97949219 139.93701172 C-168.82598345 179.42996015 -192.22700083 218.789205 -224.81933594 242.35693359 C-238.53940982 251.99897248 -253.39839524 258.78213109 -269.76269531 262.50390625 C-273.28000497 263.88003561 -274.58350226 265.4827239 -276.61816406 268.62109375 C-277.53772009 271.44600573 -277.53772009 271.44600573 -276.61816406 274.62109375 C-274.59668162 277.90676612 -272.17729889 280.74268106 -269.61816406 283.62109375 C-269.039375 284.29398438 -268.46058594 284.966875 -267.86425781 285.66015625 C-253.1539617 301.60954858 -229.1851101 310.8071608 -207.78344727 311.74536133 C-149.94564363 313.15497504 -100.51720866 292.10741246 -58.61816406 252.62109375 C-57.88597656 251.93144531 -57.15378906 251.24179687 -56.39941406 250.53125 C-50.98812168 245.28100798 -46.2931069 239.52710486 -41.61816406 233.62109375 C-40.82410156 232.64398438 -40.03003906 231.666875 -39.21191406 230.66015625 C-15.25528662 200.56274773 -0.05958569 164.11627282 7.31933594 126.55859375 C7.54331055 125.42123779 7.76728516 124.28388184 7.99804688 123.11206055 C8.1955957 122.05156494 8.39314453 120.99106934 8.59667969 119.8984375 C8.86146118 118.47905884 8.86146118 118.47905884 9.1315918 117.03100586 C9.56396794 114.47995554 9.56396794 114.47995554 8.38183594 111.62109375 C6.6604529 110.41933828 6.6604529 110.41933828 4.56933594 109.49609375 C3.53873047 108.99722656 3.53873047 108.99722656 2.48730469 108.48828125 C-5.41807693 105.23226136 -15.99404608 105.24052204 -23.99316406 108.18359375 C-27.52697274 109.80423117 -30.2715594 111.87959528 -33.24316406 114.37109375 C-36.67861699 117.15074218 -39.03835566 118.72539313 -43.52832031 118.31640625 C-47.18111378 117.10108431 -50.01051585 114.73216442 -53.06738281 112.4453125 C-61.60728027 106.33791263 -70.30264391 105.5405263 -80.61816406 106.62109375 C-86.50538416 107.9765981 -90.64834807 110.51863749 -95.24316406 114.37109375 C-98.67861699 117.15074218 -101.03835566 118.72539313 -105.52832031 118.31640625 C-109.18046066 117.10130161 -112.0088396 114.73396907 -115.06347656 112.4453125 C-126.03332566 104.61210221 -139.84341647 104.08852831 -151.61816406 110.62109375 Z " fill="#000000" transform="translate(439.6181640625,124.37890625)"/>
<path d="M0 0 C7.58336183 7.79401077 10.67072226 15.47060669 10.61352539 26.21875 C10.38576629 35.09426906 7.27748301 41.07889227 1.3125 47.51953125 C-5.16350961 53.14924415 -12.9927732 55.68386962 -21.51171875 55.5234375 C-31.34208893 54.59701518 -38.75503948 50.14177153 -45.0625 42.6875 C-49.89750664 35.70654521 -51.26693053 28.04122701 -50.3125 19.6875 C-48.71157897 11.58586936 -45.3657439 5.0880384 -38.875 -0.125 C-26.4689482 -8.35683512 -12.5789222 -7.71888407 0 0 Z M-28.75 20.3125 C-29.56060969 23.16400644 -29.51795412 25.45432489 -28.75 28.3125 C-26.35575219 31.6221955 -24.643744 32.98923089 -20.8125 34.375 C-16.74054493 34.29189888 -14.86478893 32.84779331 -11.75 30.3125 C-10.12779354 27.06808709 -10.04840868 23.80709297 -10.75 20.3125 C-13.60190872 17.05317575 -15.49938381 15.57304504 -19.75 14.6875 C-24.00061619 15.57304504 -25.89809128 17.05317575 -28.75 20.3125 Z " fill="#000000" transform="translate(316.75,334.6875)"/>
<path d="M0 0 C8.45275776 4.55270945 14.71254885 11.10325754 17.67578125 20.3515625 C19.49606398 30.17005723 18.02910073 39.33918049 12.5 47.625 C7.08349018 54.35867598 -0.53376127 58.05983791 -8.9375 59.4375 C-17.21916851 60.20432116 -25.52262388 57.73674549 -31.9375 52.4375 C-39.28645925 45.42707246 -42.89719736 39.255623 -43.375 29.0625 C-43.04261645 19.54303507 -39.65258873 12.16539178 -33.09765625 5.31640625 C-24.43540529 -2.21802903 -10.6907646 -4.38115397 0 0 Z M-20.9375 23.4375 C-21.99138334 26.1893065 -22.31383732 28.5110561 -21.9375 31.4375 C-20.61461222 34.24637132 -19.38198763 35.30507462 -16.9375 37.4375 C-13.32220858 38.71791571 -11.7607965 38.80128217 -8.25 37.25 C-4.81234081 34.55561847 -3.15591659 32.90401141 -2.5 28.5 C-3.03830137 24.73189042 -4.31313024 23.13905711 -6.9375 20.4375 C-12.25860696 17.77694652 -17.20573357 19.04718656 -20.9375 23.4375 Z " fill="#000000" transform="translate(378.9375,268.5625)"/>
<path d="M0 0 C2.8100346 1.79363911 4.50940468 3.01880935 6 6 C6.42071592 9.05920574 6.48514117 11.9467746 6 15 C3.81840855 17.75569447 2.12822506 19.43588747 -1 21 C-4.86889612 21.43964729 -6.75665494 21.12635224 -10.25 19.3125 C-13.19315887 16.83757095 -14.21976035 15.72781164 -15 12 C-15 7.3945905 -14.48937063 5.56098585 -11.4375 2.0625 C-7.57749595 -0.73971448 -4.66116501 -0.66588072 0 0 Z " fill="#000000" transform="translate(364,349)"/>
<path d="M0 0 C2.35007379 1.88005903 3.09880383 2.98600426 4.1875 5.75 C4.40963813 9.95581532 3.86003041 13.62911598 1.6875 17.25 C-2.02615568 19.47819341 -5.492172 20.21342619 -9.8125 19.75 C-12.94190297 18.10089553 -15.21057782 15.95384436 -16.8125 12.75 C-17.1876455 7.77932218 -16.97128799 4.69848498 -13.8125 0.75 C-9.65194818 -2.37041386 -4.59375224 -2.04166766 0 0 Z " fill="#000000" transform="translate(311.8125,285.25)"/>
<path d="M0 0 C2.8100346 1.79363911 4.50940468 3.01880935 6 6 C6.64797087 10.71167386 6.68157643 13.97763536 4 18 C0.30157181 20.46561879 -2.5538409 21.44374582 -7 21 C-10.49604053 19.31672123 -12.38947566 17.98214784 -14.4375 14.6875 C-15.20516967 11.01974492 -15.03309427 8.61582995 -14 5 C-9.60935655 -0.03317664 -6.58282375 -0.94040339 0 0 Z " fill="#000000" transform="translate(506,194)"/>
</svg>
