<?xml version="1.0" encoding="UTF-8"?>
<svg version="1.1" xmlns="http://www.w3.org/2000/svg" width="520" height="700">
<path d="M0 0 C16.24634303 14.93478929 28.37693359 35.19362155 35.1875 56.0625 C35.42162598 56.7632666 35.65575195 57.4640332 35.89697266 58.18603516 C36.67687305 60.7102289 37.31163028 63.24530508 37.9375 65.8125 C38.32295738 67.39159653 38.32295738 67.39159653 38.71620178 69.00259399 C41.96710283 85.00547058 41.32406685 101.29262054 41.24168181 117.54238749 C41.22272171 121.92252087 41.22114955 126.30266272 41.21760559 130.68283081 C41.20834119 138.94837625 41.18380469 147.21380035 41.15355712 155.47929275 C41.11983685 164.90152096 41.10348313 174.32375546 41.08847082 183.74602914 C41.05724904 203.1015878 41.00459962 222.45703409 40.9375 241.8125 C41.68644531 241.9465625 42.43539063 242.080625 43.20703125 242.21875 C52.94209121 244.33567291 61.44598653 251.63627489 66.875 259.8125 C70.99704789 267.41271239 72.38532918 274.2707868 72.125 282.875 C72.11146484 283.74060547 72.09792969 284.60621094 72.08398438 285.49804688 C72.0490933 287.60314174 71.99530665 289.70790974 71.9375 291.8125 C72.52241211 291.79155273 73.10732422 291.77060547 73.70996094 291.74902344 C76.36896465 291.66569885 79.02769355 291.61379103 81.6875 291.5625 C82.60789062 291.52898437 83.52828125 291.49546875 84.4765625 291.4609375 C91.27237804 291.36244742 91.27237804 291.36244742 94.546875 293.578125 C95.99726504 295.90852697 96.47995545 297.09535134 96.4375 299.8125 C96.4478125 300.4725 96.458125 301.1325 96.46875 301.8125 C95.68680339 304.75629899 94.29034166 305.90864393 91.9375 307.8125 C89.08568192 308.31389666 89.08568192 308.31389666 85.70928955 308.31586456 C84.42190258 308.32629555 83.13451561 308.33672654 81.80811691 308.34747362 C80.37630746 308.33882506 78.94450026 308.32979842 77.51269531 308.32043457 C75.99416124 308.32504183 74.47563161 308.33139356 72.95711136 308.33934355 C68.77797122 308.3560843 64.59919515 308.34776914 60.42005348 308.33539867 C55.91554894 308.32636982 51.41110819 308.34030712 46.90661621 308.35131836 C38.07983342 308.36913138 29.25318646 308.36525123 20.42639828 308.3536678 C13.25450969 308.34464467 6.08265924 308.34340461 -1.0892334 308.34776306 C-2.10886948 308.34837599 -3.12850557 308.34898893 -4.17903972 308.34962043 C-6.25022667 308.3508993 -8.32141361 308.35219615 -10.39260054 308.3535108 C-29.82711236 308.36492475 -49.2615488 308.35179012 -68.69604826 308.33030933 C-85.38203869 308.31243762 -102.06791783 308.3155415 -118.75390625 308.33398438 C-138.11752277 308.3553767 -157.48107317 308.36382603 -176.84469986 308.35153532 C-178.90838876 308.35026109 -180.97207768 308.3490036 -183.0357666 308.34776306 C-184.05121638 308.34714596 -185.06666616 308.34652886 -186.11288714 308.34589306 C-193.27852127 308.34243524 -200.44411356 308.34827779 -207.60974121 308.35768127 C-216.33889112 308.36888446 -225.06789709 308.36589668 -233.79703045 308.3445583 C-238.25322074 308.33402518 -242.70917083 308.32996437 -247.1653595 308.34315491 C-251.24144275 308.35503809 -255.3170622 308.3485842 -259.39310312 308.3272447 C-260.870833 308.32276124 -262.34860174 308.32508382 -263.82630682 308.33474785 C-265.82894109 308.34684437 -267.83168448 308.33209057 -269.83428955 308.31586456 C-270.94849903 308.31521515 -272.06270851 308.31456574 -273.21068192 308.31389666 C-276.71637023 307.69753883 -277.89219491 306.57635999 -280.0625 303.8125 C-280.59375 301.8125 -280.59375 301.8125 -280.5625 299.8125 C-280.5728125 299.1525 -280.583125 298.4925 -280.59375 297.8125 C-279.75620047 294.65937235 -278.78774801 293.65653009 -276.0625 291.8125 C-272.63281274 291.32297903 -269.26780925 291.43667641 -265.8125 291.5625 C-264.87664062 291.58054687 -263.94078125 291.59859375 -262.9765625 291.6171875 C-260.67082985 291.66424327 -258.36719055 291.72996287 -256.0625 291.8125 C-256.10890625 290.56855469 -256.1553125 289.32460938 -256.203125 288.04296875 C-256.57954709 273.80762982 -255.07174606 263.62417507 -245.0625 252.8125 C-239.308679 246.98057283 -233.11941173 243.34687384 -225.0625 241.8125 C-225.06526538 241.01480257 -225.06803076 240.21710514 -225.07087994 239.39523506 C-225.13737202 219.91124342 -225.18689294 200.42727466 -225.21793652 180.94319344 C-225.23335115 171.52051828 -225.25433626 162.09791924 -225.28881836 152.67529297 C-225.31888733 144.45462802 -225.33811417 136.23401825 -225.34476548 128.01329982 C-225.34864836 123.66766259 -225.35765839 119.32218309 -225.37969017 114.97659683 C-225.54952744 80.13012158 -225.54952744 80.13012158 -222.0625 65.8125 C-221.8254686 64.82862305 -221.58843719 63.84474609 -221.34422302 62.83105469 C-220.76877135 60.58019832 -220.10728686 58.39179365 -219.375 56.1875 C-219.12226318 55.40955078 -218.86952637 54.63160156 -218.60913086 53.83007812 C-213.0875689 37.5126759 -204.10637351 22.95996846 -193.0625 9.8125 C-192.4746875 9.1009375 -191.886875 8.389375 -191.28125 7.65625 C-171.64880909 -15.54572562 -140.25489651 -31.89456157 -110.0625 -35.1875 C-108.57363281 -35.35185547 -108.57363281 -35.35185547 -107.0546875 -35.51953125 C-67.3171608 -39.33067512 -29.74142982 -26.45381676 0 0 Z M-166.0625 7.8125 C-166.89910156 8.53179687 -167.73570312 9.25109375 -168.59765625 9.9921875 C-190.88819977 29.42496903 -204.49183075 55.46783264 -208.0625 84.8125 C-208.32588819 90.04220332 -208.3167372 95.26102962 -208.28955078 100.49511719 C-208.28893672 102.05849828 -208.28920746 103.62187993 -208.2902813 105.18526077 C-208.29072909 109.33661907 -208.27921652 113.48785988 -208.26506042 117.63919067 C-208.25359123 121.54803805 -208.2531299 125.45685819 -208.25170898 129.36572266 C-208.24125331 140.76466374 -208.21333078 152.16358339 -208.1875 163.5625 C-208.14625 189.055 -208.105 214.5475 -208.0625 240.8125 C-131.5025 240.8125 -54.9425 240.8125 23.9375 240.8125 C24.02 215.485 24.1025 190.1575 24.1875 164.0625 C24.22391602 156.1002832 24.26033203 148.13806641 24.29785156 139.93457031 C24.31123905 132.72323952 24.31123905 132.72323952 24.3192749 125.51190186 C24.32296329 122.32933117 24.33779739 119.14703432 24.35980225 115.96453857 C24.62169026 76.31288198 17.76809191 43.55955674 -10.4375 14.0625 C-32.84445742 -7.27933797 -61.22958258 -18.50838317 -92.0625 -19.5625 C-118.73785287 -18.65052212 -146.01890669 -10.40894846 -166.0625 7.8125 Z M-234.5625 266.8125 C-240.04898359 275.06540771 -240.0625 281.82135217 -240.0625 291.8125 C-142.3825 291.8125 -44.7025 291.8125 55.9375 291.8125 C55.9375 280.39121335 55.57941514 272.44100812 47.9375 263.8125 C43.20380937 260.0541823 38.68619804 257.69383605 32.56700802 257.67548561 C31.6684858 257.67041107 30.76996359 257.66533653 29.84421343 257.66010821 C28.36175602 257.65936157 28.36175602 257.65936157 26.84934998 257.65859985 C25.27575379 257.65202647 25.27575379 257.65202647 23.67036778 257.6453203 C20.1375839 257.63191268 16.60482498 257.62574898 13.07202148 257.61962891 C10.54596341 257.61172942 8.01990646 257.60346056 5.49385071 257.59484863 C-2.10011348 257.57087443 -9.69407645 257.55569685 -17.28806654 257.54278857 C-19.43359611 257.53907601 -21.57912503 257.53510282 -23.72465396 257.5310359 C-37.05237639 257.50579589 -50.38009986 257.48374598 -63.70784092 257.47130775 C-66.79489203 257.46837812 -69.88194311 257.46541645 -72.96899414 257.46240234 C-74.11988264 257.46128327 -74.11988264 257.46128327 -75.29402142 257.46014158 C-87.71580901 257.44749515 -100.13745322 257.41428176 -112.55917383 257.37260051 C-125.31715805 257.33014256 -138.07506896 257.30660817 -150.83312362 257.30138719 C-157.99429598 257.29797715 -165.15524441 257.28627058 -172.31634712 257.25328445 C-179.0559333 257.22229069 -185.79506161 257.2168887 -192.53473091 257.22866821 C-195.0058233 257.22888904 -197.47693373 257.22057689 -199.94796371 257.20301437 C-203.32759871 257.18030545 -206.70582142 257.18862747 -210.08546448 257.20449829 C-211.05815436 257.1906162 -212.03084425 257.17673412 -213.03300959 257.16243136 C-221.70036593 257.26238024 -229.0690205 259.87792806 -234.5625 266.8125 Z " fill="#fff" transform="translate(348.0625,163.1875)"/>
<path d="M0 0 C0.86462357 -0.00960754 1.72924713 -0.01921509 2.62007141 -0.02911377 C4.02472908 -0.03548859 4.02472908 -0.03548859 5.45776367 -0.04199219 C6.41970139 -0.04769226 7.3816391 -0.05339233 8.37272644 -0.05926514 C10.4112335 -0.06872231 12.44975589 -0.07525196 14.48828125 -0.07910156 C17.60273047 -0.08879559 20.71651663 -0.11980756 23.83081055 -0.15136719 C25.81062433 -0.15789835 27.79044284 -0.16314838 29.77026367 -0.16699219 C30.70062943 -0.17933899 31.63099518 -0.19168579 32.58955383 -0.20440674 C37.46294239 -0.18767427 40.89327448 -0.08958815 44.81323242 3.16113281 C46.09184857 5.71836511 45.92659852 7.52850384 45.91088867 10.38769531 C45.90605469 11.93457031 45.90605469 11.93457031 45.90112305 13.51269531 C45.88855469 15.13304687 45.88855469 15.13304687 45.87573242 16.78613281 C45.8712207 17.87410156 45.86670898 18.96207031 45.86206055 20.08300781 C45.85025018 22.7757707 45.83378021 25.4684247 45.81323242 28.16113281 C46.77362427 28.13756714 46.77362427 28.13756714 47.75341797 28.11352539 C50.66909874 28.05096167 53.58463797 28.01207474 56.50073242 27.97363281 C57.50813477 27.94849609 58.51553711 27.92335938 59.5534668 27.89746094 C68.95258373 27.80440037 68.95258373 27.80440037 72.81323242 31.16113281 C73.99595925 33.52658647 73.95849111 35.00003673 73.99023438 37.63916016 C74.00948723 39.03103043 74.00948723 39.03103043 74.02912903 40.45101929 C74.03651596 41.45621613 74.04390289 42.46141296 74.05151367 43.49707031 C74.05958542 44.52796783 74.06765717 45.55886536 74.07597351 46.6210022 C74.08981887 48.80493484 74.100539 50.98888917 74.10839844 53.17285156 C74.12562719 56.51571498 74.16951175 59.85759366 74.21362305 63.20019531 C74.22374835 65.31997969 74.23226496 67.43977249 74.23901367 69.55957031 C74.25652176 70.56071869 74.27402985 71.56186707 74.29206848 72.59335327 C74.27032666 79.53614198 74.27032666 79.53614198 71.91162109 82.76123047 C68.59445456 84.97421859 66.77201779 85.2815856 62.80541992 85.25878906 C61.81928711 85.25556641 60.8331543 85.25234375 59.81713867 85.24902344 C58.78459961 85.24064453 57.75206055 85.23226562 56.68823242 85.22363281 C55.12782227 85.21686523 55.12782227 85.21686523 53.53588867 85.20996094 C50.9616128 85.19815233 48.38745096 85.18168356 45.81323242 85.16113281 C45.84465332 86.17481934 45.84465332 86.17481934 45.87670898 87.20898438 C45.95994885 90.27621535 46.01191708 93.34320863 46.06323242 96.41113281 C46.09674805 97.47460938 46.13026367 98.53808594 46.16479492 99.63378906 C46.18413086 101.17099609 46.18413086 101.17099609 46.20385742 102.73925781 C46.23527832 104.15319824 46.23527832 104.15319824 46.26733398 105.59570312 C45.67580763 108.93750902 44.43310259 110.07351618 41.81323242 112.16113281 C39.10763375 113.06299904 37.4949831 113.29592746 34.71240234 113.32226562 C33.48048409 113.33667694 33.48048409 113.33667694 32.22367859 113.35137939 C31.33928604 113.35562927 30.45489349 113.35987915 29.54370117 113.36425781 C28.62994217 113.36995789 27.71618317 113.37565796 26.7747345 113.38153076 C24.84055742 113.39097699 22.90636427 113.39751325 20.97216797 113.40136719 C18.02241707 113.41106155 15.07336635 113.44208379 12.1237793 113.47363281 C10.24292405 113.48016429 8.36206383 113.48541419 6.48120117 113.48925781 C5.60288132 113.50160461 4.72456146 113.51395142 3.81962585 113.52667236 C-1.2570993 113.50833228 -4.80324755 113.02224053 -9.18676758 110.16113281 C-10.46538373 107.60390052 -10.30013367 105.79376179 -10.28442383 102.93457031 C-10.28120117 101.90332031 -10.27797852 100.87207031 -10.2746582 99.80957031 C-10.2662793 98.72933594 -10.25790039 97.64910156 -10.24926758 96.53613281 C-10.24475586 95.44816406 -10.24024414 94.36019531 -10.2355957 93.23925781 C-10.22378534 90.54649492 -10.20731536 87.85384093 -10.18676758 85.16113281 C-10.83226562 85.17160645 -11.47776367 85.18208008 -12.14282227 85.19287109 C-15.07409759 85.23450553 -18.00531062 85.26048256 -20.93676758 85.28613281 C-21.95254883 85.30289063 -22.96833008 85.31964844 -24.01489258 85.33691406 C-24.99458008 85.34335937 -25.97426758 85.34980469 -26.98364258 85.35644531 C-27.884375 85.36691895 -28.78510742 85.37739258 -29.71313477 85.38818359 C-32.39330997 85.14217462 -33.94090453 84.62770698 -36.18676758 83.16113281 C-38.30000724 79.99127332 -38.44093974 79.19878894 -38.46142578 75.56958008 C-38.47095779 74.6417421 -38.48048981 73.71390411 -38.49031067 72.75794983 C-38.48939926 71.75791428 -38.48848785 70.75787872 -38.48754883 69.72753906 C-38.49397652 68.1833152 -38.49397652 68.1833152 -38.50053406 66.6078949 C-38.50627893 64.42992895 -38.50677647 62.25194382 -38.50244141 60.07397461 C-38.49928314 56.74006431 -38.52273331 53.40704262 -38.5480957 50.07324219 C-38.55036882 47.95800893 -38.55107213 45.84277329 -38.55004883 43.72753906 C-38.55925858 42.72952774 -38.56846832 41.73151642 -38.57795715 40.70326233 C-38.57172836 39.77227219 -38.56549957 38.84128204 -38.55908203 37.88208008 C-38.55971146 37.06506119 -38.56034088 36.2480423 -38.56098938 35.40626526 C-38.09139358 32.58893935 -37.13305667 31.22812477 -35.18676758 29.16113281 C-32.18660846 28.16107977 -30.21253002 28.04537696 -27.08129883 28.06347656 C-26.09838867 28.06669922 -25.11547852 28.06992187 -24.1027832 28.07324219 C-22.56654297 28.08581055 -22.56654297 28.08581055 -20.99926758 28.09863281 C-19.445625 28.10540039 -19.445625 28.10540039 -17.8605957 28.11230469 C-15.30259492 28.12409271 -12.74471025 28.14054766 -10.18676758 28.16113281 C-10.20771484 27.4853418 -10.22866211 26.80955078 -10.25024414 26.11328125 C-10.33348401 23.04605027 -10.38545224 19.97905699 -10.43676758 16.91113281 C-10.4702832 15.84765625 -10.50379883 14.78417969 -10.53833008 13.68847656 C-10.5512207 12.66367187 -10.56411133 11.63886719 -10.57739258 10.58300781 C-10.59833984 9.64038086 -10.61928711 8.69775391 -10.64086914 7.7265625 C-10.05308175 4.40587974 -8.75471689 3.26825998 -6.18676758 1.16113281 C-3.88820743 0.01185274 -2.55691017 0.02290754 0 0 Z M6.81323242 17.16113281 C6.52461454 24.22101024 6.52461454 24.22101024 6.24511719 31.28125 C6.20700928 32.16458008 6.16890137 33.04791016 6.12963867 33.95800781 C6.09298096 34.85874023 6.05632324 35.75947266 6.01855469 36.6875 C5.82612552 39.00580238 5.64855886 40.98775697 4.81323242 43.16113281 C1.82955516 44.1556919 -0.38718678 44.35672914 -3.51098633 44.47753906 C-4.43741943 44.51564697 -5.36385254 44.55375488 -6.31835938 44.59301758 C-7.49180908 44.63612061 -8.66525879 44.67922363 -9.87426758 44.72363281 C-13.60739258 44.86800781 -17.34051758 45.01238281 -21.18676758 45.16113281 C-21.18676758 52.75113281 -21.18676758 60.34113281 -21.18676758 68.16113281 C-13.75295109 68.37097577 -13.75295109 68.37097577 -6.31835938 68.54907227 C-5.39192627 68.58218506 -4.46549316 68.61529785 -3.51098633 68.64941406 C-2.08919067 68.68869019 -2.08919067 68.68869019 -0.63867188 68.72875977 C2.20345762 69.2299458 3.07406653 69.90819308 4.81323242 72.16113281 C6.04383663 74.62234123 6.01900472 76.41890147 6.12963867 79.16894531 C6.18680054 80.50143311 6.18680054 80.50143311 6.24511719 81.86083984 C6.30977173 83.55635986 6.30977173 83.55635986 6.37573242 85.28613281 C6.52010742 88.87488281 6.66448242 92.46363281 6.81323242 96.16113281 C14.07323242 96.16113281 21.33323242 96.16113281 28.81323242 96.16113281 C29.0623853 89.10140605 29.0623853 89.10140605 29.29125977 82.04101562 C29.32687012 81.15768555 29.36248047 80.27435547 29.39916992 79.36425781 C29.43059082 78.46352539 29.46201172 77.56279297 29.49438477 76.63476562 C29.82923277 74.03700146 30.41753083 72.36722178 31.81323242 70.16113281 C34.33000356 68.90274725 36.2261653 68.95294309 39.03979492 68.84472656 C39.96872559 68.80661865 40.89765625 68.76851074 41.85473633 68.72924805 C43.03729004 68.68614502 44.21984375 68.64304199 45.43823242 68.59863281 C49.19198242 68.45425781 52.94573242 68.30988281 56.81323242 68.16113281 C56.81323242 60.57113281 56.81323242 52.98113281 56.81323242 45.16113281 C49.37920952 44.87226918 49.37920952 44.87226918 41.94482422 44.59301758 C41.01839111 44.55490967 40.09195801 44.51680176 39.13745117 44.47753906 C38.1895874 44.44088135 37.24172363 44.40422363 36.26513672 44.36645508 C33.81323242 44.16113281 33.81323242 44.16113281 30.81323242 43.16113281 C29.66746173 40.18003437 29.62575414 37.12595229 29.49682617 33.95800781 C29.43966431 32.6330127 29.43966431 32.6330127 29.38134766 31.28125 C29.33824463 30.16911133 29.2951416 29.05697266 29.25073242 27.91113281 C29.10635742 24.36363281 28.96198242 20.81613281 28.81323242 17.16113281 C21.55323242 17.16113281 14.29323242 17.16113281 6.81323242 17.16113281 Z " fill="#fff" transform="translate(238.186767578125,259.8388671875)"/>
<path d="M0 0 C0.70253906 -0.02900391 1.40507812 -0.05800781 2.12890625 -0.08789062 C5.62703726 -0.13087333 7.49762326 0.02234999 10.30859375 2.18359375 C12.18445168 4.73307647 12.79942917 6.13852498 12.875 9.3125 C10.91255869 14.58010563 10.91255869 14.58010563 8.28125 16.4375 C4.7873797 17.70799829 1.23874238 17.83870514 -2.4375 18.125 C-22.19032478 20.03309057 -38.28945469 28.33410982 -52.125 42.3125 C-52.79273438 42.95832031 -53.46046875 43.60414063 -54.1484375 44.26953125 C-66.08740201 56.6676867 -71.384565 73.98793202 -72.17919922 90.77832031 C-72.46808899 94.99839392 -72.79208745 96.87723933 -75.4375 100.3359375 C-78.01090655 102.22858825 -79.06506042 102.99957633 -82.1875 102.9375 C-86.125 102.3125 -86.125 102.3125 -88.34375 100.171875 C-93.2021339 92.37289031 -89.98501007 80.50204739 -88.09375 72.03515625 C-83.79674973 55.52289313 -76.50206115 42.02313608 -65.125 29.3125 C-64.58617187 28.69117188 -64.04734375 28.06984375 -63.4921875 27.4296875 C-47.56714738 10.22424214 -23.20978913 0.32295625 0 0 Z " fill="#fff" transform="translate(252.125,167.6875)"/>
<path d="M0 0 C2.66053508 2.66053508 2.78483954 4.27055195 3 8 C0.83225727 13.71003955 -2.9537259 17.35956751 -7.22265625 21.55078125 C-7.9239415 22.25019333 -8.62522675 22.94960541 -9.34776306 23.67021179 C-10.82444697 25.14019737 -12.30471242 26.60659285 -13.78833008 28.06958008 C-16.06532813 30.31528927 -18.33135705 32.5716192 -20.59570312 34.83007812 C-22.03323058 36.25844037 -23.47136076 37.68619632 -24.91015625 39.11328125 C-25.59038345 39.78925858 -26.27061066 40.4652359 -26.97145081 41.16169739 C-27.60228073 41.78291977 -28.23311066 42.40414215 -28.88305664 43.04418945 C-29.43804337 43.59234818 -29.99303009 44.1405069 -30.56483459 44.70527649 C-33.46120854 47.31821813 -36.19170812 47.34616584 -40.0234375 47.26953125 C-42 47 -42 47 -44.5 45.5 C-46.19897469 42.66837552 -46.75942263 40.41480224 -46.55493164 37.10302734 C-44.39643063 28.92294476 -33.11428812 20.89305595 -27.2109375 14.97070312 C-25.36515095 13.11509856 -23.53030267 11.24908647 -21.6953125 9.3828125 C-20.5136791 8.19465748 -19.33140982 7.00713444 -18.1484375 5.8203125 C-17.60561127 5.26513947 -17.06278503 4.70996643 -16.50350952 4.13796997 C-10.84135458 -1.4913545 -7.58868361 -2.86365419 0 0 Z " fill="#fff" transform="translate(421,108)"/>
<path d="M0 0 C2.05837994 1.90839007 4.02425147 3.8797668 5.97637939 5.89672852 C6.69657257 6.62162476 7.41676575 7.346521 8.15878296 8.09338379 C10.44589263 10.40176846 12.71475122 12.72723492 14.98419189 15.05297852 C16.53257037 16.61787044 18.08203851 18.181685 19.63262939 19.74438477 C22.45387867 22.59955465 25.27468965 25.45504169 28.07745361 28.32836914 C28.64036102 28.90413696 29.20326843 29.47990479 29.78323364 30.07312012 C32.40623653 33.00056738 32.45612359 35.70639395 32.37872314 39.57641602 C32.10919189 41.55297852 32.10919189 41.55297852 30.60919189 44.05297852 C27.77763466 45.75191285 25.52389862 46.31213036 22.21221924 46.10839844 C14.07708605 43.95986953 6.0002594 32.73557323 0.07989502 26.8737793 C-1.15602945 25.65453 -2.39731008 24.4406876 -3.64373779 23.23217773 C-5.46499206 21.46578053 -7.26915329 19.68340074 -9.07049561 17.89672852 C-9.62566864 17.36422485 -10.18084167 16.83172119 -10.75283813 16.28308105 C-14.34374115 12.67228988 -15.96482474 9.70534329 -16.89080811 4.55297852 C-16.03364499 1.33861683 -15.24105044 -0.09677915 -12.89080811 -2.44702148 C-8.38361078 -4.4502203 -3.73139261 -2.85560721 0 0 Z " fill="#fff" transform="translate(104.89080810546875,109.447021484375)"/>
<path d="M0 0 C1.04803802 -0.01283524 2.09607605 -0.02567047 3.1758728 -0.03889465 C4.31231232 -0.04628159 5.44875183 -0.05366852 6.61962891 -0.0612793 C7.7837027 -0.06935104 8.94777649 -0.07742279 10.14712524 -0.08573914 C12.61353054 -0.09958722 15.07995506 -0.11030612 17.54638672 -0.11816406 C21.32377238 -0.13539578 25.10028734 -0.17927916 28.87744141 -0.22338867 C31.27066412 -0.23351358 33.66389429 -0.24203031 36.05712891 -0.2487793 C37.18951996 -0.26628738 38.32191101 -0.28379547 39.48861694 -0.30183411 C40.54295929 -0.29890854 41.59730164 -0.29598297 42.68359375 -0.29296875 C43.6102182 -0.29883499 44.53684265 -0.30470123 45.49154663 -0.31074524 C48.72878713 0.32602136 49.91999043 1.65249357 51.97119141 4.17700195 C52.50244141 6.17700195 52.50244141 6.17700195 52.47119141 8.17700195 C52.48150391 8.83700195 52.49181641 9.49700195 52.50244141 10.17700195 C51.7294004 13.08727399 50.2674193 14.26986458 47.97119141 16.17700195 C45.50500488 16.6782074 45.50500488 16.6782074 42.71533203 16.67871094 C41.14350159 16.69278236 41.14350159 16.69278236 39.53991699 16.70713806 C38.41380005 16.69590408 37.28768311 16.6846701 36.12744141 16.6730957 C34.38557556 16.67527855 34.38557556 16.67527855 32.60852051 16.67750549 C30.15402721 16.67584594 27.69952356 16.6642785 25.24511719 16.64355469 C21.48539078 16.61461126 17.72707493 16.62294347 13.96728516 16.63598633 C11.58316371 16.62974868 9.19904672 16.62135755 6.81494141 16.6105957 C5.68882446 16.61353134 4.56270752 16.61646698 3.40246582 16.61949158 C2.35457886 16.6068074 1.30669189 16.59412323 0.22705078 16.58105469 C-0.69354126 16.5756517 -1.6141333 16.57024872 -2.56262207 16.56468201 C-5.5277876 16.09856336 -6.88913317 15.26174374 -9.02880859 13.17700195 C-10.13254238 9.20356034 -10.44424442 7.08700424 -8.71630859 3.30200195 C-6.03861572 -0.06990759 -4.13250883 0.04397818 0 0 Z " fill="#fff" transform="translate(437.02880859375,265.822998046875)"/>
<path d="M0 0 C1.57183044 -0.01407143 1.57183044 -0.01407143 3.17541504 -0.02842712 C4.30153198 -0.01719315 5.42764893 -0.00595917 6.58789062 0.00561523 C7.74913452 0.00416 8.91037842 0.00270477 10.10681152 0.00120544 C12.56130483 0.002865 15.01580847 0.01443244 17.47021484 0.03515625 C21.22994126 0.06409967 24.9882571 0.05576747 28.74804688 0.04272461 C31.13216832 0.04896225 33.51628531 0.05735339 35.90039062 0.06811523 C37.02650757 0.0651796 38.15262451 0.06224396 39.31286621 0.05921936 C40.36075317 0.07190353 41.40864014 0.08458771 42.48828125 0.09765625 C43.40887329 0.10305923 44.32946533 0.10846222 45.2779541 0.11402893 C48.24311963 0.58014758 49.6044652 1.41696719 51.74414062 3.50170898 C52.84787441 7.4751506 53.15957645 9.5917067 51.43164062 13.37670898 C49.74414062 15.50170898 49.74414062 15.50170898 47.74414062 16.50170898 C46.07048803 16.61237783 44.39254461 16.66086203 42.71533203 16.67871094 C41.66729401 16.69154617 40.61925598 16.70438141 39.53945923 16.71760559 C38.40301971 16.72499252 37.2665802 16.73237946 36.09570312 16.73999023 C34.93162933 16.74806198 33.76755554 16.75613373 32.56820679 16.76445007 C30.10180149 16.77829816 27.63537697 16.78901706 25.16894531 16.796875 C21.39155966 16.81410671 17.61504469 16.8579901 13.83789062 16.90209961 C11.44466791 16.91222451 9.05143774 16.92074125 6.65820312 16.92749023 C5.52581207 16.94499832 4.39342102 16.96250641 3.22671509 16.98054504 C2.17237274 16.97761948 1.1180304 16.97469391 0.03173828 16.97167969 C-0.89488617 16.97754593 -1.82151062 16.98341217 -2.7762146 16.98945618 C-6.0134551 16.35268958 -7.2046584 15.02621737 -9.25585938 12.50170898 C-9.78710938 10.50170898 -9.78710938 10.50170898 -9.75585938 8.50170898 C-9.77132813 7.51170898 -9.77132813 7.51170898 -9.78710938 6.50170898 C-8.4429639 1.44139659 -4.84919707 0.00087529 0 0 Z " fill="#fff" transform="translate(32.255859375,265.498291015625)"/>
<path d="M0 0 C0.66 -0.0103125 1.32 -0.020625 2 -0.03125 C4.91027204 0.74179101 6.09286263 2.2037721 8 4.5 C8.50120544 6.96618652 8.50120544 6.96618652 8.50170898 9.75585938 C8.51108994 10.80374634 8.52047089 11.8516333 8.53013611 12.93127441 C8.51890213 14.05739136 8.50766815 15.1835083 8.49609375 16.34375 C8.49754898 17.5049939 8.49900421 18.66623779 8.50050354 19.8626709 C8.49884398 22.3171642 8.48727655 24.77166785 8.46655273 27.22607422 C8.43760931 30.98580063 8.44594151 34.74411648 8.45898438 38.50390625 C8.45274673 40.8880277 8.44435559 43.27214468 8.43359375 45.65625 C8.43652939 46.78236694 8.43946503 47.90848389 8.44248962 49.06872559 C8.42346336 50.64055603 8.42346336 50.64055603 8.40405273 52.24414062 C8.39864975 53.16473267 8.39324677 54.08532471 8.38768005 55.03381348 C7.9215614 57.99897901 7.08474179 59.36032457 5 61.5 C1.02655839 62.60373378 -1.08999772 62.91543583 -4.875 61.1875 C-7 59.5 -7 59.5 -8 57.5 C-8.11066885 55.8263474 -8.15915305 54.14840399 -8.17700195 52.47119141 C-8.18983719 51.42315338 -8.20267242 50.37511536 -8.21589661 49.2953186 C-8.22328354 48.15887909 -8.23067047 47.02243958 -8.23828125 45.8515625 C-8.246353 44.68748871 -8.25442474 43.52341492 -8.26274109 42.32406616 C-8.27658918 39.85766086 -8.28730807 37.39123634 -8.29516602 34.92480469 C-8.31239773 31.14741903 -8.35628111 27.37090406 -8.40039062 23.59375 C-8.41051553 21.20052729 -8.41903226 18.80729712 -8.42578125 16.4140625 C-8.44328934 15.28167145 -8.46079742 14.1492804 -8.47883606 12.98257446 C-8.47591049 11.92823212 -8.47298492 10.87388977 -8.4699707 9.78759766 C-8.47583694 8.86097321 -8.48170319 7.93434875 -8.48774719 6.97964478 C-7.59640111 2.44815449 -4.58772981 -0.07168328 0 0 Z " fill="#fff" transform="translate(256,40.5)"/>
</svg>
