<?xml version="1.0" encoding="UTF-8"?>
<svg version="1.1" xmlns="http://www.w3.org/2000/svg" width="520" height="700">
<path d="M0 0 C4.0769371 0.8493619 5.26338705 2.49159863 8 5.625 C9.78960109 8.36683937 11.31300039 11.21607249 12.8125 14.125 C13.45771606 15.37035522 13.45771606 15.37035522 14.1159668 16.64086914 C26.39012479 40.91027852 33.43654016 67.05378825 33.3125 94.3125 C33.30686035 95.62468506 33.3012207 96.93687012 33.29541016 98.28881836 C32.69532363 146.58390053 8.67418247 194.56590308 -25 228.625 C-38.07980506 239.98845055 -53.01316987 243.74809621 -70 242.625 C-84.64923449 240.3927357 -97.31794272 233.14211473 -106.3125 221.3125 C-115.3743812 208.05835457 -118.9246295 194.13905918 -116.46704102 178.15966797 C-115.73999268 174.59225074 -114.94657007 171.04680134 -114.125 167.5 C-110.91213855 152.77173414 -108.92032451 138.56875594 -108.6875 123.5 C-108.66067139 122.36280518 -108.66067139 122.36280518 -108.63330078 121.20263672 C-108.64375984 114.4386114 -110.07484579 107.77677676 -114.25 102.3125 C-119.37204486 97.30686525 -124.43278894 95.00720118 -131.5 94.25 C-141.10830182 94.41073367 -150.98069778 100.41710335 -158 106.625 C-165.46364586 115.3706368 -165.57315022 125.64430996 -165 136.625 C-164.53326682 141.93524397 -163.78300379 147.21124286 -163.03378296 152.48773193 C-162.67778795 155.00620756 -162.33669511 157.52633649 -161.99926758 160.04736328 C-161.04922609 167.12417972 -160.07381849 174.19466826 -159 181.25390625 C-154.63639483 211.17434216 -153.58675136 245.60162588 -164.4609375 274.234375 C-165.18767105 276.58352403 -165.18767105 276.58352403 -164.42578125 278.71484375 C-162.54586246 281.23341988 -160.41271404 282.67652746 -157.8125 284.4375 C-146.68085106 292.26329787 -146.68085106 292.26329787 -144 297.625 C-140.03938261 296.3610971 -136.2877183 294.89516513 -132.5 293.1875 C-113.23039937 285.22524448 -90.42087943 284.77667883 -70.93066406 292.43847656 C-48.88686821 301.78819364 -33.35538387 317.91497827 -24.1875 340 C-16.57554421 361.1128909 -17.38986342 383.13271504 -26.34765625 403.72265625 C-32.8047774 417.34287713 -32.8047774 417.34287713 -38 421.625 C-41.17299072 422.5149206 -43.84019794 422.580289 -47 421.625 C-49.23940553 419.80676707 -49.95750306 418.73655446 -51 416 C-51 410.96755969 -48.54618669 407.8603642 -46 403.625 C-36.80345265 387.36036386 -33.59855403 371.056055 -38 352.625 C-40.70823525 343.78091928 -44.62069009 336.1318572 -50 328.625 C-50.46019531 327.97917969 -50.92039062 327.33335937 -51.39453125 326.66796875 C-60.60262372 314.91239248 -76.41410768 306.91571133 -91 304.625 C-110.34275706 302.72118533 -127.69649069 307.10412105 -143.1875 319.1875 C-157.02280109 331.24811587 -164.4946571 347.66336023 -166.3203125 365.80859375 C-166.9808037 383.44370867 -160.68599682 400.10539851 -149.375 413.5 C-137.44648967 425.75681796 -121.26548082 433.60266057 -104.05834961 433.86645508 C-92.7505765 433.90332253 -83.48517324 432.8707631 -73.1875 427.875 C-68.72076549 425.73509256 -65.87764394 424.99911869 -61 426.625 C-58.35235155 428.30184402 -58.04522955 429.47638861 -57.125 432.5 C-56.9712899 436.34275251 -57.71898548 437.56930131 -60 440.625 C-76.7042709 451.3978606 -99.07846449 453.30200188 -118.234375 449.77734375 C-142.38489714 444.44072952 -160.3144953 429.40919246 -173.56640625 408.8984375 C-174.27603516 407.77308594 -174.27603516 407.77308594 -175 406.625 C-176.67618974 409.56185389 -177.2497691 411.66702211 -177.25537109 415.03881836 C-177.26580948 416.33552711 -177.26580948 416.33552711 -177.27645874 417.65843201 C-177.27546173 418.58454788 -177.27446472 419.51066376 -177.2734375 420.46484375 C-177.29372371 422.4342505 -177.31457445 424.40365151 -177.3359375 426.37304688 C-177.35854964 429.47164776 -177.37501419 432.57002152 -177.38085938 435.66870117 C-177.39038155 438.66366403 -177.42415182 441.657609 -177.4609375 444.65234375 C-177.45589203 445.57643539 -177.45084656 446.50052704 -177.44564819 447.45262146 C-177.51062735 451.7032793 -177.62797682 454.02390039 -179.90869141 457.70898438 C-182.16695769 459.77796334 -182.98837516 460.28749536 -186 460.1875 C-186.66 460.18878906 -187.32 460.19007813 -188 460.19140625 C-191.10422387 459.31228035 -192.08043163 458.26391532 -194 455.625 C-194.61536398 452.11754979 -194.56008141 448.63933726 -194.53125 445.0859375 C-194.5350769 444.04990387 -194.53890381 443.01387024 -194.54284668 441.94644165 C-194.54556832 439.75253326 -194.53818961 437.55859257 -194.52148438 435.36474609 C-194.50020928 432.03277581 -194.52121083 428.70299403 -194.546875 425.37109375 C-194.54422923 423.23437029 -194.5390991 421.09764818 -194.53125 418.9609375 C-194.54339539 417.482267 -194.54339539 417.482267 -194.55578613 415.97372437 C-194.42946095 406.48248571 -191.77714159 398.95993569 -185.3671875 391.90234375 C-184 390.625 -184 390.625 -182 389.625 C-182.10828125 388.47837891 -182.10828125 388.47837891 -182.21875 387.30859375 C-184.54624082 360.44547057 -181.4738097 337.16188466 -163.7109375 315.8828125 C-161.84081474 313.76157785 -159.94701158 311.67557603 -158 309.625 C-159.27459446 305.85915273 -160.5709318 303.7244451 -163.625 301.1875 C-164.68847656 300.29804687 -164.68847656 300.29804687 -165.7734375 299.390625 C-167.90550797 297.69993052 -170.06443526 296.05825588 -172.25 294.4375 C-177.32270803 290.66778168 -180.4997636 288.00100468 -182 281.625 C-182.48508827 275.19339861 -180.86777667 269.66051287 -179.125 263.5 C-175.14709234 249.37747616 -173.56343479 235.82001224 -173.5625 221.1875 C-173.55940323 219.96652618 -173.55940323 219.96652618 -173.5562439 218.72088623 C-173.56442875 200.45274507 -175.94437746 182.68882538 -178.69287109 164.66394043 C-185.90619384 116.77676643 -185.90619384 116.77676643 -174.85546875 99.96875 C-165.53651777 88.1974435 -151.81340001 80.08998732 -137 77.625 C-125.54590679 76.60859582 -115.16041717 79.68621224 -106 86.625 C-98.32355334 93.41259495 -93.43591993 102.42851809 -92 112.625 C-90.71518888 133.9022895 -93.29598872 155.32931236 -98.3737793 175.97827148 C-101.19280294 187.69129852 -100.22873501 197.64956194 -94.4921875 208.46875 C-88.93732186 217.04649602 -80.61351663 222.83726128 -70.62109375 225.18359375 C-60.52185139 226.88436035 -51.15216075 225.43722335 -42.4375 220 C-32.89987606 213.1563365 -25.81254528 204.05409179 -19 194.625 C-18.59668457 194.07134766 -18.19336914 193.51769531 -17.77783203 192.94726562 C2.58009068 164.68741645 16.48873562 130.57990462 16.3125 95.4375 C16.30758545 94.26131104 16.3026709 93.08512207 16.29760742 91.87329102 C16.16841234 82.18896002 15.21408754 73.04421652 13 63.625 C12.83902832 62.91150391 12.67805664 62.19800781 12.51220703 61.46289062 C8.67105706 44.85849595 1.97794255 28.92157092 -6.78515625 14.31640625 C-8.21160706 11.1561985 -8.38343353 9.05696678 -8 5.625 C-5.54405875 2.30225596 -4.0743356 0.84881992 0 0 Z " fill="#fff" transform="translate(479,52.375)"/>
<path d="M0 0 C0.78246094 0.350625 1.56492187 0.70125 2.37109375 1.0625 C16.52243318 8.12590686 25.05845558 20.07839317 30.0546875 34.703125 C32.53426334 43.35090189 32.95762359 52.32263577 31 61.125 C29.28225087 68.90466092 29.0225578 75.70576392 32.67578125 82.9609375 C37.42921647 90.28038642 44.65370922 93.12326929 52.90234375 94.921875 C54.24734427 95.19816778 55.59239822 95.47420058 56.9375 95.75 C76.22283561 100.05908383 92.9663382 109.01532131 107 123 C108.06154297 124.02673828 108.06154297 124.02673828 109.14453125 125.07421875 C120.74051588 137.06930036 126.40397298 154.53475364 127 171 C127.0515625 171.98871094 127.103125 172.97742188 127.15625 173.99609375 C127.59134353 189.96765211 125.09155564 205.98777551 122.6875 221.7421875 C120.31515522 237.46243162 118.50934036 252.89305232 118.5 268.8125 C118.49578033 269.51818115 118.49156067 270.2238623 118.48721313 270.95092773 C118.42454966 290.0578306 118.42454966 290.0578306 126 307 C130.7624658 310.619474 134.51419735 311.70861658 140.5 311.453125 C145.56919323 310.53433373 149.54448476 308.07177401 152.50268555 303.86108398 C157.64548007 294.03417887 157.63288867 280.58436861 157.625 269.75 C157.62845428 269.04108612 157.63190857 268.33217224 157.63546753 267.60177612 C157.64473073 247.04562187 154.2913382 226.66610016 151.18040466 206.39375305 C147.42365058 181.48369176 146.38881294 153.83542655 161 132 C163.79514945 128.44302478 166.80521457 125.19998866 170 122 C171.12535156 120.85724609 171.12535156 120.85724609 172.2734375 119.69140625 C186.84755861 105.72252272 205.39705965 98.32901249 224.92163086 94.41455078 C231.78239825 92.97976916 236.4030721 90.66711514 241.3125 85.625 C246.01441015 78.31091755 247.14951381 72.14056525 245.54296875 63.55859375 C245.36378906 62.75550781 245.18460937 61.95242187 245 61.125 C242.07170044 47.62111498 244.60418891 34.10955304 251.07421875 21.98828125 C259.88721863 8.3129366 272.04963456 -0.47471138 288 -4 C305.15650573 -5.45734817 319.62079238 -2.78808232 333.453125 7.89453125 C338.52883548 12.19611607 342.91452475 16.99316408 347.125 22.125 C347.610896 22.69863281 348.09679199 23.27226562 348.59741211 23.86328125 C351.01523073 26.92529679 351.98586035 28.86595061 352.3984375 32.77734375 C352 36 352 36 350.5 38.4375 C347.06645361 40.58346649 343.89952975 40.7608271 340 40 C337.67492612 38.14177166 336.18058474 36.70226795 334.375 34.4375 C333.90263916 33.88755371 333.43027832 33.33760742 332.94360352 32.77099609 C331.01081432 30.50868983 329.15371749 28.19580255 327.31640625 25.85546875 C321.78863855 18.91835518 314.59481726 15.015842 306 13 C293.38280331 11.75531289 283.22538481 13.45730113 273.125 21.625 C265.0472464 29.4095502 261.4479346 38.94503004 260.75 49.9375 C260.82101137 52.9495654 261.33001759 55.69143415 262 58.625 C264.47387928 70.31318325 263.74686401 81.81236178 257.6796875 92.27734375 C249.43295298 104.0165478 239.17618614 108.76186805 225.5625 111.75 C205.40079222 116.5060636 185.49562891 125.69900277 173.75 143.625 C169.13163798 151.77949206 166.40285381 161.61686332 166 171 C165.9484375 171.95777344 165.896875 172.91554687 165.84375 173.90234375 C165.42145158 189.54498088 167.93208055 205.18495054 170.3125 220.60546875 C172.75818846 236.66633234 174.49097082 252.42216212 174.5 268.6875 C174.5063295 269.80483017 174.5063295 269.80483017 174.51278687 270.94473267 C174.53379605 279.30139586 173.97217546 287.41398045 172.6328125 295.66796875 C172.51393677 296.40415939 172.39506104 297.14035004 172.27258301 297.89884949 C170.50941643 307.82378714 166.42839035 316.00728772 158.46875 322.375 C149.14093586 328.51482703 138.879414 329.55731874 128.015625 327.41015625 C119.7312648 324.87102325 113.23222161 319.75919441 108.37109375 312.6015625 C101.63907601 299.53943852 101.41846543 283.08058978 101.5 268.6875 C101.50043304 267.9074057 101.50086609 267.1273114 101.50131226 266.32357788 C101.5496414 250.12352706 103.56339114 234.3655896 106.03083801 218.38130188 C112.74758607 179.41423178 112.74758607 179.41423178 101.43359375 142.640625 C99.70667194 140.33806258 97.89898729 138.16217317 96 136 C95.48824219 135.39414063 94.97648438 134.78828125 94.44921875 134.1640625 C82.41188906 120.96182994 63.3917298 114.25227408 46.35742188 110.77270508 C34.54106922 108.29131636 24.92392273 102.25129941 18.0625 92.0625 C11.78735613 80.73608784 11.73535377 68.64483762 14.54296875 56.22265625 C16.65361691 45.95805111 13.29361925 35.89202016 7.71484375 27.28515625 C2.13782191 19.85336177 -4.99998237 15.32990147 -14 13 C-25.51583447 11.69890473 -35.77834584 13.06184662 -45.4375 19.875 C-55.9450442 28.72443882 -63.80274085 40.23245122 -71.45581055 51.51049805 C-72.01953369 52.338479 -72.58325684 53.16645996 -73.1640625 54.01953125 C-73.91357178 55.13485229 -73.91357178 55.13485229 -74.67822266 56.27270508 C-76 58 -76 58 -78 59 C-81.54250417 59.26240772 -84.13259827 59.4108745 -87.375 57.875 C-89.76197776 55.12079489 -90.06797208 53.67049253 -90 50 C-83.14316797 30.43294273 -61.60046511 8.43795824 -43.5625 -0.51953125 C-30.03539937 -6.14099083 -13.29752592 -6.24798745 0 0 Z " fill="#fff" transform="translate(118,4)"/>
<path d="M0 0 C2.4375 1.5 2.4375 1.5 4 4 C4.39670268 9.69001898 3.82311575 13.20857586 1.375 18.4375 C-1.67897009 25.4105014 -3.56009384 32.54018919 -5.3125 39.9375 C-5.56660645 41.00347412 -5.82071289 42.06944824 -6.08251953 43.16772461 C-15.34088262 83.25058344 -4.7649721 124.73917922 16.57421875 159.25 C18.92939397 162.9222896 21.42136242 166.48182728 24 170 C24.62455078 170.85561523 24.62455078 170.85561523 25.26171875 171.72851562 C30.26479518 178.52500252 35.57744318 184.93740101 41.3828125 191.07421875 C43 193 43 193 43 195 C43.57234375 195.2784375 44.1446875 195.556875 44.734375 195.84375 C46.96379883 196.98152492 49.09468 198.22851626 51.25 199.5 C60.35302815 204.525939 70.08580142 205.54352757 80.1875 202.8125 C90.95803404 199.17103373 98.63459908 191.95991091 104 182 C108.55290765 170.2100078 106.83589218 160.18221571 104.125 148.1875 C101.60210585 136.46125843 99.56630695 124.9868305 99 113 C98.95617187 112.08605469 98.91234375 111.17210937 98.8671875 110.23046875 C98.25012549 95.03017446 98.65788891 81.17700177 109 69 C117.33179493 60.30520155 126.86632376 56.12452461 138.875 55.6875 C154.22370147 56.09016655 168.59827336 64.2273718 179.03515625 75.125 C189.13145875 87.12909639 189.93996848 101.98980208 189 117 C187.72733307 129.89486317 185.81227121 142.74925614 183.84375 155.5546875 C181.68781932 170.04654569 180.60518963 184.17194694 180.5625 198.8125 C180.55641724 199.59239288 180.55033447 200.37228577 180.54406738 201.17581177 C180.4679174 216.01151603 182.21013858 230.49791651 186.6875 244.6875 C188.85830697 251.62288617 190.54323295 258.2314548 187.23046875 265.18359375 C183.52667428 270.65109987 177.68496275 274.50079007 172.4375 278.375 C165.44664941 283.73099199 160.42996754 290.86075469 156.0078125 298.40625 C155 300 155 300 153 302 C149.99252622 302.33955349 147.90107722 302.55613536 145 302 C142.04564181 299.48879554 141.09695691 298.03373181 140.734375 294.16796875 C141.64209266 283.34210073 152.35171619 273.06523079 160 266 C163.83413702 262.76723204 167.86518349 259.83718792 172 257 C171.82984375 256.35417969 171.6596875 255.70835937 171.484375 255.04296875 C169.79529975 248.47534104 168.2862803 241.88237004 166.875 235.25 C166.61928223 234.06313599 166.61928223 234.06313599 166.35839844 232.85229492 C166.19629883 232.08119385 166.03419922 231.31009277 165.8671875 230.515625 C165.72394043 229.83790039 165.58069336 229.16017578 165.43310547 228.46191406 C164.34076909 222.25271446 163.82189069 216.1399512 163.7265625 209.83984375 C163.71417038 209.06923111 163.70177826 208.29861847 163.68901062 207.50465393 C163.65653783 204.98222373 163.63773773 202.46010538 163.625 199.9375 C163.62043793 199.06528809 163.61587585 198.19307617 163.61117554 197.29443359 C163.57738743 179.02978502 165.667698 161.29351115 168.3671875 143.25830078 C173.52673353 115.05453491 173.52673353 115.05453491 167.4375 87.8125 C161.46043444 80.91588589 152.0158872 74.85930748 143 73 C135.37917755 72.49194517 130.09873371 73.91431385 123.75 78.1875 C116.37030444 85.73491591 115.77948027 94.0210803 115.82373047 104.12744141 C116.01106675 119.67635296 118.45856012 134.36370853 121.96728516 149.51123047 C125.69412398 166.21639992 124.57999733 180.99890631 115.9453125 195.9921875 C107.88872358 208.44916233 97.1044079 215.66844326 83 220 C66.30483844 223.4984556 51.26919126 220.01212079 37 211 C30.73217395 206.53524719 26.03152932 200.74450645 21.33056641 194.70605469 C20.38528427 193.4940122 19.43377526 192.28681478 18.47802734 191.08300781 C11.29415737 182.03345028 4.66297527 172.90741973 -0.98242188 162.81640625 C-1.98682999 161.02350884 -3.01606038 159.24656029 -4.046875 157.46875 C-12.92696086 141.83337955 -18.98579631 124.4960157 -23 107 C-23.24556641 105.93990723 -23.24556641 105.93990723 -23.49609375 104.85839844 C-30.69841845 72.13543973 -26.43387275 33.07828908 -11 3 C-7.47945032 -0.38056758 -4.83596902 -0.60449613 0 0 Z " fill="#fff" transform="translate(26,74)"/>
<path d="M0 0 C2.0807324 -0.00968346 4.16046699 -0.04070928 6.2409668 -0.07226562 C7.57494534 -0.07879869 8.90893091 -0.08404797 10.24291992 -0.08789062 C11.44924072 -0.09723633 12.65556152 -0.10658203 13.8984375 -0.11621094 C18.58798511 0.37724777 21.82350925 1.75189555 25.14257812 5.12988281 C26.49590933 7.62789583 26.63324915 9.17748976 26.57885742 12.00585938 C26.56918945 12.8953125 26.55952148 13.78476562 26.54956055 14.70117188 C26.52442383 15.6215625 26.49928711 16.54195313 26.47338867 17.49023438 C26.45308594 18.89402344 26.45308594 18.89402344 26.43237305 20.32617188 C26.39708821 22.63144764 26.34779149 24.93554498 26.28588867 27.24023438 C27.5878418 27.19382812 28.88979492 27.14742188 30.23120117 27.09960938 C31.95774063 27.06207591 33.68430503 27.02567744 35.41088867 26.99023438 C36.26682617 26.95671875 37.12276367 26.92320312 38.00463867 26.88867188 C43.60081692 26.80257682 46.93030497 27.35955855 51.28588867 31.24023438 C53.70428567 34.8116848 53.60822377 38.46827335 53.62182617 42.63867188 C53.63181137 43.70754135 53.63181137 43.70754135 53.64199829 44.79800415 C53.65210155 46.30248442 53.65681603 47.80700928 53.65649414 49.31152344 C53.66086156 51.60102044 53.69718467 53.8885789 53.73510742 56.17773438 C53.74097751 57.64387366 53.74494562 59.11002204 53.74682617 60.57617188 C53.7611972 61.25449066 53.77556824 61.93280945 53.79037476 62.63168335 C53.74307621 67.60747492 52.46551259 70.45250476 49.28588867 74.24023438 C46.42559598 76.22311488 44.17706193 76.48200699 40.73901367 76.43554688 C39.47250977 76.42587891 39.47250977 76.42587891 38.18041992 76.41601562 C37.30772461 76.39925781 36.4350293 76.3825 35.53588867 76.36523438 C34.20364258 76.35169922 34.20364258 76.35169922 32.84448242 76.33789062 C30.6580081 76.31438015 28.47208773 76.28151937 26.28588867 76.24023438 C26.31730957 77.10974731 26.31730957 77.10974731 26.34936523 77.99682617 C26.43285674 80.64028361 26.4846502 83.28346318 26.53588867 85.92773438 C26.5694043 86.83974609 26.60291992 87.75175781 26.63745117 88.69140625 C26.69885419 92.91286362 26.68859688 95.52625859 24.58276367 99.25976562 C18.60081784 104.4176679 11.454533 103.61255322 3.99365234 103.61083984 C1.85783228 103.61521503 -0.27592158 103.6515791 -2.41137695 103.68945312 C-3.78181266 103.69532214 -5.15225809 103.69929097 -6.52270508 103.70117188 C-8.37593384 103.71349854 -8.37593384 103.71349854 -10.26660156 103.72607422 C-14.38228295 103.14607238 -16.51192742 101.84882414 -19.71411133 99.24023438 C-22.73508049 94.01528771 -23.11024839 89.64992183 -22.90161133 83.80273438 C-22.88807617 83.07119141 -22.87454102 82.33964844 -22.8605957 81.5859375 C-22.82565007 79.80371015 -22.77185938 78.02186864 -22.71411133 76.24023438 C-23.94387695 76.28664063 -25.17364258 76.33304687 -26.44067383 76.38085938 C-28.07346192 76.41839473 -29.70627644 76.454793 -31.33911133 76.49023438 C-32.14735352 76.52375 -32.9555957 76.55726563 -33.78833008 76.59179688 C-39.27781359 76.68105677 -42.38497793 75.94330849 -46.71411133 72.24023438 C-49.16650982 68.56163663 -49.03714031 65.72631524 -49.05004883 61.46679688 C-49.05670563 60.70603851 -49.06336243 59.94528015 -49.07022095 59.16146851 C-49.08034055 57.55265722 -49.08503818 55.94380402 -49.0847168 54.33496094 C-49.08908363 51.8808013 -49.12538917 49.42845005 -49.16333008 46.97460938 C-49.16919982 45.40951134 -49.17316816 43.84440479 -49.17504883 42.27929688 C-49.19660538 41.18374985 -49.19660538 41.18374985 -49.21859741 40.06607056 C-49.18689993 36.508223 -48.82065276 34.41257822 -46.93530273 31.36279297 C-43.52133931 28.10042784 -41.0950383 26.9776497 -36.38598633 27.04492188 C-35.58676758 27.05136719 -34.78754883 27.0578125 -33.96411133 27.06445312 C-33.13911133 27.08121094 -32.31411133 27.09796875 -31.46411133 27.11523438 C-30.62364258 27.12425781 -29.78317383 27.13328125 -28.91723633 27.14257812 C-26.84940528 27.16607621 -24.78172138 27.2019453 -22.71411133 27.24023438 C-22.74891602 26.16644531 -22.7837207 25.09265625 -22.81958008 23.98632812 C-22.84774051 22.55014599 -22.87503824 21.11394676 -22.90161133 19.67773438 C-22.92674805 18.97326172 -22.95188477 18.26878906 -22.9777832 17.54296875 C-23.04953059 12.35324136 -22.12312807 8.8541139 -19.71411133 4.24023438 C-14.10982669 -1.01378247 -7.22677147 0.02036427 0 0 Z M-6.71411133 16.24023438 C-6.72829102 17.62597656 -6.7424707 19.01171875 -6.75708008 20.43945312 C-6.80398931 22.26891316 -6.85223665 24.09833922 -6.90161133 25.92773438 C-6.90741211 26.83974609 -6.91321289 27.75175781 -6.91918945 28.69140625 C-7.07160266 33.34847647 -7.18201015 35.56418312 -10.13989258 39.32226562 C-13.31605907 41.68872655 -14.97340428 42.36569248 -18.84692383 42.55664062 C-19.65258789 42.59853516 -20.45825195 42.64042969 -21.28833008 42.68359375 C-22.13008789 42.72291016 -22.9718457 42.76222656 -23.83911133 42.80273438 C-24.68860352 42.84591797 -25.5380957 42.88910156 -26.41333008 42.93359375 C-28.51339355 43.03977673 -30.61373081 43.14051934 -32.71411133 43.24023438 C-32.71411133 48.85023438 -32.71411133 54.46023438 -32.71411133 60.24023438 C-27.39016779 60.44940085 -27.39016779 60.44940085 -22.06518555 60.62817383 C-17.29987316 60.86183446 -13.82955452 61.60710127 -9.71411133 64.24023438 C-7.62666088 67.37141005 -7.43757137 68.30969662 -7.30004883 71.90820312 C-7.26137695 72.80087891 -7.22270508 73.69355469 -7.18286133 74.61328125 C-7.15192383 75.54205078 -7.12098633 76.47082031 -7.08911133 77.42773438 C-7.05043945 78.36810547 -7.01176758 79.30847656 -6.97192383 80.27734375 C-6.87768459 82.59798504 -6.7948101 84.91908278 -6.71411133 87.24023438 C-1.10411133 87.24023438 4.50588867 87.24023438 10.28588867 87.24023438 C10.40963867 84.90960938 10.53338867 82.57898438 10.66088867 80.17773438 C11.35763048 67.05576362 11.35763048 67.05576362 15.82495117 62.84960938 C20.21715603 60.80718454 23.87364079 60.57422118 28.66088867 60.49023438 C29.49233398 60.46058594 30.3237793 60.4309375 31.18041992 60.40039062 C33.21506694 60.33023038 35.25047959 60.28290543 37.28588867 60.24023438 C37.28588867 54.63023437 37.28588867 49.02023437 37.28588867 43.24023438 C36.05612305 43.21445312 34.82635742 43.18867188 33.55932617 43.16210938 C31.92647935 43.10580431 30.29366822 43.04845752 28.66088867 42.99023438 C27.85264648 42.97605469 27.0444043 42.961875 26.21166992 42.94726562 C20.86908471 42.73008736 17.33607206 42.05363781 13.28588867 38.24023438 C10.42500983 31.27207041 10.68044166 23.67098239 10.28588867 16.24023438 C4.67588867 16.24023438 -0.93411133 16.24023438 -6.71411133 16.24023438 Z " fill="#fff" transform="translate(375.714111328125,369.759765625)"/>
<path d="M0 0 C4.07633583 0.66703677 4.91551169 1.37246961 7.4375 4.5625 C8.4921875 7.84765625 8.4921875 7.84765625 9.3125 11.625 C13.81983123 30.32997115 25.65279058 40.46025617 41.28515625 50.3671875 C49.12171968 55.49700428 53.98685917 61.41894844 56.4375 70.5625 C56.74890469 74.21052815 56.76534397 77.84796221 56.7734375 81.5078125 C56.7834227 83.07896317 56.7834227 83.07896317 56.79360962 84.68185425 C56.80370726 86.88895924 56.80842754 89.09609459 56.80810547 91.30322266 C56.81249432 94.68312367 56.84888844 98.06173465 56.88671875 101.44140625 C56.8925843 103.58853721 56.89655544 105.73567435 56.8984375 107.8828125 C56.91280853 108.89328644 56.92717957 109.90376038 56.94198608 110.94485474 C56.89633783 117.92814111 56.89633783 117.92814111 54.53369141 121.19458008 C52.28932513 122.65919506 51.0984457 123.13019716 48.4375 123.125 C47.4475 123.15787109 47.4475 123.15787109 46.4375 123.19140625 C43.16824666 122.16337932 42.22793755 120.45589299 40.4375 117.5625 C39.87285125 114.27169823 39.92751699 111.02715213 39.96875 107.6953125 C39.96170044 106.74236298 39.95465088 105.78941345 39.9473877 104.80758667 C39.91795192 100.7431636 39.93450576 96.67922229 39.94677734 92.61474609 C39.94916488 89.64131285 39.92820155 86.66864993 39.90625 83.6953125 C39.91756958 82.78468048 39.92888916 81.87404846 39.94055176 80.93582153 C39.89346234 74.95790404 38.94038147 71.45164851 35.4375 66.5625 C32.61868586 64.36468478 32.61868586 64.36468478 29.375 62.6875 C12.41646222 52.90400408 -0.51337426 38.9983987 -6.65625 20.21875 C-7.98254559 15.25742204 -8.91796125 10.72379731 -8.5625 5.5625 C-5.92388121 1.88442532 -4.50182231 0.71081405 0 0 Z " fill="#fff" transform="translate(170.5625,389.4375)"/>
<path d="M0 0 C2 2 2 2 2.375 5.875 C2.28294676 8.85319304 2.06485821 9.89622686 0.4375 12.5 C-2.88258975 14.54313215 -5.27577422 14.79520835 -9 14 C-12.10697652 12.84621562 -15.1172346 11.56603981 -18.1328125 10.19140625 C-29.8264524 5.33233245 -43.60232306 7.43426391 -55 12 C-55.70640625 12.36609375 -56.4128125 12.7321875 -57.140625 13.109375 C-60.18316976 14.56672837 -62.69502316 14.35410466 -66 14 C-68.4375 12.5 -68.4375 12.5 -70 10 C-70.60921535 7.19531045 -70.86557371 4.75263191 -70 2 C-66.74969486 -1.11609146 -63.3918361 -2.92662806 -59.25 -4.625 C-58.28578125 -5.02976562 -57.3215625 -5.43453125 -56.328125 -5.8515625 C-38.38294653 -12.04391282 -15.87401233 -11.13832846 0 0 Z " fill="#fff" transform="translate(290,367)"/>
<path d="M0 0 C1.29164062 -0.02835937 2.58328125 -0.05671875 3.9140625 -0.0859375 C7.375 0.375 7.375 0.375 9.80078125 2.1484375 C11.9082846 5.1292735 12.01928124 6.91384181 11.8203125 10.46875 C11.375 12.375 11.375 12.375 9.3125 14.875 C5.73276218 16.70295123 3.36188488 16.44373939 -0.625 16.375 C-4.63754829 17.04555977 -4.63754829 17.04555977 -7.625 19.375 C-8.85017173 22.55956189 -9.67802551 25.76576446 -10.5390625 29.06640625 C-12.55688859 35.21424331 -16.36726531 39.00265146 -21.8125 42.3125 C-28.27551496 44.75408343 -34.99086087 45.68840601 -41.5625 43.0625 C-44.625 41.375 -44.625 41.375 -46.625 38.375 C-46.96649948 35.16490487 -46.91080109 33.03591501 -45.625 30.0625 C-41.87646107 26.89967027 -36.52926577 27.40464806 -31.8125 27.25 C-28.35494234 26.70322694 -28.35494234 26.70322694 -26.9375 23.4375 C-26.47341698 22.09221172 -26.03866209 20.73663772 -25.625 19.375 C-23.22805694 11.88455294 -20.45312825 6.65169243 -13.625 2.375 C-9.02828215 0.45109281 -4.9649907 0.04974941 0 0 Z " fill="#fff" transform="translate(121.625,127.625)"/>
<path d="M0 0 C1.19882812 -0.00515625 2.39765625 -0.0103125 3.6328125 -0.015625 C6.70806718 0.23632358 8.3666394 0.51611018 10.875 2.25 C13.21668764 5.76253146 13.37123677 7.11469356 12.875 11.25 C11.26171875 13.90625 11.26171875 13.90625 8.875 16.25 C5.74609375 16.8515625 5.74609375 16.8515625 2.3125 16.875 C-2.02781269 16.79505503 -2.02781269 16.79505503 -5.91015625 18.37890625 C-7.59836557 20.9790743 -8.21935995 23.56774372 -9 26.5625 C-10.85215472 32.8291889 -12.32106204 36.91145131 -18.08203125 40.453125 C-25.29524683 44.25378033 -31.98984763 45.01579197 -40.125 44.25 C-43.375 42.75 -43.375 42.75 -45.125 40.25 C-46.0006907 36.3294765 -45.71750349 33.35036362 -43.8125 29.8125 C-40.18461157 27.70326254 -36.92764875 27.62512734 -32.78125 27.42578125 C-30.42264555 27.26969713 -28.38713254 26.90623185 -26.125 26.25 C-25.88716797 25.08984375 -25.88716797 25.08984375 -25.64453125 23.90625 C-23.65465318 15.02325841 -21.14922654 7.3385339 -13.125 2.25 C-8.62950914 0.45180366 -4.82953522 -0.02086192 0 0 Z " fill="#fff" transform="translate(424.125,64.75)"/>
<path d="M0 0 C6.51940385 2.65401407 9.74305986 6.35833857 12.9375 12.62890625 C14.42606053 16.81105251 15.41112047 20.96410187 16.25 25.31640625 C17.80460937 25.46335937 17.80460937 25.46335937 19.390625 25.61328125 C20.76051741 25.76340645 22.13030404 25.91449912 23.5 26.06640625 C24.52287109 26.15921875 24.52287109 26.15921875 25.56640625 26.25390625 C28.87933642 26.6398787 31.00679066 27.13487201 33.69921875 29.14453125 C35.80168304 32.08904044 35.90589522 33.88612523 35.67578125 37.41015625 C35.25 39.31640625 35.25 39.31640625 33.5 41.81640625 C27.15569273 44.74454807 19.98495878 44.07828393 13.375 42.12890625 C6.9269713 39.61032723 2.98207845 35.80259549 0.12109375 29.58203125 C-1.1695371 26.22523351 -2.13607337 22.79947652 -3.0390625 19.3203125 C-3.55764027 17.12366086 -3.55764027 17.12366086 -5.75 16.31640625 C-9.02850852 16.15734115 -12.30442549 16.06235601 -15.5859375 15.98828125 C-18.75 15.31640625 -18.75 15.31640625 -21.1328125 12.9609375 C-23.11343854 9.72208767 -23.3854292 8.04955281 -22.75 4.31640625 C-17.16455446 -2.57230992 -8.13569353 -2.022367 0 0 Z " fill="#fff" transform="translate(97.75,65.68359375)"/>
<path d="M0 0 C6.71210106 1.59766912 11.34394026 5.178701 15 11 C16.21677077 13.60809938 17.11186496 16.26604212 18 19 C19.51894652 23.79133906 19.51894652 23.79133906 23 27 C24.60469765 26.99431965 26.20941298 26.94710286 27.8125 26.875 C32.05725578 26.82592768 34.63909297 27.18117475 38 30 C39.44430855 32.88861709 39.37688506 34.79647701 39 38 C36.2566645 41.42916937 34.29009095 43.22217042 30 44 C22.81878259 44.7140025 15.9184373 43.87048314 9.984375 39.5234375 C4.55068604 34.52353043 2.64928803 29.30054749 1.25 22.1875 C0.26065167 18.71761966 0.26065167 18.71761966 -3.1875 17.0625 C-6.92254218 15.82641112 -6.92254218 15.82641112 -10.625 16.0625 C-14 16 -14 16 -16.9375 14.5 C-19.44194753 11.46430603 -19.55895257 9.81628375 -19.56640625 6 C-17.08838043 -2.74999463 -7.11942379 -0.71489038 0 0 Z " fill="#fff" transform="translate(398,128)"/>
<path d="M0 0 C6.37984366 -0.273911 13.06859328 0.57600205 18.93359375 3.15625 C21.42851428 6.36550567 21.94219707 7.65725719 21.87109375 11.78125 C20.93359375 15.15625 20.93359375 15.15625 19.30859375 17.09375 C15.58495287 18.75958934 11.92813862 18.67097126 7.99609375 17.65625 C2.34800562 16.28701651 -2.56086861 17.18254548 -8.06640625 18.65625 C-12.99922031 19.95173652 -16.98878286 20.88162477 -22.06640625 20.15625 C-24.62890625 18.09375 -24.62890625 18.09375 -26.06640625 15.15625 C-26.00819193 11.77981951 -25.95419543 9.3207527 -23.86328125 6.578125 C-17.45103557 1.50408712 -7.8849909 0.59621859 0 0 Z " fill="#fff" transform="translate(88.06640625,110.84375)"/>
<path d="M0 0 C2.09679403 2.69587803 1.99510821 4.092944 1.8125 7.5625 C1 11 1 11 -0.0625 12.9375 C-5.04260412 15.66852484 -10.78528976 13.87665018 -15.91796875 12.44921875 C-21.01259797 11.35000231 -25.99965981 11.68728544 -31 13 C-35.35621183 13.47522311 -37.31191326 13.4587245 -41 11 C-43.02770545 7.95844182 -43.34061511 7.31215846 -43.125 3.875 C-42.52852791 0.96377842 -42.20086922 0.18260838 -39.9375 -1.875 C-27.49230771 -6.64124385 -11.83317312 -6.95909723 0 0 Z " fill="#fff" transform="translate(445,115)"/>
</svg>
