<?xml version="1.0" standalone="no"?>
<!DOCTYPE svg PUBLIC "-//W3C//DTD SVG 20010904//EN"
 "http://www.w3.org/TR/2001/REC-SVG-20010904/DTD/svg10.dtd">
<svg version="1.0" xmlns="http://www.w3.org/2000/svg"
 width="512.000000pt" height="512.000000pt" viewBox="0 0 512.000000 512.000000"
 preserveAspectRatio="xMidYMid meet">

<g transform="translate(0.000000,512.000000) scale(0.100000,-0.100000)"
fill="#000000" stroke="none">
<path d="M1375 4749 c-187 -18 -368 -72 -542 -160 -153 -77 -257 -154 -388
-284 -217 -215 -350 -463 -416 -775 -30 -141 -33 -436 -5 -580 25 -131 84
-307 141 -420 107 -214 103 -209 1014 -1123 465 -467 873 -868 906 -892 144
-103 282 -147 465 -149 190 -1 340 45 483 148 34 24 443 426 908 893 915 918
905 906 1016 1127 55 109 114 286 139 416 28 144 25 439 -5 580 -61 289 -193
545 -378 739 -87 91 -120 102 -161 58 -38 -40 -29 -69 49 -154 175 -194 285
-409 341 -666 29 -135 31 -406 5 -540 -38 -189 -111 -366 -218 -529 -54 -81
-170 -201 -903 -936 -894 -897 -903 -904 -1044 -952 -194 -64 -388 -45 -566
58 -48 27 -241 214 -912 886 -773 773 -857 860 -917 952 -106 161 -176 330
-214 521 -25 124 -24 406 0 523 120 569 523 972 1091 1091 133 28 367 31 506
5 252 -45 493 -163 678 -330 107 -97 119 -97 232 7 269 246 684 379 1050 338
188 -22 328 -63 497 -148 84 -42 94 -45 121 -34 42 17 61 64 41 100 -28 51
-232 143 -424 191 -461 117 -961 9 -1326 -285 l-79 -65 -78 63 c-306 247 -708
366 -1107 326z"/>
<path d="M2349 3911 l-24 -19 -5 -419 -5 -420 -27 -35 c-38 -50 -95 -70 -188
-66 -87 3 -97 16 -56 71 43 57 85 159 98 240 43 280 -161 559 -447 608 -181
31 -466 -39 -593 -146 -42 -36 -44 -84 -5 -115 33 -26 65 -22 120 14 99 66
276 111 403 104 327 -19 492 -389 284 -638 -43 -53 -45 -57 -38 -100 4 -25 7
-76 7 -115 0 -38 -3 -90 -7 -115 -7 -43 -5 -47 38 -100 65 -78 89 -145 90
-250 1 -75 -3 -93 -31 -152 -65 -138 -192 -225 -341 -235 -272 -19 -563 156
-687 411 -70 144 -79 196 -79 446 1 244 12 307 79 440 42 84 43 123 3 153 -56
42 -112 -10 -169 -156 -55 -143 -63 -199 -63 -442 0 -242 8 -297 63 -440 131
-340 497 -581 851 -562 268 14 482 203 522 460 20 132 -19 291 -98 394 -13 17
-24 41 -24 52 0 20 6 21 85 21 99 0 149 -19 187 -72 l23 -33 5 -418 5 -419 24
-19 c32 -26 73 -24 100 5 l22 23 -3 429 -3 429 -29 52 c-16 29 -39 62 -52 74
l-23 22 34 40 c19 22 44 65 55 94 19 51 20 78 20 467 l0 413 -23 21 c-29 27
-67 28 -98 3z"/>
<path d="M2670 3910 c-19 -19 -20 -33 -20 -442 l0 -423 29 -60 c15 -33 40 -71
55 -84 l26 -25 -29 -30 c-16 -17 -41 -56 -55 -86 l-26 -55 0 -422 c0 -422 0
-422 22 -443 40 -37 98 -22 117 31 7 21 11 163 11 421 0 432 -1 423 67 475 33
25 46 28 130 31 116 5 121 -3 65 -88 -65 -96 -87 -175 -86 -305 0 -97 3 -118
28 -180 56 -138 145 -235 271 -295 116 -56 236 -73 369 -51 79 13 114 82 65
127 -19 17 -37 19 -153 19 -126 0 -133 1 -197 31 -159 76 -250 223 -236 385 7
82 36 153 94 227 40 51 44 60 37 92 -10 46 -10 185 0 232 8 34 5 41 -33 87
-23 27 -53 75 -68 108 -24 50 -28 70 -28 153 0 82 4 103 27 152 48 104 148
190 257 222 145 43 361 -2 520 -108 136 -91 245 -234 299 -391 27 -79 27 -83
27 -340 l0 -260 -31 -88 c-18 -48 -47 -113 -65 -144 -32 -54 -146 -177 -216
-235 -56 -45 -41 -116 27 -133 36 -9 102 38 197 139 118 125 196 272 227 428
22 108 22 478 0 586 -53 261 -233 494 -476 618 -148 75 -362 111 -500 85 -187
-36 -347 -172 -418 -356 -20 -50 -24 -78 -24 -175 0 -98 4 -124 25 -180 21
-55 53 -112 93 -165 5 -7 6 -20 3 -29 -5 -13 -21 -16 -85 -16 -93 0 -154 25
-189 79 -23 34 -23 35 -23 433 0 331 -3 404 -15 427 -23 46 -80 56 -115 21z"/>
</g>
</svg>
